<?xml version="1.0" encoding="UTF-8"?>
<svg version="1.1" xmlns="http://www.w3.org/2000/svg" width="200" height="200">
<path d="M0 0 C66 0 132 0 200 0 C200 66 200 132 200 200 C134 200 68 200 0 200 C0 134 0 68 0 0 Z " fill="#F9F9F9" transform="translate(0,0)"/>
<path d="M0 0 C66 0 132 0 200 0 C200 13.53 200 27.06 200 41 C134 41 68 41 0 41 C0 27.47 0 13.94 0 0 Z " fill="#FEFEFE" transform="translate(0,159)"/>
<path d="M0 0 C66 0 132 0 200 0 C200 13.53 200 27.06 200 41 C134 41 68 41 0 41 C0 27.47 0 13.94 0 0 Z " fill="#FEFEFE" transform="translate(0,0)"/>
<path d="M0 0 C66 0 132 0 200 0 C200 19.47 200 38.94 200 59 C197.36 59 194.72 59 192 59 C192 42.17 192 25.34 192 8 C131.28 8 70.56 8 8 8 C8 24.83 8 41.66 8 59 C5.36 59 2.72 59 0 59 C0 39.53 0 20.06 0 0 Z " fill="#0A0A0A" transform="translate(0,41)"/>
<path d="M0 0 C2.64 0 5.28 0 8 0 C8 14.52 8 29.04 8 44 C68.72 44 129.44 44 192 44 C192 29.48 192 14.96 192 0 C194.64 0 197.28 0 200 0 C200 17.16 200 34.32 200 52 C134 52 68 52 0 52 C0 34.84 0 17.68 0 0 Z " fill="#0D0D0D" transform="translate(0,107)"/>
<path d="M0 0 C4.60194331 2.64828813 7.92639172 5.99674826 9.5078125 11.12890625 C10.45776555 17.81133458 9.21764974 23.03177247 6.5078125 29.12890625 C7.4978125 29.45890625 8.4878125 29.78890625 9.5078125 30.12890625 C8.8478125 31.77890625 8.1878125 33.42890625 7.5078125 35.12890625 C5.12217173 34.55306193 2.84098466 33.9066303 0.5078125 33.12890625 C-0.8294389 33.78767852 -2.16226285 34.45546535 -3.4921875 35.12890625 C-10.59013675 36.06370508 -15.76373908 35.45446934 -21.4921875 31.12890625 C-26.59377737 25.75155477 -27.97113818 20.91089654 -27.80859375 13.62890625 C-27.15804335 8.48875495 -24.71929564 5.26622599 -20.9296875 1.75390625 C-15.07775417 -2.14738263 -6.55896035 -2.29255197 0 0 Z " fill="#0D0D0D" transform="translate(89.4921875,64.87109375)"/>
<path d="M0 0 C2.31 0 4.62 0 7 0 C9.13857014 4.82277902 11.27475288 9.64660538 13.40869141 14.47143555 C14.13556798 16.11398148 14.86310596 17.75623489 15.59130859 19.39819336 C16.63551445 21.75298413 17.6773678 24.10880314 18.71875 26.46484375 C19.04685669 27.20339096 19.37496338 27.94193817 19.7130127 28.7028656 C22 33.88612829 22 33.88612829 22 35 C19.69 35 17.38 35 15 35 C14.01 32.69 13.02 30.38 12 28 C6.39 27.67 0.78 27.34 -5 27 C-5.66 28.98 -6.32 30.96 -7 33 C-7.33 33.66 -7.66 34.32 -8 35 C-9.98 35 -11.96 35 -14 35 C-13.33728786 30.6834155 -11.8147579 26.91450039 -10.05859375 22.94921875 C-9.6278933 21.96100883 -9.6278933 21.96100883 -9.18849182 20.95283508 C-8.27611147 18.86233508 -7.35692318 16.77491066 -6.4375 14.6875 C-5.81530233 13.26517199 -5.19355266 11.8426479 -4.57226562 10.41992188 C-3.05335398 6.94432338 -1.52833217 3.47146568 0 0 Z " fill="#0E0E0E" transform="translate(155,64)"/>
<path d="M0 0 C2.31 0 4.62 0 7 0 C9.00085915 4.49927237 10.99448144 9.00165399 12.98144531 13.50708008 C13.65849689 15.03953407 14.33752283 16.57111735 15.01855469 18.10180664 C15.99673679 20.30129044 16.96779142 22.50380094 17.9375 24.70703125 C18.24373291 25.39150833 18.54996582 26.07598541 18.86547852 26.78120422 C20.14162698 29.69708333 21 31.78014511 21 35 C19.02 35 17.04 35 15 35 C12 29.25 12 29.25 12 27 C3.585 27.495 3.585 27.495 -5 28 C-6.485 31.465 -6.485 31.465 -8 35 C-10.31 35 -12.62 35 -15 35 C-10.70571229 23.02119745 -5.33754512 11.5405961 0 0 Z " fill="#0E0E0E" transform="translate(38,64)"/>
<path d="M0 0 C2.31 0 4.62 0 7 0 C7.02187378 1.10456543 7.02187378 1.10456543 7.04418945 2.23144531 C7.11871111 5.57149004 7.21535873 8.91053981 7.3125 12.25 C7.33505859 13.40886719 7.35761719 14.56773438 7.38085938 15.76171875 C7.41630859 16.87675781 7.45175781 17.99179688 7.48828125 19.140625 C7.51446533 20.16704102 7.54064941 21.19345703 7.56762695 22.25097656 C8.06021771 25.38286361 8.73269347 26.79760282 11 29 C15.0867612 29.58512555 15.0867612 29.58512555 19 29 C21.68209596 26.85983975 22.86924547 25.6584508 23.54589844 22.25097656 C23.57731934 20.71135254 23.57731934 20.71135254 23.609375 19.140625 C23.64160156 18.02558594 23.67382812 16.91054687 23.70703125 15.76171875 C23.72121094 14.60285156 23.73539063 13.44398437 23.75 12.25 C23.79447266 10.48849609 23.79447266 10.48849609 23.83984375 8.69140625 C23.91050727 5.79420178 23.96322266 2.89780045 24 0 C26.31 0 28.62 0 31 0 C31.11719175 3.83307169 31.18758077 7.66567608 31.25 11.5 C31.30027344 13.11648437 31.30027344 13.11648437 31.3515625 14.765625 C31.43615454 21.70217195 30.74157159 26.11162504 27 32 C23.36420505 35.54711702 20.43370215 36.28578227 15.5 36.5 C10.59971232 36.30691801 7.68771447 35.41113589 4 32 C0.81820091 27.50159439 -0.12651419 23.91118203 -0.09765625 18.45703125 C-0.09443359 17.38388672 -0.09121094 16.31074219 -0.08789062 15.20507812 C-0.07951172 14.08552734 -0.07113281 12.96597656 -0.0625 11.8125 C-0.05798828 10.68134766 -0.05347656 9.55019531 -0.04882812 8.38476562 C-0.03703498 5.58979073 -0.0205765 2.7949218 0 0 Z " fill="#161616" transform="translate(106,64)"/>
<path d="M0 0 C3 2.5 3 2.5 5 5 C5.33 5.33 5.66 5.66 6 6 C6.07226502 7.85287502 6.0838122 9.70833878 6.0625 11.5625 C6.05347656 12.57441406 6.04445313 13.58632812 6.03515625 14.62890625 C6.02355469 15.41136719 6.01195313 16.19382812 6 17 C2.42424104 17 0.94704065 15.91159393 -2 14 C-2.66 15.32 -3.32 16.64 -4 18 C-2.68 19.65 -1.36 21.3 0 23 C-1.54983261 24.54983261 -3.03668378 24.28132961 -5.1875 24.375 C-8.72776423 24.34676823 -10.73443967 23.92820947 -13.5 21.6875 C-17.36862378 17.52872943 -17.34065403 13.88409518 -17.28515625 8.4453125 C-16.87801087 4.95390147 -15.59561409 3.30721252 -13 1 C-8.63930119 -1.64201668 -4.81832702 -1.3656221 0 0 Z " fill="#F5F5F5" transform="translate(86,70)"/>
<path d="M0 0 C12.00763359 -0.60644614 12.00763359 -0.60644614 16.375 2.0625 C18 5 18 5 18 8.625 C16.65591398 13.16129032 16.65591398 13.16129032 14 15 C10.52674819 16.1577506 7.63932552 16.06866652 4 16 C4 18.31 4 20.62 4 23 C2.68 23 1.36 23 0 23 C0 15.41 0 7.82 0 0 Z " fill="#1D1D1D" transform="translate(79,107)"/>
<path d="M0 0 C1.65 0 3.3 0 5 0 C12.48291572 15.74487472 12.48291572 15.74487472 15 23 C13.35 23 11.7 23 10 23 C9.505 20.525 9.505 20.525 9 18 C7.04081032 18.05991406 5.08248471 18.14867138 3.125 18.25 C2.03445312 18.29640625 0.94390625 18.3428125 -0.1796875 18.390625 C-3.1332065 18.68846128 -3.1332065 18.68846128 -4.3828125 21.046875 C-4.58648437 21.69140625 -4.79015625 22.3359375 -5 23 C-6.32 23 -7.64 23 -9 23 C-6.54234965 15.08090444 -3.33181427 7.58014704 0 0 Z " fill="#161616" transform="translate(57,107)"/>
<path d="M0 0 C1.65 0 3.3 0 5 0 C6.12672175 2.39503687 7.25142558 4.7909871 8.375 7.1875 C8.69210938 7.86103516 9.00921875 8.53457031 9.3359375 9.22851562 C14 19.18823242 14 19.18823242 14 23 C12.68 23 11.36 23 10 23 C9.505 20.525 9.505 20.525 9 18 C7.04081032 18.05991406 5.08248471 18.14867138 3.125 18.25 C2.03445312 18.29640625 0.94390625 18.3428125 -0.1796875 18.390625 C-3.1332065 18.68846128 -3.1332065 18.68846128 -4.3828125 21.046875 C-4.58648437 21.69140625 -4.79015625 22.3359375 -5 23 C-6.32 23 -7.64 23 -9 23 C-6.54234965 15.08090444 -3.33181427 7.58014704 0 0 Z " fill="#191919" transform="translate(146,107)"/>
<path d="M0 0 C1.29550781 -0.02126953 1.29550781 -0.02126953 2.6171875 -0.04296875 C5.2491288 0.19890748 6.86480544 0.85766459 9.125 2.1875 C8.465 3.5075 7.805 4.8275 7.125 6.1875 C6.42375 5.836875 5.7225 5.48625 5 5.125 C1.52106684 3.99056527 -0.38724325 4.12600882 -3.875 5.1875 C-5.97264165 6.70644806 -5.97264165 6.70644806 -6.875 9.1875 C-6.75390756 12.63863452 -6.50713135 15.15612779 -4.6875 18.125 C-1.98426937 19.70965244 0.04816802 19.50146245 3.125 19.1875 C5.42730766 18.28918984 5.42730766 18.28918984 7.125 17.1875 C7.785 18.1775 8.445 19.1675 9.125 20.1875 C5.57031541 23.19531003 3.29405729 24.573606 -1.4375 24.3125 C-4.8798911 23.76102082 -6.61845537 22.91206859 -8.875 20.25 C-11.74719358 15.85195358 -12.77326833 12.45018077 -11.875 7.1875 C-8.90175866 2.00651602 -5.85333311 0.04342235 0 0 Z " fill="#151515" transform="translate(32.875,106.8125)"/>
<path d="M0 0 C6.27 0 12.54 0 19 0 C19 1.32 19 2.64 19 4 C16.69 4 14.38 4 12 4 C12 10.27 12 16.54 12 23 C10.68 23 9.36 23 8 23 C8 16.73 8 10.46 8 4 C5.36 4 2.72 4 0 4 C0 2.68 0 1.36 0 0 Z " fill="#070707" transform="translate(115,107)"/>
<path d="M0 0 C1.32 0 2.64 0 4 0 C4 6.27 4 12.54 4 19 C7.96 19 11.92 19 16 19 C16 20.32 16 21.64 16 23 C10.72 23 5.44 23 0 23 C0 15.41 0 7.82 0 0 Z " fill="#131313" transform="translate(168,107)"/>
<path d="M0 0 C8 0 8 0 11 2 C10 3 10 3 6.9375 3.0625 C5.968125 3.041875 4.99875 3.02125 4 3 C4 5.97 4 8.94 4 12 C6.31 12 8.62 12 11 12 C10.67 12.99 10.34 13.98 10 15 C8.02 15 6.04 15 4 15 C4 17.64 4 20.28 4 23 C2.68 23 1.36 23 0 23 C0 15.41 0 7.82 0 0 Z " fill="#060606" transform="translate(79,107)"/>
<path d="M0 0 C1.32 0 2.64 0 4 0 C4 7.59 4 15.18 4 23 C2.68 23 1.36 23 0 23 C0 15.41 0 7.82 0 0 Z " fill="#0B0B0B" transform="translate(104,107)"/>
<path d="M0 0 C3.46692734 3.7971109 4.51061867 8.17724141 6 13 C2.37 13 -1.26 13 -5 13 C-4.22998773 9.14993864 -3.6738858 6.99223427 -1.9375 3.6875 C-1.57527344 2.99011719 -1.21304688 2.29273437 -0.83984375 1.57421875 C-0.56269531 1.05472656 -0.28554688 0.53523438 0 0 Z " fill="#EBEBEB" transform="translate(41,72)"/>
<path d="M0 0 C2.80561393 1.40280696 3.00680507 3.0509005 4.125 5.9375 C4.47820312 6.83339844 4.83140625 7.72929688 5.1953125 8.65234375 C6 11 6 11 6 13 C2.37 13 -1.26 13 -5 13 C-2.05357143 3.89285714 -2.05357143 3.89285714 0 0 Z " fill="#EFEFEF" transform="translate(158,72)"/>
<path d="M0 0 C1.32 0 2.64 0 4 0 C5.98 4.95 7.96 9.9 10 15 C8.35 15 6.7 15 5 15 C4.7525 14.21625 4.505 13.4325 4.25 12.625 C2.84610901 9.67682892 1.99324263 9.0975223 -1 8 C-0.34 7.67 0.32 7.34 1 7 C0.67 4.69 0.34 2.38 0 0 Z " fill="#101010" transform="translate(62,115)"/>
<path d="M0 0 C0.66 0.33 1.32 0.66 2 1 C2 2.32 2 3.64 2 5 C4.64 5 7.28 5 10 5 C10 5.66 10 6.32 10 7 C6.7 7 3.4 7 0 7 C-0.66 8.98 -1.32 10.96 -2 13 C-3.32 13 -4.64 13 -6 13 C-3.10933941 3.40546697 -3.10933941 3.40546697 0 0 Z " fill="#0A0A0A" transform="translate(143,117)"/>
<path d="M0 0 C6.15234375 -0.09765625 6.15234375 -0.09765625 8 0 C9 1 9 1 9.0625 4.0625 C9.041875 5.031875 9.02125 6.00125 9 7 C6.04335481 8.4783226 3.25770263 8.06032783 0 8 C0 5.36 0 2.72 0 0 Z " fill="#F5F5F5" transform="translate(83,111)"/>
<path d="M0 0 C2.375 1 2.375 1 4 2 C3.34 3.32 2.68 4.64 2 6 C1.29875 5.67 0.5975 5.34 -0.125 5 C-3.26003116 3.90955438 -5.70563182 3.84677357 -9 4 C-8.67 3.01 -8.34 2.02 -8 1 C-5.2201184 -0.3899408 -3.0813674 -0.18488204 0 0 Z " fill="#0F0F0F" transform="translate(38,107)"/>
<path d="M0 0 C2 1 2 1 3.125 3.375 C4 6 4 6 4 9 C1.69 9 -0.62 9 -3 9 C-2.01 6.03 -1.02 3.06 0 0 Z " fill="#DFDFDF" transform="translate(148,112)"/>
<path d="M0 0 C2 1 2 1 3.125 3.375 C4 6 4 6 4 9 C1.69 9 -0.62 9 -3 9 C-2.01 6.03 -1.02 3.06 0 0 Z " fill="#DEDEDE" transform="translate(59,112)"/>
<path d="M0 0 C2.64 0 5.28 0 8 0 C8 1.32 8 2.64 8 4 C5.36 4 2.72 4 0 4 C0 2.68 0 1.36 0 0 Z " fill="#181818" transform="translate(115,107)"/>
<path d="M0 0 C2.97 0 5.94 0 9 0 C9 1.32 9 2.64 9 4 C6.69 4 4.38 4 2 4 C1.34 2.68 0.68 1.36 0 0 Z " fill="#0F0F0F" transform="translate(125,107)"/>
<path d="M0 0 C0.66 0.33 1.32 0.66 2 1 C1.34 2.98 0.68 4.96 0 7 C-1.32 7 -2.64 7 -4 7 C-3.6875 4.625 -3.6875 4.625 -3 2 C-2.01 1.34 -1.02 0.68 0 0 Z " fill="#101010" transform="translate(141,123)"/>
<path d="M0 0 C5.61 0 11.22 0 17 0 C17 0.33 17 0.66 17 1 C9.08 1.495 9.08 1.495 1 2 C0.67 2.99 0.34 3.98 0 5 C-0.66 5 -1.32 5 -2 5 C-1.34 3.35 -0.68 1.7 0 0 Z " fill="#E9E9E9" transform="translate(33,91)"/>
<path d="M0 0 C1.5 1.3125 1.5 1.3125 3 3 C3 3.99 3 4.98 3 6 C1.68 6 0.36 6 -1 6 C-0.67 4.02 -0.34 2.04 0 0 Z " fill="#0E0E0E" transform="translate(157,124)"/>
</svg>
