<?xml version="1.0" encoding="UTF-8"?>
<svg version="1.1" xmlns="http://www.w3.org/2000/svg" width="200" height="200">
<path d="M0 0 C66 0 132 0 200 0 C200 66 200 132 200 200 C134 200 68 200 0 200 C0 134 0 68 0 0 Z " fill="#262E3B" transform="translate(0,0)"/>
<path d="M0 0 C1.98 0 3.96 0 6 0 C8.96368451 8.57908674 11.46883507 17.28598951 14 26 C14.176521 25.2479126 14.35304199 24.4958252 14.53491211 23.72094727 C15.3320621 20.33391174 16.13470475 16.94820171 16.9375 13.5625 C17.21529297 12.37849609 17.49308594 11.19449219 17.77929688 9.97460938 C18.04677734 8.84990234 18.31425781 7.72519531 18.58984375 6.56640625 C18.83597412 5.52427979 19.08210449 4.48215332 19.33569336 3.40844727 C20 1 20 1 21 0 C22.99958364 -0.04080783 25.00045254 -0.04254356 27 0 C29.2222778 5.5937907 30.84447643 11.06245785 32.125 16.9375 C32.82109589 21.86107987 32.82109589 21.86107987 35 26 C35.13575439 25.46109131 35.27150879 24.92218262 35.41137695 24.36694336 C36.03918416 21.88892483 36.67577643 19.4132418 37.3125 16.9375 C37.52583984 16.08994141 37.73917969 15.24238281 37.95898438 14.36914062 C39.25945852 9.34193461 40.81885551 4.71408648 43 0 C44.98 0 46.96 0 49 0 C47.64935322 7.92148184 45.42778413 15.43127153 42.9375 23.0625 C42.39125977 24.77083008 42.39125977 24.77083008 41.83398438 26.51367188 C39.13740768 34.86259232 39.13740768 34.86259232 38 36 C35.66702567 36.04092937 33.33294775 36.04241723 31 36 C30.39143674 34.08472476 29.78846126 32.16767412 29.1875 30.25 C28.85105469 29.18265625 28.51460937 28.1153125 28.16796875 27.015625 C26.57310088 21.73271441 25.30994753 16.35902682 24 11 C23.823479 11.72179443 23.64695801 12.44358887 23.46508789 13.18725586 C22.6678734 16.43824463 21.86526165 19.68787675 21.0625 22.9375 C20.78470703 24.07380859 20.50691406 25.21011719 20.22070312 26.38085938 C19.95322266 27.46044922 19.68574219 28.54003906 19.41015625 29.65234375 C19.16402588 30.65257568 18.91789551 31.65280762 18.66430664 32.68334961 C18 35 18 35 17 36 C14.66702567 36.04092937 12.33294775 36.04241723 10 36 C8.70650911 31.97975122 7.4155346 27.95869865 6.125 23.9375 C5.76019531 22.80376953 5.39539063 21.67003906 5.01953125 20.50195312 C4.00460323 17.33722304 2.99825696 14.17002517 2 11 C1.76764648 10.26410645 1.53529297 9.52821289 1.29589844 8.77001953 C0.34591082 5.63271474 0 3.3406763 0 0 Z " fill="#F3F4F6" transform="translate(79,66)"/>
<path d="M0 0 C5.00051987 0.67141249 9.25089584 2.78033353 13.8125 4.8125 C22.41610157 8.53606392 30.83195802 11.11683462 40 13 C40.97582031 13.22429687 41.95164063 13.44859375 42.95703125 13.6796875 C63.56843525 17.88844971 86.51505874 14.7367419 105.88671875 6.8203125 C108.36956981 5.85654407 109.54014321 6.08894193 112 7 C110.31424037 12.0572789 105.40348962 13.77349574 100.828125 16.13330078 C77.93309138 26.98765032 51.39275574 26.82999328 27.72265625 18.90234375 C17.32735999 14.95560965 8.10830005 8.55546141 0 1 C0 0.67 0 0.34 0 0 Z " fill="#E6972E" transform="translate(40,114)"/>
<path d="M0 0 C4.18580577 3.87187034 5.64484981 6.79383557 5.9765625 12.47265625 C6.04005825 14.43970169 6.08910632 16.40725735 6.125 18.375 C6.17613945 20.34514738 6.23069372 22.3152098 6.2890625 24.28515625 C6.30662598 25.15406494 6.32418945 26.02297363 6.34228516 26.91821289 C6.41305932 29.30780151 6.41305932 29.30780151 7.13818359 31.50170898 C7.25758301 32.09927002 7.37698242 32.69683105 7.5 33.3125 C6.84 33.9725 6.18 34.6325 5.5 35.3125 C2.20285207 34.98278521 0.8773161 34.6898161 -1.5 32.3125 C-2.098125 32.786875 -2.69625 33.26125 -3.3125 33.75 C-7.89775833 37.02518452 -13.0682332 37.04886392 -18.5 36.3125 C-21.70679511 34.28371126 -22.98265457 32.80056347 -24.2265625 29.22265625 C-24.92739169 25.74820646 -25.07994616 23.37376202 -23.3515625 20.2109375 C-20.69206887 16.93044535 -18.76635586 14.97133462 -14.5 14.3125 C-13.00210258 14.22283713 -11.50056979 14.18236106 -10 14.1875 C-9.2471875 14.18492188 -8.494375 14.18234375 -7.71875 14.1796875 C-5.526465 14.31091583 -3.60680863 14.70918662 -1.5 15.3125 C-1.78127421 13.83132199 -2.07533732 12.35256751 -2.375 10.875 C-2.53742188 10.05128906 -2.69984375 9.22757813 -2.8671875 8.37890625 C-3.18042969 7.35603516 -3.18042969 7.35603516 -3.5 6.3125 C-8.56932075 3.77783963 -16.15450281 5.18713217 -21.5 6.3125 C-21.5 4.6625 -21.5 3.0125 -21.5 1.3125 C-14.55226611 -2.39295808 -7.26863501 -3.50452045 0 0 Z " fill="#F1F3F4" transform="translate(69.5,66.6875)"/>
<path d="M0 0 C0 1.65 0 3.3 0 5 C-0.53238281 4.83757812 -1.06476563 4.67515625 -1.61328125 4.5078125 C-4.51677413 3.89004806 -7.22031678 3.86777178 -10.1875 3.875 C-11.25355469 3.87242188 -12.31960937 3.86984375 -13.41796875 3.8671875 C-15.93069348 3.70741028 -15.93069348 3.70741028 -17 5 C-17.04063832 6.66617115 -17.042721 8.33388095 -17 10 C-15.95199219 10.39832031 -14.90398437 10.79664062 -13.82421875 11.20703125 C-12.44515121 11.74177173 -11.06625377 12.27695102 -9.6875 12.8125 C-8.99720703 13.07353516 -8.30691406 13.33457031 -7.59570312 13.60351562 C-0.78865921 16.2671415 -0.78865921 16.2671415 1 19 C1.68955439 22.39030911 1.59693351 25.59747901 1 29 C-1.19022918 31.82424288 -2.83017207 33.41508603 -6 35 C-8.47178874 35.12445775 -10.90311169 35.1851592 -13.375 35.1875 C-14.38433594 35.20586914 -14.38433594 35.20586914 -15.4140625 35.22460938 C-19.11861843 35.23554802 -21.85490643 35.04027865 -25 33 C-25 31.35 -25 29.7 -25 28 C-24.195625 28.165 -23.39125 28.33 -22.5625 28.5 C-16.66917807 29.3271329 -11.30753635 30.0380242 -6 27 C-5.86559222 24.57080135 -5.86559222 24.57080135 -7 22 C-9.53289048 20.61567561 -12.25765029 19.87393562 -15 19 C-22.20721554 15.73635523 -22.20721554 15.73635523 -24 13 C-25.3902076 8.09338492 -25.3902076 8.09338492 -25 5 C-19.06163012 -5.31816427 -9.70524464 -4.15939056 0 0 Z " fill="#F1F3F4" transform="translate(156,68)"/>
<path d="M0 0 C5.33852794 -0.0494731 10.67692214 -0.08575425 16.015625 -0.10986328 C17.83140386 -0.11991491 19.64716656 -0.13355828 21.46289062 -0.15087891 C24.07425935 -0.17516406 26.68541387 -0.18649148 29.296875 -0.1953125 C30.10743347 -0.20563507 30.91799194 -0.21595764 31.75311279 -0.22659302 C38.71585532 -0.22797609 38.71585532 -0.22797609 42 2 C40.875 3.5 40.875 3.5 39 5 C35.8125 5.1875 35.8125 5.1875 33 5 C33 5.66 33 6.32 33 7 C29.04173069 7.05880857 25.08357608 7.09386513 21.125 7.125 C19.46210937 7.15013672 19.46210937 7.15013672 17.765625 7.17578125 C0.56520091 7.27696022 0.56520091 7.27696022 -3.77294922 3.42626953 C-4.17787598 2.95560059 -4.58280273 2.48493164 -5 2 C-2.525 2.495 -2.525 2.495 0 3 C0 2.01 0 1.02 0 0 Z " fill="#F8981B" transform="translate(82,130)"/>
<path d="M0 0 C1.1446875 -0.01417969 2.289375 -0.02835937 3.46875 -0.04296875 C6.5 0.1875 6.5 0.1875 9.5 2.1875 C9.170254 9.31001366 7.78335158 15.42780725 2.9921875 20.9140625 C1.5 22.1875 1.5 22.1875 -0.5 22.1875 C-0.2834375 21.53523438 -0.066875 20.88296875 0.15625 20.2109375 C0.4346875 19.33695313 0.713125 18.46296875 1 17.5625 C1.2784375 16.70398438 1.556875 15.84546875 1.84375 14.9609375 C2.73026146 11.6893747 2.73026146 11.6893747 2.5 6.1875 C-2.78 5.8575 -8.06 5.5275 -13.5 5.1875 C-8.61960081 0.30710081 -6.59023053 0.03710715 0 0 Z " fill="#E49734" transform="translate(153.5,110.8125)"/>
<path d="M0 0 C1.31677734 0.00966797 1.31677734 0.00966797 2.66015625 0.01953125 C4.9375 0.1875 4.9375 0.1875 6.9375 1.1875 C7.24609658 4.58206234 7.32470463 6.56460559 5.5 9.5 C1.91348454 11.86185164 -1.78161278 12.43542783 -6.0625 12.1875 C-8.38778287 9.86221713 -8.35761025 9.34084102 -8.375 6.1875 C-8.39175781 5.48625 -8.40851562 4.785 -8.42578125 4.0625 C-8.30589844 3.44375 -8.18601563 2.825 -8.0625 2.1875 C-4.79122414 0.00664943 -3.78873277 -0.06137859 0 0 Z " fill="#2D333E" transform="translate(61.0625,85.8125)"/>
<path d="M0 0 C2.97953359 0.14017826 5.95849304 0.28686342 8.9375 0.4375 C9.78763672 0.47681641 10.63777344 0.51613281 11.51367188 0.55664062 C12.32255859 0.59853516 13.13144531 0.64042969 13.96484375 0.68359375 C15.08814087 0.73858032 15.08814087 0.73858032 16.23413086 0.79467773 C18 1 18 1 19 2 C19.76160395 7.94051083 17.34956876 12.69249199 15 18 C16.65 17.01 18.3 16.02 20 15 C19.01 17.475 19.01 17.475 18 20 C16.68 20 15.36 20 14 20 C14.33 16.7 14.66 13.4 15 10 C13.35 10.33 11.7 10.66 10 11 C10.495 10.54625 10.99 10.0925 11.5 9.625 C13.22609337 8.12364481 13.22609337 8.12364481 13 6 C9.31733897 6.59950296 5.65456815 7.24758891 2 8 C2.66 7.01 3.32 6.02 4 5 C2.68 4.34 1.36 3.68 0 3 C0 2.01 0 1.02 0 0 Z " fill="#393025" transform="translate(138,115)"/>
<path d="M0 0 C0.89203125 0.01804687 1.7840625 0.03609375 2.703125 0.0546875 C3.71632813 0.08949219 3.71632813 0.08949219 4.75 0.125 C-4.67224922 5.09612045 -15.62638793 5.32059943 -26.0625 5.3125 C-26.93036133 5.31314453 -27.79822266 5.31378906 -28.69238281 5.31445312 C-35.35517402 5.25990106 -41.74026443 4.60689102 -48.25 3.125 C-48.25 2.795 -48.25 2.465 -48.25 2.125 C-47.08952148 2.13547363 -45.92904297 2.14594727 -44.73339844 2.15673828 C-40.42467335 2.19295983 -36.11596171 2.21590836 -31.80712891 2.23486328 C-29.94284806 2.24491593 -28.07858297 2.25856005 -26.21435547 2.27587891 C-23.53348909 2.30015953 -20.85283134 2.31149047 -18.171875 2.3203125 C-16.92322662 2.33579636 -16.92322662 2.33579636 -15.64935303 2.35159302 C-9.92055067 2.35270179 -5.58850829 -0.14706601 0 0 Z " fill="#584022" transform="translate(128.25,124.875)"/>
<path d="M0 0 C1.1446875 -0.01417969 2.289375 -0.02835937 3.46875 -0.04296875 C6.5 0.1875 6.5 0.1875 9.5 2.1875 C9.17 5.1575 8.84 8.1275 8.5 11.1875 C8.17 11.1875 7.84 11.1875 7.5 11.1875 C7.5 8.2175 7.5 5.2475 7.5 2.1875 C5.19 2.1875 2.88 2.1875 0.5 2.1875 C0.5 3.1775 0.5 4.1675 0.5 5.1875 C-4.12 5.1875 -8.74 5.1875 -13.5 5.1875 C-8.61960081 0.30710081 -6.59023053 0.03710715 0 0 Z " fill="#D69139" transform="translate(153.5,110.8125)"/>
<path d="M0 0 C0.66 0.33 1.32 0.66 2 1 C2.6319296 7.00333124 0.37544123 11.63404795 -2 17 C-0.35 16.01 1.3 15.02 3 14 C2.34 15.65 1.68 17.3 1 19 C-0.32 19 -1.64 19 -3 19 C-2.67 15.7 -2.34 12.4 -2 9 C-3.65 9.33 -5.3 9.66 -7 10 C-6.505 9.54625 -6.01 9.0925 -5.5 8.625 C-3.77390663 7.12364481 -3.77390663 7.12364481 -4 5 C-5.65 5 -7.3 5 -9 5 C-9 4.34 -9 3.68 -9 3 C-7.02 3 -5.04 3 -3 3 C-2.67 4.65 -2.34 6.3 -2 8 C-1.34 8 -0.68 8 0 8 C0 5.36 0 2.72 0 0 Z " fill="#463320" transform="translate(155,116)"/>
<path d="M0 0 C-1.25125384 3.75376152 -2.5652404 4.24073289 -6 6 C-6.66 6 -7.32 6 -8 6 C-8 5.34 -8 4.68 -8 4 C-8.58007812 4.144375 -9.16015625 4.28875 -9.7578125 4.4375 C-14.26659675 5.50889428 -18.33054247 6.23945936 -23 6 C-19.32533812 4.00330873 -15.44657508 2.65740083 -11.5 1.3125 C-10.83613281 1.07466797 -10.17226562 0.83683594 -9.48828125 0.59179688 C-3.46442227 -1.45823897 -3.46442227 -1.45823897 0 0 Z " fill="#DC942F" transform="translate(152,121)"/>
<path d="M0 0 C3.94949704 0.62816498 7.19892028 1.8645529 10.8125 3.5625 C12.27623047 4.24505859 12.27623047 4.24505859 13.76953125 4.94140625 C14.87361328 5.46541016 14.87361328 5.46541016 16 6 C14.68 6.33 13.36 6.66 12 7 C12.33 7.99 12.66 8.98 13 10 C7.65978754 8.49806525 3.86352256 4.82517494 0 1 C0 0.67 0 0.34 0 0 Z " fill="#DB963B" transform="translate(40,114)"/>
<path d="M0 0 C2.31 0.33 4.62 0.66 7 1 C7 1.66 7 2.32 7 3 C8.65 2.67 10.3 2.34 12 2 C12 3.32 12 4.64 12 6 C10.6078125 5.505 10.6078125 5.505 9.1875 5 C6.07970709 3.85032996 6.07970709 3.85032996 3 4 C3.99 5.485 3.99 5.485 5 7 C2.03 6.505 2.03 6.505 -1 6 C-1 6.66 -1 7.32 -1 8 C-1.99 8 -2.98 8 -4 8 C-3.67 7.01 -3.34 6.02 -3 5 C-2.34 4.67 -1.68 4.34 -1 4 C-0.34786708 1.97536745 -0.34786708 1.97536745 0 0 Z " fill="#342E28" transform="translate(39,112)"/>
<path d="M0 0 C0 0.66 0 1.32 0 2 C-1.98 2 -3.96 2 -6 2 C-6 2.66 -6 3.32 -6 4 C-14.58 4 -23.16 4 -32 4 C-32 3.67 -32 3.34 -32 3 C-30.22496094 2.92652344 -30.22496094 2.92652344 -28.4140625 2.8515625 C-17.08974137 2.36422607 -17.08974137 2.36422607 -5.9453125 0.40234375 C-4 0 -4 0 0 0 Z " fill="#563F23" transform="translate(128,135)"/>
<path d="M0 0 C0.66 0.33 1.32 0.66 2 1 C1.40075776 5.19469571 0.42500059 9.00999834 -1 13 C-3.56616632 9.15075052 -3.55097676 6.5650696 -4 2 C-2.125 0.9375 -2.125 0.9375 0 0 Z " fill="#3A4048" transform="translate(115,81)"/>
<path d="M0 0 C5.9358906 0.33425403 9.89450035 0.85815406 15 4 C17.98805988 4.54374559 20.97062485 4.80860157 24 5 C24 5.66 24 6.32 24 7 C15.35849242 6.78097561 7.9665934 4.11087437 0 1 C0 0.67 0 0.34 0 0 Z " fill="#49371E" transform="translate(56,120)"/>
<path d="M0 0 C0.33 0.66 0.66 1.32 1 2 C0.01 2.495 0.01 2.495 -1 3 C-1.33 3.99 -1.66 4.98 -2 6 C-3.8125 8.25 -3.8125 8.25 -6 10 C-8.39788436 9.78842197 -9.85584361 9.07207819 -12 8 C-12 7.34 -12 6.68 -12 6 C-8.04 4.02 -4.08 2.04 0 0 Z " fill="#3B3128" transform="translate(146,126)"/>
<path d="M0 0 C5.2676092 0.47887356 5.96314468 0.96314468 10 5 C5.38 5 0.76 5 -4 5 C-2.68 3.35 -1.36 1.7 0 0 Z " fill="#322F30" transform="translate(44,121)"/>
<path d="M0 0 C3.3 0 6.6 0 10 0 C10 2.31 10 4.62 10 7 C9.34 7 8.68 7 8 7 C7.67 5.68 7.34 4.36 7 3 C4.36 3 1.72 3 -1 3 C-0.67 2.01 -0.34 1.02 0 0 Z " fill="#262D39" transform="translate(145,117)"/>
<path d="M0 0 C2.31 0 4.62 0 7 0 C7 2.97 7 5.94 7 9 C6.34 9 5.68 9 5 9 C4.731875 8.030625 4.46375 7.06125 4.1875 6.0625 C3.795625 5.051875 3.40375 4.04125 3 3 C2.01 2.67 1.02 2.34 0 2 C0 1.34 0 0.68 0 0 Z " fill="#F8971B" transform="translate(154,113)"/>
<path d="M0 0 C0.33 1.32 0.66 2.64 1 4 C1.66 4 2.32 4 3 4 C1.48601545 7.78496138 0.9855604 8.0072198 -3 10 C-2.01 6.7 -1.02 3.4 0 0 Z " fill="#CF913D" transform="translate(156,123)"/>
<path d="M0 0 C-2.62890497 1.39073768 -5.12122047 2.43969204 -8 3.1875 C-8.66 3.36667969 -9.32 3.54585937 -10 3.73046875 C-12.26540976 4.03576811 -13.835092 3.68136613 -16 3 C-10.62669111 -0.39366878 -6.13053511 -0.32712342 0 0 Z " fill="#4D381D" transform="translate(133,125)"/>
<path d="M0 0 C-0.33 0.99 -0.66 1.98 -1 3 C-1.66 3 -2.32 3 -3 3 C-3 2.34 -3 1.68 -3 1 C-3.7425 1.350625 -4.485 1.70125 -5.25 2.0625 C-8.21122875 3.0720098 -9.12062561 2.87980884 -12 2 C-10.75579353 1.4654744 -9.50429064 0.94791389 -8.25 0.4375 C-7.55390625 0.14746094 -6.8578125 -0.14257812 -6.140625 -0.44140625 C-3.69987216 -1.07831803 -2.3596345 -0.80248831 0 0 Z " fill="#CB8D3F" transform="translate(152,121)"/>
<path d="M0 0 C2.97 0 5.94 0 9 0 C6.48300155 2.51699845 4.42445854 3.10964078 1 4 C-1.375 3.625 -1.375 3.625 -3 3 C-2.01 2.67 -1.02 2.34 0 2 C0 1.34 0 0.68 0 0 Z " fill="#DD9335" transform="translate(127,131)"/>
<path d="M0 0 C1.98 0 3.96 0 6 0 C6 0.66 6 1.32 6 2 C7.65 1.67 9.3 1.34 11 1 C11 2.32 11 3.64 11 5 C7.27566618 3.7874262 3.62197194 2.49140021 0 1 C0 0.67 0 0.34 0 0 Z " fill="#503D25" transform="translate(40,113)"/>
<path d="M0 0 C0.598125 0.20625 1.19625 0.4125 1.8125 0.625 C0.8125 3.625 0.8125 3.625 -0.1875 4.625 C-0.8475 4.625 -1.5075 4.625 -2.1875 4.625 C-2.8475 5.285 -3.5075 5.945 -4.1875 6.625 C-4.5175 4.975 -4.8475 3.325 -5.1875 1.625 C-2.1875 -0.375 -2.1875 -0.375 0 0 Z " fill="#343D47" transform="translate(77.1875,65.375)"/>
<path d="M0 0 C2.475 0.495 2.475 0.495 5 1 C4.25 7.625 4.25 7.625 2 11 C2.03480469 10.06027344 2.03480469 10.06027344 2.0703125 9.1015625 C2.08835938 8.28429687 2.10640625 7.46703125 2.125 6.625 C2.14820313 5.81289062 2.17140625 5.00078125 2.1953125 4.1640625 C2.21370051 1.78657757 2.21370051 1.78657757 0 0 Z " fill="#3E3327" transform="translate(160,111)"/>
<path d="M0 0 C1.4540625 0.0309375 1.4540625 0.0309375 2.9375 0.0625 C2.2775 1.3825 1.6175 2.7025 0.9375 4.0625 C-0.0525 4.0625 -1.0425 4.0625 -2.0625 4.0625 C-2.0625 3.4025 -2.0625 2.7425 -2.0625 2.0625 C-2.7225 1.7325 -3.3825 1.4025 -4.0625 1.0625 C-3.0625 0.0625 -3.0625 0.0625 0 0 Z " fill="#FA991A" transform="translate(70.0625,126.9375)"/>
<path d="M0 0 C0.7425 0.0825 1.485 0.165 2.25 0.25 C2.25 0.91 2.25 1.57 2.25 2.25 C0.93 2.25 -0.39 2.25 -1.75 2.25 C-1.75 2.91 -1.75 3.57 -1.75 4.25 C-3.4 4.25 -5.05 4.25 -6.75 4.25 C-3.42692308 0.31153846 -3.42692308 0.31153846 0 0 Z " fill="#F7981C" transform="translate(141.75,124.75)"/>
<path d="M0 0 C2 3 2 3 2 6 C0.68 6.33 -0.64 6.66 -2 7 C-1.125 1.125 -1.125 1.125 0 0 Z " fill="#4B4F54" transform="translate(103,76)"/>
</svg>
