<?xml version="1.0" encoding="UTF-8"?>
<svg version="1.1" xmlns="http://www.w3.org/2000/svg" width="200" height="200">
<path d="M0 0 C66 0 132 0 200 0 C200 66 200 132 200 200 C134 200 68 200 0 200 C0 134 0 68 0 0 Z " fill="#FEFEFE" transform="translate(0,0)"/>
<path d="M0 0 C1.4550293 0.01353516 1.4550293 0.01353516 2.93945312 0.02734375 C5.31406407 0.05073893 7.68814776 0.08351824 10.0625 0.125 C10.0625 0.785 10.0625 1.445 10.0625 2.125 C11.7125 2.125 13.3625 2.125 15.0625 2.125 C15.0625 2.785 15.0625 3.445 15.0625 4.125 C17.3725 4.125 19.6825 4.125 22.0625 4.125 C22.0625 5.115 22.0625 6.105 22.0625 7.125 C22.7225 7.125 23.3825 7.125 24.0625 7.125 C24.0625 20.655 24.0625 34.185 24.0625 48.125 C23.4025 48.125 22.7425 48.125 22.0625 48.125 C22.0625 47.465 22.0625 46.805 22.0625 46.125 C21.4025 46.125 20.7425 46.125 20.0625 46.125 C20.0625 45.465 20.0625 44.805 20.0625 44.125 C19.4025 44.125 18.7425 44.125 18.0625 44.125 C18.0625 43.465 18.0625 42.805 18.0625 42.125 C17.0725 42.125 16.0825 42.125 15.0625 42.125 C15.0625 41.465 15.0625 40.805 15.0625 40.125 C13.7425 40.125 12.4225 40.125 11.0625 40.125 C11.0625 39.465 11.0625 38.805 11.0625 38.125 C9.7425 38.125 8.4225 38.125 7.0625 38.125 C7.0625 37.465 7.0625 36.805 7.0625 36.125 C3.4325 36.125 -0.1975 36.125 -3.9375 36.125 C-3.9375 36.785 -3.9375 37.445 -3.9375 38.125 C-5.2575 38.125 -6.5775 38.125 -7.9375 38.125 C-7.9375 38.785 -7.9375 39.445 -7.9375 40.125 C-9.2575 40.125 -10.5775 40.125 -11.9375 40.125 C-11.9375 40.785 -11.9375 41.445 -11.9375 42.125 C-12.5975 42.125 -13.2575 42.125 -13.9375 42.125 C-13.9375 42.785 -13.9375 43.445 -13.9375 44.125 C-14.5975 44.125 -15.2575 44.125 -15.9375 44.125 C-15.9375 44.785 -15.9375 45.445 -15.9375 46.125 C-16.5975 46.125 -17.2575 46.125 -17.9375 46.125 C-17.9375 46.785 -17.9375 47.445 -17.9375 48.125 C-18.5975 48.125 -19.2575 48.125 -19.9375 48.125 C-20.86276485 52.07572759 -21.08938853 55.78968694 -21.14282227 59.84301758 C-21.15767166 60.82434662 -21.15767166 60.82434662 -21.17282104 61.82550049 C-21.20423914 63.97347478 -21.22911492 66.12147113 -21.25390625 68.26953125 C-21.27449282 69.76454725 -21.29548973 71.25955765 -21.31687927 72.75456238 C-21.37192415 76.67865448 -21.42141053 80.60279758 -21.46972656 84.52697754 C-21.52007044 88.53560901 -21.57568907 92.54416694 -21.63085938 96.55273438 C-21.73822571 104.41009561 -21.83923015 112.26751973 -21.9375 120.125 C-30.5175 120.125 -39.0975 120.125 -47.9375 120.125 C-47.9375 90.425 -47.9375 60.725 -47.9375 30.125 C-47.2775 30.125 -46.6175 30.125 -45.9375 30.125 C-45.9375 28.475 -45.9375 26.825 -45.9375 25.125 C-45.2775 25.125 -44.6175 25.125 -43.9375 25.125 C-43.9375 23.805 -43.9375 22.485 -43.9375 21.125 C-42.9475 21.125 -41.9575 21.125 -40.9375 21.125 C-40.9375 20.465 -40.9375 19.805 -40.9375 19.125 C-40.2775 19.125 -39.6175 19.125 -38.9375 19.125 C-38.9375 17.805 -38.9375 16.485 -38.9375 15.125 C-38.2775 15.125 -37.6175 15.125 -36.9375 15.125 C-36.9375 14.465 -36.9375 13.805 -36.9375 13.125 C-36.2775 13.125 -35.6175 13.125 -34.9375 13.125 C-34.9375 12.465 -34.9375 11.805 -34.9375 11.125 C-33.6175 10.795 -32.2975 10.465 -30.9375 10.125 C-30.9375 9.465 -30.9375 8.805 -30.9375 8.125 C-30.2775 8.125 -29.6175 8.125 -28.9375 8.125 C-28.9375 7.465 -28.9375 6.805 -28.9375 6.125 C-27.6175 6.125 -26.2975 6.125 -24.9375 6.125 C-24.9375 5.465 -24.9375 4.805 -24.9375 4.125 C-22.6275 4.125 -20.3175 4.125 -17.9375 4.125 C-17.9375 3.465 -17.9375 2.805 -17.9375 2.125 C-11.8759737 -0.01040594 -6.38873306 -0.11353866 0 0 Z " fill="#838383" transform="translate(51.9375,38.875)"/>
<path d="M0 0 C5.61 0 11.22 0 17 0 C17 0.66 17 1.32 17 2 C18.32 2 19.64 2 21 2 C21 2.66 21 3.32 21 4 C21.66 4 22.32 4 23 4 C23 4.66 23 5.32 23 6 C23.99 6 24.98 6 26 6 C26 6.66 26 7.32 26 8 C26.66 8 27.32 8 28 8 C28 9.32 28 10.64 28 12 C28.66 12 29.32 12 30 12 C30 12.99 30 13.98 30 15 C30.66 15 31.32 15 32 15 C32.4485551 23.17367067 32.40744316 28.97563746 28 36 C27.34 36 26.68 36 26 36 C25.67 37.32 25.34 38.64 25 40 C23.68 40 22.36 40 21 40 C21 40.66 21 41.32 21 42 C20.34 42 19.68 42 19 42 C19 42.66 19 43.32 19 44 C12.73 44 6.46 44 0 44 C0 43.34 0 42.68 0 42 C-1.32 42 -2.64 42 -4 42 C-4 41.34 -4 40.68 -4 40 C-5.32 40 -6.64 40 -8 40 C-8 38.68 -8 37.36 -8 36 C-8.66 36 -9.32 36 -10 36 C-10 35.01 -10 34.02 -10 33 C-10.66 33 -11.32 33 -12 33 C-12 31.68 -12 30.36 -12 29 C-12.66 29 -13.32 29 -14 29 C-14.05428973 26.77110504 -14.09292338 24.54182529 -14.125 22.3125 C-14.15980469 20.45044922 -14.15980469 20.45044922 -14.1953125 18.55078125 C-14.01032021 15.18762143 -13.45767895 13.0014413 -12 10 C-11.34 10 -10.68 10 -10 10 C-10 9.34 -10 8.68 -10 8 C-9.34 8 -8.68 8 -8 8 C-8 7.34 -8 6.68 -8 6 C-7.34 6 -6.68 6 -6 6 C-6 5.34 -6 4.68 -6 4 C-5.34 4 -4.68 4 -4 4 C-4 3.34 -4 2.68 -4 2 C-2.68 2 -1.36 2 0 2 C0 1.34 0 0.68 0 0 Z " fill="#FB0202" transform="translate(46,100)"/>
<path d="M0 0 C1.32 0 2.64 0 4 0 C4 0.66 4 1.32 4 2 C4.99 2 5.98 2 7 2 C7.66 3.98 8.32 5.96 9 8 C9.66 8 10.32 8 11 8 C11 9.32 11 10.64 11 12 C11.66 12 12.32 12 13 12 C13 8.04 13 4.08 13 0 C14.32 0 15.64 0 17 0 C17 6.93 17 13.86 17 21 C15.68 21 14.36 21 13 21 C13 20.34 13 19.68 13 19 C12.34 19 11.68 19 11 19 C10.319375 17.5459375 10.319375 17.5459375 9.625 16.0625 C8.34213779 12.92920418 8.34213779 12.92920418 6 12 C5.67 14.97 5.34 17.94 5 21 C3.35 21 1.7 21 0 21 C0 14.07 0 7.14 0 0 Z " fill="#8F8F8F" transform="translate(103,138)"/>
<path d="M0 0 C1.32 0 2.64 0 4 0 C4 0.66 4 1.32 4 2 C4.66 2 5.32 2 6 2 C6 3.32 6 4.64 6 6 C6.99 6 7.98 6 9 6 C9 6.66 9 7.32 9 8 C9.66 8 10.32 8 11 8 C11.33 5.36 11.66 2.72 12 0 C13.65 0 15.3 0 17 0 C17 6.93 17 13.86 17 21 C15.68 21 14.36 21 13 21 C13 20.34 13 19.68 13 19 C12.34 19 11.68 19 11 19 C11 18.34 11 17.68 11 17 C10.01 17 9.02 17 8 17 C8 15.68 8 14.36 8 13 C7.34 13 6.68 13 6 13 C6 11.35 6 9.7 6 8 C5.34 8 4.68 8 4 8 C4 12.29 4 16.58 4 21 C2.68 21 1.36 21 0 21 C0 14.07 0 7.14 0 0 Z " fill="#B4B4B4" transform="translate(141,138)"/>
<path d="M0 0 C4.29 0 8.58 0 13 0 C13 1.32 13 2.64 13 4 C10.03 4 7.06 4 4 4 C4 5.32 4 6.64 4 8 C6.97 8 9.94 8 13 8 C13 9.32 13 10.64 13 12 C10.03 12 7.06 12 4 12 C4 13.65 4 15.3 4 17 C7.63 17 11.26 17 15 17 C15 18.32 15 19.64 15 21 C10.05 21 5.1 21 0 21 C0 14.07 0 7.14 0 0 Z " fill="#858585" transform="translate(124,138)"/>
<path d="M0 0 C2.97 0 5.94 0 9 0 C9 0.66 9 1.32 9 2 C9.66 2 10.32 2 11 2 C11 3.32 11 4.64 11 6 C9.68 6 8.36 6 7 6 C7 5.34 7 4.68 7 4 C4.69 4 2.38 4 0 4 C0 4.66 0 5.32 0 6 C-0.66 6 -1.32 6 -2 6 C-2 8.97 -2 11.94 -2 15 C-1.34 15 -0.68 15 0 15 C0 15.66 0 16.32 0 17 C2.97 17 5.94 17 9 17 C9 15.35 9 13.7 9 12 C7.35 12 5.7 12 4 12 C4 11.34 4 10.68 4 10 C6.97 10 9.94 10 13 10 C13 12.97 13 15.94 13 19 C11.68 19 10.36 19 9 19 C9 19.66 9 20.32 9 21 C6.03 21 3.06 21 0 21 C0 20.34 0 19.68 0 19 C-1.32 19 -2.64 19 -4 19 C-4 17.35 -4 15.7 -4 14 C-4.66 14 -5.32 14 -6 14 C-6 11.36 -6 8.72 -6 6 C-5.34 6 -4.68 6 -4 6 C-4 4.68 -4 3.36 -4 2 C-2.68 2 -1.36 2 0 2 C0 1.34 0 0.68 0 0 Z " fill="#9B9B9B" transform="translate(166,138)"/>
<path d="M0 0 C4.29 0 8.58 0 13 0 C13 1.32 13 2.64 13 4 C9.37 4 5.74 4 2 4 C2 5.32 2 6.64 2 8 C5.63 8 9.26 8 13 8 C13 9.32 13 10.64 13 12 C8.545 12.495 8.545 12.495 4 13 C3.67 13.99 3.34 14.98 3 16 C6.3 16 9.6 16 13 16 C13 17.32 13 18.64 13 20 C8.71 20 4.42 20 0 20 C0 13.4 0 6.8 0 0 Z " fill="#989898" transform="translate(183,138)"/>
<path d="M0 0 C5.61 0 11.22 0 17 0 C17 0.66 17 1.32 17 2 C18.32 2 19.64 2 21 2 C21 2.66 21 3.32 21 4 C21.66 4 22.32 4 23 4 C23 4.66 23 5.32 23 6 C23.99 6 24.98 6 26 6 C26 6.66 26 7.32 26 8 C26.66 8 27.32 8 28 8 C28 9.32 28 10.64 28 12 C28.66 12 29.32 12 30 12 C30 12.99 30 13.98 30 15 C30.66 15 31.32 15 32 15 C32.4485551 23.17367067 32.40744316 28.97563746 28 36 C27.34 36 26.68 36 26 36 C25.67 37.32 25.34 38.64 25 40 C23.68 40 22.36 40 21 40 C21 40.66 21 41.32 21 42 C20.34 42 19.68 42 19 42 C19 42.66 19 43.32 19 44 C12.73 44 6.46 44 0 44 C0 43.34 0 42.68 0 42 C4.95 42.33 9.9 42.66 15 43 C15 42.01 15 41.02 15 40 C15.56589844 39.89042969 16.13179687 39.78085938 16.71484375 39.66796875 C17.81505859 39.43013672 17.81505859 39.43013672 18.9375 39.1875 C19.66839844 39.03667969 20.39929688 38.88585937 21.15234375 38.73046875 C21.76207031 38.48941406 22.37179688 38.24835938 23 38 C23.33 37.01 23.66 36.02 24 35 C24.99 35 25.98 35 27 35 C27 32.69 27 30.38 27 28 C27.33 28 27.66 28 28 28 C28 23.05 28 18.1 28 13 C27.34 13 26.68 13 26 13 C25.67 11.02 25.34 9.04 25 7 C24.01 7 23.02 7 22 7 C22 6.34 22 5.68 22 5 C21.05125 4.855625 20.1025 4.71125 19.125 4.5625 C16 4 16 4 14 3 C14 2.34 14 1.68 14 1 C9.38 1.33 4.76 1.66 0 2 C0 1.34 0 0.68 0 0 Z " fill="#EB4244" transform="translate(46,100)"/>
<path d="M0 0 C4.29 0 8.58 0 13 0 C13 1.32 13 2.64 13 4 C10.03 4 7.06 4 4 4 C4 5.32 4 6.64 4 8 C6.64 8 9.28 8 12 8 C12 9.32 12 10.64 12 12 C9.36 12 6.72 12 4 12 C4 14.97 4 17.94 4 21 C2.68 21 1.36 21 0 21 C0 14.07 0 7.14 0 0 Z " fill="#868686" transform="translate(80,138)"/>
<path d="M0 0 C2.31 0 4.62 0 7 0 C7 0.66 7 1.32 7 2 C8.32 2 9.64 2 11 2 C11 2.66 11 3.32 11 4 C11.66 4 12.32 4 13 4 C13 4.66 13 5.32 13 6 C10.03 6 7.06 6 4 6 C4 6.66 4 7.32 4 8 C5.65 8 7.3 8 9 8 C9 9.65 9 11.3 9 13 C6.03 13 3.06 13 0 13 C0 12.34 0 11.68 0 11 C-0.66 11 -1.32 11 -2 11 C-2 8.03 -2 5.06 -2 2 C-1.34 2 -0.68 2 0 2 C0 1.34 0 0.68 0 0 Z " fill="#EAEAEA" transform="translate(166,142)"/>
<path d="M0 0 C1.98 0 3.96 0 6 0 C6 6.93 6 13.86 6 21 C4.35 21 2.7 21 1 21 C0 20 0 20 -0.11352539 18.05053711 C-0.10567017 16.8015564 -0.10567017 16.8015564 -0.09765625 15.52734375 C-0.09443359 14.62822266 -0.09121094 13.72910156 -0.08789062 12.80273438 C-0.07951172 11.85720703 -0.07113281 10.91167969 -0.0625 9.9375 C-0.05798828 8.98810547 -0.05347656 8.03871094 -0.04882812 7.06054688 C-0.0370011 4.70696935 -0.02052025 2.35351523 0 0 Z " fill="#AFAFAF" transform="translate(95,138)"/>
<path d="M0 0 C1.32 0 2.64 0 4 0 C4 0.66 4 1.32 4 2 C4.66 2 5.32 2 6 2 C6 3.32 6 4.64 6 6 C6.66 6 7.32 6 8 6 C8 7.32 8 8.64 8 10 C7.34 10 6.68 10 6 10 C6 9.34 6 8.68 6 8 C5.34 8 4.68 8 4 8 C4 12.29 4 16.58 4 21 C2.68 21 1.36 21 0 21 C0 14.07 0 7.14 0 0 Z " fill="#8A8A8A" transform="translate(141,138)"/>
<path d="M0 0 C1.32 0 2.64 0 4 0 C4 6.93 4 13.86 4 21 C2.68 21 1.36 21 0 21 C0 20.34 0 19.68 0 19 C-0.66 19 -1.32 19 -2 19 C-2.66 17.02 -3.32 15.04 -4 13 C-2.68 13 -1.36 13 0 13 C0 8.71 0 4.42 0 0 Z " fill="#888888" transform="translate(116,138)"/>
<path d="M0 0 C1.32 0 2.64 0 4 0 C4 15.18 4 30.36 4 46 C2.68 45.67 1.36 45.34 0 45 C0 44.01 0 43.02 0 42 C0.66 42 1.32 42 2 42 C2 28.47 2 14.94 2 1 C1.34 0.67 0.68 0.34 0 0 Z " fill="#C9C9C9" transform="translate(74,45)"/>
<path d="M0 0 C2.97 0 5.94 0 9 0 C9 2.97 9 5.94 9 9 C7.68 9 6.36 9 5 9 C5 9.66 5 10.32 5 11 C2.03 11 -0.94 11 -4 11 C-4 10.34 -4 9.68 -4 9 C-5.32 9 -6.64 9 -8 9 C-8 8.01 -8 7.02 -8 6 C-6.68 5.67 -5.36 5.34 -4 5 C-4 5.66 -4 6.32 -4 7 C-1.03 7 1.94 7 5 7 C5 5.35 5 3.7 5 2 C3.35 2 1.7 2 0 2 C0 1.34 0 0.68 0 0 Z " fill="#9A9A9A" transform="translate(170,148)"/>
<path d="M0 0 C0.33 0 0.66 0 1 0 C1.33 6.93 1.66 13.86 2 21 C1.34 21 0.68 21 0 21 C-0.33 18.36 -0.66 15.72 -1 13 C-3.64 13 -6.28 13 -9 13 C-9 15.64 -9 18.28 -9 21 C-9.33 21 -9.66 21 -10 21 C-10 18.03 -10 15.06 -10 12 C-7.36 12 -4.72 12 -2 12 C-2 10.68 -2 9.36 -2 8 C-4.64 8 -7.28 8 -10 8 C-10 6.68 -10 5.36 -10 4 C-7.03 4 -4.06 4 -1 4 C-0.67 2.68 -0.34 1.36 0 0 Z " fill="#F1F1F1" transform="translate(94,138)"/>
<path d="M0 0 C1.4550293 0.01353516 1.4550293 0.01353516 2.93945312 0.02734375 C5.31406407 0.05073893 7.68814776 0.08351824 10.0625 0.125 C10.0625 0.785 10.0625 1.445 10.0625 2.125 C1.4825 2.455 -7.0975 2.785 -15.9375 3.125 C-15.9375 3.785 -15.9375 4.445 -15.9375 5.125 C-19.76739106 6.92730168 -22.71871808 7.32122241 -26.9375 7.125 C-26.9375 7.785 -26.9375 8.445 -26.9375 9.125 C-28.2575 8.795 -29.5775 8.465 -30.9375 8.125 C-30.2775 8.125 -29.6175 8.125 -28.9375 8.125 C-28.9375 7.465 -28.9375 6.805 -28.9375 6.125 C-27.6175 6.125 -26.2975 6.125 -24.9375 6.125 C-24.9375 5.465 -24.9375 4.805 -24.9375 4.125 C-22.6275 4.125 -20.3175 4.125 -17.9375 4.125 C-17.9375 3.465 -17.9375 2.805 -17.9375 2.125 C-11.8759737 -0.01040594 -6.38873306 -0.11353866 0 0 Z " fill="#CBCBCB" transform="translate(51.9375,38.875)"/>
<path d="M0 0 C4.29 0 8.58 0 13 0 C12.67 1.32 12.34 2.64 12 4 C12 3.34 12 2.68 12 2 C8.37 2 4.74 2 1 2 C1 7.61 1 13.22 1 19 C2.93875 18.855625 4.8775 18.71125 6.875 18.5625 C7.96554688 18.48128906 9.05609375 18.40007812 10.1796875 18.31640625 C12.94728971 18.16998297 12.94728971 18.16998297 15 17 C15 18.32 15 19.64 15 21 C10.05 21 5.1 21 0 21 C0 14.07 0 7.14 0 0 Z " fill="#989898" transform="translate(124,138)"/>
<path d="M0 0 C0.66 0 1.32 0 2 0 C2 6.6 2 13.2 2 20 C2.66 20 3.32 20 4 20 C4 16.04 4 12.08 4 8 C4.99 8 5.98 8 7 8 C7.33 9.32 7.66 10.64 8 12 C7.34 12 6.68 12 6 12 C5.67 14.97 5.34 17.94 5 21 C3.35 21 1.7 21 0 21 C0 14.07 0 7.14 0 0 Z " fill="#BFBFBF" transform="translate(103,138)"/>
<path d="M0 0 C0 0.66 0 1.32 0 2 C-0.66 2 -1.32 2 -2 2 C-2 2.66 -2 3.32 -2 4 C-2.66 4 -3.32 4 -4 4 C-4 4.66 -4 5.32 -4 6 C-4.66 6 -5.32 6 -6 6 C-6.9327418 10.099361 -7.28825262 14.12043288 -7.5625 18.3125 C-7.64628906 19.56675781 -7.73007812 20.82101563 -7.81640625 22.11328125 C-7.87699219 23.06589844 -7.93757813 24.01851562 -8 25 C-7.34 25 -6.68 25 -6 25 C-6 26.32 -6 27.64 -6 29 C-5.34 29 -4.68 29 -4 29 C-4 29.99 -4 30.98 -4 32 C-7.875 30.125 -7.875 30.125 -9 29 C-9.08685603 27.43827255 -9.10702219 25.87270656 -9.09765625 24.30859375 C-9.09443359 23.36435547 -9.09121094 22.42011719 -9.08789062 21.44726562 C-9.07951172 20.45404297 -9.07113281 19.46082031 -9.0625 18.4375 C-9.05798828 17.44041016 -9.05347656 16.44332031 -9.04882812 15.41601562 C-9.03700007 12.94395151 -9.02051849 10.47200482 -9 8 C-8.34 8 -7.68 8 -7 8 C-7 6.68 -7 5.36 -7 4 C-6.34 4 -5.68 4 -5 4 C-5.33 3.01 -5.66 2.02 -6 1 C-3 0 -3 0 0 0 Z " fill="#F8B2B1" transform="translate(40,104)"/>
<path d="M0 0 C0.66 0 1.32 0 2 0 C2 1.32 2 2.64 2 4 C4.97 4 7.94 4 11 4 C11 5.32 11 6.64 11 8 C8.03 8 5.06 8 2 8 C2 9.65 2 11.3 2 13 C1.34 13 0.68 13 0 13 C0 8.71 0 4.42 0 0 Z " fill="#ADADAD" transform="translate(126,142)"/>
<path d="M0 0 C0.33 0 0.66 0 1 0 C1.33466374 2.95818845 1.66779007 5.91653588 2 8.875 C2.09539063 9.71675781 2.19078125 10.55851562 2.2890625 11.42578125 C2.37929688 12.23144531 2.46953125 13.03710938 2.5625 13.8671875 C2.64628906 14.61081543 2.73007812 15.35444336 2.81640625 16.12060547 C3 18 3 18 3 20 C2.34 20 1.68 20 1 20 C1 18.68 1 17.36 1 16 C0.34 16 -0.32 16 -1 16 C-1.02692484 13.70839681 -1.04636124 11.41670454 -1.0625 9.125 C-1.07410156 7.84882812 -1.08570312 6.57265625 -1.09765625 5.2578125 C-1 2 -1 2 0 0 Z " fill="#EC2A2B" transform="translate(33,113)"/>
<path d="M0 0 C0.66 0 1.32 0 2 0 C2 6.27 2 12.54 2 19 C2.66 19 3.32 19 4 19 C4 19.66 4 20.32 4 21 C2.68 21 1.36 21 0 21 C0 14.07 0 7.14 0 0 Z " fill="#A8A8A8" transform="translate(141,138)"/>
<path d="M0 0 C0.66 0 1.32 0 2 0 C2 6.93 2 13.86 2 21 C0.68 21 -0.64 21 -2 21 C-2 20.34 -2 19.68 -2 19 C-1.34 19 -0.68 19 0 19 C0 12.73 0 6.46 0 0 Z " fill="#B5B5B5" transform="translate(118,138)"/>
<path d="M0 0 C0.66 0 1.32 0 2 0 C2 6.6 2 13.2 2 20 C1.34 20 0.68 20 0 20 C-0.66 18.35 -1.32 16.7 -2 15 C-1.34 15 -0.68 15 0 15 C0 10.05 0 5.1 0 0 Z " fill="#898989" transform="translate(154,138)"/>
<path d="M0 0 C5.61 0 11.22 0 17 0 C17 0.66 17 1.32 17 2 C18.32 2 19.64 2 21 2 C21 2.66 21 3.32 21 4 C21.66 4 22.32 4 23 4 C23 4.66 23 5.32 23 6 C23.66 6.33 24.32 6.66 25 7 C24.01 7 23.02 7 22 7 C22 6.34 22 5.68 22 5 C21.05125 4.855625 20.1025 4.71125 19.125 4.5625 C16 4 16 4 14 3 C14 2.34 14 1.68 14 1 C9.38 1.33 4.76 1.66 0 2 C0 1.34 0 0.68 0 0 Z " fill="#DD1E1D" transform="translate(46,100)"/>
<path d="M0 0 C-0.66 0 -1.32 0 -2 0 C-2 0.66 -2 1.32 -2 2 C-2.66 2 -3.32 2 -4 2 C-4 2.66 -4 3.32 -4 4 C-10.27 4 -16.54 4 -23 4 C-23 3.34 -23 2.68 -23 2 C-18.05 2.33 -13.1 2.66 -8 3 C-8 2.01 -8 1.02 -8 0 C-4.94736336 -0.98120464 -3.05263664 -0.98120464 0 0 Z " fill="#E22423" transform="translate(69,140)"/>
<path d="M0 0 C0 0.66 0 1.32 0 2 C1.65 2 3.3 2 5 2 C5.33 2.66 5.66 3.32 6 4 C6.99 4 7.98 4 9 4 C9 4.66 9 5.32 9 6 C6.03 6 3.06 6 0 6 C0 5.34 0 4.68 0 4 C-1.32 4 -2.64 4 -4 4 C-4 3.01 -4 2.02 -4 1 C-2 0 -2 0 0 0 Z " fill="#A1A1A1" transform="translate(166,153)"/>
<path d="M0 0 C1.32 0.33 2.64 0.66 4 1 C-3.11389522 9.81548975 -3.11389522 9.81548975 -8 11 C-8 10.01 -8 9.02 -8 8 C-7.34 8 -6.68 8 -6 8 C-6 7.34 -6 6.68 -6 6 C-5.34 6 -4.68 6 -4 6 C-4 5.34 -4 4.68 -4 4 C-3.34 4 -2.68 4 -2 4 C-2 3.34 -2 2.68 -2 2 C-1.34 2 -0.68 2 0 2 C0 1.34 0 0.68 0 0 Z " fill="#E72123" transform="translate(42,102)"/>
<path d="M0 0 C4.29 0 8.58 0 13 0 C13 1.32 13 2.64 13 4 C11.02 4 9.04 4 7 4 C7 3.34 7 2.68 7 2 C4.69 2 2.38 2 0 2 C0 1.34 0 0.68 0 0 Z " fill="#999999" transform="translate(80,138)"/>
<path d="M0 0 C2.64 0 5.28 0 8 0 C8 0.33 8 0.66 8 1 C6.02 1 4.04 1 2 1 C2 1.66 2 2.32 2 3 C-1.82989106 4.80230168 -4.78121808 5.19622241 -9 5 C-9 5.66 -9 6.32 -9 7 C-10.32 6.67 -11.64 6.34 -13 6 C-12.34 6 -11.68 6 -11 6 C-11 5.34 -11 4.68 -11 4 C-9.68 4 -8.36 4 -7 4 C-7 3.34 -7 2.68 -7 2 C-4.69 2 -2.38 2 0 2 C0 1.34 0 0.68 0 0 Z " fill="#ACACAC" transform="translate(34,41)"/>
<path d="M0 0 C0 3.63 0 7.26 0 11 C-0.66 11 -1.32 11 -2 11 C-2 10.34 -2 9.68 -2 9 C-2.66 9 -3.32 9 -4 9 C-4 6.36 -4 3.72 -4 1 C-1 0 -1 0 0 0 Z " fill="#858585" transform="translate(164,143)"/>
<path d="M0 0 C0.33 1.32 0.66 2.64 1 4 C-3.95 4 -8.9 4 -14 4 C-14 3.34 -14 2.68 -14 2 C-13.07316406 1.93941406 -12.14632812 1.87882813 -11.19140625 1.81640625 C-9.39509766 1.69072266 -9.39509766 1.69072266 -7.5625 1.5625 C-5.77005859 1.44068359 -5.77005859 1.44068359 -3.94140625 1.31640625 C-1.11429756 1.32343886 -1.11429756 1.32343886 0 0 Z " fill="#A9A9A9" transform="translate(138,155)"/>
<path d="M0 0 C2.64 0 5.28 0 8 0 C7.67 1.65 7.34 3.3 7 5 C4.69 4.67 2.38 4.34 0 4 C0 2.68 0 1.36 0 0 Z " fill="#F7C0BD" transform="translate(51,144)"/>
<path d="M0 0 C0 0.66 0 1.32 0 2 C-0.66 2 -1.32 2 -2 2 C-2 2.66 -2 3.32 -2 4 C-2.66 4 -3.32 4 -4 4 C-4 4.66 -4 5.32 -4 6 C-4.66 6 -5.32 6 -6 6 C-6.12375 6.78375 -6.2475 7.5675 -6.375 8.375 C-7 11 -7 11 -9 13 C-9 11.35 -9 9.7 -9 8 C-8.34 8 -7.68 8 -7 8 C-7 6.68 -7 5.36 -7 4 C-6.34 4 -5.68 4 -5 4 C-5.33 3.01 -5.66 2.02 -6 1 C-3 0 -3 0 0 0 Z " fill="#FBCAC7" transform="translate(40,104)"/>
<path d="M0 0 C0.66 0 1.32 0 2 0 C2 3.96 2 7.92 2 12 C1.34 12 0.68 12 0 12 C0 10.68 0 9.36 0 8 C-0.66 8 -1.32 8 -2 8 C-2 7.34 -2 6.68 -2 6 C-1.34 6 -0.68 6 0 6 C0 4.02 0 2.04 0 0 Z " fill="#E6E6E6" transform="translate(114,138)"/>
<path d="M0 0 C2.31 0 4.62 0 7 0 C7 0.66 7 1.32 7 2 C6.01 2 5.02 2 4 2 C3.67 3.32 3.34 4.64 3 6 C2.01 5.67 1.02 5.34 0 5 C0 3.35 0 1.7 0 0 Z " fill="#838383" transform="translate(80,140)"/>
<path d="M0 0 C2.64 0 5.28 0 8 0 C8 1.32 8 2.64 8 4 C5.36 4 2.72 4 0 4 C0 2.66666667 0 1.33333333 0 0 Z " fill="#999999" transform="translate(84,146)"/>
<path d="M0 0 C2.10275161 3.39985126 2.12715391 5.6946 1.6875 9.625 C1.58824219 10.58664063 1.48898438 11.54828125 1.38671875 12.5390625 C1 15 1 15 0 17 C-0.66 17 -1.32 17 -2 17 C-1.76990234 16.21882813 -1.76990234 16.21882813 -1.53515625 15.421875 C-0.86017489 12.36721485 -0.65588882 9.36984029 -0.4375 6.25 C-0.35371094 5.07953125 -0.26992187 3.9090625 -0.18359375 2.703125 C-0.12300781 1.81109375 -0.06242187 0.9190625 0 0 Z " fill="#FCE8E4" transform="translate(78,115)"/>
<path d="M0 0 C0.33 0.66 0.66 1.32 1 2 C1.66 2 2.32 2 3 2 C3 3.32 3 4.64 3 6 C3.66 6.33 4.32 6.66 5 7 C3.35 7 1.7 7 0 7 C-1.04449911 3.86650268 -0.93423645 3.01031744 0 0 Z " fill="#A0A0A0" transform="translate(111,144)"/>
<path d="M0 0 C1.65 0 3.3 0 5 0 C5 1.32 5 2.64 5 4 C3.68 4 2.36 4 1 4 C0.67 2.68 0.34 1.36 0 0 Z " fill="#909090" transform="translate(172,140)"/>
<path d="M0 0 C0.66 0 1.32 0 2 0 C1.42655063 2.86724686 1.1385485 3.8614515 -1 6 C-2.32 6 -3.64 6 -5 6 C-5 5.34 -5 4.68 -5 4 C-3.68 4 -2.36 4 -1 4 C-0.67 2.68 -0.34 1.36 0 0 Z " fill="#FACECD" transform="translate(72,136)"/>
</svg>
