<?xml version="1.0" encoding="UTF-8"?>
<svg version="1.1" xmlns="http://www.w3.org/2000/svg" width="200" height="200">
<path d="M0 0 C66 0 132 0 200 0 C200 66 200 132 200 200 C134 200 68 200 0 200 C0 134 0 68 0 0 Z " fill="#115DA7" transform="translate(0,0)"/>
<path d="M0 0 C-3.54437841 1.24465381 -5.59704543 0.69325467 -9.125 -0.4375 C-18.87419482 -3.02133568 -31.94820613 -4.42932617 -41.10546875 0.6640625 C-48.74730113 5.98337631 -48.74730113 5.98337631 -53 14 C-54.1202688 24.66860638 -52.43268041 33.02077026 -46.5625 41.9375 C-44.10931251 44.86935822 -42.37133992 46.31433004 -39 48 C-37.33333333 49 -35.66666667 50 -34 51 C-33.67 49.02 -33.34 47.04 -33 45 C-32.01 45 -31.02 45 -30 45 C-30.33 39.39 -30.66 33.78 -31 28 C-33.64 27.67 -36.28 27.34 -39 27 C-39.99 26.67 -40.98 26.34 -42 26 C-43.9802848 20.89294973 -44.51933654 16.45303367 -44 11 C-42.39076503 7.89647542 -40.99652733 5.78298576 -38.25 3.625 C-33.94319166 2.42866435 -29.66640969 2.33343612 -25.5 4 C-25.005 4.33 -24.51 4.66 -24 5 C-24 6.65 -24 8.3 -24 10 C-24.680625 9.319375 -25.36125 8.63875 -26.0625 7.9375 C-28.91785482 5.66734901 -28.91785482 5.66734901 -32.625 6 C-35.94107443 6.74956635 -35.94107443 6.74956635 -37.9375 8.5625 C-39.54003107 12.23889481 -39.31811482 14.99175325 -39 19 C-38.34 19.99 -37.68 20.98 -37 22 C-35.02252878 22.36297936 -35.02252878 22.36297936 -32.875 22.1875 C-31.59625 22.125625 -30.3175 22.06375 -29 22 C-28.67 19.03 -28.34 16.06 -28 13 C-25.36 13 -22.72 13 -20 13 C-20.495 8.545 -20.495 8.545 -21 4 C-16.71 4 -12.42 4 -8 4 C-8 4.99 -8 5.98 -8 7 C-10.64 7 -13.28 7 -16 7 C-16 8.65 -16 10.3 -16 12 C-14.35 12 -12.7 12 -11 12 C-11.33 13.32 -11.66 14.64 -12 16 C-13.65 15.67 -15.3 15.34 -17 15 C-17 17.31 -17 19.62 -17 22 C-14.36 22 -11.72 22 -9 22 C-9.495 23.485 -9.495 23.485 -10 25 C-13.96 25 -17.92 25 -22 25 C-21.67 21.7 -21.34 18.4 -21 15 C-21.99 15 -22.98 15 -24 15 C-24 17.64 -24 20.28 -24 23 C-25.65 23.66 -27.3 24.32 -29 25 C-29 25.66 -29 26.32 -29 27 C-27.87851563 26.94779297 -27.87851563 26.94779297 -26.734375 26.89453125 C-25.25710937 26.85392578 -25.25710937 26.85392578 -23.75 26.8125 C-22.77546875 26.77769531 -21.8009375 26.74289063 -20.796875 26.70703125 C-17.59614315 27.04230344 -16.41495137 27.96438834 -14 30 C-13.34 30 -12.68 30 -12 30 C-11.67 29.01 -11.34 28.02 -11 27 C-9.39620659 26.94583812 -7.79188594 26.90713362 -6.1875 26.875 C-5.29417969 26.85179688 -4.40085938 26.82859375 -3.48046875 26.8046875 C-1 27 -1 27 2 29 C2.43132515 33.05445642 2.30019361 34.54970958 0 38 C0.28875 38.55429688 0.5775 39.10859375 0.875 39.6796875 C1.24625 40.40414062 1.6175 41.12859375 2 41.875 C2.37125 42.59429687 2.7425 43.31359375 3.125 44.0546875 C4 46 4 46 4 48 C1.69 47.67 -0.62 47.34 -3 47 C-3.33 47.99 -3.66 48.98 -4 50 C-3.00033203 50.17438599 -3.00033203 50.17438599 -1.98046875 50.35229492 C1.64844513 51.14091783 5.1532838 52.23625592 8.6875 53.36328125 C9.42645508 53.5965361 10.16541016 53.82979095 10.92675781 54.07011414 C13.28529165 54.81511601 15.64267833 55.56367245 18 56.3125 C20.32186507 57.04762002 22.64396294 57.78199411 24.96630859 58.51559448 C26.48155231 58.99510173 27.9962088 59.47646879 29.51025391 59.95974731 C32.99097503 61.06775837 36.4732403 62.14773799 39.98828125 63.14208984 C41.16777344 63.48062988 42.34726563 63.81916992 43.5625 64.16796875 C44.59503906 64.45309326 45.62757812 64.73821777 46.69140625 65.03198242 C47.45324219 65.35142822 48.21507812 65.67087402 49 66 C49.33 66.99 49.66 67.98 50 69 C42.96429537 73.98060191 36.26004414 78.34085671 28 81 C26.77216797 81.44666016 26.77216797 81.44666016 25.51953125 81.90234375 C6.08980669 87.98639892 -14.8269236 84.17628425 -32.49804688 75.06225586 C-37.36435268 72.44884708 -41.87480187 69.70186994 -46 66 C-46.73476563 65.35675781 -47.46953125 64.71351562 -48.2265625 64.05078125 C-54.24598101 58.44406535 -58.33421045 52.34151349 -62 45 C-62.36222656 44.28457031 -62.72445312 43.56914063 -63.09765625 42.83203125 C-66.44230411 34.78931989 -66.56468488 22.66173093 -63.9375 14.4375 C-58.40631476 4.62410683 -51.26604914 -0.14395644 -40.6484375 -3.8125 C-28.1724054 -7.07895204 -11.74737095 -5.28746638 0 0 Z " fill="#E2F1F9" transform="translate(80,61)"/>
<path d="M0 0 C12.21 0 24.42 0 37 0 C37 36.63 37 73.26 37 111 C25.12 111 13.24 111 1 111 C0.25464843 96.43856423 -0.13956044 81.96030209 -0.09765625 67.3828125 C-0.09578347 65.41885413 -0.09436366 63.45489529 -0.09336853 61.49093628 C-0.08961088 56.40473056 -0.07984123 51.31855494 -0.06866455 46.23236084 C-0.05830232 41.00907803 -0.0538397 35.7857902 -0.04882812 30.5625 C-0.03821045 20.37498488 -0.0206714 10.18749969 0 0 Z " fill="#7A84BA" transform="translate(163,0)"/>
<path d="M0 0 C0.77722412 0.00394775 1.55444824 0.00789551 2.35522461 0.01196289 C8.98140727 0.17341234 14.81917946 1.55922343 21.1328125 3.48046875 C25.26620244 4.67749066 29.15585956 5.137034 33.4375 5.4375 C33.4375 6.0975 33.4375 6.7575 33.4375 7.4375 C34.736875 7.581875 36.03625 7.72625 37.375 7.875 C41.3125 8.3125 41.3125 8.3125 42.4375 9.4375 C42.39909938 11.50227174 42.28089697 13.56576396 42.125 15.625 C42.04636719 16.75292969 41.96773438 17.88085938 41.88671875 19.04296875 C41.44315252 22.39478661 40.61296123 25.27574917 39.4375 28.4375 C41.4175 28.4375 43.3975 28.4375 45.4375 28.4375 C45.251875 27.53 45.06625 26.6225 44.875 25.6875 C44.48015379 22.75435676 44.49058428 21.1730343 45.4375 18.4375 C47.25 19 47.25 19 49.4375 20.4375 C49.9325 21.613125 50.4275 22.78875 50.9375 24 C51.4325 25.134375 51.9275 26.26875 52.4375 27.4375 C54.4705843 28.20158686 54.4705843 28.20158686 56.4375 28.4375 C56.08816406 27.81101562 55.73882812 27.18453125 55.37890625 26.5390625 C54.92386719 25.72179687 54.46882813 24.90453125 54 24.0625 C53.54753906 23.25039062 53.09507813 22.43828125 52.62890625 21.6015625 C51.8724464 20.22753378 51.13895369 18.84040739 50.4375 17.4375 C51.4275 16.7775 52.4175 16.1175 53.4375 15.4375 C53.68765873 11.85392759 53.68765873 11.85392759 53.4375 8.4375 C54.00339844 8.30472656 54.56929688 8.17195313 55.15234375 8.03515625 C56.25255859 7.77025391 56.25255859 7.77025391 57.375 7.5 C58.10589844 7.32597656 58.83679688 7.15195313 59.58984375 6.97265625 C61.43719898 6.59862431 61.43719898 6.59862431 62.4375 5.4375 C69.11958356 4.8408854 73.53064204 6.37468476 79.4375 9.4375 C79.2970017 12.2295301 79.15034617 15.02099796 79 17.8125 C78.96068359 18.6065625 78.92136719 19.400625 78.88085938 20.21875 C78.55078125 26.2109375 78.55078125 26.2109375 77.4375 28.4375 C81.7275 28.4375 86.0175 28.4375 90.4375 28.4375 C90.7675 27.7775 91.0975 27.1175 91.4375 26.4375 C91.4375 27.4275 91.4375 28.4175 91.4375 29.4375 C93.0875 29.4375 94.7375 29.4375 96.4375 29.4375 C96.30472656 30.02015625 96.17195313 30.6028125 96.03515625 31.203125 C94.58656124 37.92798942 93.88539343 44.57765858 93.4375 51.4375 C89.44577538 47.68769809 86.177134 43.61009923 82.890625 39.23046875 C82.41109375 38.63878906 81.9315625 38.04710937 81.4375 37.4375 C81.1075 37.4375 80.7775 37.4375 80.4375 37.4375 C80.1075 42.0575 79.7775 46.6775 79.4375 51.4375 C78.1175 51.4375 76.7975 51.4375 75.4375 51.4375 C76.0975 45.1675 76.7575 38.8975 77.4375 32.4375 C74.38467786 33.0962636 74.38467786 33.0962636 73.36254883 35.20336914 C72.88338013 36.32666626 72.88338013 36.32666626 72.39453125 37.47265625 C72.04326172 38.28154297 71.69199219 39.09042969 71.33007812 39.92382812 C70.97365234 40.77396484 70.61722656 41.62410156 70.25 42.5 C69.69795898 43.78100586 69.69795898 43.78100586 69.13476562 45.08789062 C68.2259879 47.20050377 67.32743798 49.31689769 66.4375 51.4375 C65.10416667 49.4375 63.77083333 47.4375 62.4375 45.4375 C61.98375 46.2625 61.53 47.0875 61.0625 47.9375 C60.52625 48.7625 59.99 49.5875 59.4375 50.4375 C58.7775 50.4375 58.1175 50.4375 57.4375 50.4375 C57.26621582 49.89746338 57.09493164 49.35742676 56.91845703 48.80102539 C56.14093748 46.36477996 55.35189031 43.93242362 54.5625 41.5 C54.29308594 40.64986328 54.02367188 39.79972656 53.74609375 38.92382812 C53.48183594 38.11494141 53.21757813 37.30605469 52.9453125 36.47265625 C52.70441895 35.7237915 52.46352539 34.97492676 52.21533203 34.20336914 C51.57491697 32.24026587 51.57491697 32.24026587 49.4375 31.4375 C49.9325 32.4584375 49.9325 32.4584375 50.4375 33.5 C51.69112118 37.18251223 51.97198759 39.56246499 51.4375 43.4375 C49.03554964 47.25637376 46.76036587 49.99654471 42.4375 51.4375 C37.87562214 51.69093766 34.56598928 51.43919177 30.4375 49.4375 C29.9425 50.4275 29.9425 50.4275 29.4375 51.4375 C27.7875 48.1375 26.1375 44.8375 24.4375 41.4375 C25.0975 40.4475 25.7575 39.4575 26.4375 38.4375 C26.60449232 35.31228167 26.60449232 35.31228167 26.4375 32.4375 C23.98367866 31.21058933 22.23765897 31.23574069 19.5 31.1875 C18.62472656 31.16171875 17.74945313 31.1359375 16.84765625 31.109375 C14.0181131 31.49459643 13.18617075 32.24444757 11.4375 34.4375 C11.1075 33.7775 10.7775 33.1175 10.4375 32.4375 C7.42971479 31.43490493 4.89929353 31.13435358 1.75 30.875 C0.75613281 30.79121094 -0.23773438 30.70742187 -1.26171875 30.62109375 C-2.40060547 30.53021484 -2.40060547 30.53021484 -3.5625 30.4375 C-3.5625 29.7775 -3.5625 29.1175 -3.5625 28.4375 C-2.923125 28.2725 -2.28375 28.1075 -1.625 27.9375 C0.59869241 26.655714 0.59869241 26.655714 0.92578125 24.5234375 C1.1650978 22.50174845 1.30643028 20.46908061 1.4375 18.4375 C2.4275 18.4375 3.4175 18.4375 4.4375 18.4375 C4.5625 26.1875 4.5625 26.1875 3.4375 28.4375 C5.41736082 28.32402381 7.39641598 28.1964065 9.375 28.0625 C10.47714844 27.99289063 11.57929687 27.92328125 12.71484375 27.8515625 C13.61332031 27.71492188 14.51179688 27.57828125 15.4375 27.4375 C15.7675 26.7775 16.0975 26.1175 16.4375 25.4375 C13.7975 25.4375 11.1575 25.4375 8.4375 25.4375 C8.4375 23.1275 8.4375 20.8175 8.4375 18.4375 C10.0875 18.4375 11.7375 18.4375 13.4375 18.4375 C13.9325 16.9525 13.9325 16.9525 14.4375 15.4375 C12.7875 15.4375 11.1375 15.4375 9.4375 15.4375 C9.4375 13.7875 9.4375 12.1375 9.4375 10.4375 C12.0775 10.4375 14.7175 10.4375 17.4375 10.4375 C17.4375 9.4475 17.4375 8.4575 17.4375 7.4375 C13.1475 7.4375 8.8575 7.4375 4.4375 7.4375 C4.9325 8.4275 4.9325 8.4275 5.4375 9.4375 C5.47772391 11.7704866 5.48070247 14.10456666 5.4375 16.4375 C2.7975 16.4375 0.1575 16.4375 -2.5625 16.4375 C-2.55089844 17.07558594 -2.53929688 17.71367188 -2.52734375 18.37109375 C-2.51832031 19.19738281 -2.50929688 20.02367188 -2.5 20.875 C-2.48839844 21.69871094 -2.47679688 22.52242187 -2.46484375 23.37109375 C-2.5625 25.4375 -2.5625 25.4375 -3.5625 26.4375 C-10.78580097 27.02002427 -10.78580097 27.02002427 -13.5625 24.9375 C-14.98052951 21.39242624 -15.21234932 18.1593643 -14.5625 14.4375 C-13 11.5 -13 11.5 -10.5625 9.4375 C-7.0625 8.375 -7.0625 8.375 -3.5625 8.4375 C-1.125 10.375 -1.125 10.375 0.4375 12.4375 C0.4375 11.1175 0.4375 9.7975 0.4375 8.4375 C-4.42173876 6.81775375 -8.77209948 6.65906499 -13.4375 8.6875 C-15.79150289 10.62609062 -16.69577966 11.52216794 -17.5625 14.4375 C-17.90178653 19.69644117 -17.54428668 23.4830333 -15.5625 28.4375 C-14.85222656 28.57027344 -14.14195313 28.70304687 -13.41015625 28.83984375 C-12.49105469 29.01644531 -11.57195313 29.19304687 -10.625 29.375 C-9.25021484 29.63603516 -9.25021484 29.63603516 -7.84765625 29.90234375 C-5.5625 30.4375 -5.5625 30.4375 -4.5625 31.4375 C-4.48924832 34.30017567 -4.47011795 37.138219 -4.5 40 C-4.50451172 40.80630859 -4.50902344 41.61261719 -4.51367188 42.44335938 C-4.52549482 44.44143756 -4.54343086 46.43947783 -4.5625 48.4375 C-5.5525 48.4375 -6.5425 48.4375 -7.5625 48.4375 C-7.8925 50.4175 -8.2225 52.3975 -8.5625 54.4375 C-11.92579858 53.85762094 -13.2348487 52.85825735 -15.5625 50.4375 C-16.34625 50.025 -17.13 49.6125 -17.9375 49.1875 C-23.27974501 45.62600332 -26.23310086 40.17263027 -28.05859375 34.1015625 C-29.55472826 26.19176609 -29.85085236 18.43377824 -25.5625 11.4375 C-23.58203125 9.20703125 -23.58203125 9.20703125 -21.375 7.25 C-20.30185547 6.26966797 -20.30185547 6.26966797 -19.20703125 5.26953125 C-13.18227795 1.09580999 -7.23523495 -0.09625766 0 0 Z " fill="#295B94" transform="translate(54.5625,57.5625)"/>
<path d="M0 0 C12.21 0 24.42 0 37 0 C37 14.85 37 29.7 37 45 C24.79 45 12.58 45 0 45 C0 30.15 0 15.3 0 0 Z " fill="#A4CE63" transform="translate(163,133)"/>
<path d="M0 0 C11.88 0 23.76 0 36 0 C36 14.52 36 29.04 36 44 C24.12 44 12.24 44 0 44 C0 29.48 0 14.96 0 0 Z " fill="#F6AF38" transform="translate(164,0)"/>
<path d="M0 0 C5.07419703 0.02757716 9.06481327 2.01277355 13.5 4.3125 C13.3595017 7.1045301 13.21284617 9.89599796 13.0625 12.6875 C13.02318359 13.4815625 12.98386719 14.275625 12.94335938 15.09375 C12.61328125 21.0859375 12.61328125 21.0859375 11.5 23.3125 C15.79 23.3125 20.08 23.3125 24.5 23.3125 C24.83 22.6525 25.16 21.9925 25.5 21.3125 C25.5 22.3025 25.5 23.2925 25.5 24.3125 C27.15 24.3125 28.8 24.3125 30.5 24.3125 C30.36722656 24.89515625 30.23445313 25.4778125 30.09765625 26.078125 C28.64906124 32.80298942 27.94789343 39.45265858 27.5 46.3125 C23.50827538 42.56269809 20.239634 38.48509923 16.953125 34.10546875 C16.47359375 33.51378906 15.9940625 32.92210937 15.5 32.3125 C15.17 32.3125 14.84 32.3125 14.5 32.3125 C14.17 36.9325 13.84 41.5525 13.5 46.3125 C12.18 46.3125 10.86 46.3125 9.5 46.3125 C10.16 40.0425 10.82 33.7725 11.5 27.3125 C8.44717786 27.9712636 8.44717786 27.9712636 7.42504883 30.07836914 C7.10560303 30.82723389 6.78615723 31.57609863 6.45703125 32.34765625 C6.10576172 33.15654297 5.75449219 33.96542969 5.39257812 34.79882812 C5.03615234 35.64896484 4.67972656 36.49910156 4.3125 37.375 C3.76045898 38.65600586 3.76045898 38.65600586 3.19726562 39.96289062 C2.2884879 42.07550377 1.38993798 44.19189769 0.5 46.3125 C-0.83333333 44.3125 -2.16666667 42.3125 -3.5 40.3125 C-3.95375 41.1375 -4.4075 41.9625 -4.875 42.8125 C-5.41125 43.6375 -5.9475 44.4625 -6.5 45.3125 C-7.16 45.3125 -7.82 45.3125 -8.5 45.3125 C-8.67128418 44.77246338 -8.84256836 44.23242676 -9.01904297 43.67602539 C-9.79656252 41.23977996 -10.58560969 38.80742362 -11.375 36.375 C-11.64441406 35.52486328 -11.91382812 34.67472656 -12.19140625 33.79882812 C-12.45566406 32.98994141 -12.71992187 32.18105469 -12.9921875 31.34765625 C-13.23308105 30.5987915 -13.47397461 29.84992676 -13.72216797 29.07836914 C-14.36258303 27.11526587 -14.36258303 27.11526587 -16.5 26.3125 C-16.17 26.993125 -15.84 27.67375 -15.5 28.375 C-14.24637882 32.05751223 -13.96551241 34.43746499 -14.5 38.3125 C-16.90195036 42.13137376 -19.17713413 44.87154471 -23.5 46.3125 C-27.69987818 46.70137761 -29.79607238 46.77158323 -33.375 44.4375 C-36.30038857 41.51211143 -36.46503325 40.73909437 -36.8125 36.5 C-36.77692992 33.23348141 -36.51494245 32.33620182 -34.6875 29.4375 C-30.56984442 25.43749172 -30.56984442 25.43749172 -27.52734375 25.08203125 C-21.72222222 25.20138889 -21.72222222 25.20138889 -19.5 26.3125 C-19.5 24.9925 -19.5 23.6725 -19.5 22.3125 C-16.2 22.6425 -12.9 22.9725 -9.5 23.3125 C-10.7065625 21.146875 -10.7065625 21.146875 -11.9375 18.9375 C-13.1603087 16.74271516 -14.37641585 14.55966829 -15.5 12.3125 C-14.51 11.6525 -13.52 10.9925 -12.5 10.3125 C-12.24984127 6.72892759 -12.24984127 6.72892759 -12.5 3.3125 C-11.93410156 3.17972656 -11.36820313 3.04695313 -10.78515625 2.91015625 C-10.05167969 2.73355469 -9.31820312 2.55695313 -8.5625 2.375 C-7.83160156 2.20097656 -7.10070312 2.02695313 -6.34765625 1.84765625 C-3.28408487 0.96032162 -3.7780416 0.33732514 0 0 Z " fill="#2A598F" transform="translate(120.5,62.6875)"/>
<path d="M0 0 C0.495 0.33 0.99 0.66 1.5 1 C1.5 2.65 1.5 4.3 1.5 6 C0.4790625 4.9790625 0.4790625 4.9790625 -0.5625 3.9375 C-3.41785482 1.66734901 -3.41785482 1.66734901 -7.125 2 C-10.44107443 2.74956635 -10.44107443 2.74956635 -12.4375 4.5625 C-14.04003107 8.23889481 -13.81811482 10.99175325 -13.5 15 C-12.84 15.99 -12.18 16.98 -11.5 18 C-9.52252878 18.36297936 -9.52252878 18.36297936 -7.375 18.1875 C-6.09625 18.125625 -4.8175 18.06375 -3.5 18 C-3.005 13.545 -3.005 13.545 -2.5 9 C0.14 9 2.78 9 5.5 9 C5.17 6.03 4.84 3.06 4.5 0 C8.79 0 13.08 0 17.5 0 C17.5 0.99 17.5 1.98 17.5 3 C14.86 3 12.22 3 9.5 3 C9.5 4.65 9.5 6.3 9.5 8 C11.15 8 12.8 8 14.5 8 C14.17 9.32 13.84 10.64 13.5 12 C11.025 11.505 11.025 11.505 8.5 11 C8.5 13.31 8.5 15.62 8.5 18 C11.14 18 13.78 18 16.5 18 C16.005 19.485 16.005 19.485 15.5 21 C11.54 21 7.58 21 3.5 21 C3.83 17.7 4.16 14.4 4.5 11 C3.51 11 2.52 11 1.5 11 C1.5 13.64 1.5 16.28 1.5 19 C-0.15 19.66 -1.8 20.32 -3.5 21 C-3.5 21.66 -3.5 22.32 -3.5 23 C-2.37851562 22.94779297 -2.37851562 22.94779297 -1.234375 22.89453125 C-0.24953125 22.86746094 0.7353125 22.84039062 1.75 22.8125 C2.72453125 22.77769531 3.6990625 22.74289063 4.703125 22.70703125 C7.90385685 23.04230344 9.08504863 23.96438834 11.5 26 C12.16 26 12.82 26 13.5 26 C13.995 24.515 13.995 24.515 14.5 23 C16.10379341 22.94583812 17.70811406 22.90713362 19.3125 22.875 C20.20582031 22.85179688 21.09914062 22.82859375 22.01953125 22.8046875 C24.5 23 24.5 23 27.5 25 C27.93132515 29.05445642 27.80019361 30.54970958 25.5 34 C25.78875 34.55429688 26.0775 35.10859375 26.375 35.6796875 C26.74625 36.40414062 27.1175 37.12859375 27.5 37.875 C27.87125 38.59429687 28.2425 39.31359375 28.625 40.0546875 C29.5 42 29.5 42 29.5 44 C27.19 43.67 24.88 43.34 22.5 43 C21.84 44.32 21.18 45.64 20.5 47 C19.18 47 17.86 47 16.5 47 C17.54800781 47.68707031 18.59601563 48.37414062 19.67578125 49.08203125 C21.05480967 49.99200238 22.43370919 50.90216888 23.8125 51.8125 C24.50279297 52.26431641 25.19308594 52.71613281 25.90429688 53.18164062 C26.57138672 53.62314453 27.23847656 54.06464844 27.92578125 54.51953125 C28.53848877 54.92276611 29.15119629 55.32600098 29.7824707 55.74145508 C31.5370079 57.02711809 33.00453032 58.42445162 34.5 60 C28.27827342 63.80301136 19.94151605 62.69144615 13.078125 61.3125 C0.77788251 57.78132991 -8.38642225 51.89611711 -17.5 43 C-14.5 43 -14.5 43 -13 44.4375 C-12.505 44.953125 -12.01 45.46875 -11.5 46 C-10.51 46.33 -9.52 46.66 -8.5 47 C-8.005 44.03 -8.005 44.03 -7.5 41 C-6.51 41 -5.52 41 -4.5 41 C-4.83 35.39 -5.16 29.78 -5.5 24 C-8.14 23.67 -10.78 23.34 -13.5 23 C-14.49 22.67 -15.48 22.34 -16.5 22 C-18.4802848 16.89294973 -19.01933654 12.45303367 -18.5 7 C-16.89076503 3.89647542 -15.49652733 1.78298576 -12.75 -0.375 C-8.44319166 -1.57133565 -4.16640969 -1.66656388 0 0 Z " fill="#2A5E96" transform="translate(54.5,65)"/>
<path d="M0 0 C0.99 0 1.98 0 3 0 C4.07608419 3.19564395 3.98501611 6.08976878 3.83203125 9.4309082 C3.3012183 22.81971694 8.16888428 32.94402063 17 43 C30.89551664 56.7416106 48.67570618 63.25858767 67.96289062 63.2487793 C78.21662164 63.10475458 87.07892343 60.97912432 96.07421875 55.98828125 C98 55 98 55 100 55 C99.505 53.02 99.505 53.02 99 51 C102.69900008 51.88776002 106.34550461 52.94581864 110 54 C110 54.66 110 55.32 110 56 C109.01 56 108.02 56 107 56 C106.92910156 56.76183594 106.85820313 57.52367187 106.78515625 58.30859375 C106 61 106 61 104.05859375 62.66015625 C86.99103768 71.79168029 66.91606337 73.9642687 48.0625 69.5 C37.07255823 66.04111208 25.63430978 60.74825616 17 53 C16.26523437 52.35675781 15.53046875 51.71351562 14.7734375 51.05078125 C8.75401899 45.44406535 4.66578955 39.34151349 1 32 C0.63777344 31.28457031 0.27554687 30.56914063 -0.09765625 29.83203125 C-3.7183807 21.12545199 -3.40319092 8.60966627 0 0 Z " fill="#EDF7FB" transform="translate(17,74)"/>
<path d="M0 0 C0 1.32 0 2.64 0 4 C0.969375 4.268125 1.93875 4.53625 2.9375 4.8125 C3.948125 5.204375 4.95875 5.59625 6 6 C7.1577506 9.47325181 7.06866652 12.36067448 7 16 C4.36 16 1.72 16 -1 16 C-0.98839844 16.63808594 -0.97679688 17.27617188 -0.96484375 17.93359375 C-0.95582031 18.75988281 -0.94679688 19.58617188 -0.9375 20.4375 C-0.92589844 21.26121094 -0.91429688 22.08492187 -0.90234375 22.93359375 C-1 25 -1 25 -2 26 C-9.22330097 26.58252427 -9.22330097 26.58252427 -12 24.5 C-13.41802951 20.95492624 -13.64984932 17.7218643 -13 14 C-11.4375 11.0625 -11.4375 11.0625 -9 9 C-5.5 7.9375 -5.5 7.9375 -2 8 C0.4375 9.9375 0.4375 9.9375 2 12 C2 10.68 2 9.36 2 8 C-2.85923876 6.38025375 -7.20959948 6.22156499 -11.875 8.25 C-14.22900289 10.18859062 -15.13327966 11.08466794 -16 14 C-16.33928653 19.25894117 -15.98178668 23.0455333 -14 28 C-13.28972656 28.13277344 -12.57945313 28.26554687 -11.84765625 28.40234375 C-10.92855469 28.57894531 -10.00945313 28.75554687 -9.0625 28.9375 C-7.68771484 29.19853516 -7.68771484 29.19853516 -6.28515625 29.46484375 C-4 30 -4 30 -3 31 C-2.92674832 33.86267567 -2.90761795 36.700719 -2.9375 39.5625 C-2.94201172 40.36880859 -2.94652344 41.17511719 -2.95117188 42.00585938 C-2.96299482 44.00393756 -2.98093086 46.00197783 -3 48 C-3.99 48 -4.98 48 -6 48 C-6.33 49.98 -6.66 51.96 -7 54 C-10.36329858 53.42012094 -11.6723487 52.42075735 -14 50 C-14.78375 49.5875 -15.5675 49.175 -16.375 48.75 C-21.71724501 45.18850332 -24.67060086 39.73513027 -26.49609375 33.6640625 C-27.99222826 25.75426609 -28.28835236 17.99627824 -24 11 C-17.21278137 3.35601215 -10.22913857 -0.63932116 0 0 Z " fill="#145CA6" transform="translate(53,58)"/>
<path d="M0 0 C0.33 0 0.66 0 1 0 C1 7.26 1 14.52 1 22 C12.88 22 24.76 22 37 22 C37 29.26 37 36.52 37 44 C24.79 44 12.58 44 0 44 C0 29.48 0 14.96 0 0 Z " fill="#1A9AD2" transform="translate(163,89)"/>
<path d="M0 0 C12.21 0 24.42 0 37 0 C37 7.26 37 14.52 37 22 C24.79 22 12.58 22 0 22 C0 14.74 0 7.48 0 0 Z " fill="#20AF5A" transform="translate(163,178)"/>
<path d="M0 0 C11.88 0 23.76 0 36 0 C36 7.26 36 14.52 36 22 C24.12 22 12.24 22 0 22 C0 14.74 0 7.48 0 0 Z " fill="#71C7EB" transform="translate(164,89)"/>
<path d="M0 0 C11.88 0 23.76 0 36 0 C36 7.26 36 14.52 36 22 C24.12 22 12.24 22 0 22 C0 14.74 0 7.48 0 0 Z " fill="#C3ADCC" transform="translate(164,44)"/>
<path d="M0 0 C11.55 0 23.1 0 35 0 C35 7.26 35 14.52 35 22 C23.45 22 11.9 22 0 22 C0 14.74 0 7.48 0 0 Z " fill="#F48130" transform="translate(165,0)"/>
<path d="M0 0 C11.55 0 23.1 0 35 0 C35 6.6 35 13.2 35 20 C23.45 20 11.9 20 0 20 C0 13.4 0 6.8 0 0 Z " fill="#DDD426" transform="translate(165,135)"/>
<path d="M0 0 C0.33 0 0.66 0 1 0 C1.15855469 0.97839844 1.31710938 1.95679687 1.48046875 2.96484375 C3.90786123 17.00033541 9.20833445 27.67827019 21.15625 36.26953125 C36.7191043 46.06903881 54.06951281 52.38203542 72.625 48.1875 C76.52130571 46.89559238 76.52130571 46.89559238 82 44 C73.75 40.04 65.5 36.08 57 32 C60.97713973 30.67428676 62.47877974 31.69411843 66.35546875 33.203125 C66.97593582 33.44158142 67.59640289 33.68003784 68.235672 33.92572021 C70.22311617 34.69176773 72.20526478 35.47058559 74.1875 36.25 C75.50292062 36.75997846 76.81867282 37.26910251 78.13476562 37.77734375 C80.64803612 38.74899769 83.15919205 39.72556892 85.66943359 40.70507812 C89.43484256 42.16906648 93.21237568 43.59468068 97 45 C97 45.66 97 46.32 97 47 C82.24192298 55.2166591 64.10573572 59.53923761 47.328125 54.81640625 C46.55984375 54.54699219 45.7915625 54.27757812 45 54 C43.83984375 53.59652344 42.6796875 53.19304687 41.484375 52.77734375 C33.5027769 49.85884236 26.65178149 46.38095921 20 41 C19.22011719 40.39414063 18.44023438 39.78828125 17.63671875 39.1640625 C9.30377038 32.30163443 2.58969714 22.59421556 0 12 C-0.29144074 7.97238458 -0.24917899 4.02839363 0 0 Z " fill="#2B5D97" transform="translate(20,82)"/>
<path d="M0 0 C0 1.32 0 2.64 0 4 C0.969375 4.268125 1.93875 4.53625 2.9375 4.8125 C3.948125 5.204375 4.95875 5.59625 6 6 C7.1577506 9.47325181 7.06866652 12.36067448 7 16 C4.36 16 1.72 16 -1 16 C-0.98839844 16.63808594 -0.97679688 17.27617188 -0.96484375 17.93359375 C-0.95582031 18.75988281 -0.94679688 19.58617188 -0.9375 20.4375 C-0.92589844 21.26121094 -0.91429688 22.08492187 -0.90234375 22.93359375 C-1 25 -1 25 -2 26 C-9.22330097 26.58252427 -9.22330097 26.58252427 -12 24.5 C-13.41802951 20.95492624 -13.64984932 17.7218643 -13 14 C-11.4375 11.0625 -11.4375 11.0625 -9 9 C-5.5 7.9375 -5.5 7.9375 -2 8 C0.4375 9.9375 0.4375 9.9375 2 12 C2 10.68 2 9.36 2 8 C-2.85923876 6.38025375 -7.20959948 6.22156499 -11.875 8.25 C-14.17445712 10.14367057 -14.91881228 11.25841686 -16 14 C-16.24029959 16.59154919 -16.24029959 16.59154919 -16.125 19.25 C-16.09792969 20.58804688 -16.09792969 20.58804688 -16.0703125 21.953125 C-16.04710937 22.62859375 -16.02390625 23.3040625 -16 24 C-16.66 24 -17.32 24 -18 24 C-18.77112541 19.27685687 -19.09764874 14.78478822 -19 10 C-22.54134968 13.06916973 -24.0928671 15.38186889 -25 20 C-25 26.94894643 -24.21409845 32.82893098 -21 39 C-20.67 39.7425 -20.34 40.485 -20 41.25 C-18.9009157 43.17339752 -17.63359197 44.51491639 -16 46 C-16.33 46.99 -16.66 47.98 -17 49 C-25.10914937 39.60227347 -27.31498961 32.72404301 -27.3984375 20.33203125 C-26.53792979 13.13582463 -22.70953971 9.26817547 -17.40234375 4.76953125 C-11.85265605 0.68171251 -6.79255465 -0.42453467 0 0 Z " fill="#2A5F9A" transform="translate(53,58)"/>
<path d="M0 0 C1.65 0 3.3 0 5 0 C5.20496094 0.78246094 5.40992187 1.56492187 5.62109375 2.37109375 C5.89050781 3.38300781 6.15992187 4.39492187 6.4375 5.4375 C6.83775391 6.95150391 6.83775391 6.95150391 7.24609375 8.49609375 C7.75978077 10.91752001 7.75978077 10.91752001 9 12 C8.85831863 10.56208484 8.71148957 9.1246763 8.5625 7.6875 C8.48128906 6.88699219 8.40007812 6.08648437 8.31640625 5.26171875 C8.04734307 2.83912821 8.04734307 2.83912821 7 0 C10.63 0 14.26 0 18 0 C17.34 1.65 16.68 3.3 16 5 C15.28566879 7.64934822 15.28566879 7.64934822 15 10 C15.33 10.33 15.66 10.66 16 11 C17.97646289 7.30487372 19.27758802 4.11704694 20 0 C23.86532283 -0.70343191 27.1628796 -0.94042138 31 0 C34.35715919 3.2736218 36.69602105 6.93337813 39 11 C40.20272819 8.59454362 40.10071472 7.05003047 40.0625 4.375 C40.05347656 3.55773437 40.04445312 2.74046875 40.03515625 1.8984375 C40.02355469 1.27195312 40.01195312 0.64546875 40 0 C41.65 0 43.3 0 45 0 C44.690625 1.2375 44.38125 2.475 44.0625 3.75 C42.78031188 9.45164503 42.37429453 15.17873504 42 21 C38.00827538 17.25019809 34.739634 13.17259923 31.453125 8.79296875 C30.97359375 8.20128906 30.4940625 7.60960938 30 7 C29.67 7 29.34 7 29 7 C28.67 11.62 28.34 16.24 28 21 C26.68 21 25.36 21 24 21 C24.66 14.73 25.32 8.46 26 2 C22.94717786 2.6587636 22.94717786 2.6587636 21.92504883 4.76586914 C21.44588013 5.88916626 21.44588013 5.88916626 20.95703125 7.03515625 C20.43012695 8.24848633 20.43012695 8.24848633 19.89257812 9.48632812 C19.53615234 10.33646484 19.17972656 11.18660156 18.8125 12.0625 C18.26045898 13.34350586 18.26045898 13.34350586 17.69726562 14.65039062 C16.7884879 16.76300377 15.88993798 18.87939769 15 21 C13.66666667 19 12.33333333 17 11 15 C10.54625 15.825 10.0925 16.65 9.625 17.5 C9.08875 18.325 8.5525 19.15 8 20 C7.34 20 6.68 20 6 20 C4.99513105 17.04329782 3.99693976 14.08438423 3 11.125 C2.71382813 10.28324219 2.42765625 9.44148438 2.1328125 8.57421875 C1.86210938 7.76855469 1.59140625 6.96289062 1.3125 6.1328125 C1.06113281 5.38918457 0.80976562 4.64555664 0.55078125 3.87939453 C0 2 0 2 0 0 Z " fill="#D6E8F3" transform="translate(106,88)"/>
<path d="M0 0 C0.99 0 1.98 0 3 0 C3.05451714 2.04136395 3.09302485 4.08315856 3.125 6.125 C3.14820313 7.26195313 3.17140625 8.39890625 3.1953125 9.5703125 C2.99672109 13.05757767 2.2524801 15.7553862 1 19 C2.32 19 3.64 19 5 19 C5 14.38 5 9.76 5 5 C5.99 5 6.98 5 8 5 C9.68846767 6.88397445 11.1532766 8.70857722 12.625 10.75 C13.03234375 11.28882812 13.4396875 11.82765625 13.859375 12.3828125 C15.91165204 15.16901643 17.51210633 17.53427255 18 21 C16.35 21.66 14.7 22.32 13 23 C13 24.65 13 26.3 13 28 C14.98 28.33 16.96 28.66 19 29 C19 27.68 19 26.36 19 25 C18.34 25 17.68 25 17 25 C17 25.99 17 26.98 17 28 C16.01 27.67 15.02 27.34 14 27 C14.33 25.68 14.66 24.36 15 23 C16.65 23.33 18.3 23.66 20 24 C20.33 23.34 20.66 22.68 21 22 C21 24.31 21 26.62 21 29 C22.65 28.34 24.3 27.68 26 27 C26.99 27.99 27.98 28.98 29 30 C25.65709335 32.04201137 23.36831113 32.17913938 19.5 31.8125 C18.5615625 31.73644531 17.623125 31.66039063 16.65625 31.58203125 C13.72797519 30.94039456 12.29546525 29.86758248 10 28 C9.34 28 8.68 28 8 28 C8 27.34 8 26.68 8 26 C8.66 26 9.32 26 10 26 C10 25.34 10 24.68 10 24 C9.34 23.67 8.68 23.34 8 23 C8.99 23 9.98 23 11 23 C11 22.34 11 21.68 11 21 C7.37 21 3.74 21 0 21 C-0.33 22.98 -0.66 24.96 -1 27 C-1.99 27.33 -2.98 27.66 -4 28 C-4 25.69 -4 23.38 -4 21 C-4.99 20.67 -5.98 20.34 -7 20 C-6.70544888 12.34167083 -3.62827658 6.65738822 0 0 Z " fill="#175AA3" transform="translate(129,90)"/>
<path d="M0 0 C0.99 0 1.98 0 3 0 C9 13.14285714 9 13.14285714 9 20 C9.66 20 10.32 20 11 20 C11.28875 19.21625 11.5775 18.4325 11.875 17.625 C13 15 13 15 15 13 C16.25664978 15.90600261 17 17.79604584 17 21 C16.34 21 15.68 21 15 21 C14.67 20.67 14.34 20.34 14 20 C14 20.66 14 21.32 14 22 C14.99 22.33 15.98 22.66 17 23 C16.195625 23.2475 15.39125 23.495 14.5625 23.75 C11.86032681 24.70866672 11.86032681 24.70866672 11.25 26.9375 C11.1675 27.618125 11.085 28.29875 11 29 C10.505 30.485 10.505 30.485 10 32 C9.34 31.34 8.68 30.68 8 30 C5.93125966 29.3574765 5.93125966 29.3574765 4 29 C4.3125 27.0625 4.3125 27.0625 5 25 C5.99 24.67 6.98 24.34 8 24 C6.05000871 24.19471111 6.05000871 24.19471111 4 25 C2.71563266 26.9837767 2.71563266 26.9837767 2 29 C0.02 29 -1.96 29 -4 29 C-4.33 28.34 -4.66 27.68 -5 27 C-5.99128906 27.21527344 -6.98257813 27.43054688 -8.00390625 27.65234375 C-12.44090803 28.28620115 -15.81221537 27.11302406 -19.9375 25.5625 C-20.62134766 25.31951172 -21.30519531 25.07652344 -22.00976562 24.82617188 C-23.67813124 24.23116036 -25.33982334 23.6174917 -27 23 C-26.67 21.68 -26.34 20.36 -26 19 C-23.36 19.66 -20.72 20.32 -18 21 C-18 20.34 -18 19.68 -18 19 C-16.9790625 19.2475 -16.9790625 19.2475 -15.9375 19.5 C-11.36020275 20.27911443 -7.55147522 20.70521601 -3.25 18.75 C-0.87857965 16.90556195 0.5952124 15.66170282 2 13 C2.38503486 8.61060262 2.47342266 6.71013399 0 3 C0 2.01 0 1.02 0 0 Z " fill="#255E9D" transform="translate(103,88)"/>
<path d="M0 0 C3.58552881 1.63687185 4.79315055 2.68972583 7 6 C7.53890114 9.50285743 7.68423961 11.90780681 5.76171875 14.9765625 C3.27197568 17.97908144 1.76439614 19.74520129 -2 21 C-6.19987818 21.38887761 -8.29607238 21.45908323 -11.875 19.125 C-14.80038857 16.19961143 -14.96503325 15.42659437 -15.3125 11.1875 C-15.27692992 7.92098141 -15.01494245 7.02370182 -13.1875 4.125 C-9.00261316 0.05968136 -5.6881854 -0.73324265 0 0 Z " fill="#235FA0" transform="translate(99,88)"/>
<path d="M0 0 C0.66 0.33 1.32 0.66 2 1 C2 1.66 2 2.32 2 3 C2.99 3 3.98 3 5 3 C5.33 2.34 5.66 1.68 6 1 C6.33 1.99 6.66 2.98 7 4 C7.99 4 8.98 4 10 4 C10 6.31 10 8.62 10 11 C10.66 11 11.32 11 12 11 C12.33 9.02 12.66 7.04 13 5 C17.01804691 4.15901344 20.01803543 3.94595055 24 5 C23.67 6.65 23.34 8.3 23 10 C22.34 10 21.68 10 21 10 C21 10.66 21 11.32 21 12 C21.66 12 22.32 12 23 12 C23 12.99 23 13.98 23 15 C16.4 15 9.8 15 3 15 C6.00440021 17.00293347 7.70993945 17.49271626 11.1875 18.125 C12.08855469 18.29257813 12.98960937 18.46015625 13.91796875 18.6328125 C14.60503906 18.75398438 15.29210937 18.87515625 16 19 C16.625 21.3125 16.625 21.3125 17 24 C16.34 24.99 15.68 25.98 15 27 C12.375 27.1875 12.375 27.1875 10 27 C10.66 26.01 11.32 25.02 12 24 C12.66 24 13.32 24 14 24 C13.07949928 21.58491373 13.07949928 21.58491373 9.58178711 20.76318359 C8.06604682 20.3003099 6.54767897 19.84598808 5.02734375 19.3984375 C4.22970108 19.1571109 3.43205841 18.9157843 2.61024475 18.66714478 C0.0547882 17.89581771 -2.50374789 17.13531491 -5.0625 16.375 C-6.79253077 15.85487483 -8.52235151 15.33405048 -10.25195312 14.8125 C-14.49890474 13.53353218 -18.7486494 12.26426475 -23 11 C-22.01 10.01 -21.02 9.02 -20 8 C-19.01 8.33 -18.02 8.66 -17 9 C-17 9.66 -17 10.32 -17 11 C-15.02 11 -13.04 11 -11 11 C-10.87625 10.38125 -10.7525 9.7625 -10.625 9.125 C-10 7 -10 7 -8 5 C-5.875 5.375 -5.875 5.375 -4 6 C-5.98 6.99 -5.98 6.99 -8 8 C-8 8.99 -8 9.98 -8 11 C-6.68 11 -5.36 11 -4 11 C-3.67 11 -3.34 11 -3 11 C-2.896875 10.401875 -2.79375 9.80375 -2.6875 9.1875 C-1.90614947 6.70138466 -0.85104584 5.77056558 1 4 C1 3.34 1 2.68 1 2 C0.34 1.67 -0.32 1.34 -1 1 C-0.67 0.67 -0.34 0.34 0 0 Z " fill="#2F6199" transform="translate(116,106)"/>
<path d="M0 0 C2.1875 1.6875 2.1875 1.6875 4.1875 4.6875 C4.53994351 9.51326501 3.82335398 12.88431603 0.8125 16.6875 C-3.3389488 19.85050861 -6.67924084 20.20952636 -11.8125 19.6875 C-15.25 17.75 -15.25 17.75 -17.8125 14.6875 C-18.89441985 10.12031164 -18.4578356 6.7707419 -16.0625 2.75 C-11.20695754 -1.70091392 -6.24419187 -2.91395621 0 0 Z " fill="#18599D" transform="translate(89.8125,66.3125)"/>
<path d="M0 0 C3 2 3 2 3.625 4.4375 C3.74875 5.283125 3.8725 6.12875 4 7 C4.33 7.99 4.66 8.98 5 10 C4.34 10 3.68 10 3 10 C3 12.97 3 15.94 3 19 C-1.2741543 21.13707715 -5.29982858 21.79760485 -10 21 C-12.8100346 19.20636089 -14.50940468 17.98119065 -16 15 C-16.57791538 7.9494324 -16.57791538 7.9494324 -14.25 4.125 C-9.5981157 -0.26844628 -6.25543259 -0.39717032 0 0 Z " fill="#315F92" transform="translate(127,65)"/>
<path d="M0 0 C0.495 0.33 0.99 0.66 1.5 1 C1.5 2.65 1.5 4.3 1.5 6 C0.4790625 4.9790625 0.4790625 4.9790625 -0.5625 3.9375 C-3.41785482 1.66734901 -3.41785482 1.66734901 -7.125 2 C-10.44107443 2.74956635 -10.44107443 2.74956635 -12.4375 4.5625 C-14.04003107 8.23889481 -13.81811482 10.99175325 -13.5 15 C-12.84 15.99 -12.18 16.98 -11.5 18 C-9.52252878 18.36297936 -9.52252878 18.36297936 -7.375 18.1875 C-6.09625 18.125625 -4.8175 18.06375 -3.5 18 C-3.005 13.545 -3.005 13.545 -2.5 9 C0.14 9 2.78 9 5.5 9 C5.17 6.03 4.84 3.06 4.5 0 C8.79 0 13.08 0 17.5 0 C17.5 0.99 17.5 1.98 17.5 3 C14.86 3 12.22 3 9.5 3 C9.5 4.65 9.5 6.3 9.5 8 C11.15 8 12.8 8 14.5 8 C14.17 9.32 13.84 10.64 13.5 12 C11.025 11.505 11.025 11.505 8.5 11 C8.5 13.31 8.5 15.62 8.5 18 C11.14 18 13.78 18 16.5 18 C16.005 19.485 16.005 19.485 15.5 21 C11.54 21 7.58 21 3.5 21 C3.83 17.7 4.16 14.4 4.5 11 C3.51 11 2.52 11 1.5 11 C1.561875 12.27875 1.62375 13.5575 1.6875 14.875 C1.79296875 17.0546875 1.79296875 17.0546875 1.5 19 C-1.93500699 21.29000466 -3.38728019 21.29748064 -7.4375 21.3125 C-8.99791016 21.33763672 -8.99791016 21.33763672 -10.58984375 21.36328125 C-13.84976159 20.95633849 -15.18505128 20.29346427 -17.5 18 C-18.74217258 14.27348227 -19.0341253 10.87057926 -18.5 7 C-16.89076503 3.89647542 -15.49652733 1.78298576 -12.75 -0.375 C-8.44319166 -1.57133565 -4.16640969 -1.66656388 0 0 Z " fill="#D9EDF7" transform="translate(54.5,65)"/>
<path d="M0 0 C5.28 0 10.56 0 16 0 C16 0.66 16 1.32 16 2 C16.99 1.67 17.98 1.34 19 1 C19 1.66 19 2.32 19 3 C19.66 3 20.32 3 21 3 C21 3.66 21 4.32 21 5 C21.7425 5.103125 22.485 5.20625 23.25 5.3125 C26.20363226 6.05090806 27.652899 7.1223192 30 9 C30.99 9.33 31.98 9.66 33 10 C33 10.66 33 11.32 33 12 C33.66 12 34.32 12 35 12 C35.495 13.485 35.495 13.485 36 15 C34.39482903 14.91266424 32.79078338 14.80447776 31.1875 14.6875 C29.84751953 14.60048828 29.84751953 14.60048828 28.48046875 14.51171875 C25.66738524 13.93138184 24.78357761 13.18868041 23 11 C22.67 10.67 22.34 10.34 22 10 C21.484375 10.33 20.96875 10.66 20.4375 11 C16.18756756 12.74356203 12.71885368 12.67918231 8.4296875 10.984375 C4.43920261 9.05311992 0.9996232 7.3210114 -2 4 C-1.34 2.68 -0.68 1.36 0 0 Z " fill="#145CA5" transform="translate(49,110)"/>
<path d="M0 0 C-3.54437841 1.24465381 -5.59704543 0.69325467 -9.125 -0.4375 C-18.87419482 -3.02133568 -31.94820613 -4.42932617 -41.10546875 0.6640625 C-48.73165202 5.99104858 -48.73165202 5.99104858 -53 14 C-53.27876518 16.0959986 -53.48588744 18.20262611 -53.625 20.3125 C-53.69976562 21.38113281 -53.77453125 22.44976562 -53.8515625 23.55078125 C-53.90054688 24.35902344 -53.94953125 25.16726562 -54 26 C-54.33 26 -54.66 26 -55 26 C-55.33 22.04 -55.66 18.08 -56 14 C-57.27534464 15.05279364 -57.27534464 15.05279364 -57.1328125 17.44140625 C-57.11792039 23.3908059 -56.90492973 29.11795673 -56 35 C-55.34 35 -54.68 35 -54 35 C-54.33 35.99 -54.66 36.98 -55 38 C-57.68773429 35.31226571 -57.94285676 32.48098789 -58.625 28.875 C-58.75688721 28.20009521 -58.88877441 27.52519043 -59.0246582 26.82983398 C-59.9019039 22.11697748 -60.29219837 17.77257336 -60 13 C-60.66 13 -61.32 13 -62 13 C-58.2069981 4.03472277 -51.68857098 0.58682033 -43 -3 C-30.08291145 -7.49104072 -12.38651929 -5.57514567 0 0 Z " fill="#E6F1F8" transform="translate(80,61)"/>
<path d="M0 0 C1.60379341 -0.05416188 3.20811406 -0.09286638 4.8125 -0.125 C5.70582031 -0.14820312 6.59914063 -0.17140625 7.51953125 -0.1953125 C10 0 10 0 13 2 C13.375 4.9375 13.375 4.9375 13 8 C11.5 9.875 11.5 9.875 10 11 C10.45375 11.53625 10.9075 12.0725 11.375 12.625 C13.21688312 15.31698302 14.07971933 17.88520388 15 21 C12.75 21 12.75 21 10 20 C8.73027122 18.00286727 7.80973616 15.99341384 6.89453125 13.8125 C6.13637029 11.81645992 6.13637029 11.81645992 4 11 C4 14.3 4 17.6 4 21 C2.02 21 0.04 21 -2 21 C-1.855625 20.07058594 -1.71125 19.14117187 -1.5625 18.18359375 C-1.376875 16.94738281 -1.19125 15.71117188 -1 14.4375 C-0.814375 13.21933594 -0.62875 12.00117187 -0.4375 10.74609375 C-0.01444923 7.12372152 0.07501425 3.64287954 0 0 Z " fill="#CFE5F4" transform="translate(96,65)"/>
<path d="M0 0 C9.625 -0.25 9.625 -0.25 13 2 C13.43132515 6.05445642 13.30019361 7.54970958 11 11 C11.28875 11.55429688 11.5775 12.10859375 11.875 12.6796875 C12.431875 13.76636719 12.431875 13.76636719 13 14.875 C13.37125 15.59429687 13.7425 16.31359375 14.125 17.0546875 C15 19 15 19 15 21 C12.625 20.8125 12.625 20.8125 10 20 C8.40339294 17.11090151 8 15.30941204 8 12 C6.68 11.67 5.36 11.34 4 11 C4 14.3 4 17.6 4 21 C2.02 21 0.04 21 -2 21 C-2 20.34 -2 19.68 -2 19 C-1.34 19 -0.68 19 0 19 C0 12.73 0 6.46 0 0 Z " fill="#D8EAF6" transform="translate(69,88)"/>
<path d="M0 0 C1.62490954 -0.02698189 3.24994633 -0.04638757 4.875 -0.0625 C5.77992187 -0.07410156 6.68484375 -0.08570312 7.6171875 -0.09765625 C10 0 10 0 12 1 C12.125 3.375 12.125 3.375 12 6 C11.34 6.66 10.68 7.32 10 8 C10.495 8.391875 10.99 8.78375 11.5 9.1875 C13 11 13 11 13.4375 13.4375 C12.85208254 16.86637367 11.7172436 17.86662693 9 20 C5.984375 20.390625 5.984375 20.390625 2.75 20.25 C1.67234375 20.21390625 0.5946875 20.1778125 -0.515625 20.140625 C-1.74539062 20.07101563 -1.74539062 20.07101563 -3 20 C-2.744398 18.06043186 -2.46995354 16.12334011 -2.1875 14.1875 C-2.03667969 13.10855469 -1.88585938 12.02960938 -1.73046875 10.91796875 C-0.98387597 7.93559009 -0.37924316 6.85776521 2 5 C2 5.99 2 6.98 2 8 C3.65 7.34 5.3 6.68 7 6 C7 4.68 7 3.36 7 2 C4.58354218 1.83312552 4.58354218 1.83312552 2 2 C1.34 2.66 0.68 3.32 0 4 C0 2.68 0 1.36 0 0 Z " fill="#C6E0EF" transform="translate(53,89)"/>
<path d="M0 0 C1.8125 1.3125 1.8125 1.3125 3 3 C3 3.99 3 4.98 3 6 C3.99 6.33 4.98 6.66 6 7 C4.35 7 2.7 7 1 7 C1.01160156 7.71027344 1.02320313 8.42054687 1.03515625 9.15234375 C1.04869141 10.53099609 1.04869141 10.53099609 1.0625 11.9375 C1.07410156 12.85402344 1.08570313 13.77054688 1.09765625 14.71484375 C1 17 1 17 0 18 C-7.22330097 18.58252427 -7.22330097 18.58252427 -10 16.5 C-11.41286694 12.96783265 -11.68444381 9.70924386 -11 6 C-7.94945396 1.22081121 -5.70100008 -0.55619513 0 0 Z " fill="#225EA0" transform="translate(51,66)"/>
<path d="M0 0 C8.01138347 -0.59960458 14.8179791 0.83700264 22.44921875 3.04296875 C26.67259697 4.18128301 30.64655883 4.69449536 35 5 C35 5.66 35 6.32 35 7 C35.78375 7.144375 36.5675 7.28875 37.375 7.4375 C40 8 40 8 42 9 C42 10.32 42 11.64 42 13 C38.95139986 11.98379995 38.13333078 11.22608429 36 9 C33.15504507 7.57752253 30.6688204 7.79206399 27.5 7.75 C26.3346875 7.72421875 25.169375 7.6984375 23.96875 7.671875 C22.9890625 7.78015625 22.009375 7.8884375 21 8 C20.01 9.485 20.01 9.485 19 11 C19 9.68 19 8.36 19 7 C17.71416016 7.05220703 17.71416016 7.05220703 16.40234375 7.10546875 C9.78300666 7.26218361 4.82988446 7.253889 -1 4 C-0.67 2.68 -0.34 1.36 0 0 Z " fill="#1A5A9F" transform="translate(53,58)"/>
<path d="M0 0 C2.1875 1.6875 2.1875 1.6875 4.1875 4.6875 C4.53994351 9.51326501 3.82335398 12.88431603 0.8125 16.6875 C-3.3389488 19.85050861 -6.67924084 20.20952636 -11.8125 19.6875 C-15.25 17.75 -15.25 17.75 -17.8125 14.6875 C-18.89441985 10.12031164 -18.4578356 6.7707419 -16.0625 2.75 C-11.20695754 -1.70091392 -6.24419187 -2.91395621 0 0 Z M-12.125 2.625 C-14.31667276 6.60248019 -14.74073031 10.22195957 -13.8125 14.6875 C-12.59706428 16.53341336 -12.59706428 16.53341336 -10.8125 17.6875 C-7.45307256 17.56752045 -4.88461363 17.47487214 -2.12109375 15.4453125 C-0.38422185 13.11220099 -0.37929629 11.57460741 -0.375 8.6875 C-0.35566406 7.82125 -0.33632812 6.955 -0.31640625 6.0625 C-0.60765406 3.5448527 -0.60765406 3.5448527 -2.68359375 1.90625 C-6.51784925 -0.28877333 -8.71978983 -0.22801393 -12.125 2.625 Z " fill="#D3E6F5" transform="translate(89.8125,66.3125)"/>
<path d="M0 0 C3.58552881 1.63687185 4.79315055 2.68972583 7 6 C7.53890114 9.50285743 7.68423961 11.90780681 5.76171875 14.9765625 C3.27197568 17.97908144 1.76439614 19.74520129 -2 21 C-6.19987818 21.38887761 -8.29607238 21.45908323 -11.875 19.125 C-14.80038857 16.19961143 -14.96503325 15.42659437 -15.3125 11.1875 C-15.27692992 7.92098141 -15.01494245 7.02370182 -13.1875 4.125 C-9.00261316 0.05968136 -5.6881854 -0.73324265 0 0 Z M-11 7 C-11.57774237 10.08309247 -11.6892505 12.93283527 -11 16 C-9.78064939 17.84464168 -9.78064939 17.84464168 -8 19 C-3.35184815 18.84988416 -3.35184815 18.84988416 0.66015625 16.72265625 C3.1064739 13.5773907 3.23145629 9.88566014 3 6 C1.105781 3.01296234 -0.01673238 2.22690791 -3.4375 1.4375 C-7.33424276 2.29288256 -8.6933477 3.77068679 -11 7 Z " fill="#CBE5F3" transform="translate(99,88)"/>
<path d="M0 0 C12.21 0 24.42 0 37 0 C37 0.33 37 0.66 37 1 C25.12 1 13.24 1 1 1 C1.32496736 8.46197617 1.32496736 8.46197617 1.65820312 15.92358398 C2.03609045 24.97563484 2 33.91228163 2 43 C13.55 43 25.1 43 37 43 C37 43.66 37 44.32 37 45 C24.79 45 12.58 45 0 45 C0 30.15 0 15.3 0 0 Z " fill="#89C47E" transform="translate(163,133)"/>
<path d="M0 0 C0.99 0.66 1.98 1.32 3 2 C3.1875 5.125 3.1875 5.125 3 8 C2.319375 7.154375 1.63875 6.30875 0.9375 5.4375 C-1.83677515 2.607544 -1.83677515 2.607544 -5.6875 3 C-9.25539113 3.69383331 -9.25539113 3.69383331 -11 7 C-11.31478577 8.95214625 -11.31478577 8.95214625 -11.25 11 C-11.25515625 11.680625 -11.2603125 12.36125 -11.265625 13.0625 C-11.09917603 15.32416007 -11.09917603 15.32416007 -9 18 C-7.02252878 18.36297936 -7.02252878 18.36297936 -4.875 18.1875 C-3.59625 18.125625 -2.3175 18.06375 -1 18 C-1 15.03 -1 12.06 -1 9 C0.65 9 2.3 9 4 9 C3.67 12.3 3.34 15.6 3 19 C-1.2741543 21.13707715 -5.29982858 21.79760485 -10 21 C-12.8100346 19.20636089 -14.50940468 17.98119065 -16 15 C-16.57791538 7.9494324 -16.57791538 7.9494324 -14.25 4.125 C-9.5981157 -0.26844628 -6.25543259 -0.39717032 0 0 Z " fill="#CCE8F7" transform="translate(127,65)"/>
<path d="M0 0 C2.64 0.66 5.28 1.32 8 2 C8 1.34 8 0.68 8 0 C10.14729141 0.28073073 12.29283193 0.57488499 14.4375 0.875 C15.63246094 1.03742188 16.82742187 1.19984375 18.05859375 1.3671875 C19.51458984 1.68042969 19.51458984 1.68042969 21 2 C21.33 2.66 21.66 3.32 22 4 C23.2065625 3.7215625 23.2065625 3.7215625 24.4375 3.4375 C25.7059375 3.2209375 25.7059375 3.2209375 27 3 C28 4 28 4 28.0625 7.0625 C28.041875 8.031875 28.02125 9.00125 28 10 C26.02 10 24.04 10 22 10 C21.67 9.34 21.34 8.68 21 8 C20.00871094 8.21527344 19.01742187 8.43054688 17.99609375 8.65234375 C13.55909197 9.28620115 10.18778463 8.11302406 6.0625 6.5625 C5.37865234 6.31951172 4.69480469 6.07652344 3.99023438 5.82617188 C2.32186876 5.23116036 0.66017666 4.6174917 -1 4 C-0.67 2.68 -0.34 1.36 0 0 Z " fill="#235C97" transform="translate(77,107)"/>
<path d="M0 0 C3.96 0 7.92 0 12 0 C12 0.99 12 1.98 12 3 C9.36 2.67 6.72 2.34 4 2 C4 3.98 4 5.96 4 8 C5.65 8 7.3 8 9 8 C9 8.99 9 9.98 9 11 C7.02 11 5.04 11 3 11 C3 13.64 3 16.28 3 19 C6.96 18.505 6.96 18.505 11 18 C11 18.99 11 19.98 11 21 C6.71 21 2.42 21 -2 21 C-1.01 10.605 -1.01 10.605 0 0 Z " fill="#CBE5F5" transform="translate(134,65)"/>
<path d="M0 0 C4.75915758 0.66706794 9.22225506 1.89739489 13.78515625 3.36328125 C14.52269638 3.5965361 15.26023651 3.82979095 16.02012634 4.07011414 C18.3688144 4.81376236 20.71569188 5.56294268 23.0625 6.3125 C25.37756897 7.04784634 27.69299754 7.78204506 30.00863647 8.51559448 C31.5184378 8.9948846 33.02758267 9.47624786 34.53604126 9.95974731 C38.00635271 11.06927921 41.47808659 12.14976215 44.98388672 13.14208984 C46.16354004 13.48062988 47.34319336 13.81916992 48.55859375 14.16796875 C49.59169678 14.45309326 50.6247998 14.73821777 51.68920898 15.03198242 C52.45177002 15.35142822 53.21433105 15.67087402 54 16 C54.495 17.485 54.495 17.485 55 19 C51.25 22 51.25 22 49 22 C49 21.01 49 20.02 49 19 C49.99 19 50.98 19 52 19 C52 18.34 52 17.68 52 17 C50.39125 16.814375 50.39125 16.814375 48.75 16.625 C45.62136385 16.10356064 43.66519576 15.59911746 41 14 C41 14.66 41 15.32 41 16 C31.81521557 13.45700275 23.04959361 9.99106377 14.19335938 6.49609375 C13.08154297 6.06167969 11.96972656 5.62726563 10.82421875 5.1796875 C9.32507935 4.58776611 9.32507935 4.58776611 7.7956543 3.98388672 C5.1966989 3.06922509 2.71195535 2.46186004 0 2 C0 1.34 0 0.68 0 0 Z " fill="#D5EBF8" transform="translate(75,111)"/>
<path d="M0 0 C2.40596737 0.93134221 4.77206456 1.88837554 7.08984375 3.0234375 C11.92404518 5.3537705 15.51614117 6.63275294 21 6 C22.6792238 5.36562656 24.35008418 4.70710678 26 4 C26.66 4.33 27.32 4.66 28 5 C28 5.66 28 6.32 28 7 C29.58272601 8.58272601 31.38034003 8.34735747 33.5625 8.5625 C34.38878906 8.64628906 35.21507812 8.73007813 36.06640625 8.81640625 C36.70449219 8.87699219 37.34257813 8.93757813 38 9 C38 8.34 38 7.68 38 7 C37.34 7 36.68 7 36 7 C36.33 6.34 36.66 5.68 37 5 C38.98 6.32 40.96 7.64 43 9 C42.67 9.66 42.34 10.32 42 11 C30.94197807 14.68600731 18.91458257 11.28547438 8.77734375 6.46875 C1.25404991 2.50809982 1.25404991 2.50809982 0 0 Z " fill="#2F66A3" transform="translate(46,115)"/>
<path d="M0 0 C0.33 0 0.66 0 1 0 C1.01417969 0.79921875 1.02835938 1.5984375 1.04296875 2.421875 C1.3654517 9.84769865 2.70379689 15.57592885 5.78515625 22.328125 C7.24478679 25.53837352 8.2516784 28.55772065 9 32 C8.67 32.66 8.34 33.32 8 34 C5.2556051 32.95902262 4.0212861 32.02715813 2.1875 29.6875 C0.81270763 26.5761278 0.99704099 25.19123321 2 22 C1.34 22 0.68 22 0 22 C-2.03477391 15.38698478 -2.72346226 8.91544811 -2 2 C-1.34 1.34 -0.68 0.68 0 0 Z " fill="#EDF7FB" transform="translate(24,74)"/>
<path d="M0 0 C4.18041516 0.63735312 7.55437301 2.04700325 11.359375 3.87109375 C11.9492218 4.15348404 12.5390686 4.43587433 13.14678955 4.7268219 C14.38518935 5.32165072 15.62221243 5.91935345 16.85791016 6.51977539 C18.75398163 7.43943122 20.655858 8.34618031 22.55859375 9.25195312 C23.763389 9.83256999 24.96782914 10.41392444 26.171875 10.99609375 C27.2659668 11.52388428 28.36005859 12.0516748 29.48730469 12.59545898 C32 14 32 14 33 16 C31.02 16.66 29.04 17.32 27 18 C26.34 17.34 25.68 16.68 25 16 C25.33 15.34 25.66 14.68 26 14 C23.58354218 13.83312552 23.58354218 13.83312552 21 14 C20.34 14.66 19.68 15.32 19 16 C16.875 15.625 16.875 15.625 15 15 C15.99 14.34 16.98 13.68 18 13 C17.28714844 12.55269531 16.57429688 12.10539062 15.83984375 11.64453125 C10.44721011 8.24056735 5.09008857 4.8458447 0 1 C0 0.67 0 0.34 0 0 Z " fill="#E1F0F9" transform="translate(70,111)"/>
<path d="M0 0 C1.55078125 1.453125 1.55078125 1.453125 3 4 C3.09264602 6.96768537 2.64149028 9.82212688 2.1875 12.75 C2.07857422 13.54277344 1.96964844 14.33554688 1.85742188 15.15234375 C1.58704456 17.10376263 1.29556663 19.0522372 1 21 C2.65 21 4.3 21 6 21 C5.67 22.65 5.34 24.3 5 26 C4.34 26 3.68 26 3 26 C3 26.66 3 27.32 3 28 C3.66 28.33 4.32 28.66 5 29 C3.68 29 2.36 29 1 29 C0.67 27.35 0.34 25.7 0 24 C-1.65 24 -3.3 24 -5 24 C-5 24.99 -5 25.98 -5 27 C-4.34 27.33 -3.68 27.66 -3 28 C-3 27.01 -3 26.02 -3 25 C-2.34 25 -1.68 25 -1 25 C-1 26.32 -1 27.64 -1 29 C-2.99954746 29.04254356 -5.00041636 29.04080783 -7 29 C-8 28 -8 28 -8.375 25.625 C-8.25125 24.75875 -8.1275 23.8925 -8 23 C-5.5625 21.3125 -5.5625 21.3125 -3 20 C-1.9108272 17.8216544 -1.71967644 16.2796036 -1.46484375 13.8671875 C-1.37783203 13.06152344 -1.29082031 12.25585938 -1.20117188 11.42578125 C-1.0706543 10.16314453 -1.0706543 10.16314453 -0.9375 8.875 C-0.84662109 8.02550781 -0.75574219 7.17601563 -0.66210938 6.30078125 C-0.4379632 4.2008855 -0.21853552 2.10048707 0 0 Z " fill="#30669C" transform="translate(149,90)"/>
<path d="M0 0 C0.33 0 0.66 0 1 0 C1.15855469 0.97839844 1.31710938 1.95679687 1.48046875 2.96484375 C3.89059172 16.90048094 9.21171257 27.19412799 20.71875 36.10546875 C23 38 23 38 24 41 C17.39439102 40.15673077 14.37248614 36.84419867 10.1484375 31.86328125 C2.41469256 21.55630845 -0.37141054 12.75176177 0 0 Z " fill="#315C8E" transform="translate(20,82)"/>
<path d="M0 0 C2.14576637 -0.02685938 4.29162645 -0.04633088 6.4375 -0.0625 C7.63246094 -0.07410156 8.82742187 -0.08570313 10.05859375 -0.09765625 C13 0 13 0 14 1 C14.1875 3.4375 14.1875 3.4375 14 6 C13.34 6.66 12.68 7.32 12 8 C11.59952556 10.32275177 11.2602896 12.65739357 11 15 C9.02 15 7.04 15 5 15 C5 15.99 5 16.98 5 18 C5.99 18.33 6.98 18.66 8 19 C6.35 19.33 4.7 19.66 3 20 C3 17.69 3 15.38 3 13 C4.98 13 6.96 13 9 13 C9 12.01 9 11.02 9 10 C7.35 10 5.7 10 4 10 C4 8.02 4 6.04 4 4 C9.75 3.875 9.75 3.875 12 5 C12 4.01 12 3.02 12 2 C7.71 2 3.42 2 -1 2 C-0.67 1.34 -0.34 0.68 0 0 Z " fill="#295E99" transform="translate(134,63)"/>
<path d="M0 0 C0 1.32 0 2.64 0 4 C0.969375 4.268125 1.93875 4.53625 2.9375 4.8125 C3.948125 5.204375 4.95875 5.59625 6 6 C7.1577506 9.47325181 7.06866652 12.36067448 7 16 C4.36 16 1.72 16 -1 16 C-0.505 15.4225 -0.01 14.845 0.5 14.25 C2.36980013 11.89599371 2.36980013 11.89599371 2 8 C1.36191406 7.87882812 0.72382812 7.75765625 0.06640625 7.6328125 C-0.75988281 7.46523437 -1.58617187 7.29765625 -2.4375 7.125 C-3.26121094 6.96257812 -4.08492187 6.80015625 -4.93359375 6.6328125 C-5.61550781 6.42398438 -6.29742187 6.21515625 -7 6 C-7.33 5.34 -7.66 4.68 -8 4 C-10.31 4 -12.62 4 -15 4 C-10.7923604 -0.2076396 -5.6868542 -0.22747417 0 0 Z " fill="#33679E" transform="translate(53,58)"/>
<path d="M0 0 C0.495 0.33 0.99 0.66 1.5 1 C1.5 2.65 1.5 4.3 1.5 6 C0.4790625 4.9790625 0.4790625 4.9790625 -0.5625 3.9375 C-3.41785482 1.66734901 -3.41785482 1.66734901 -7.125 2 C-10.93544614 3.12902108 -11.58121259 3.64634225 -13.5 7 C-14.07437061 10.03883681 -14.07437061 10.03883681 -14.1875 13.25 C-14.25324219 14.32765625 -14.31898437 15.4053125 -14.38671875 16.515625 C-14.42410156 17.33546875 -14.46148437 18.1553125 -14.5 19 C-15.49 18.67 -16.48 18.34 -17.5 18 C-18.74217258 14.27348227 -19.0341253 10.87057926 -18.5 7 C-16.89076503 3.89647542 -15.49652733 1.78298576 -12.75 -0.375 C-8.44319166 -1.57133565 -4.16640969 -1.66656388 0 0 Z " fill="#CDE7F7" transform="translate(54.5,65)"/>
<path d="M0 0 C0.33 0 0.66 0 1 0 C1.66 6.27 2.32 12.54 3 19 C14.22 19.33 25.44 19.66 37 20 C37 20.66 37 21.32 37 22 C24.79 22 12.58 22 0 22 C0 14.74 0 7.48 0 0 Z " fill="#6589C1" transform="translate(163,67)"/>
<path d="M0 0 C0.66 0.33 1.32 0.66 2 1 C2 1.66 2 2.32 2 3 C2.99 3 3.98 3 5 3 C5.33 2.34 5.66 1.68 6 1 C6.33 1.99 6.66 2.98 7 4 C7.99 4 8.98 4 10 4 C9.67 6.64 9.34 9.28 9 12 C9.66 12.33 10.32 12.66 11 13 C9.35 13 7.7 13 6 13 C6 12.34 6 11.68 6 11 C5.01 11.66 4.02 12.32 3 13 C0.3125 12.625 0.3125 12.625 -2 12 C-2.75 10.25 -2.75 10.25 -3 8 C-1.0625 5.875 -1.0625 5.875 1 4 C1 3.34 1 2.68 1 2 C0.34 1.67 -0.32 1.34 -1 1 C-0.67 0.67 -0.34 0.34 0 0 Z " fill="#5585B8" transform="translate(116,106)"/>
<path d="M0 0 C2.475 0.495 2.475 0.495 5 1 C5.33 2.32 5.66 3.64 6 5 C6.66 5 7.32 5 8 5 C8 3.35 8 1.7 8 0 C8.33 0 8.66 0 9 0 C9.36923077 5.53846154 9.36923077 5.53846154 7.5 7.875 C6.7575 8.431875 6.7575 8.431875 6 9 C6.680625 9.804375 6.680625 9.804375 7.375 10.625 C9.21688312 13.31698302 10.07971933 15.88520388 11 19 C8.75 19.0625 8.75 19.0625 6 18 C4.71893601 15.73751071 3.80022522 13.46698867 2.89453125 11.03125 C2.18066122 8.82436207 2.18066122 8.82436207 0 8 C0 5.36 0 2.72 0 0 Z " fill="#CDE5F3" transform="translate(100,67)"/>
<path d="M0 0 C-0.33 0.99 -0.66 1.98 -1 3 C-2.98 3 -4.96 3 -7 3 C-7 3.66 -7 4.32 -7 5 C-13.6 5 -20.2 5 -27 5 C-27 4.01 -27 3.02 -27 2 C-22.38 1.67 -17.76 1.34 -13 1 C-13 0.67 -13 0.34 -13 0 C-4.57142857 -2.57142857 -4.57142857 -2.57142857 0 0 Z " fill="#1C5DA2" transform="translate(101,131)"/>
<path d="M0 0 C1.37466431 0.07069702 1.37466431 0.07069702 2.77709961 0.14282227 C3.76645508 0.19116211 4.75581055 0.23950195 5.77514648 0.28930664 C7.33652344 0.37341797 7.33652344 0.37341797 8.92944336 0.45922852 C10.49662109 0.53753906 10.49662109 0.53753906 12.09545898 0.61743164 C14.68622572 0.74756148 17.27665002 0.8825401 19.86694336 1.02172852 C19.86694336 1.35172852 19.86694336 1.68172852 19.86694336 2.02172852 C19.00697754 2.0733313 19.00697754 2.0733313 18.12963867 2.12597656 C3.01569014 3.10356349 -9.25661696 4.85689338 -21.13305664 15.02172852 C-20.56906668 11.51584495 -19.46341891 10.03190459 -16.75805664 7.77172852 C-16.15219727 7.25094727 -15.54633789 6.73016602 -14.92211914 6.19360352 C-13.13305664 5.02172852 -13.13305664 5.02172852 -10.13305664 5.02172852 C-10.13305664 4.36172852 -10.13305664 3.70172852 -10.13305664 3.02172852 C-8.99868164 2.71235352 -7.86430664 2.40297852 -6.69555664 2.08422852 C-3.89307889 1.24840182 -2.66408347 0.02713785 0 0 Z " fill="#255B95" transform="translate(41.133056640625,53.978271484375)"/>
<path d="M0 0 C-0.875 7.625 -0.875 7.625 -2 11 C-3.9914056 11.38133299 -5.99279077 11.71325582 -8 12 C-9.57897833 10.42102167 -9.24543509 8.80637428 -9.3125 6.625 C-9.25771697 2.32453249 -9.25771697 2.32453249 -7.3125 -0.125 C-4.46377442 -1.20289616 -2.87657748 -0.87895423 0 0 Z " fill="#155BA6" transform="translate(126,70)"/>
<path d="M0 0 C5.28 0.66 10.56 1.32 16 2 C16 2.66 16 3.32 16 4 C16.78375 4.144375 17.5675 4.28875 18.375 4.4375 C21 5 21 5 23 6 C23 7.32 23 8.64 23 10 C19.95139986 8.98379995 19.13333078 8.22608429 17 6 C14.15504507 4.57752253 11.6688204 4.79206399 8.5 4.75 C7.3346875 4.72421875 6.169375 4.6984375 4.96875 4.671875 C3.9890625 4.78015625 3.009375 4.8884375 2 5 C1.01 6.485 1.01 6.485 0 8 C0 6.68 0 5.36 0 4 C-4.29 4 -8.58 4 -13 4 C-13 3.67 -13 3.34 -13 3 C-9.04 3 -5.08 3 -1 3 C-0.67 2.01 -0.34 1.02 0 0 Z " fill="#1B589A" transform="translate(72,61)"/>
<path d="M0 0 C-3.54437841 1.24465381 -5.59704543 0.69325467 -9.125 -0.4375 C-20.56046741 -3.46453549 -33.45485988 -3.93495323 -44 2 C-44.66 0.68 -45.32 -0.64 -46 -2 C-31.19789944 -6.40913634 -14.3654929 -6.46587743 0 0 Z " fill="#A7CDEE" transform="translate(80,61)"/>
<path d="M0 0 C0.66 0.33 1.32 0.66 2 1 C2 2.65 2 4.3 2 6 C4.97 6.495 4.97 6.495 8 7 C8 5.68 8 4.36 8 3 C7.34 3 6.68 3 6 3 C6 3.99 6 4.98 6 6 C5.01 5.67 4.02 5.34 3 5 C3.33 3.68 3.66 2.36 4 1 C5.65 1.33 7.3 1.66 9 2 C9.33 1.34 9.66 0.68 10 0 C10 2.31 10 4.62 10 7 C11.65 6.34 13.3 5.68 15 5 C15.99 5.99 16.98 6.98 18 8 C14.65709335 10.04201137 12.36831113 10.17913938 8.5 9.8125 C7.5615625 9.73644531 6.623125 9.66039063 5.65625 9.58203125 C2.72797519 8.94039456 1.29546525 7.86758248 -1 6 C-1.66 6 -2.32 6 -3 6 C-3 5.34 -3 4.68 -3 4 C-2.34 4 -1.68 4 -1 4 C-1 3.34 -1 2.68 -1 2 C-1.66 1.67 -2.32 1.34 -3 1 C-2.01 0.67 -1.02 0.34 0 0 Z " fill="#245896" transform="translate(140,112)"/>
<path d="M0 0 C2.31 0 4.62 0 7 0 C5.68 0.33 4.36 0.66 3 1 C3 3.64 3 6.28 3 9 C4.65 9 6.3 9 8 9 C7.67 9.66 7.34 10.32 7 11 C5.68 10.67 4.36 10.34 3 10 C3 13.3 3 16.6 3 20 C1.02 20 -0.96 20 -3 20 C-3 19.34 -3 18.68 -3 18 C-2.34 18 -1.68 18 -1 18 C-1.01160156 17.28714844 -1.02320312 16.57429688 -1.03515625 15.83984375 C-1.08606026 10.43674634 -0.94608271 5.32171525 0 0 Z " fill="#E5F6FB" transform="translate(70,89)"/>
<path d="M0 0 C2.31 0 4.62 0 7 0 C7 0.66 7 1.32 7 2 C6.01 2 5.02 2 4 2 C4.061875 3.27875 4.12375 4.5575 4.1875 5.875 C4.29296875 8.0546875 4.29296875 8.0546875 4 10 C0.52614567 12.31590289 -0.96430006 12.26991835 -5.0625 12.25 C-6.12597656 12.25515625 -7.18945312 12.2603125 -8.28515625 12.265625 C-11 12 -11 12 -13 10 C-12.34 8.68 -11.68 7.36 -11 6 C-10.01 7.485 -10.01 7.485 -9 9 C-7.02252878 9.36297936 -7.02252878 9.36297936 -4.875 9.1875 C-3.59625 9.125625 -2.3175 9.06375 -1 9 C-0.67 6.03 -0.34 3.06 0 0 Z " fill="#C8DEEE" transform="translate(52,74)"/>
<path d="M0 0 C3.3 0 6.6 0 10 0 C10.33 1.65 10.66 3.3 11 5 C10.34 5 9.68 5 9 5 C8.34 6.32 7.68 7.64 7 9 C5.35 9 3.7 9 2 9 C2 12.3 2 15.6 2 19 C0.68 19 -0.64 19 -2 19 C-1.91276622 17.22825181 -1.80458345 15.45752623 -1.6875 13.6875 C-1.62949219 12.70136719 -1.57148437 11.71523437 -1.51171875 10.69921875 C-0.95377187 7.75615543 -0.31459868 6.81817001 2 5 C2 5.99 2 6.98 2 8 C3.65 7.34 5.3 6.68 7 6 C7 4.68 7 3.36 7 2 C4.58354218 1.83312552 4.58354218 1.83312552 2 2 C1.34 2.66 0.68 3.32 0 4 C0 2.68 0 1.36 0 0 Z " fill="#E7F6FD" transform="translate(53,89)"/>
<path d="M0 0 C0.99 0.66 1.98 1.32 3 2 C2.5020163 5.73487777 2.12508244 7.81237635 0 11 C-3.125 11.1875 -3.125 11.1875 -6 11 C-6.33 8.69 -6.66 6.38 -7 4 C-4.69 2.68 -2.38 1.36 0 0 Z " fill="#135CA5" transform="translate(85,71)"/>
<path d="M0 0 C1.0209375 0.7425 1.0209375 0.7425 2.0625 1.5 C1.4025 4.8 0.7425 8.1 0.0625 11.5 C-0.2675 11.5 -0.5975 11.5 -0.9375 11.5 C-1.10026042 9.48177083 -1.26302083 7.46354167 -1.42578125 5.4453125 C-1.81143036 3.10480784 -1.81143036 3.10480784 -4.9375 1.5 C-7.4375 1 -7.4375 1 -9.9375 1.5 C-13.36359783 4.55901592 -13.51349326 8.09032988 -13.9375 12.5 C-14.2675 12.5 -14.5975 12.5 -14.9375 12.5 C-15.2675 10.52 -15.5975 8.54 -15.9375 6.5 C-16.2675 9.14 -16.5975 11.78 -16.9375 14.5 C-17.2675 14.5 -17.5975 14.5 -17.9375 14.5 C-18.56126238 6.5470297 -18.56126238 6.5470297 -16.1875 2.5625 C-11.28092157 -1.9351969 -6.21630745 -3.17428466 0 0 Z " fill="#D1E8F5" transform="translate(89.9375,66.5)"/>
<path d="M0 0 C11.55 0 23.1 0 35 0 C32.14297567 2.85702433 30.09062225 2.30039265 26.09375 2.37890625 C25.41324585 2.39590073 24.7327417 2.4128952 24.03161621 2.43040466 C21.85450544 2.48359054 19.67741357 2.52384911 17.5 2.5625 C15.32268495 2.60643039 13.14551767 2.65315028 10.96838379 2.70530701 C8.99273061 2.75186812 7.01686975 2.78935003 5.04101562 2.82641602 C2.08199343 2.79420535 2.08199343 2.79420535 0 4 C0 2.68 0 1.36 0 0 Z " fill="#FDA83A" transform="translate(165,22)"/>
<path d="M0 0 C2.125 0.375 2.125 0.375 4 1 C2.02 1.99 2.02 1.99 0 3 C0 3.99 0 4.98 0 6 C1.32 6 2.64 6 4 6 C4 7.65 4 9.3 4 11 C-2.45054982 9.64746536 -8.71105679 7.96939767 -15 6 C-14.01 5.01 -13.02 4.02 -12 3 C-11.01 3.33 -10.02 3.66 -9 4 C-9 4.66 -9 5.32 -9 6 C-7.02 6 -5.04 6 -3 6 C-2.87625 5.38125 -2.7525 4.7625 -2.625 4.125 C-2 2 -2 2 0 0 Z " fill="#6695C7" transform="translate(108,111)"/>
<path d="M0 0 C0.66 0 1.32 0 2 0 C2.85305168 2.90669462 3.07289715 5.31048873 2.87890625 8.328125 C2.83056641 9.12734375 2.78222656 9.9265625 2.73242188 10.75 C2.67634766 11.575 2.62027344 12.4 2.5625 13.25 C2.51029297 14.09046875 2.45808594 14.9309375 2.40429688 15.796875 C2.27504311 17.8649352 2.13825726 19.9325222 2 22 C1.01 22.33 0.02 22.66 -1 23 C-2.76236045 9.52472089 -2.76236045 9.52472089 0 4 C0 2.68 0 1.36 0 0 Z " fill="#F9FDFE" transform="translate(18,74)"/>
<path d="M0 0 C3.63 0 7.26 0 11 0 C11 0.33 11 0.66 11 1 C9.7728125 1.14179687 8.545625 1.28359375 7.28125 1.4296875 C4.53026259 2.11743435 3.32456699 2.57361248 1.58984375 4.85253906 C0.41594124 7.24022405 -0.56875981 9.63278753 -1.5 12.125 C-2.01820312 13.39923828 -2.01820312 13.39923828 -2.546875 14.69921875 C-3.39263852 16.79013411 -4.20843609 18.8881024 -5 21 C-7 18 -7 18 -7 16 C-6.01 16 -5.02 16 -4 16 C-4 15.34 -4 14.68 -4 14 C-4.66 14 -5.32 14 -6 14 C-5.67 12.68 -5.34 11.36 -5 10 C-4.67 10.33 -4.34 10.66 -4 11 C-1.9474944 7.16270693 -0.8697257 4.34862851 0 0 Z " fill="#BFDCF0" transform="translate(126,88)"/>
<path d="M0 0 C10.70440452 10.07473366 10.70440452 10.07473366 12 17 C10.35 17.33 8.7 17.66 7 18 C7.061875 17.0925 7.12375 16.185 7.1875 15.25 C6.98016583 11.65620765 6.27539763 10.65463057 4 8 C4 7.34 4 6.68 4 6 C3.34 6 2.68 6 2 6 C1.34 8.64 0.68 11.28 0 14 C-0.33 14 -0.66 14 -1 14 C-1.02685938 11.85423363 -1.04633088 9.70837355 -1.0625 7.5625 C-1.07410156 6.36753906 -1.08570313 5.17257813 -1.09765625 3.94140625 C-1 1 -1 1 0 0 Z " fill="#335E93" transform="translate(135,94)"/>
<path d="M0 0 C4.29 0 8.58 0 13 0 C13 0.99 13 1.98 13 3 C10.36 3 7.72 3 5 3 C5 4.65 5 6.3 5 8 C6.32 8.33 7.64 8.66 9 9 C6.36 9 3.72 9 1 9 C0.67 6.03 0.34 3.06 0 0 Z " fill="#B8D4E9" transform="translate(59,65)"/>
<path d="M0 0 C-0.33 1.65 -0.66 3.3 -1 5 C-1.66 5 -2.32 5 -3 5 C-3 5.66 -3 6.32 -3 7 C-2.34 7.33 -1.68 7.66 -1 8 C-2.32 8 -3.64 8 -5 8 C-5.66 7.01 -6.32 6.02 -7 5 C-7.66 4.67 -8.32 4.34 -9 4 C-9 4.99 -9 5.98 -9 7 C-8.34 7.33 -7.68 7.66 -7 8 C-8.32 8 -9.64 8 -11 8 C-11 5.36 -11 2.72 -11 0 C-7.18243176 -1.37432457 -3.92744671 -0.67975039 0 0 Z " fill="#6295C7" transform="translate(140,111)"/>
<path d="M0 0 C4.33333333 4.33333333 8.66666667 8.66666667 13 13 C12.01 13.33 11.02 13.66 10 14 C9.67 13.01 9.34 12.02 9 11 C6.98491642 10.26676204 6.98491642 10.26676204 5 10 C5 10.66 5 11.32 5 12 C5.66 12.33 6.32 12.66 7 13 C4 13 4 13 2.61328125 11.6875 C1.40885417 10.125 0.20442708 8.5625 -1 7 C-0.34 7 0.32 7 1 7 C0.67 4.69 0.34 2.38 0 0 Z " fill="#D8E9F5" transform="translate(31,101)"/>
<path d="M0 0 C3.3 0 6.6 0 10 0 C10 0.33 10 0.66 10 1 C7.03 1 4.06 1 1 1 C1.33 1.66 1.66 2.32 2 3 C2.33 2.67 2.66 2.34 3 2 C4.66617115 1.95936168 6.33388095 1.957279 8 2 C8.625 4.375 8.625 4.375 9 7 C8.34 7.66 7.68 8.32 7 9 C5.32577014 8.70700977 3.65821773 8.37309899 2 8 C1.01 8.495 1.01 8.495 0 9 C0 6.03 0 3.06 0 0 Z " fill="#B8D1E7" transform="translate(52,88)"/>
<path d="M0 0 C0.33 0 0.66 0 1 0 C1.41851968 3.41791075 1.62620097 5.98813876 -0.23046875 8.98828125 C-2.73426731 11.97429286 -4.23759031 13.74586344 -8 15 C-14.40871935 15.45776567 -14.40871935 15.45776567 -16.9375 13.5 C-17.288125 13.005 -17.63875 12.51 -18 12 C-17.34 11.34 -16.68 10.68 -16 10 C-15.34 10.66 -14.68 11.32 -14 12 C-10.54573858 12.06681009 -10.54573858 12.06681009 -7 11 C-4.54801956 8.5841005 -4.54801956 8.5841005 -3 6 C-3 6.66 -3 7.32 -3 8 C-2.34 8 -1.68 8 -1 8 C-0.67 5.36 -0.34 2.72 0 0 Z " fill="#C9E3F5" transform="translate(105,94)"/>
<path d="M0 0 C1.65 0 3.3 0 5 0 C4.690625 1.2375 4.38125 2.475 4.0625 3.75 C2.78031188 9.45164503 2.37429453 15.17873504 2 21 C-0.5 18.6875 -0.5 18.6875 -3 16 C-3 15.01 -3 14.02 -3 13 C-1.68 13 -0.36 13 1 13 C0.67 8.71 0.34 4.42 0 0 Z " fill="#DCF1FC" transform="translate(146,88)"/>
<path d="M0 0 C0.99 0 1.98 0 3 0 C3 4.29 3 8.58 3 13 C2.34 12.34 1.68 11.68 1 11 C0.01 12.485 0.01 12.485 -1 14 C-3.33846154 6.86153846 -3.33846154 6.86153846 -1.625 2.5 C-1.08875 1.675 -0.5525 0.85 0 0 Z " fill="#285E9A" transform="translate(129,90)"/>
<path d="M0 0 C3.63 0 7.26 0 11 0 C9 5 9 5 7 7 C7 6.34 7 5.68 7 5 C6.01 5 5.02 5 4 5 C4.33 5.99 4.66 6.98 5 8 C4.01 8.495 4.01 8.495 3 9 C2.01 6.03 1.02 3.06 0 0 Z " fill="#BFD7E9" transform="translate(113,88)"/>
<path d="M0 0 C0.33 0 0.66 0 1 0 C1.02578125 1.08796875 1.0515625 2.1759375 1.078125 3.296875 C1.39789755 12.49059795 2.43520632 20.39475386 6 29 C4.68 28.67 3.36 28.34 2 28 C-2.99164345 5.98328691 -2.99164345 5.98328691 0 0 Z " fill="#2A5B8F" transform="translate(14,80)"/>
<path d="M0 0 C1.65 0 3.3 0 5 0 C4.67 3.3 4.34 6.6 4 10 C-0.49656104 12.24828052 -4.07872966 12.16682272 -9 12 C-5.81237635 9.87491756 -3.73487777 9.4979837 0 9 C0 6.03 0 3.06 0 0 Z " fill="#BAD9EE" transform="translate(126,74)"/>
<path d="M0 0 C0.66 0.33 1.32 0.66 2 1 C2 1.99 2 2.98 2 4 C2.99 4.33 3.98 4.66 5 5 C3.35 5 1.7 5 0 5 C0.01160156 5.71027344 0.02320313 6.42054687 0.03515625 7.15234375 C0.04869141 8.53099609 0.04869141 8.53099609 0.0625 9.9375 C0.07410156 10.85402344 0.08570313 11.77054688 0.09765625 12.71484375 C0 15 0 15 -1 16 C-6.8410596 16.37086093 -6.8410596 16.37086093 -9 16 C-9.66 15.01 -10.32 14.02 -11 13 C-8.36 13 -5.72 13 -3 13 C-2.95101562 12.39671875 -2.90203125 11.7934375 -2.8515625 11.171875 C-2.77679688 10.37265625 -2.70203125 9.5734375 -2.625 8.75 C-2.55539063 7.96109375 -2.48578125 7.1721875 -2.4140625 6.359375 C-1.98492887 3.914123 -1.21399362 2.15163097 0 0 Z " fill="#27598F" transform="translate(52,68)"/>
<path d="M0 0 C1.98 0.495 1.98 0.495 4 1 C4.66 3.64 5.32 6.28 6 9 C5.34 9 4.68 9 4 9 C3.34 10.32 2.68 11.64 2 13 C1.34 12.67 0.68 12.34 0 12 C-1.46125461 3.89667897 -1.46125461 3.89667897 0 0 Z " fill="#2E6099" transform="translate(73,99)"/>
<path d="M0 0 C2.475 0.99 2.475 0.99 5 2 C5 3.98 5 5.96 5 8 C2.39417629 8.93065133 1.35801776 9.14917407 -1.25 8.0625 C-1.8275 7.711875 -2.405 7.36125 -3 7 C-2.25 2.25 -2.25 2.25 0 0 Z " fill="#125CA8" transform="translate(45,73)"/>
<path d="M0 0 C1.67542976 0.28604898 3.34385343 0.61781233 5 1 C5 2.98 5 4.96 5 7 C2.125 7.1875 2.125 7.1875 -1 7 C-1.66 6.01 -2.32 5.02 -3 4 C-3.99 4 -4.98 4 -6 4 C-6 3.01 -6 2.02 -6 1 C-4.7934375 1.0309375 -4.7934375 1.0309375 -3.5625 1.0625 C-1.06645115 1.29633621 -1.06645115 1.29633621 0 0 Z " fill="#135BA2" transform="translate(100,110)"/>
<path d="M0 0 C1.99954746 -0.04254356 4.00041636 -0.04080783 6 0 C7 1 7 1 7.1875 3.4375 C7 6 7 6 5 8 C2.375 8.125 2.375 8.125 0 8 C0 5.36 0 2.72 0 0 Z " fill="#2B5D92" transform="translate(55,99)"/>
<path d="M0 0 C0.33 0 0.66 0 1 0 C1.15855469 0.97839844 1.31710938 1.95679687 1.48046875 2.96484375 C2.84901728 10.83952422 4.51538809 17.24081874 9 24 C9.33 24.66 9.66 25.32 10 26 C9.01 26.33 8.02 26.66 7 27 C1.51692028 17.58249666 -0.31927506 10.96177699 0 0 Z " fill="#556D8E" transform="translate(20,82)"/>
<path d="M0 0 C2.31 0.33 4.62 0.66 7 1 C7 1.99 7 2.98 7 4 C7.66 4 8.32 4 9 4 C9 4.66 9 5.32 9 6 C6.04335481 7.4783226 3.25770263 7.06032783 0 7 C0 4.69 0 2.38 0 0 Z " fill="#1C5694" transform="translate(63,76)"/>
<path d="M0 0 C0.598125 0.226875 1.19625 0.45375 1.8125 0.6875 C2.4375 3.0625 2.4375 3.0625 2.8125 5.6875 C2.1525 6.3475 1.4925 7.0075 0.8125 7.6875 C-1.8125 7.3125 -1.8125 7.3125 -4.1875 6.6875 C-4.875 4.875 -4.875 4.875 -5.1875 2.6875 C-3.58493056 0.24147296 -2.95482043 -0.4221172 0 0 Z " fill="#9ECAEC" transform="translate(118.1875,111.3125)"/>
<path d="M0 0 C0.66 0.33 1.32 0.66 2 1 C1.01 2.485 1.01 2.485 0 4 C-0.45772063 6.73872955 -0.45772063 6.73872955 -0.625 9.6875 C-0.69976562 10.68136719 -0.77453125 11.67523438 -0.8515625 12.69921875 C-0.90054688 13.45847656 -0.94953125 14.21773437 -1 15 C-1.99 14.67 -2.98 14.34 -4 14 C-5.60030744 10.79938511 -5.64316057 7.46211964 -5 4 C-2.5 1.5 -2.5 1.5 0 0 Z " fill="#D8ECF9" transform="translate(89,91)"/>
<path d="M0 0 C0.33 0.66 0.66 1.32 1 2 C1.66 2.33 2.32 2.66 3 3 C2.95875 4.2375 2.9175 5.475 2.875 6.75 C2.86341709 10.01637962 3.1431298 12.2146947 5 15 C4.34 15 3.68 15 3 15 C2.67 15.66 2.34 16.32 2 17 C-3.23139013 8.5309417 -3.23139013 8.5309417 -2.6640625 4.77734375 C-1.8125 2.875 -1.8125 2.875 0 0 Z " fill="#386191" transform="translate(82,92)"/>
<path d="M0 0 C1.0725 0.2475 2.145 0.495 3.25 0.75 C3.91 2.4 4.57 4.05 5.25 5.75 C6.24 5.42 7.23 5.09 8.25 4.75 C7.92 5.74 7.59 6.73 7.25 7.75 C5.6 7.42 3.95 7.09 2.25 6.75 C1.92 5.43 1.59 4.11 1.25 2.75 C-2.35992379 3.40585189 -2.35992379 3.40585189 -5.75 4.75 C-6.08 5.74 -6.41 6.73 -6.75 7.75 C-7.41 7.75 -8.07 7.75 -8.75 7.75 C-8.37257585 5.10803093 -7.67468979 3.64282778 -6.125 1.4375 C-3.75 -0.25 -3.75 -0.25 0 0 Z " fill="#396598" transform="translate(123.75,67.25)"/>
<path d="M0 0 C0.99 0 1.98 0 3 0 C3.2475 1.216875 3.495 2.43375 3.75 3.6875 C4.7049925 7.58359258 6.22781085 10.04299824 9 13 C6.75 13.3125 6.75 13.3125 4 13 C1.49590764 10.8342985 0.1440146 9.23669679 -0.24609375 5.88671875 C-0.24958212 3.92276836 -0.13284444 1.95945545 0 0 Z " fill="#E1F3FB" transform="translate(111,72)"/>
<path d="M0 0 C0.33 0 0.66 0 1 0 C1.33 3.96 1.66 7.92 2 12 C4.94727535 11.89830839 4.94727535 11.89830839 8 11 C9.45291273 8.53744315 9.45291273 8.53744315 10 6 C10.66 7.32 11.32 8.64 12 10 C7.76433121 13.87261146 7.76433121 13.87261146 4.375 14.4375 C1.51408604 13.91048953 0.76707064 13.27194797 -1 11 C-1.328125 8.80859375 -1.328125 8.80859375 -1.25 6.4375 C-1.23453125 5.65246094 -1.2190625 4.86742188 -1.203125 4.05859375 C-1 2 -1 2 0 0 Z " fill="#315E91" transform="translate(77,70)"/>
<path d="M0 0 C0 4.62 0 9.24 0 14 C-0.99 13.67 -1.98 13.34 -3 13 C-4.31886422 9.04340734 -4.26518132 6.17660573 -4 2 C-1 0 -1 0 0 0 Z " fill="#D9EFFA" transform="translate(40,70)"/>
<path d="M0 0 C1.91015625 0.23046875 1.91015625 0.23046875 3.91015625 2.23046875 C3.2346875 2.34003906 2.55921875 2.44960937 1.86328125 2.5625 C0.97125 2.72105469 0.07921875 2.87960938 -0.83984375 3.04296875 C-1.7215625 3.19378906 -2.60328125 3.34460938 -3.51171875 3.5 C-6.28954643 4.28705118 -7.84210708 5.46820436 -10.08984375 7.23046875 C-12.27734375 7.10546875 -12.27734375 7.10546875 -14.08984375 6.23046875 C-14.41984375 5.24046875 -14.74984375 4.25046875 -15.08984375 3.23046875 C-14.52394531 3.09769531 -13.95804687 2.96492188 -13.375 2.828125 C-12.27478516 2.56322266 -12.27478516 2.56322266 -11.15234375 2.29296875 C-10.42144531 2.11894531 -9.69054687 1.94492188 -8.9375 1.765625 C-3.05194039 0.06092803 -3.05194039 0.06092803 0 0 Z " fill="#225994" transform="translate(123.08984375,62.76953125)"/>
<path d="M0 0 C1.99473548 3.32455913 2.04424565 3.80405497 1.125 7.875 C0.92390625 8.64457031 0.7228125 9.41414063 0.515625 10.20703125 C-0.50551066 15.73818276 -0.14346247 21.39699348 0 27 C-2.57409438 23.13885843 -2.29601945 19.08888664 -2.25 14.625 C-2.26160156 13.51125 -2.26160156 13.51125 -2.2734375 12.375 C-2.25750437 7.865925 -1.6981287 4.24532175 0 0 Z " fill="#D3EAF6" transform="translate(17,74)"/>
<path d="M0 0 C1.65 0 3.3 0 5 0 C5.66 3.3 6.32 6.6 7 10 C6.34 10 5.68 10 5 10 C4.34 10.66 3.68 11.32 3 12 C2.01 8.04 1.02 4.08 0 0 Z " fill="#D0E5F5" transform="translate(106,88)"/>
<path d="M0 0 C2.14576637 -0.02685938 4.29162645 -0.04633088 6.4375 -0.0625 C7.63246094 -0.07410156 8.82742187 -0.08570313 10.05859375 -0.09765625 C13 0 13 0 14 1 C14.25 3.4375 14.25 3.4375 14 6 C13.01 6.66 12.02 7.32 11 8 C10.67 7.01 10.34 6.02 10 5 C10.66 5 11.32 5 12 5 C12 4.01 12 3.02 12 2 C7.71 2 3.42 2 -1 2 C-0.67 1.34 -0.34 0.68 0 0 Z " fill="#1A5392" transform="translate(134,63)"/>
<path d="M0 0 C0.9075 0.226875 1.815 0.45375 2.75 0.6875 C2.75 2.3375 2.75 3.9875 2.75 5.6875 C0.11 5.6875 -2.53 5.6875 -5.25 5.6875 C-5.25 5.0275 -5.25 4.3675 -5.25 3.6875 C-5.91 3.3575 -6.57 3.0275 -7.25 2.6875 C-4.61280971 0.1517401 -3.74095095 -0.35970682 0 0 Z " fill="#145CA6" transform="translate(109.25,126.3125)"/>
<path d="M0 0 C4.99450259 0.6853655 9.5967594 2.02015651 14.375 3.5625 C15.11105469 3.79646484 15.84710938 4.03042969 16.60546875 4.27148438 C18.40481238 4.8440028 20.20257277 5.42149314 22 6 C20.40234375 7.14453125 20.40234375 7.14453125 18 8 C14.94140625 7.13671875 14.94140625 7.13671875 11.5625 5.6875 C7.69523618 4.05186698 4.1559263 2.66028736 0 2 C0 1.34 0 0.68 0 0 Z " fill="#A3C7E6" transform="translate(75,111)"/>
<path d="M0 0 C2.625 0.375 2.625 0.375 5 1 C5.5625 2.9375 5.5625 2.9375 6 5 C5 6 5 6 3.15234375 6.09765625 C1.1015625 6.06510417 -0.94921875 6.03255208 -3 6 C-2.42655063 3.13275314 -2.1385485 2.1385485 0 0 Z " fill="#F5FCFC" transform="translate(91,124)"/>
<path d="M0 0 C4.28379643 0.71260094 8.25093853 2.06921736 12.3125 3.5625 C12.95767578 3.79646484 13.60285156 4.03042969 14.26757812 4.27148438 C15.84621219 4.84447007 17.42327026 5.42179464 19 6 C18.67 6.99 18.34 7.98 18 9 C13.64029169 7.65150163 9.68658562 5.95092154 5.625 3.875 C4.56539063 3.33617188 3.50578125 2.79734375 2.4140625 2.2421875 C1.61742188 1.83226563 0.82078125 1.42234375 0 1 C0 0.67 0 0.34 0 0 Z " fill="#405D83" transform="translate(77,113)"/>
<path d="M0 0 C9.9 3.96 9.9 3.96 20 8 C16.52176885 9.15941038 14.54104422 8.70820884 11 8 C11 7.34 11 6.68 11 6 C9.9275 5.896875 8.855 5.79375 7.75 5.6875 C4.15260731 5.02797801 2.54223809 4.54223809 0 2 C0 1.34 0 0.68 0 0 Z " fill="#2A5B90" transform="translate(46,135)"/>
<path d="M0 0 C0.68835937 0.2784375 1.37671875 0.556875 2.0859375 0.84375 C6.38137985 2.54810782 10.71256181 4.15757468 15.0390625 5.78125 C18 7 18 7 21 9 C18.72695105 9.77387773 17.41903552 10.12944984 15.09301758 9.41088867 C14.45001709 9.0832251 13.8070166 8.75556152 13.14453125 8.41796875 C12.44005859 8.06283203 11.73558594 7.70769531 11.00976562 7.34179688 C10.28466797 6.96087891 9.55957031 6.57996094 8.8125 6.1875 C8.07580078 5.81818359 7.33910156 5.44886719 6.58007812 5.06835938 C1.14050904 2.28101809 1.14050904 2.28101809 0 0 Z " fill="#376495" transform="translate(46,115)"/>
<path d="M0 0 C1.66611905 -0.042721 3.33382885 -0.04063832 5 0 C6 1 6 1 6.09765625 3.06640625 C6.08605469 3.89011719 6.07445312 4.71382813 6.0625 5.5625 C6.05347656 6.38878906 6.04445312 7.21507813 6.03515625 8.06640625 C6.01775391 9.02353516 6.01775391 9.02353516 6 10 C5.67 9.34 5.34 8.68 5 8 C4.34 8 3.68 8 3 8 C0.95830515 5.09451118 0 3.59857954 0 0 Z " fill="#1A5AA6" transform="translate(139,87)"/>
<path d="M0 0 C0.33 0.66 0.66 1.32 1 2 C-0.75261672 5.09285304 -1.87360195 5.95138537 -5.25 7.25 C-8.94755531 7.98951106 -12.24098786 8.15342907 -16 8 C-12.59222455 5.7281497 -9.18544527 4.4515982 -5.375 3 C-2.80352349 2.00504505 -2.80352349 2.00504505 0 0 Z " fill="#30619A" transform="translate(121,135)"/>
<path d="M0 0 C0.33 0 0.66 0 1 0 C1.82351864 6.38226945 2.12086218 12.56744599 2 19 C0.68 19 -0.64 19 -2 19 C-1.34 12.73 -0.68 6.46 0 0 Z " fill="#ABD0E7" transform="translate(132,90)"/>
<path d="M0 0 C3.3 0 6.6 0 10 0 C10.33 1.65 10.66 3.3 11 5 C10.34 5 9.68 5 9 5 C8.34 6.32 7.68 7.64 7 9 C5.35 9 3.7 9 2 9 C2.639375 8.773125 3.27875 8.54625 3.9375 8.3125 C6.27193661 7.14749104 6.27193661 7.14749104 6.75 4.375 C6.8325 3.59125 6.915 2.8075 7 2 C4.58354218 1.83312552 4.58354218 1.83312552 2 2 C1.34 2.66 0.68 3.32 0 4 C0 2.68 0 1.36 0 0 Z " fill="#DBF0F8" transform="translate(53,89)"/>
<path d="M0 0 C0.495 0.639375 0.99 1.27875 1.5 1.9375 C4.87457208 6.0713508 8.43596883 10.02939246 12 14 C11.34 14.66 10.68 15.32 10 16 C9.44570313 15.36191406 8.89140625 14.72382812 8.3203125 14.06640625 C7.23363281 12.82697266 7.23363281 12.82697266 6.125 11.5625 C5.40570312 10.73878906 4.68640625 9.91507813 3.9453125 9.06640625 C2.16761255 6.94017845 2.16761255 6.94017845 0 6 C0 4.02 0 2.04 0 0 Z " fill="#326196" transform="translate(20,110)"/>
<path d="M0 0 C1.9375 0.9375 1.9375 0.9375 4 3 C4.66174825 5.9858081 4.87205948 8.94861869 5 12 C4.01 12.495 4.01 12.495 3 13 C-0.42857143 4.57142857 -0.42857143 4.57142857 0 0 Z " fill="#366091" transform="translate(111,88)"/>
<path d="M0 0 C1.48199902 0.44909061 2.96055236 0.90956564 4.4375 1.375 C5.26121094 1.63023438 6.08492188 1.88546875 6.93359375 2.1484375 C9 3 9 3 10 5 C8.02 5.66 6.04 6.32 4 7 C3.34 6.34 2.68 5.68 2 5 C2.33 4.34 2.66 3.68 3 3 C2.01 2.67 1.02 2.34 0 2 C0 1.34 0 0.68 0 0 Z " fill="#E1F1F9" transform="translate(93,122)"/>
<path d="M0 0 C0.33 0 0.66 0 1 0 C1 2.31 1 4.62 1 7 C2.32 7 3.64 7 5 7 C5 7.66 5 8.32 5 9 C1.7 9 -1.6 9 -5 9 C-5 8.34 -5 7.68 -5 7 C-4.34 6.67 -3.68 6.34 -3 6 C-3 5.01 -3 4.02 -3 3 C-2.34 3 -1.68 3 -1 3 C-0.67 2.01 -0.34 1.02 0 0 Z " fill="#265690" transform="translate(134,112)"/>
<path d="M0 0 C0.598125 0.20625 1.19625 0.4125 1.8125 0.625 C1.4825 1.285 1.1525 1.945 0.8125 2.625 C-0.1775 2.625 -1.1675 2.625 -2.1875 2.625 C-2.1875 3.615 -2.1875 4.605 -2.1875 5.625 C-1.5275 5.955 -0.8675 6.285 -0.1875 6.625 C-0.1875 5.635 -0.1875 4.645 -0.1875 3.625 C0.4725 3.625 1.1325 3.625 1.8125 3.625 C1.8125 4.945 1.8125 6.265 1.8125 7.625 C-0.18704746 7.66754356 -2.18791636 7.66580783 -4.1875 7.625 C-5.1875 6.625 -5.1875 6.625 -5.4375 4.1875 C-5.355 3.341875 -5.2725 2.49625 -5.1875 1.625 C-2.1875 -0.375 -2.1875 -0.375 0 0 Z " fill="#91BDE7" transform="translate(146.1875,111.375)"/>
<path d="M0 0 C4.85963179 0.60745397 8.7405518 2.72758967 13 5 C12.34 6.32 11.68 7.64 11 9 C9.16384919 7.69144447 7.33114211 6.37805538 5.5 5.0625 C4.4790625 4.33160156 3.458125 3.60070312 2.40625 2.84765625 C1.6121875 2.23792969 0.818125 1.62820312 0 1 C0 0.67 0 0.34 0 0 Z " fill="#C7E0F1" transform="translate(70,111)"/>
<path d="M0 0 C0.99 0 1.98 0 3 0 C3.125 7.625 3.125 7.625 2 11 C0.68 10.67 -0.64 10.34 -2 10 C-1.34 6.7 -0.68 3.4 0 0 Z " fill="#345E90" transform="translate(56,76)"/>
<path d="M0 0 C2.475 0.495 2.475 0.495 5 1 C5 2.65 5 4.3 5 6 C3.35 6.33 1.7 6.66 0 7 C0 4.69 0 2.38 0 0 Z " fill="#3B6495" transform="translate(73,90)"/>
<path d="M0 0 C0.33 0.99 0.66 1.98 1 3 C3.64 3 6.28 3 9 3 C8.67 3.99 8.34 4.98 8 6 C4.04 6 0.08 6 -4 6 C-2.68 5.67 -1.36 5.34 0 5 C0 3.35 0 1.7 0 0 Z " fill="#A5C3E1" transform="translate(62,80)"/>
<path d="M0 0 C2.475 0.495 2.475 0.495 5 1 C5 2.65 5 4.3 5 6 C3.35 6.33 1.7 6.66 0 7 C0 4.69 0 2.38 0 0 Z " fill="#3A6292" transform="translate(100,67)"/>
<path d="M0 0 C5.02254631 -0.2954439 7.89542386 0.01485372 12 3 C11.34 6.3 10.68 9.6 10 13 C9.67 13 9.34 13 9 13 C8.75585938 9.97265625 8.75585938 9.97265625 8.51171875 6.9453125 C8.12606964 4.60480784 8.12606964 4.60480784 5 3 C5 2.34 5 1.68 5 1 C3.35 1 1.7 1 0 1 C0 0.67 0 0.34 0 0 Z " fill="#BAD7EC" transform="translate(80,65)"/>
<path d="M0 0 C0.51949219 0.39832031 1.03898437 0.79664062 1.57421875 1.20703125 C4.65660757 3.54873514 7.65194382 5.79696723 11 7.75 C11.66 8.1625 12.32 8.575 13 9 C13 9.66 13 10.32 13 11 C12.01 11 11.02 11 10 11 C10 10.34 10 9.68 10 9 C9.278125 8.95875 8.55625 8.9175 7.8125 8.875 C3.71810125 7.60118706 2.47551196 5.46571675 0 2 C0 1.34 0 0.68 0 0 Z " fill="#2B5C91" transform="translate(32,125)"/>
<path d="M0 0 C1.32 0 2.64 0 4 0 C4.33 0.99 4.66 1.98 5 3 C-2.92 3 -10.84 3 -19 3 C-19 2.67 -19 2.34 -19 2 C-17.71222656 1.93941406 -16.42445313 1.87882812 -15.09765625 1.81640625 C-13.41925841 1.73201753 -11.74087364 1.6473687 -10.0625 1.5625 C-8.78729492 1.50352539 -8.78729492 1.50352539 -7.48632812 1.44335938 C-6.67744141 1.40146484 -5.86855469 1.35957031 -5.03515625 1.31640625 C-3.91185913 1.26141968 -3.91185913 1.26141968 -2.76586914 1.20532227 C-0.97538674 1.18228937 -0.97538674 1.18228937 0 0 Z " fill="#65C9F2" transform="translate(195,108)"/>
<path d="M0 0 C0.33 0 0.66 0 1 0 C2.29925791 4.33085971 3.343621 8.51474352 4 13 C2.02 13 0.04 13 -2 13 C-2 12.34 -2 11.68 -2 11 C-1.34 11 -0.68 11 0 11 C0 7.37 0 3.74 0 0 Z " fill="#C6E2F4" transform="translate(69,96)"/>
<path d="M0 0 C0.99 0 1.98 0 3 0 C6.57142857 7.28571429 6.57142857 7.28571429 5 12 C4.34 12 3.68 12 3 12 C2 8 1 4 0 0 Z " fill="#386091" transform="translate(103,88)"/>
<path d="M0 0 C2.64 0.66 5.28 1.32 8 2 C8 1.34 8 0.68 8 0 C9.32 0.33 10.64 0.66 12 1 C10.1875 2.5625 10.1875 2.5625 8 4 C7.01 3.67 6.02 3.34 5 3 C5 3.66 5 4.32 5 5 C2.03 4.505 2.03 4.505 -1 4 C-0.67 2.68 -0.34 1.36 0 0 Z " fill="#1D5692" transform="translate(77,107)"/>
<path d="M0 0 C0.99 0.33 1.98 0.66 3 1 C1.88671875 2.984375 1.88671875 2.984375 0 5 C-2.91796875 5.390625 -2.91796875 5.390625 -6.1875 5.25 C-7.27417969 5.21390625 -8.36085937 5.1778125 -9.48046875 5.140625 C-10.31191406 5.09421875 -11.14335938 5.0478125 -12 5 C-11.67 4.34 -11.34 3.68 -11 3 C-9.00390625 2.65625 -9.00390625 2.65625 -6.5625 2.5 C-2.83440381 2.34878389 -2.83440381 2.34878389 0 0 Z " fill="#B6D6EE" transform="translate(62,104)"/>
<path d="M0 0 C0.99 0 1.98 0 3 0 C3 2.97 3 5.94 3 9 C3.66 9 4.32 9 5 9 C5 9.66 5 10.32 5 11 C3.68 10.67 2.36 10.34 1 10 C0 2.25 0 2.25 0 0 Z " fill="#F3FBFE" transform="translate(117,93)"/>
<path d="M0 0 C2.64 0.66 5.28 1.32 8 2 C6.68 2.33 5.36 2.66 4 3 C4.33 3.99 4.66 4.98 5 6 C-1.75 5.25 -1.75 5.25 -4 3 C-2.68 2.67 -1.36 2.34 0 2 C0 1.34 0 0.68 0 0 Z " fill="#D4EAF5" transform="translate(59,123)"/>
<path d="M0 0 C1.98 0 3.96 0 6 0 C5.67 0.66 5.34 1.32 5 2 C3.68 2 2.36 2 1 2 C0.67 3.98 0.34 5.96 0 8 C-0.99 8.33 -1.98 8.66 -3 9 C-3 7.02 -3 5.04 -3 3 C-2.01 3 -1.02 3 0 3 C0 2.01 0 1.02 0 0 Z " fill="#1B5490" transform="translate(128,109)"/>
<path d="M0 0 C0.33 0.99 0.66 1.98 1 3 C-0.65 3 -2.3 3 -4 3 C-4.66 4.32 -5.32 5.64 -6 7 C-6.99 7 -7.98 7 -9 7 C-8.67 5.35 -8.34 3.7 -8 2 C-5.36 1.34 -2.72 0.68 0 0 Z " fill="#185AA0" transform="translate(92,84)"/>
<path d="M0 0 C0.33 0 0.66 0 1 0 C1.13277344 0.61488281 1.26554687 1.22976562 1.40234375 1.86328125 C1.57894531 2.67152344 1.75554687 3.47976562 1.9375 4.3125 C2.19853516 5.51326172 2.19853516 5.51326172 2.46484375 6.73828125 C2.99886159 9.145401 2.99886159 9.145401 4 12 C0.125 11.125 0.125 11.125 -1 10 C-1.0979057 8.50261876 -1.12974864 7.00057108 -1.125 5.5 C-1.12757812 4.6853125 -1.13015625 3.870625 -1.1328125 3.03125 C-1 1 -1 1 0 0 Z " fill="#EAF8FD" transform="translate(74,72)"/>
<path d="M0 0 C0.99 0.33 1.98 0.66 3 1 C3 1.66 3 2.32 3 3 C3.33 3.66 3.66 4.32 4 5 C3.34 5 2.68 5 2 5 C1.01 6.485 1.01 6.485 0 8 C0 6.68 0 5.36 0 4 C-4.29 4 -8.58 4 -13 4 C-13 3.67 -13 3.34 -13 3 C-9.04 3 -5.08 3 -1 3 C-0.67 2.01 -0.34 1.02 0 0 Z " fill="#134D8B" transform="translate(72,61)"/>
<path d="M0 0 C0.66 0.33 1.32 0.66 2 1 C2.36923077 6.53846154 2.36923077 6.53846154 0.5 8.875 C-0.2425 9.431875 -0.2425 9.431875 -1 10 C-3 8 -3 8 -3.125 5.375 C-3.08375 4.59125 -3.0425 3.8075 -3 3 C-2.01 2.67 -1.02 2.34 0 2 C0 1.34 0 0.68 0 0 Z " fill="#2B619E" transform="translate(68,89)"/>
<path d="M0 0 C1.60379341 -0.05416188 3.20811406 -0.09286638 4.8125 -0.125 C5.70582031 -0.14820312 6.59914063 -0.17140625 7.51953125 -0.1953125 C10 0 10 0 13 2 C13.1875 5.125 13.1875 5.125 13 8 C12.67 8 12.34 8 12 8 C12 6.35 12 4.7 12 3 C11.34 3 10.68 3 10 3 C9.67 4.32 9.34 5.64 9 7 C8.67 5.02 8.34 3.04 8 1 C5.36 1.33 2.72 1.66 0 2 C0 1.34 0 0.68 0 0 Z " fill="#BDD9EE" transform="translate(69,88)"/>
<path d="M0 0 C2.97 1.98 2.97 1.98 6 4 C5.67 4.66 5.34 5.32 5 6 C2.69 6 0.38 6 -2 6 C-2 4.35 -2 2.7 -2 1 C-1.34 0.67 -0.68 0.34 0 0 Z " fill="#2F6197" transform="translate(72,81)"/>
<path d="M0 0 C0.33 0.474375 0.66 0.94875 1 1.4375 C4.09813267 3.85791615 7.12026792 3.68198917 11 4 C11 4.66 11 5.32 11 6 C9.37536158 6.05395478 7.75021459 6.09277195 6.125 6.125 C5.22007813 6.14820312 4.31515625 6.17140625 3.3828125 6.1953125 C1 6 1 6 -1 4 C-0.625 1.875 -0.625 1.875 0 0 Z " fill="#CCE7F5" transform="translate(40,80)"/>
<path d="M0 0 C1.65 0 3.3 0 5 0 C4.67 1.65 4.34 3.3 4 5 C3.34 5 2.68 5 2 5 C2 5.66 2 6.32 2 7 C2.66 7.33 3.32 7.66 4 8 C2.68 8 1.36 8 0 8 C0 5.36 0 2.72 0 0 Z " fill="#97BEE7" transform="translate(135,111)"/>
<path d="M0 0 C0.598125 0.350625 1.19625 0.70125 1.8125 1.0625 C1.4825 2.7125 1.1525 4.3625 0.8125 6.0625 C-0.1775 6.0625 -1.1675 6.0625 -2.1875 6.0625 C-2.1875 5.4025 -2.1875 4.7425 -2.1875 4.0625 C-3.1775 4.3925 -4.1675 4.7225 -5.1875 5.0625 C-5.1875 4.4025 -5.1875 3.7425 -5.1875 3.0625 C-4.5275 3.0625 -3.8675 3.0625 -3.1875 3.0625 C-3.1875 2.4025 -3.1875 1.7425 -3.1875 1.0625 C-3.8475 0.7325 -4.5075 0.4025 -5.1875 0.0625 C-2.1875 -0.9375 -2.1875 -0.9375 0 0 Z " fill="#145598" transform="translate(157.1875,112.9375)"/>
<path d="M0 0 C1.9375 0.375 1.9375 0.375 4 1 C4.33 1.66 4.66 2.32 5 3 C5.99 3.33 6.98 3.66 8 4 C7.67 4.99 7.34 5.98 7 7 C5.35 6.67 3.7 6.34 2 6 C1.34 4.02 0.68 2.04 0 0 Z " fill="#E9F4F9" transform="translate(36,111)"/>
<path d="M0 0 C2.475 0.495 2.475 0.495 5 1 C4.67 2.65 4.34 4.3 4 6 C2.68 6 1.36 6 0 6 C0 4.02 0 2.04 0 0 Z " fill="#27568E" transform="translate(56,90)"/>
<path d="M0 0 C0.66 0.33 1.32 0.66 2 1 C1.67 5.29 1.34 9.58 1 14 C0.01 13.67 -0.98 13.34 -2 13 C-1.34 8.71 -0.68 4.42 0 0 Z " fill="#37648F" transform="translate(95,66)"/>
<path d="M0 0 C8.57142857 0.85714286 8.57142857 0.85714286 12 3 C11.34 3 10.68 3 10 3 C10 3.66 10 4.32 10 5 C8.51800098 4.55090939 7.03944764 4.09043436 5.5625 3.625 C4.73878906 3.36976562 3.91507812 3.11453125 3.06640625 2.8515625 C1 2 1 2 0 0 Z " fill="#C8E4F4" transform="translate(95,118)"/>
<path d="M0 0 C1.65 0 3.3 0 5 0 C5.33 1.32 5.66 2.64 6 4 C4.68 4 3.36 4 2 4 C2 5.98 2 7.96 2 10 C1.67 10 1.34 10 1 10 C0.67 6.7 0.34 3.4 0 0 Z " fill="#E7F8FD" transform="translate(132,89)"/>
<path d="M0 0 C1.98 0 3.96 0 6 0 C4.68 0.33 3.36 0.66 2 1 C3.32 1.66 4.64 2.32 6 3 C5.67 4.32 5.34 5.64 5 7 C5 6.34 5 5.68 5 5 C3.35 5 1.7 5 0 5 C0 3.35 0 1.7 0 0 Z " fill="#225890" transform="translate(64,68)"/>
<path d="M0 0 C3.375 0.25 3.375 0.25 7 1 C8.4375 3.0625 8.4375 3.0625 9 5 C8.34 4.67 7.68 4.34 7 4 C5.46331135 3.77532169 3.92031946 3.59203195 2.375 3.4375 C1.55773437 3.35371094 0.74046875 3.26992187 -0.1015625 3.18359375 C-0.72804688 3.12300781 -1.35453125 3.06242187 -2 3 C-1.34 2.01 -0.68 1.02 0 0 Z " fill="#356294" transform="translate(80,67)"/>
<path d="M0 0 C2.97 0.33 5.94 0.66 9 1 C9.33 1.99 9.66 2.98 10 4 C6.25 7 6.25 7 4 7 C4 6.01 4 5.02 4 4 C4.99 4 5.98 4 7 4 C7 3.34 7 2.68 7 2 C4.69 1.67 2.38 1.34 0 1 C0 0.67 0 0.34 0 0 Z " fill="#DDF2FB" transform="translate(120,126)"/>
<path d="M0 0 C2.08379509 3.84700632 3.49686624 7.90054429 5 12 C3.68 11.67 2.36 11.34 1 11 C0.63890458 9.35567294 0.28629924 7.7094792 -0.0625 6.0625 C-0.25972656 5.14597656 -0.45695313 4.22945313 -0.66015625 3.28515625 C-0.77230469 2.53105469 -0.88445313 1.77695313 -1 1 C-0.67 0.67 -0.34 0.34 0 0 Z " fill="#2F5F99" transform="translate(15,97)"/>
<path d="M0 0 C0.66 0.99 1.32 1.98 2 3 C0.02 3 -1.96 3 -4 3 C-4.33 3.66 -4.66 4.32 -5 5 C-5.66 5 -6.32 5 -7 5 C-7.33 4.01 -7.66 3.02 -8 2 C-4.79191085 -0.1387261 -3.72301503 -0.47730962 0 0 Z " fill="#2C5C96" transform="translate(98,90)"/>
<path d="M0 0 C1.65 0 3.3 0 5 0 C4.34 2.97 3.68 5.94 3 9 C2.34 9 1.68 9 1 9 C0.67 6.03 0.34 3.06 0 0 Z " fill="#E4F5FE" transform="translate(126,74)"/>
<path d="M0 0 C-1.375 1.5 -1.375 1.5 -3 3 C-3.66 3 -4.32 3 -5 3 C-5 2.34 -5 1.68 -5 1 C-6.65 0.67 -8.3 0.34 -10 0 C-10 -0.33 -10 -0.66 -10 -1 C-5.92224809 -1.9267618 -3.57818963 -2.33958553 0 0 Z " fill="#26609F" transform="translate(106,145)"/>
<path d="M0 0 C1.3770046 3.82501277 0.65644615 7.06132308 0 11 C0 11.66 0 12.32 0 13 C-0.99 12.67 -1.98 12.34 -3 12 C-2.14285714 3.42857143 -2.14285714 3.42857143 0 0 Z " fill="#2C6097" transform="translate(125,98)"/>
<path d="M0 0 C1.99097846 2.98646769 2.94124926 5.59687262 4 9 C2.35 8.67 0.7 8.34 -1 8 C-0.67 5.36 -0.34 2.72 0 0 Z " fill="#C5DFF1" transform="translate(80,100)"/>
<path d="M0 0 C1.9375 0.625 1.9375 0.625 4 2 C4.75 5.125 4.75 5.125 5 8 C4.67 7.34 4.34 6.68 4 6 C2.68 6 1.36 6 0 6 C0 4.02 0 2.04 0 0 Z " fill="#25588D" transform="translate(100,76)"/>
<path d="M0 0 C1.32 0 2.64 0 4 0 C4 0.66 4 1.32 4 2 C5.65 2.33 7.3 2.66 9 3 C9.33 4.32 9.66 5.64 10 7 C8.33073546 6.02526874 6.66464358 5.04510211 5 4.0625 C4.071875 3.51722656 3.14375 2.97195312 2.1875 2.41015625 C1.465625 1.94480469 0.74375 1.47945312 0 1 C0 0.67 0 0.34 0 0 Z " fill="#D1E8F3" transform="translate(36,128)"/>
<path d="M0 0 C1.98 0.99 3.96 1.98 6 3 C6 3.66 6 4.32 6 5 C3.03 4.67 0.06 4.34 -3 4 C-2.01 3.67 -1.02 3.34 0 3 C0 2.01 0 1.02 0 0 Z " fill="#155DA5" transform="translate(86,108)"/>
<path d="M0 0 C0.99 0 1.98 0 3 0 C3.28875 0.78375 3.5775 1.5675 3.875 2.375 C4.84912254 5.09671632 4.84912254 5.09671632 7 7 C6.67 7.99 6.34 8.98 6 10 C4.99421411 8.71283353 3.99553202 7.42011342 3 6.125 C2.443125 5.40570313 1.88625 4.68640625 1.3125 3.9453125 C0 2 0 2 0 0 Z " fill="#275892" transform="translate(30,97)"/>
<path d="M0 0 C0.125 6.75 0.125 6.75 -1 9 C-1.66 9 -2.32 9 -3 9 C-3 6.36 -3 3.72 -3 1 C-1 0 -1 0 0 0 Z " fill="#ECFCFE" transform="translate(105,93)"/>
<path d="M0 0 C0.33 0 0.66 0 1 0 C1.125 2.875 1.125 2.875 1 6 C-1 8 -1 8 -4.625 8.125 C-5.73875 8.08375 -6.8525 8.0425 -8 8 C-7.38125 7.7525 -6.7625 7.505 -6.125 7.25 C-3.64931313 5.79371361 -3.04874998 4.62187494 -2 2 C-2 2.99 -2 3.98 -2 5 C-1.34 5 -0.68 5 0 5 C0 3.35 0 1.7 0 0 Z " fill="#C6DEEF" transform="translate(108,67)"/>
<path d="M0 0 C0.66 0.33 1.32 0.66 2 1 C2.25 6.625 2.25 6.625 0 10 C-1 9 -1 9 -1.1328125 7.1875 C-1.13023438 6.465625 -1.12765625 5.74375 -1.125 5 C-1.12757812 4.278125 -1.13015625 3.55625 -1.1328125 2.8125 C-1 1 -1 1 0 0 Z " fill="#F1FBFF" transform="translate(91,69)"/>
<path d="M0 0 C2.64 0.66 5.28 1.32 8 2 C8 2.99 8 3.98 8 5 C3.545 4.01 3.545 4.01 -1 3 C-0.67 2.01 -0.34 1.02 0 0 Z " fill="#3D6793" transform="translate(104,117)"/>
<path d="M0 0 C1.32 0.33 2.64 0.66 4 1 C4 1.99 4 2.98 4 4 C3.34 4 2.68 4 2 4 C2 4.66 2 5.32 2 6 C2.66 6.33 3.32 6.66 4 7 C2.68 7 1.36 7 0 7 C0 4.69 0 2.38 0 0 Z " fill="#A6CAEA" transform="translate(150,112)"/>
<path d="M0 0 C2.5654594 2.5654594 2.54046087 4.47686668 3 8 C2.34 8 1.68 8 1 8 C0.34 7.34 -0.32 6.68 -1 6 C-1.66 5.67 -2.32 5.34 -3 5 C-2.01 3.35 -1.02 1.7 0 0 Z " fill="#426999" transform="translate(117,101)"/>
<path d="M0 0 C0.33 0 0.66 0 1 0 C1.33 3.3 1.66 6.6 2 10 C1.01 9.67 0.02 9.34 -1 9 C-1.125 2.25 -1.125 2.25 0 0 Z " fill="#EAF9FE" transform="translate(86,96)"/>
<path d="M0 0 C1.051875 -0.02126953 1.051875 -0.02126953 2.125 -0.04296875 C4 0.1875 4 0.1875 6 2.1875 C2.47940432 3.36103189 -0.306493 3.38896402 -4 3.1875 C-4.66 2.5275 -5.32 1.8675 -6 1.1875 C-3.77109005 0.07304502 -2.46944894 0.02269714 0 0 Z " fill="#C2E2F5" transform="translate(82,82.8125)"/>
<path d="M0 0 C5.875 0.875 5.875 0.875 7 2 C7.14115161 4.67058851 7.04247107 7.32432238 7 10 C6.67 10 6.34 10 6 10 C5.67 7.69 5.34 5.38 5 3 C2.525 2.01 2.525 2.01 0 1 C0 0.67 0 0.34 0 0 Z " fill="#376699" transform="translate(127,65)"/>
<path d="M0 0 C-0.75 1.9375 -0.75 1.9375 -2 4 C-5.00243773 5.30105635 -6.92988563 4.84139118 -10 4 C-8.71086513 3.32845067 -7.41859796 2.66291141 -6.125 2 C-5.40570313 1.62875 -4.68640625 1.2575 -3.9453125 0.875 C-2 0 -2 0 0 0 Z " fill="#D8ECF7" transform="translate(117,129)"/>
<path d="M0 0 C1.32 0 2.64 0 4 0 C3.67 1.65 3.34 3.3 3 5 C1.35 4.67 -0.3 4.34 -2 4 C-1.34 2.68 -0.68 1.36 0 0 Z " fill="#1C5495" transform="translate(63,130)"/>
<path d="M0 0 C0.33 1.32 0.66 2.64 1 4 C2.65 4 4.3 4 6 4 C5.67 4.66 5.34 5.32 5 6 C3.35 5.67 1.7 5.34 0 5 C-0.33 5.66 -0.66 6.32 -1 7 C-1.66 5.02 -2.32 3.04 -3 1 C-2.01 1.33 -1.02 1.66 0 2 C0 1.34 0 0.68 0 0 Z " fill="#326BAD" transform="translate(149,107)"/>
<path d="M0 0 C0.66 1.32 1.32 2.64 2 4 C-2.30769231 7.93846154 -2.30769231 7.93846154 -5.8125 8.25 C-6.534375 8.1675 -7.25625 8.085 -8 8 C-6 6 -6 6 -4 5.6875 C-3.34 5.460625 -2.68 5.23375 -2 5 C-0.70339566 2.50965614 -0.70339566 2.50965614 0 0 Z " fill="#3B6496" transform="translate(87,76)"/>
<path d="M0 0 C0.33 0.99 0.66 1.98 1 3 C2.65 3 4.3 3 6 3 C6 3.99 6 4.98 6 6 C4.02 6 2.04 6 0 6 C0 4.02 0 2.04 0 0 Z " fill="#AECBE4" transform="translate(137,70)"/>
<path d="M0 0 C0.33 0.99 0.66 1.98 1 3 C-0.32 3 -1.64 3 -3 3 C-3 3.99 -3 4.98 -3 6 C-3.99 5.67 -4.98 5.34 -6 5 C-5.67 3.68 -5.34 2.36 -5 1 C-3.35 1.33 -1.7 1.66 0 2 C0 1.34 0 0.68 0 0 Z " fill="#224C7E" transform="translate(149,112)"/>
<path d="M0 0 C0.66 0 1.32 0 2 0 C1.67 4.95 1.34 9.9 1 15 C0.67 15 0.34 15 0 15 C-0.19390729 12.68802845 -0.37996367 10.3753971 -0.5625 8.0625 C-0.71912109 6.13083984 -0.71912109 6.13083984 -0.87890625 4.16015625 C-0.91886719 3.11730469 -0.95882813 2.07445313 -1 1 C-0.67 0.67 -0.34 0.34 0 0 Z " fill="#C0D4E6" transform="translate(25,72)"/>
<path d="M0 0 C0.66 0 1.32 0 2 0 C3.26237731 2.52475462 3.09856404 4.31200466 3.0625 7.125 C3.05347656 8.03507812 3.04445312 8.94515625 3.03515625 9.8828125 C3.02355469 10.58148438 3.01195312 11.28015625 3 12 C0.7655402 7.96707255 0.45503257 4.55032566 0 0 Z " fill="#1F538C" transform="translate(130,68)"/>
<path d="M0 0 C5.75 0.875 5.75 0.875 8 2 C8 3.32 8 4.64 8 6 C4.94917061 4.98305687 4.09627325 4.27855788 2 2 C1.34 1.34 0.68 0.68 0 0 Z " fill="#2B5E97" transform="translate(87,65)"/>
<path d="M0 0 C0.99 0.33 1.98 0.66 3 1 C3 1.66 3 2.32 3 3 C3.99 3.33 4.98 3.66 6 4 C4.824375 4.4640625 4.824375 4.4640625 3.625 4.9375 C1.07669872 5.92875038 1.07669872 5.92875038 -1 7 C-0.67 4.69 -0.34 2.38 0 0 Z " fill="#1E5899" transform="translate(114,107)"/>
<path d="M0 0 C0.99 0.33 1.98 0.66 3 1 C2.67 2.65 2.34 4.3 2 6 C3.32 6.66 4.64 7.32 6 8 C1.125 7.125 1.125 7.125 0 6 C-0.04080783 4.00041636 -0.04254356 1.99954746 0 0 Z " fill="#215995" transform="translate(40,74)"/>
<path d="M0 0 C1.10844919 3.32534757 0.84454356 5.62182575 0 9 C-0.66 9 -1.32 9 -2 9 C-2.125 5.625 -2.125 5.625 -2 2 C-1.34 1.34 -0.68 0.68 0 0 Z " fill="#F2FDFF" transform="translate(39,70)"/>
<path d="M0 0 C0.99 0.33 1.98 0.66 3 1 C2.360625 1.103125 1.72125 1.20625 1.0625 1.3125 C0.0415625 1.6528125 0.0415625 1.6528125 -1 2 C-1.33 2.99 -1.66 3.98 -2 5 C-4.5625 6.6875 -4.5625 6.6875 -7 8 C-5.51218185 4.21282653 -3.38011591 2.22592999 0 0 Z " fill="#26598B" transform="translate(37,62)"/>
<path d="M0 0 C2.31 0.33 4.62 0.66 7 1 C6.67 1.99 6.34 2.98 6 4 C4.02 3.34 2.04 2.68 0 2 C0 1.34 0 0.68 0 0 Z " fill="#406490" transform="translate(89,118)"/>
<path d="M0 0 C0.66 0.66 1.32 1.32 2 2 C1.625 4.125 1.625 4.125 1 6 C-0.32 5.67 -1.64 5.34 -3 5 C-2.67 4.01 -2.34 3.02 -2 2 C-1.34 2 -0.68 2 0 2 C0 1.34 0 0.68 0 0 Z " fill="#225491" transform="translate(108,98)"/>
<path d="M0 0 C2.95183101 2.95183101 3.08663988 5.95511947 4 10 C3.01 9.67 2.02 9.34 1 9 C0.67 6.03 0.34 3.06 0 0 Z " fill="#DCEBF4" transform="translate(20,94)"/>
<path d="M0 0 C1.65 0 3.3 0 5 0 C4.34 2.97 3.68 5.94 3 9 C1.35649921 5.71299843 0.58678331 3.52069985 0 0 Z " fill="#B9E0FB" transform="translate(146,88)"/>
<path d="M0 0 C1.98 1.65 3.96 3.3 6 5 C5.67 5.66 5.34 6.32 5 7 C3.35 6.67 1.7 6.34 0 6 C0 4.02 0 2.04 0 0 Z " fill="#3D649B" transform="translate(111,80)"/>
<path d="M0 0 C3.125 0.375 3.125 0.375 6 1 C6 1.99 6 2.98 6 4 C3.36 3.34 0.72 2.68 -2 2 C-1.34 1.34 -0.68 0.68 0 0 Z " fill="#D0E1F0" transform="translate(60,139)"/>
<path d="M0 0 C1.32 0.33 2.64 0.66 4 1 C4 2.65 4 4.3 4 6 C2.68 5.34 1.36 4.68 0 4 C0 2.68 0 1.36 0 0 Z " fill="#215FA3" transform="translate(108,126)"/>
<path d="M0 0 C3.465 1.98 3.465 1.98 7 4 C6.67 4.66 6.34 5.32 6 6 C5.01 6 4.02 6 3 6 C2.67 4.68 2.34 3.36 2 2 C1.34 2 0.68 2 0 2 C0 1.34 0 0.68 0 0 Z " fill="#3A5F90" transform="translate(82,120)"/>
<path d="M0 0 C0.99 0 1.98 0 3 0 C2.67 1.65 2.34 3.3 2 5 C1.01 4.67 0.02 4.34 -1 4 C-0.67 2.68 -0.34 1.36 0 0 Z " fill="#2B5289" transform="translate(116,113)"/>
<path d="M0 0 C0.66 0.33 1.32 0.66 2 1 C2.625 3.0625 2.625 3.0625 3 5 C1.35 5.33 -0.3 5.66 -2 6 C-1.34 4.02 -0.68 2.04 0 0 Z " fill="#205595" transform="translate(144,106)"/>
<path d="M0 0 C2 2 2 2 2.125 4.625 C2.08375 5.40875 2.0425 6.1925 2 7 C1.01 7.495 1.01 7.495 0 8 C-1.125 2.25 -1.125 2.25 0 0 Z " fill="#335885" transform="translate(114,93)"/>
<path d="M0 0 C0.66 0 1.32 0 2 0 C0.25 5.75 0.25 5.75 -2 8 C-2.125 5.125 -2.125 5.125 -2 2 C-1.34 1.34 -0.68 0.68 0 0 Z " fill="#235791" transform="translate(17,70)"/>
<path d="M0 0 C2.31 0.33 4.62 0.66 7 1 C7 2.65 7 4.3 7 6 C6.34 6 5.68 6 5 6 C4.731875 5.38125 4.46375 4.7625 4.1875 4.125 C3.04443152 1.7004767 3.04443152 1.7004767 0 0 Z " fill="#E7F9FE" transform="translate(101,66)"/>
<path d="M0 0 C1.98 0.495 1.98 0.495 4 1 C2.68 3.31 1.36 5.62 0 8 C-0.98120464 4.94736336 -0.98120464 3.05263664 0 0 Z " fill="#2D5C92" transform="translate(36,66)"/>
</svg>
