<?xml version="1.0" encoding="UTF-8"?>
<svg version="1.1" xmlns="http://www.w3.org/2000/svg" width="200" height="200">
<path d="M0 0 C66 0 132 0 200 0 C200 66 200 132 200 200 C134 200 68 200 0 200 C0 134 0 68 0 0 Z " fill="#00B9FE" transform="translate(0,0)"/>
<path d="M0 0 C2.22089139 1.54192502 4.41278588 3.11665055 6.60546875 4.69921875 C9.04139946 6.36676863 11.25742203 7.59787424 13.953125 8.75390625 C18.54502202 10.85610383 20.79821631 14.58723738 23.515625 18.69140625 C24.34513672 19.69880859 24.34513672 19.69880859 25.19140625 20.7265625 C26.515625 22.69140625 26.515625 22.69140625 26.390625 26.12890625 C25.28154861 30.64443157 24.55943616 33.40863034 20.48046875 35.96875 C17.11831895 37.72175679 13.84176578 39.3475564 10.15600586 40.30322266 C0.76038268 42.99301322 -4.47414592 48.99846756 -10.921875 55.94140625 C-12.51112862 57.633977 -14.10541368 59.32078815 -15.7124176 60.996521 C-16.70401656 62.03218459 -17.68517641 63.07797319 -18.65415955 64.13482666 C-20.00170898 65.55175781 -20.00170898 65.55175781 -22.484375 67.69140625 C-23.804375 67.69140625 -25.124375 67.69140625 -26.484375 67.69140625 C-24.609375 62.94140625 -24.609375 62.94140625 -23.484375 60.69140625 C-23.41486959 59.15116629 -23.39985143 57.60805637 -23.421875 56.06640625 C-23.43089844 55.24914062 -23.43992188 54.431875 -23.44921875 53.58984375 C-23.46082031 52.96335937 -23.47242188 52.336875 -23.484375 51.69140625 C-23.64292969 52.33207031 -23.80148438 52.97273438 -23.96484375 53.6328125 C-25.58603158 59.64285136 -27.58264783 63.84061031 -31.484375 68.69140625 C-30.65292969 68.94535156 -29.82148437 69.19929688 -28.96484375 69.4609375 C-27.33482422 69.97720703 -27.33482422 69.97720703 -25.671875 70.50390625 C-24.59292969 70.84035156 -23.51398438 71.17679687 -22.40234375 71.5234375 C-19.64731844 72.62618525 -18.22215292 73.32609741 -16.484375 75.69140625 C-16.296875 78.37890625 -16.296875 78.37890625 -16.484375 80.69140625 C-22.1205576 80.13505668 -27.10210383 79.05642067 -32.44921875 77.22265625 C-33.16799698 76.98228638 -33.88677521 76.7419165 -34.62733459 76.4942627 C-36.13010979 75.99011562 -37.63168682 75.48238376 -39.13208008 74.97119141 C-41.43756369 74.1860635 -43.74668476 73.41248413 -46.05664062 72.640625 C-47.52105614 72.14779699 -48.98525704 71.65433067 -50.44921875 71.16015625 C-51.14079575 70.92784302 -51.83237274 70.69552979 -52.54490662 70.45617676 C-57.36768528 68.80809597 -57.36768528 68.80809597 -58.484375 67.69140625 C-58.484375 66.72203125 -58.484375 65.75265625 -58.484375 64.75390625 C-59.10280226 59.63877911 -62.86158927 56.7457857 -66.25 53.15234375 C-72.04008506 46.77515216 -73.17069597 41.27738303 -72.86328125 32.6796875 C-72.0501062 26.26650283 -67.94609437 22.94540535 -63.265625 18.98828125 C-56.95269017 14.39202168 -50.4766163 15.07445913 -43.00244141 16.22949219 C-39.2528797 16.95185264 -35.52549442 17.74293098 -31.796875 18.56640625 C-30.53037109 18.83582031 -29.26386719 19.10523438 -27.95898438 19.3828125 C-21.77077718 20.70908796 -15.61082109 22.10392462 -9.484375 23.69140625 C-9.39349609 22.76908203 -9.39349609 22.76908203 -9.30078125 21.828125 C-9.21699219 21.01988281 -9.13320312 20.21164063 -9.046875 19.37890625 C-8.96566406 18.57839844 -8.88445312 17.77789062 -8.80078125 16.953125 C-8.484375 14.69140625 -8.484375 14.69140625 -7.484375 11.69140625 C-9.96805791 10.44956479 -11.42324419 10.66512718 -14.19140625 10.8046875 C-29.73027512 11.35466741 -44.4657938 9.98374168 -58.484375 2.69140625 C-58.154375 1.70140625 -57.824375 0.71140625 -57.484375 -0.30859375 C-51.05827663 -1.56352205 -47.1465678 -0.97241505 -41.171875 1.56640625 C-40.46998047 1.84871094 -39.76808594 2.13101563 -39.04492188 2.421875 C-37.1876212 3.16904458 -35.33566787 3.92947259 -33.484375 4.69140625 C-30.73358616 5.60833586 -29.12488587 5.80026708 -26.296875 5.75390625 C-25.03875 5.73328125 -23.780625 5.71265625 -22.484375 5.69140625 C-23.43183594 5.59666016 -23.43183594 5.59666016 -24.3984375 5.5 C-37.18986308 3.74901235 -47.93341139 -3.22437533 -58.484375 -10.30859375 C-58.154375 -10.96859375 -57.824375 -11.62859375 -57.484375 -12.30859375 C-37.15299266 -18.57985438 -17.12405262 -11.61302895 0 0 Z " fill="#F9FDFD" transform="translate(123.484375,63.30859375)"/>
<path d="M0 0 C66 0 132 0 200 0 C200 66 200 132 200 200 C199.34 200 198.68 200 198 200 C197.67 135.32 197.34 70.64 197 4 C193.3740882 2.79136273 190.04946763 2.84673074 186.27424622 2.84178162 C185.47947378 2.83684364 184.68470135 2.83190566 183.86584491 2.82681805 C181.19417544 2.81142078 178.52253004 2.80307639 175.85083008 2.79467773 C173.93907966 2.78510096 172.02733138 2.775091 170.11558533 2.76467896 C164.91759522 2.73760206 159.71959602 2.71660757 154.52157426 2.69667697 C149.0923027 2.67483459 143.66305929 2.64743736 138.23381042 2.62062073 C127.94912882 2.57067018 117.66443161 2.52574011 107.37971944 2.48259836 C95.67247796 2.43324617 83.96526473 2.37832056 72.25805056 2.32291877 C48.17206005 2.20906246 24.08604246 2.10223136 0 2 C0 1.34 0 0.68 0 0 Z " fill="#1DC1F9" transform="translate(0,0)"/>
<path d="M0 0 C3.93265896 -0.04947698 7.86519714 -0.08575578 11.7980957 -0.10986328 C13.79319618 -0.12485495 15.78820946 -0.15026731 17.78320312 -0.17578125 C19.66362305 -0.18544922 19.66362305 -0.18544922 21.58203125 -0.1953125 C22.73936768 -0.20578613 23.8967041 -0.21625977 25.08911133 -0.22705078 C28 0 28 0 31 2 C30.01 5.96 29.02 9.92 28 14 C4.29659091 10.19431818 4.29659091 10.19431818 -6.21875 7.59375 C-10.77127532 6.62186257 -15.35916928 6.2697076 -20 6 C-16.68629 3.79086 -15.6553979 3.77518447 -11.8125 3.875 C-10.91144531 3.89304687 -10.01039062 3.91109375 -9.08203125 3.9296875 C-8.39496094 3.95289062 -7.70789063 3.97609375 -7 4 C-7 4.66 -7 5.32 -7 6 C-6.030625 5.979375 -5.06125 5.95875 -4.0625 5.9375 C-1 6 -1 6 0 7 C1.51469448 7.23192865 3.03754562 7.41215238 4.5625 7.5625 C5.38878906 7.64628906 6.21507813 7.73007813 7.06640625 7.81640625 C7.70449219 7.87699219 8.34257813 7.93757813 9 8 C9.33 6.02 9.66 4.04 10 2 C7.03 2 4.06 2 1 2 C0.67 1.34 0.34 0.68 0 0 Z " fill="#11B8F4" transform="translate(86,73)"/>
<path d="M0 0 C10.44876418 4.352177 20.18280916 4.36846358 31.36523438 3.75976562 C33.45556641 3.77807617 33.45556641 3.77807617 36.45556641 4.77807617 C36.45556641 5.43807617 36.45556641 6.09807617 36.45556641 6.77807617 C35.79556641 6.77807617 35.13556641 6.77807617 34.45556641 6.77807617 C34.45556641 7.43807617 34.45556641 8.09807617 34.45556641 8.77807617 C16.65751439 9.60333361 -0.39406756 9.15819617 -16.54443359 0.77807617 C-16.21443359 -0.21192383 -15.88443359 -1.20192383 -15.54443359 -2.22192383 C-9.98251074 -4.07589811 -5.23038841 -2.21654874 0 0 Z " fill="#E4FDFE" transform="translate(81.54443359375,65.221923828125)"/>
<path d="M0 0 C3 1 3 1 6 3 C7.88133114 3.74599817 9.77904036 4.45142601 11.6875 5.125 C12.68136719 5.47820312 13.67523438 5.83140625 14.69921875 6.1953125 C15.45847656 6.46085938 16.21773437 6.72640625 17 7 C17.33 9.31 17.66 11.62 18 14 C11.66361809 13.42063175 6.02931548 11.93337939 0 9.9375 C-0.87011719 9.65583984 -1.74023438 9.37417969 -2.63671875 9.08398438 C-4.75997589 8.39567574 -6.88088417 7.70093339 -9 7 C-4.63496852 5.81280737 -1.46726786 6.32990982 3 7 C3.33 6.34 3.66 5.68 4 5 C3.01 4.319375 3.01 4.319375 2 3.625 C1.34 3.08875 0.68 2.5525 0 2 C0 1.34 0 0.68 0 0 Z " fill="#E4FBFD" transform="translate(89,130)"/>
<path d="M0 0 C0.98226562 0.54527344 0.98226562 0.54527344 1.984375 1.1015625 C4.98033408 2.75187894 7.98912536 4.37706513 11 6 C11.99515625 6.54914062 12.9903125 7.09828125 14.015625 7.6640625 C24.77019593 13.37918789 34.97592208 14.27358512 47 15 C47 15.33 47 15.66 47 16 C34.55003718 16.71498829 24.23297395 16.27281257 12.6640625 11.41015625 C9.03788919 10.01458209 5.84310115 9.44415403 2 9 C1.01 8.67 0.02 8.34 -1 8 C0.98 7.01 2.96 6.02 5 5 C2.525 4.01 2.525 4.01 0 3 C0 2.01 0 1.02 0 0 Z " fill="#4BB9E0" transform="translate(67,54)"/>
<path d="M0 0 C2.36092149 2.36092149 2.31949234 2.96250484 2.375 6.1875 C2.29495015 11.13458064 0.75353366 13.95574743 -2 18 C-0.35 17.67 1.3 17.34 3 17 C3.66 18.65 4.32 20.3 5 22 C5.66 22 6.32 22 7 22 C7 22.66 7 23.32 7 24 C5.24859857 23.54705135 3.49892656 23.08741252 1.75 22.625 C0.77546875 22.36976563 -0.1990625 22.11453125 -1.203125 21.8515625 C-3.65837303 21.10401491 -5.75617405 20.22876183 -8 19 C-7.59007813 18.46632812 -7.18015625 17.93265625 -6.7578125 17.3828125 C-2.66812346 11.72769225 -0.83742876 6.91600651 0 0 Z " fill="#32BBEC" transform="translate(99,113)"/>
<path d="M0 0 C-2.6433037 1.01049372 -3.77362186 1.08128223 -6.48046875 0.109375 C-7.37378906 -0.33921875 -8.26710937 -0.7878125 -9.1875 -1.25 C-18.56869786 -5.919996 -26.0644161 -7.4342904 -36.5625 -7.1875 C-38.21862305 -7.16719727 -38.21862305 -7.16719727 -39.90820312 -7.14648438 C-42.60599272 -7.11144815 -45.30272636 -7.06232591 -48 -7 C-47.67 -6.01 -47.34 -5.02 -47 -4 C-49.475 -4.99 -49.475 -4.99 -52 -6 C-51.67 -6.66 -51.34 -7.32 -51 -8 C-32.53013472 -13.69707151 -16.74450157 -8.18078559 0 0 Z " fill="#CAFAFE" transform="translate(117,59)"/>
<path d="M0 0 C1.6875 1.5 1.6875 1.5 3 3 C5.10332891 3.71447643 5.10332891 3.71447643 7 4 C7 4.66 7 5.32 7 6 C4.74943278 5.88566637 2.49953326 5.75813564 0.25 5.625 C-1.00296875 5.55539063 -2.2559375 5.48578125 -3.546875 5.4140625 C-6.60998121 5.04676696 -8.41974266 4.60288714 -11 3 C-10.67 2.01 -10.34 1.02 -10 0 C-6.22941703 -1.25686099 -3.86146303 -0.82745636 0 0 Z " fill="#F5FEFE" transform="translate(76,63)"/>
<path d="M0 0 C1.41805831 0.28482368 2.83440379 0.57818144 4.25 0.875 C5.03890625 1.03742188 5.8278125 1.19984375 6.640625 1.3671875 C8.96831144 1.99150075 10.89031952 2.84838542 13 4 C11.68 4 10.36 4 9 4 C8.67 4.99 8.34 5.98 8 7 C6.02 7.33 4.04 7.66 2 8 C0 1.125 0 1.125 0 0 Z " fill="#2BB6ED" transform="translate(74,135)"/>
<path d="M0 0 C0.90105469 0.01804687 1.80210938 0.03609375 2.73046875 0.0546875 C3.41753906 0.07789062 4.10460937 0.10109375 4.8125 0.125 C4.8125 0.785 4.8125 1.445 4.8125 2.125 C5.781875 2.104375 6.75125 2.08375 7.75 2.0625 C10.8125 2.125 10.8125 2.125 11.8125 3.125 C13.49433948 3.35787008 15.1837416 3.53764166 16.875 3.6875 C18.25365234 3.81318359 18.25365234 3.81318359 19.66015625 3.94140625 C20.72556641 4.03228516 20.72556641 4.03228516 21.8125 4.125 C21.8125 4.785 21.8125 5.445 21.8125 6.125 C16.01734436 5.72019133 10.53513169 5.16423468 4.9375 3.6015625 C0.63271952 2.63615217 -3.79457904 2.43185845 -8.1875 2.125 C-4.87379 -0.08414 -3.8428979 -0.09981553 0 0 Z " fill="#2FB9EA" transform="translate(74.1875,76.875)"/>
<path d="M0 0 C1.64630328 0.14042877 3.29204179 0.28749329 4.9375 0.4375 C6.31228516 0.55931641 6.31228516 0.55931641 7.71484375 0.68359375 C10 1 10 1 11 2 C12.34015221 2.15582303 13.68758903 2.25044142 15.03515625 2.31640625 C16.24848633 2.37924805 16.24848633 2.37924805 17.48632812 2.44335938 C18.33646484 2.48267578 19.18660156 2.52199219 20.0625 2.5625 C20.91650391 2.60568359 21.77050781 2.64886719 22.65039062 2.69335938 C24.76672037 2.79976702 26.88333813 2.90041731 29 3 C29 3.66 29 4.32 29 5 C18.88620317 5.28942503 9.41398492 5.00094359 0 1 C0 0.67 0 0.34 0 0 Z " fill="#CBF7FE" transform="translate(85,64)"/>
<path d="M0 0 C4.95 1.65 9.9 3.3 15 5 C15 5.33 15 5.66 15 6 C12.03 5.67 9.06 5.34 6 5 C6 5.66 6 6.32 6 7 C6.99 7.33 7.98 7.66 9 8 C5.8568669 9.57156655 3.634536 8.11705576 0.375 7.0625 C-0.81351562 6.68222656 -2.00203125 6.30195312 -3.2265625 5.91015625 C-4.14179687 5.60980469 -5.05703125 5.30945313 -6 5 C-2.08263419 3.8299903 0.97959015 4.30415983 5 5 C5 4.34 5 3.68 5 3 C3.35 2.67 1.7 2.34 0 2 C0 1.34 0 0.68 0 0 Z " fill="#C5F6FE" transform="translate(78,64)"/>
<path d="M0 0 C0.77085938 0.42152344 1.54171875 0.84304687 2.3359375 1.27734375 C3.33882813 1.82519531 4.34171875 2.37304688 5.375 2.9375 C6.37273437 3.48277344 7.37046875 4.02804688 8.3984375 4.58984375 C9.92070346 5.4149759 11.45128783 6.22564391 13 7 C13 7.99 13 8.98 13 10 C11.22880197 9.85866501 9.45804713 9.71176792 7.6875 9.5625 C6.70136719 9.48128906 5.71523437 9.40007813 4.69921875 9.31640625 C2 9 2 9 -1 8 C0.98 7.01 2.96 6.02 5 5 C2.525 4.01 2.525 4.01 0 3 C0 2.01 0 1.02 0 0 Z " fill="#26B7EC" transform="translate(67,54)"/>
<path d="M0 0 C2.6635969 0.35994553 4.58183452 0.71161002 6.8125 2.25 C8.39364795 4.58011277 8.22337696 6.24501755 8 9 C3.03083364 8.48594831 -1.29026351 7.76615118 -6 6 C-2.18243176 4.62567543 1.07255329 5.32024961 5 6 C5.33 5.34 5.66 4.68 6 4 C5.34 4 4.68 4 4 4 C4 3.34 4 2.68 4 2 C2.68 2 1.36 2 0 2 C0 1.34 0 0.68 0 0 Z " fill="#C9F6FD" transform="translate(99,135)"/>
<path d="M0 0 C0.33 0 0.66 0 1 0 C1.16276042 2.01822917 1.32552083 4.03645833 1.48828125 6.0546875 C1.87393036 8.39519216 1.87393036 8.39519216 5 10 C2.75 12.5 2.75 12.5 0 15 C-1.32 15 -2.64 15 -4 15 C-3.71125 14.38125 -3.4225 13.7625 -3.125 13.125 C-1.58288195 8.84133876 -0.81601453 4.47071788 0 0 Z " fill="#DAFDFE" transform="translate(101,116)"/>
<path d="M0 0 C2.3941161 2.3941161 2.29598923 3.03786311 2.3125 6.3125 C2.24152682 10.31280631 1.49933025 12.77169843 -1 16 C-2.32 15.67 -3.64 15.34 -5 15 C-4.72285156 14.50371094 -4.44570312 14.00742188 -4.16015625 13.49609375 C-1.71312324 8.90681832 -0.43203357 5.18440279 0 0 Z " fill="#3FB4E3" transform="translate(99,113)"/>
<path d="M0 0 C2 1 2 1 2.671875 2.75 C3.05636909 5.38653088 2.77506621 7.39058003 2.25 10 C2.01023437 11.2684375 2.01023437 11.2684375 1.765625 12.5625 C0.93300924 15.21327669 -0.22032623 16.88785971 -2 19 C-2.042721 17.33388095 -2.04063832 15.66617115 -2 14 C-1.67 13.67 -1.34 13.34 -1 13 C-0.76518307 10.81707226 -0.58636677 8.62796826 -0.4375 6.4375 C-0.35371094 5.23996094 -0.26992187 4.04242188 -0.18359375 2.80859375 C-0.12300781 1.88175781 -0.06242187 0.95492187 0 0 Z " fill="#C0F0F7" transform="translate(97,108)"/>
<path d="M0 0 C-0.639375 0.268125 -1.27875 0.53625 -1.9375 0.8125 C-4.33131686 1.88667752 -4.33131686 1.88667752 -5 5 C-6.98 4.34 -8.96 3.68 -11 3 C-10.67 2.01 -10.34 1.02 -10 0 C-6.30581799 -1.231394 -3.7943739 -0.64432764 0 0 Z " fill="#CFF9FD" transform="translate(76,63)"/>
<path d="M0 0 C6.01077136 1.63040815 12.01663928 3.27147357 18 5 C18 5.33 18 5.66 18 6 C12.99109914 5.38487182 7.99367864 4.7282448 3 4 C3 3.34 3 2.68 3 2 C2.01 2 1.02 2 0 2 C0 1.34 0 0.68 0 0 Z " fill="#1EB4EA" transform="translate(67,67)"/>
<path d="M0 0 C1.32 0.33 2.64 0.66 4 1 C4 1.66 4 2.32 4 3 C3.34 3 2.68 3 2 3 C2 3.66 2 4.32 2 5 C-1.3 4.67 -4.6 4.34 -8 4 C-8 3.67 -8 3.34 -8 3 C-6.865625 2.87625 -5.73125 2.7525 -4.5625 2.625 C-3.386875 2.41875 -2.21125 2.2125 -1 2 C-0.67 1.34 -0.34 0.68 0 0 Z " fill="#C3F4FA" transform="translate(114,69)"/>
<path d="M0 0 C2.31 0.33 4.62 0.66 7 1 C5.75 2.5 5.75 2.5 4 4 C2.68 4 1.36 4 0 4 C0 2.68 0 1.36 0 0 Z " fill="#C5FDFF" transform="translate(76,139)"/>
<path d="M0 0 C0.66 0 1.32 0 2 0 C0.82191948 3.3529984 -0.19406612 5.7552529 -3 8 C-3.99 8.33 -4.98 8.66 -6 9 C-5.67 8.01 -5.34 7.02 -5 6 C-4.01 6 -3.02 6 -2 6 C-1.855625 5.38125 -1.71125 4.7625 -1.5625 4.125 C-1 2 -1 2 0 0 Z " fill="#D0FBFE" transform="translate(147,91)"/>
<path d="M0 0 C0.66 0 1.32 0 2 0 C2.66 1.65 3.32 3.3 4 5 C5.32 4.34 6.64 3.68 8 3 C7.6875 4.9375 7.6875 4.9375 7 7 C6.01 7.33 5.02 7.66 4 8 C2.68 5.36 1.36 2.72 0 0 Z " fill="#19B6F0" transform="translate(143,76)"/>
<path d="M0 0 C2.475 0.495 2.475 0.495 5 1 C5 1.66 5 2.32 5 3 C5.66 3 6.32 3 7 3 C7 3.66 7 4.32 7 5 C4.0625 4.1875 4.0625 4.1875 1 3 C0.67 2.01 0.34 1.02 0 0 Z " fill="#1BB5EC" transform="translate(99,132)"/>
<path d="M0 0 C-1.15173355 2.46800047 -2.04783565 4.04783565 -4 6 C-4.99 5.34 -5.98 4.68 -7 4 C-2.25 0 -2.25 0 0 0 Z " fill="#D4FAFD" transform="translate(64,81)"/>
<path d="M0 0 C2.96404505 2.80804268 5.44499019 5.18315774 7 9 C6.34 9 5.68 9 5 9 C4.731875 8.195625 4.46375 7.39125 4.1875 6.5625 C3.795625 5.716875 3.40375 4.87125 3 4 C2.01 3.67 1.02 3.34 0 3 C0 2.01 0 1.02 0 0 Z " fill="#BBF5FD" transform="translate(140,74)"/>
</svg>
