<?xml version="1.0" encoding="UTF-8"?>
<svg version="1.1" xmlns="http://www.w3.org/2000/svg" width="200" height="200">
<path d="M0 0 C66 0 132 0 200 0 C200 66 200 132 200 200 C134 200 68 200 0 200 C0 134 0 68 0 0 Z " fill="#FAFAFA" transform="translate(0,0)"/>
<path d="M0 0 C14.63851741 11.27740767 24.43936049 27.64218441 27 46 C28.68885935 64.99743378 24.52177853 83.27125555 12.421875 98.32421875 C-0.09162702 112.98399104 -16.86720161 122.6250538 -36.24511719 124.18017578 C-56.24132667 125.32857892 -74.30794844 119.55491289 -89.51220703 106.32543945 C-101.98177359 94.92298374 -110.66475939 78.19601561 -111.43359375 61.16796875 C-111.45712237 59.1746176 -111.45794745 57.18088514 -111.4375 55.1875 C-111.42920166 54.13651123 -111.42090332 53.08552246 -111.41235352 52.00268555 C-111.01850977 33.822802 -103.94092373 18.78686511 -91 6 C-90.32453125 5.30261719 -89.6490625 4.60523437 -88.953125 3.88671875 C-64.89406943 -19.40353242 -26.33500823 -19.65180372 0 0 Z " fill="#FBFBFB" transform="translate(142,45)"/>
<path d="M0 0 C-0.61277612 2.96175123 -1.25372522 4.38058783 -3 7 C-5.625 7.1875 -5.625 7.1875 -8 7 C-8.33 7.66 -8.66 8.32 -9 9 C-8.01 9 -7.02 9 -6 9 C-5.505 10.485 -5.505 10.485 -5 12 C-3.63875 12.8971875 -3.63875 12.8971875 -2.25 13.8125 C3.22106944 17.49495059 6.45775384 21.57397435 8 28 C8.04125 29.299375 8.0825 30.59875 8.125 31.9375 C8.51823132 35.73873609 9.91940583 37.29995012 12.75 39.8125 C15.69190306 42.13004234 18.68603173 44.23945436 22 46 C21.5 47.875 21.5 47.875 20 50 C14.52262464 51.88875012 9.75894522 52.20567661 4 52 C4.44472656 52.81984375 4.88945312 53.6396875 5.34765625 54.484375 C5.91355469 55.56203125 6.47945313 56.6396875 7.0625 57.75 C7.63097656 58.81734375 8.19945312 59.8846875 8.78515625 60.984375 C10.01044806 64.02593537 10.25348607 65.04893565 9 68 C7.68 68.33 6.36 68.66 5 69 C5.04125 70.134375 5.0825 71.26875 5.125 72.4375 C5.125 77.08354073 4.48349518 81.58614396 3 86 C0.22785618 88.77214382 -1.57775186 88.19836457 -5.4375 88.25 C-8.9067401 88.37212586 -8.9067401 88.37212586 -12 89 C-14.46974473 91.84100775 -14.46974473 91.84100775 -15 95 C-9.93547096 97.82824349 -5.8244439 99.28680279 0 100 C0.33 100.66 0.66 101.32 1 102 C-4.56100259 102.28276284 -7.30051499 102.17532771 -12 99 C-14.69254991 98.29329272 -14.69254991 98.29329272 -17 98 C-17 98.66 -17 99.32 -17 100 C-15.948125 100.0928125 -15.948125 100.0928125 -14.875 100.1875 C-10.30640484 101.47862472 -7.04696404 104.23919685 -4.625 108.3125 C-4.41875 108.869375 -4.2125 109.42625 -4 110 C-7.875 108.125 -7.875 108.125 -9 107 C-10.51469448 106.76807135 -12.03754562 106.58784762 -13.5625 106.4375 C-14.80193359 106.31181641 -14.80193359 106.31181641 -16.06640625 106.18359375 C-16.70449219 106.12300781 -17.34257813 106.06242187 -18 106 C-18 105.67 -18 105.34 -18 105 C-15.69 104.67 -13.38 104.34 -11 104 C-14.91063224 102.52952664 -14.91063224 102.52952664 -19 102 C-18.39642962 98.18653263 -17.26488908 95.17716834 -15.5 91.75 C-15.0565625 90.87859375 -14.613125 90.0071875 -14.15625 89.109375 C-13 87 -13 87 -12 86 C-9.81360547 85.92741054 -7.62499611 85.91626217 -5.4375 85.9375 C-3.64119141 85.95103516 -3.64119141 85.95103516 -1.80859375 85.96484375 C-0.41833984 85.98224609 -0.41833984 85.98224609 1 86 C0.95875 84.906875 0.9175 83.81375 0.875 82.6875 C1 79 1 79 3 76 C1.35 76 -0.3 76 -2 76 C-2 75.34 -2 74.68 -2 74 C-0.02 74 1.96 74 4 74 C3.67 72.35 3.34 70.7 3 69 C2.01 69 1.02 69 0 69 C0.495 67.515 0.495 67.515 1 66 C1.598125 66.165 2.19625 66.33 2.8125 66.5 C5.11344336 67.1114124 5.11344336 67.1114124 8 67 C7.6390625 66.22914062 7.278125 65.45828125 6.90625 64.6640625 C6.4421875 63.66117187 5.978125 62.65828125 5.5 61.625 C5.0359375 60.62726563 4.571875 59.62953125 4.09375 58.6015625 C3 56 3 56 3 54 C2.34 54 1.68 54 1 54 C1 55.32 1 56.64 1 58 C-3.75 57.125 -3.75 57.125 -6 56 C-6 55.34 -6 54.68 -6 54 C-7.65 53.34 -9.3 52.68 -11 52 C-11.66 54.31 -12.32 56.62 -13 59 C-12.34 59 -11.68 59 -11 59 C-11.33 59.99 -11.66 60.98 -12 62 C-12.99 62.33 -13.98 62.66 -15 63 C-14.649375 63.680625 -14.29875 64.36125 -13.9375 65.0625 C-12.52310637 69.4942667 -13.22003865 73.2106769 -15.0625 77.4375 C-15.371875 77.953125 -15.68125 78.46875 -16 79 C-15.34 79 -14.68 79 -14 79 C-14.99705427 84.64997421 -16.23720358 89.55305877 -20 94 C-19.34 94 -18.68 94 -18 94 C-18.66 95.32 -19.32 96.64 -20 98 C-25 98 -30 98 -35 98 C-35 98.66 -35 99.32 -35 100 C-33.21276059 101.58455866 -33.21276059 101.58455866 -31 103.125 C-30.2575 103.66382813 -29.515 104.20265625 -28.75 104.7578125 C-28.1725 105.16773438 -27.595 105.57765625 -27 106 C-27.33 106.66 -27.66 107.32 -28 108 C-28.54527344 107.54109375 -29.09054688 107.0821875 -29.65234375 106.609375 C-35.81025269 101.59883712 -41.82098723 97 -50 97 C-52 94 -52 94 -52 91 C-52.64324219 90.83628906 -53.28648438 90.67257813 -53.94921875 90.50390625 C-56 89 -56 89 -56.58203125 85.46484375 C-56.66873315 83.9562645 -56.74485416 82.44705378 -56.8125 80.9375 C-57.44919685 72.28998323 -59.86114162 65.31691299 -63.44140625 57.4765625 C-67.54829626 48.31583039 -67.64054797 35.60865902 -64.5 26.0625 C-58.72182676 12.93577891 -49.37764881 4.31863529 -36.125 -0.9375 C-24.21603805 -5.25340144 -11.5546996 -5.7773498 0 0 Z " fill="#2D2F30" transform="translate(124,40)"/>
<path d="M0 0 C17.09510794 6.02057113 28.92913539 20.86508523 36.5625 36.6875 C43.4064925 53.82887572 43.34468173 73.0091754 36.39013672 90.08251953 C30.44736937 103.53194038 20.34046099 116.12638056 7.1875 123.125 C5.7025 122.63 5.7025 122.63 4.1875 122.125 C3.4140625 119.359375 3.4140625 119.359375 2.8125 115.875 C1.95227385 111.86792616 1.35230685 109.37221028 -0.9375 105.9375 C-4.16704224 103.90148424 -6.79731229 103.24217675 -10.51953125 102.59375 C-13.87288084 101.90822709 -16.72024835 100.57243694 -19.8125 99.125 C-19.03350661 95.92894303 -18.09511422 93.52989712 -15.8125 91.125 C-12.34354557 90.32714048 -9.16868323 90.18784014 -5.61328125 90.16015625 C-2.90691754 90.45214287 -2.90691754 90.45214287 -1.8125 89.125 C-1.22231686 85.51999598 -0.66346192 81.91597149 -0.18164062 78.29492188 C0.15143155 76.15998383 0.48889747 74.17037524 1.1875 72.125 C3.29296875 70.58984375 3.29296875 70.58984375 5.1875 70.125 C4.78078859 66.76963085 3.84361527 64.36031022 2.125 61.5 C0.1875 58.125 0.1875 58.125 0.1875 55.125 C5.4675 54.135 10.7475 53.145 16.1875 52.125 C16.1875 50.805 16.1875 49.485 16.1875 48.125 C14.0209743 46.63962733 14.0209743 46.63962733 11.1875 45.125 C7.29294024 42.77656375 4.63030097 40.80625995 3.4375 36.27734375 C3.1460812 34.17756723 2.87778265 32.07445083 2.6328125 29.96875 C1.84345675 24.92795185 -0.64551235 22.14967208 -4.375 18.875 C-6.16352514 17.59093067 -7.98054211 16.34630526 -9.8125 15.125 C-9.8125 14.135 -9.8125 13.145 -9.8125 12.125 C-10.8025 12.125 -11.7925 12.125 -12.8125 12.125 C-12.4825 11.135 -12.1525 10.145 -11.8125 9.125 C-10.1625 9.125 -8.5125 9.125 -6.8125 9.125 C-5.8225 7.145 -4.8325 5.165 -3.8125 3.125 C-4.4725 3.125 -5.1325 3.125 -5.8125 3.125 C-5.8125 2.135 -5.8125 1.145 -5.8125 0.125 C-3.8125 -0.875 -3.8125 -0.875 0 0 Z " fill="#FBFBFC" transform="translate(127.8125,36.875)"/>
<path d="M0 0 C15.16307311 12.4292512 25.94201433 29.31591932 29.35546875 48.82421875 C31.16400736 72.27569911 26.7568236 92.50434232 11.35546875 110.82421875 C10.41960937 112.05011719 10.41960937 112.05011719 9.46484375 113.30078125 C-1.8499374 126.83661203 -20.16038002 135.84488088 -37.64453125 137.82421875 C-60.57831965 139.19592726 -81.39358698 134.731001 -99.04760742 119.30981445 C-108.75981934 110.34036376 -115.8910291 100.18943816 -120.64453125 87.82421875 C-121.05574219 86.91542969 -121.46695313 86.00664063 -121.890625 85.0703125 C-127.78172006 70.08776971 -126.74962236 50.10358956 -121.12890625 35.19921875 C-120.6390625 34.08546875 -120.14921875 32.97171875 -119.64453125 31.82421875 C-119.1753125 30.73109375 -118.70609375 29.63796875 -118.22265625 28.51171875 C-115.16067224 21.92680691 -111.45221241 16.25565096 -106.64453125 10.82421875 C-105.92652344 10.01210938 -105.20851563 9.2 -104.46875 8.36328125 C-77.19249521 -20.65401108 -31.52479678 -24.48689038 0 0 Z M-99.64453125 14.82421875 C-100.23621094 15.38367188 -100.82789063 15.943125 -101.4375 16.51953125 C-105.13794493 20.30926305 -107.43189941 24.90288328 -109.83203125 29.57421875 C-110.16557617 30.21770264 -110.49912109 30.86118652 -110.84277344 31.52416992 C-115.44686863 40.88652564 -117.21051867 50.12039185 -117.14453125 60.51171875 C-117.13953613 61.55610107 -117.13454102 62.6004834 -117.12939453 63.67651367 C-116.7243955 81.81628067 -109.21941094 97.75842784 -96.64453125 110.82421875 C-88.59940947 118.35466944 -80.02541685 123.11937972 -69.64453125 126.82421875 C-68.32775391 127.33275391 -68.32775391 127.33275391 -66.984375 127.8515625 C-51.07822128 133.18639304 -32.05583299 130.30957359 -17.33203125 123.07421875 C-11.24653141 119.93478197 -5.74044528 116.43278965 -0.64453125 111.82421875 C-0.03480469 111.29441406 0.57492188 110.76460938 1.203125 110.21875 C13.34317917 98.98586471 20.66177822 81.91395205 21.67578125 65.55859375 C22.43349711 45.36743694 16.1568377 27.86616019 2.35546875 12.82421875 C-8.81052147 1.32366702 -25.27261839 -7.70801231 -41.64453125 -8.17578125 C-42.71703125 -8.23765625 -43.78953125 -8.29953125 -44.89453125 -8.36328125 C-66.87371063 -9.09592056 -84.46135178 -0.7131562 -99.64453125 14.82421875 Z " fill="#E6E7E8" transform="translate(147.64453125,39.17578125)"/>
<path d="M0 0 C-0.61277612 2.96175123 -1.25372522 4.38058783 -3 7 C-5.625 7.1875 -5.625 7.1875 -8 7 C-8.33 7.66 -8.66 8.32 -9 9 C-8.01 9 -7.02 9 -6 9 C-5.505 10.485 -5.505 10.485 -5 12 C-3.02053408 13.36363208 -1.0180755 14.69418644 1 16 C2.36886951 17.29682374 3.7169291 18.61823134 5 20 C4.505 21.485 4.505 21.485 4 23 C3.60167969 22.50628906 3.20335938 22.01257813 2.79296875 21.50390625 C2.26316406 20.86324219 1.73335938 20.22257812 1.1875 19.5625 C0.66542969 18.92441406 0.14335938 18.28632812 -0.39453125 17.62890625 C-2.00834411 15.7451725 -2.00834411 15.7451725 -5 15 C-4.505 18.465 -4.505 18.465 -4 22 C-4.99 22.33 -5.98 22.66 -7 23 C-5.68 23 -4.36 23 -3 23 C0.17760854 24.99524257 1.73593147 26.10622959 2.8125 29.75 C2.874375 30.4925 2.93625 31.235 3 32 C1.68 32 0.36 32 -1 32 C-1.66 31.34 -2.32 30.68 -3 30 C-1.68 32.31 -0.36 34.62 1 37 C-1.88437779 35.70700306 -3.87219421 34.34058637 -6 32 C-5.34 30.35 -4.68 28.7 -4 27 C-2.68 27.33 -1.36 27.66 0 28 C-1.65 27.01 -3.3 26.02 -5 25 C-5.495 26.485 -5.495 26.485 -6 28 C-6.66 28 -7.32 28 -8 28 C-11.07692308 22.58461538 -11.07692308 22.58461538 -10.6875 19.625 C-10.3471875 18.820625 -10.3471875 18.820625 -10 18 C-9.01 18.66 -8.02 19.32 -7 20 C-7.58803797 16.97580475 -8.22678118 13.98241547 -9 11 C-13.46840411 11.49648935 -14.68987756 11.68987756 -18 15 C-15.36 13.68 -12.72 12.36 -10 11 C-10 11.99 -10 12.98 -10 14 C-11.65 14.66 -13.3 15.32 -15 16 C-14.01 17.98 -13.02 19.96 -12 22 C-12.66 22 -13.32 22 -14 22 C-15.5078125 20.42578125 -15.5078125 20.42578125 -17.125 18.3125 C-17.66382813 17.62800781 -18.20265625 16.94351563 -18.7578125 16.23828125 C-20.21051633 13.62067341 -20.23751225 11.94824985 -20 9 C-22.31 9.99 -24.62 10.98 -27 12 C-27 15.63 -27 19.26 -27 23 C-27.66 22.34 -28.32 21.68 -29 21 C-29 19.68 -29 18.36 -29 17 C-35.06264222 17.66264086 -35.06264222 17.66264086 -41 19 C-41 18.34 -41 17.68 -41 17 C-47.73626387 20.92948726 -52.2608966 24.19515486 -54.578125 31.9296875 C-56.54538653 41.58384128 -53.71364338 50.80588802 -50.72265625 59.93359375 C-48.19257681 67.67082289 -46.19176926 74.77135531 -46 83 C-44.90300781 82.98839844 -43.80601563 82.97679688 -42.67578125 82.96484375 C-41.22135588 82.95546036 -39.76692865 82.94636075 -38.3125 82.9375 C-37.59126953 82.92912109 -36.87003906 82.92074219 -36.12695312 82.91210938 C-32.28444618 82.89456368 -28.73360474 83.06475779 -25 84 C-25 81.03 -25 78.06 -25 75 C-24.67 75 -24.34 75 -24 75 C-24 78.3 -24 81.6 -24 85 C-25.46953125 84.94199219 -26.9390625 84.88398437 -28.453125 84.82421875 C-30.38538492 84.77731924 -32.31767917 84.73181929 -34.25 84.6875 C-35.21808594 84.64560547 -36.18617187 84.60371094 -37.18359375 84.56054688 C-42.94996034 84.33775228 -42.94996034 84.33775228 -47.625 87.375 C-48.81391467 89.6447462 -49.62603057 91.47570638 -50 94 C-45.22237362 95.01687046 -45.22237362 95.01687046 -40.5625 94.0625 C-40.046875 93.711875 -39.53125 93.36125 -39 93 C-38.34 93.66 -37.68 94.32 -37 95 C-35.68 95 -34.36 95 -33 95 C-32.01 95.66 -31.02 96.32 -30 97 C-29.505 95.515 -29.505 95.515 -29 94 C-25.88742431 94 -23.89234315 94.17361624 -21 95 C-20.814375 93.824375 -20.814375 93.824375 -20.625 92.625 C-20 90 -20 90 -18 88 C-17.28591666 86.01643517 -16.61382258 84.01684563 -16 82 C-16.99 81.505 -16.99 81.505 -18 81 C-18.125 78.625 -18.125 78.625 -18 76 C-17.34 75.34 -16.68 74.68 -16 74 C-15.41654524 71.04253508 -15.41654524 71.04253508 -16 68 C-16.78375 67.5875 -17.5675 67.175 -18.375 66.75 C-21 65 -21 65 -21.77734375 62.59765625 C-22.26316516 60.06925721 -22.6789169 57.55428795 -23 55 C-24.98 55.495 -24.98 55.495 -27 56 C-27 57.98 -27 59.96 -27 62 C-26.34 61.67 -25.68 61.34 -25 61 C-24.67 61.99 -24.34 62.98 -24 64 C-25.98 64.99 -25.98 64.99 -28 66 C-28.99 64.02 -29.98 62.04 -31 60 C-32.65 61.32 -34.3 62.64 -36 64 C-36.66 63.67 -37.32 63.34 -38 63 C-35.69 61.02 -33.38 59.04 -31 57 C-31.33 56.67 -31.66 56.34 -32 56 C-29.76592111 52.64888166 -28.73784176 51.18446044 -24.75 50.1875 C-23.8425 50.125625 -22.935 50.06375 -22 50 C-20.56242479 54.31272563 -20 57.45917851 -20 62 C-19.67 62.66 -19.34 63.32 -19 64 C-18.67 63.67 -18.34 63.34 -18 63 C-18 62.01 -18 61.02 -18 60 C-17.01 60 -16.02 60 -15 60 C-14.855625 59.21625 -14.71125 58.4325 -14.5625 57.625 C-14 55 -14 55 -13 53 C-12.01 53.495 -12.01 53.495 -11 54 C-11.66 55.65 -12.32 57.3 -13 59 C-12.34 59 -11.68 59 -11 59 C-11.33 59.99 -11.66 60.98 -12 62 C-12.99 62.33 -13.98 62.66 -15 63 C-14.649375 63.680625 -14.29875 64.36125 -13.9375 65.0625 C-12.52310637 69.4942667 -13.22003865 73.2106769 -15.0625 77.4375 C-15.371875 77.953125 -15.68125 78.46875 -16 79 C-15.34 79 -14.68 79 -14 79 C-14.99705427 84.64997421 -16.23720358 89.55305877 -20 94 C-19.34 94 -18.68 94 -18 94 C-18.66 95.32 -19.32 96.64 -20 98 C-25 98 -30 98 -35 98 C-35 98.66 -35 99.32 -35 100 C-33.21276059 101.58455866 -33.21276059 101.58455866 -31 103.125 C-30.2575 103.66382813 -29.515 104.20265625 -28.75 104.7578125 C-28.1725 105.16773438 -27.595 105.57765625 -27 106 C-27.33 106.66 -27.66 107.32 -28 108 C-28.54527344 107.54109375 -29.09054688 107.0821875 -29.65234375 106.609375 C-35.81025269 101.59883712 -41.82098723 97 -50 97 C-52 94 -52 94 -52 91 C-52.64324219 90.83628906 -53.28648438 90.67257813 -53.94921875 90.50390625 C-56 89 -56 89 -56.58203125 85.46484375 C-56.66873315 83.9562645 -56.74485416 82.44705378 -56.8125 80.9375 C-57.44919685 72.28998323 -59.86114162 65.31691299 -63.44140625 57.4765625 C-67.54829626 48.31583039 -67.64054797 35.60865902 -64.5 26.0625 C-58.72182676 12.93577891 -49.37764881 4.31863529 -36.125 -0.9375 C-24.21603805 -5.25340144 -11.5546996 -5.7773498 0 0 Z " fill="#323334" transform="translate(124,40)"/>
<path d="M0 0 C0 2.31 0 4.62 0 7 C-2.33860737 7.6929207 -4.10481787 7.99488693 -6.5625 7.875 C-9.06435571 7.7240408 -9.06435571 7.7240408 -10.4375 9.5 C-12 11 -12 11 -15.1875 11.1875 C-16.115625 11.125625 -17.04375 11.06375 -18 11 C-15.83411155 13.666508 -15.83411155 13.666508 -13 16 C-9.56336468 15.91617963 -6.97860396 14.65477998 -4 13 C-4.33 13.99 -4.66 14.98 -5 16 C-5.66 16 -6.32 16 -7 16 C-6.5359375 17.1446875 -6.5359375 17.1446875 -6.0625 18.3125 C-5.32106407 20.18789677 -4.63771783 22.08684652 -4 24 C-4.99 24.66 -5.98 25.32 -7 26 C-6.67 27.32 -6.34 28.64 -6 30 C-5.01 29.67 -4.02 29.34 -3 29 C-2.63720544 30.28926992 -2.28503302 31.58153272 -1.9375 32.875 C-1.64166016 33.95394531 -1.64166016 33.95394531 -1.33984375 35.0546875 C-1 37 -1 37 -2 39 C-1.67 39.66 -1.34 40.32 -1 41 C-3.64 42.98 -6.28 44.96 -9 47 C-6.69 45.68 -4.38 44.36 -2 43 C-0.515 45.475 -0.515 45.475 1 48 C1.33 47.67 1.66 47.34 2 47 C1.34 46.67 0.68 46.34 0 46 C-0.125 43.125 -0.125 43.125 0 40 C0.66 39.34 1.32 38.68 2 38 C4.125 38.375 4.125 38.375 6 39 C6.08636719 39.68707031 6.17273438 40.37414062 6.26171875 41.08203125 C6.68725919 43.81095571 7.14914322 46.37046775 8 49 C10.53188648 50.75322937 10.53188648 50.75322937 13 52 C13.4375 55.0625 13.4375 55.0625 13 58 C12.34 58.66 11.68 59.32 11 60 C10.35232207 62.57061311 10.35232207 62.57061311 10 65 C10.99 65.33 11.98 65.66 13 66 C10.25 72.75 10.25 72.75 8 75 C7.83312552 77.58354218 7.83312552 77.58354218 8 80 C7.2575 79.835 6.515 79.67 5.75 79.5 C2.80993422 78.88074304 2.80993422 78.88074304 -1 79 C-1.33 79.66 -1.66 80.32 -2 81 C-2.928125 80.67 -3.85625 80.34 -4.8125 80 C-7.92029291 78.85032996 -7.92029291 78.85032996 -11 79 C-11 78.34 -11 77.68 -11 77 C-11.70125 77.53625 -12.4025 78.0725 -13.125 78.625 C-16 80 -16 80 -19.3125 79.1875 C-20.199375 78.795625 -21.08625 78.40375 -22 78 C-21.49343163 73.56752674 -20.46520277 70.88766898 -17 68 C-10.12491569 66.9869495 -2.85955641 68.16673501 4 69 C2.38219843 67.38219843 0.54364482 67.77727853 -1.69140625 67.68359375 C-2.63564453 67.64169922 -3.57988281 67.59980469 -4.55273438 67.55664062 C-5.54595703 67.51732422 -6.53917969 67.47800781 -7.5625 67.4375 C-9.05813477 67.37272461 -9.05813477 67.37272461 -10.58398438 67.30664062 C-13.0558415 67.20019702 -15.5278031 67.09818072 -18 67 C-18.23074219 65.87464844 -18.46148437 64.74929687 -18.69921875 63.58984375 C-20.59781664 54.5737252 -22.83591128 45.90922553 -25.94921875 37.234375 C-28.62972888 28.98358544 -29.47043572 19.92689286 -25.98046875 11.81640625 C-23.36824299 6.97702387 -20.00112775 3.43298107 -15 1 C-14.34 1 -13.68 1 -13 1 C-13 1.66 -13 2.32 -13 3 C-11.96875 2.505 -10.9375 2.01 -9.875 1.5 C-6.47548422 0.02526098 -3.72978451 -0.27291106 0 0 Z " fill="#F4F5F5" transform="translate(96,56)"/>
<path d="M0 0 C15.16307311 12.4292512 25.94201433 29.31591932 29.35546875 48.82421875 C31.16400736 72.27569911 26.7568236 92.50434232 11.35546875 110.82421875 C10.41960937 112.05011719 10.41960937 112.05011719 9.46484375 113.30078125 C-1.8499374 126.83661203 -20.16038002 135.84488088 -37.64453125 137.82421875 C-60.57831965 139.19592726 -81.39358698 134.731001 -99.04760742 119.30981445 C-108.75981934 110.34036376 -115.8910291 100.18943816 -120.64453125 87.82421875 C-121.05574219 86.91542969 -121.46695313 86.00664063 -121.890625 85.0703125 C-127.78172006 70.08776971 -126.74962236 50.10358956 -121.12890625 35.19921875 C-120.6390625 34.08546875 -120.14921875 32.97171875 -119.64453125 31.82421875 C-119.1753125 30.73109375 -118.70609375 29.63796875 -118.22265625 28.51171875 C-115.16067224 21.92680691 -111.45221241 16.25565096 -106.64453125 10.82421875 C-105.92652344 10.01210938 -105.20851563 9.2 -104.46875 8.36328125 C-77.19249521 -20.65401108 -31.52479678 -24.48689038 0 0 Z M-107.45703125 17.51171875 C-116.55081191 30.17687509 -121.00133498 44.01427382 -120.95703125 59.51171875 C-120.97314453 60.61966797 -120.98925781 61.72761719 -121.00585938 62.86914062 C-121.01742067 82.65051271 -113.18998191 99.4783561 -99.51953125 113.57421875 C-84.65992934 128.32935949 -65.89221142 134.29180441 -45.36010742 134.25585938 C-26.80528311 133.92112478 -10.3997814 127.14401643 3.05078125 114.22265625 C19.74062983 96.85389858 26.04012273 78.34603824 25.703125 54.5 C25.11884398 39.90275336 18.56856032 25.97576221 9.35546875 14.82421875 C8.75863281 14.08171875 8.16179687 13.33921875 7.546875 12.57421875 C-4.38385997 -1.637039 -22.53098935 -10.47816019 -40.91552734 -12.41503906 C-67.64568355 -14.416586 -90.85750993 -3.118715 -107.45703125 17.51171875 Z " fill="#161818" transform="translate(147.64453125,39.17578125)"/>
<path d="M0 0 C5.445 0.495 5.445 0.495 11 1 C11 1.33 11 1.66 11 2 C9.02 2 7.04 2 5 2 C5 2.66 5 3.32 5 4 C7.31 4.66 9.62 5.32 12 6 C12 4.68 12 3.36 12 2 C12.66 2 13.32 2 14 2 C14.84069415 3.60032137 15.67231505 5.20541171 16.5 6.8125 C17.19609375 8.15248047 17.19609375 8.15248047 17.90625 9.51953125 C19 12 19 12 19 15 C17.865625 15.144375 16.73125 15.28875 15.5625 15.4375 C12.19222799 15.61171478 12.19222799 15.61171478 11 17 C11.99 17 12.98 17 14 17 C14.495 19.475 14.495 19.475 15 22 C13.02 22 11.04 22 9 22 C9 22.66 9 23.32 9 24 C10.65 24 12.3 24 14 24 C13.34 27.3 12.68 30.6 12 34 C11.13117188 33.93296875 10.26234375 33.8659375 9.3671875 33.796875 C5.59765885 33.7462773 2.61442721 33.89249143 -1 35 C-4.00143722 38.65156803 -5.525417 42.53999075 -7 47 C-7.33 47.99 -7.66 48.98 -8 50 C-7.443125 49.773125 -6.88625 49.54625 -6.3125 49.3125 C-2.99253041 48.86385546 -1.66965583 50.06449952 1 52 C2.36984198 53.29579647 3.7151049 54.61992749 5 56 C1.84442256 51.32974539 -0.8641579 49.87655769 -6 48 C-6 47.34 -6 46.68 -6 46 C0.625 46.75 0.625 46.75 4 49 C6.54698239 49.2932381 9.06321522 49.37706955 11.625 49.4609375 C14 50 14 50 15.75 51.8515625 C18.35922083 56.33616081 18.24042643 59.95104507 18 65 C17.34 65.66 16.68 66.32 16 67 C14.96875 66.979375 13.9375 66.95875 12.875 66.9375 C8.91947933 67.00129872 6.6621895 67.75364562 3.0859375 69.19921875 C-4.13161359 71.97000147 -12.33834144 73.22007518 -20 72 C-24.71678559 69.39594129 -28.15809523 65.99251784 -31.8125 62.125 C-36.46260272 57.32310485 -41.17434818 53.35416317 -47 50 C-46 47 -46 47 -43.91796875 45.83984375 C-37.93972722 43.8642017 -34.42540739 43.69559776 -28.6875 46.5 C-24.40236556 48.96297714 -20.59032113 51.60914115 -17 55 C-20.16952847 51.73991357 -23.39937989 48.77762123 -27 46 C-26.01 46 -25.02 46 -24 46 C-23.67 45.34 -23.34 44.68 -23 44 C-22.360625 44.165 -21.72125 44.33 -21.0625 44.5 C-18.4297198 44.92984167 -15.9725104 45.16419321 -13.3125 45.25 C-12.16201172 45.28867188 -12.16201172 45.28867188 -10.98828125 45.328125 C-10.33214844 45.21984375 -9.67601562 45.1115625 -9 45 C-8.34 44.01 -7.68 43.02 -7 42 C-7.66 42 -8.32 42 -9 42 C-8.731875 41.484375 -8.46375 40.96875 -8.1875 40.4375 C-4.75209265 34.43354745 -4.75209265 34.43354745 -5 28 C-5.495 27.01 -5.495 27.01 -6 26 C-5.525625 25.236875 -5.05125 24.47375 -4.5625 23.6875 C-2.80849599 20.67061311 -2.58308206 19.41872707 -3 16 C-3.60927518 13.98177598 -4.26480478 11.97583715 -5 10 C-3.68 9.34 -2.36 8.68 -1 8 C-1.66 7.67 -2.32 7.34 -3 7 C-1.125 2.25 -1.125 2.25 0 0 Z " fill="#262828" transform="translate(113,92)"/>
<path d="M0 0 C15.39779289 11.91495878 26.10124191 27.16081435 29.5625 46.4140625 C32.03867379 66.70984408 27.65397549 85.11753501 15.375 101.625 C3.85820538 116.29832984 -11.83488354 125.57151005 -30.234375 128.60546875 C-51.23957518 130.80622105 -69.88974497 126.27560558 -86.625 112.90234375 C-99.70775807 101.59453304 -109.86437606 86.52750822 -112 69 C-113.405119 47.27866493 -109.57690987 28.03915845 -95.05859375 11.171875 C-88.7391573 4.50468968 -82.11230045 -0.67998524 -74 -5 C-73.15824219 -5.45375 -72.31648438 -5.9075 -71.44921875 -6.375 C-48.41149829 -17.84266529 -20.88398803 -14.3009918 0 0 Z M-93 12 C-93.59167969 12.55945313 -94.18335938 13.11890625 -94.79296875 13.6953125 C-98.49341368 17.4850443 -100.78736816 22.07866453 -103.1875 26.75 C-103.52104492 27.39348389 -103.85458984 28.03696777 -104.19824219 28.69995117 C-108.80233738 38.06230689 -110.56598742 47.2961731 -110.5 57.6875 C-110.49500488 58.73188232 -110.49000977 59.77626465 -110.48486328 60.85229492 C-110.07986425 78.99206192 -102.57487969 94.93420909 -90 108 C-81.95487822 115.53045069 -73.3808856 120.29516097 -63 124 C-61.68322266 124.50853516 -61.68322266 124.50853516 -60.33984375 125.02734375 C-44.43369003 130.36217429 -25.41130174 127.48535484 -10.6875 120.25 C-4.60200016 117.11056322 0.90408597 113.6085709 6 109 C6.60972656 108.47019531 7.21945313 107.94039063 7.84765625 107.39453125 C19.98771042 96.16164596 27.30630947 79.0897333 28.3203125 62.734375 C29.07802836 42.54321819 22.80136895 25.04194144 9 10 C-2.16599022 -1.50055173 -18.62808714 -10.53223106 -35 -11 C-36.0725 -11.061875 -37.145 -11.12375 -38.25 -11.1875 C-60.22917938 -11.92013931 -77.81682053 -3.53737495 -93 12 Z " fill="#252626" transform="translate(141,42)"/>
<path d="M0 0 C5.445 0.495 5.445 0.495 11 1 C11 1.33 11 1.66 11 2 C9.02 2 7.04 2 5 2 C5 2.66 5 3.32 5 4 C7.31 4.66 9.62 5.32 12 6 C12 4.68 12 3.36 12 2 C12.66 2 13.32 2 14 2 C14.84069415 3.60032137 15.67231505 5.20541171 16.5 6.8125 C16.9640625 7.70582031 17.428125 8.59914063 17.90625 9.51953125 C19 12 19 12 19 15 C17.2984375 15.2165625 17.2984375 15.2165625 15.5625 15.4375 C12.19222799 15.61171478 12.19222799 15.61171478 11 17 C11.99 17 12.98 17 14 17 C14.495 19.475 14.495 19.475 15 22 C13.02 22 11.04 22 9 22 C9 22.66 9 23.32 9 24 C10.65 24 12.3 24 14 24 C13.34 27.3 12.68 30.6 12 34 C11.13117188 33.93296875 10.26234375 33.8659375 9.3671875 33.796875 C5.59765885 33.7462773 2.61442721 33.89249143 -1 35 C-4.00143722 38.65156803 -5.525417 42.53999075 -7 47 C-7.33 47.99 -7.66 48.98 -8 50 C-7.443125 49.773125 -6.88625 49.54625 -6.3125 49.3125 C-3.06074293 48.87307337 -1.59345072 50.12695226 1 52 C1 52.33 1 52.66 1 53 C-13.80020344 55.97363445 -13.80020344 55.97363445 -19.0625 53.64453125 C-21.26649633 51.88640918 -23.14972452 50.12251053 -25 48 C-25.66 47.34 -26.32 46.68 -27 46 C-26.01 46 -25.02 46 -24 46 C-23.67 45.34 -23.34 44.68 -23 44 C-22.360625 44.165 -21.72125 44.33 -21.0625 44.5 C-18.4297198 44.92984167 -15.9725104 45.16419321 -13.3125 45.25 C-12.16201172 45.28867188 -12.16201172 45.28867188 -10.98828125 45.328125 C-10.33214844 45.21984375 -9.67601563 45.1115625 -9 45 C-8.34 44.01 -7.68 43.02 -7 42 C-7.66 42 -8.32 42 -9 42 C-8.731875 41.484375 -8.46375 40.96875 -8.1875 40.4375 C-4.75209265 34.43354745 -4.75209265 34.43354745 -5 28 C-5.33 27.34 -5.66 26.68 -6 26 C-5.525625 25.236875 -5.05125 24.47375 -4.5625 23.6875 C-2.80849599 20.67061311 -2.58308206 19.41872707 -3 16 C-3.60927518 13.98177598 -4.26480478 11.97583715 -5 10 C-3.68 9.34 -2.36 8.68 -1 8 C-1.66 7.67 -2.32 7.34 -3 7 C-1.125 2.25 -1.125 2.25 0 0 Z " fill="#F7F7F8" transform="translate(113,92)"/>
<path d="M0 0 C-0.33 1.32 -0.66 2.64 -1 4 C-7.47924528 3.11069182 -7.47924528 3.11069182 -10.42578125 2.484375 C-21.42356053 0.41499013 -32.40166966 2.8533352 -41.875 8.75 C-50.09566455 14.80257719 -55.33424137 22.07355668 -58 32 C-59.90325245 44.81811685 -55.62876567 55.50108154 -51.13793945 67.2565918 C-49.26583223 72.42440508 -48.6638488 76.56240575 -48.8125 82.0625 C-48.83957031 83.37347656 -48.86664063 84.68445313 -48.89453125 86.03515625 C-48.92933594 87.01355469 -48.96414062 87.99195313 -49 89 C-50.9765625 88.44921875 -50.9765625 88.44921875 -53 87 C-53.31387692 84.50437078 -53.40713043 82.30698946 -53.375 79.8125 C-53.50846475 73.7281583 -54.43675825 68.82915102 -56.875 63.25 C-57.14505859 62.63205566 -57.41511719 62.01411133 -57.69335938 61.37744141 C-57.95955078 60.7694873 -58.22574219 60.1615332 -58.5 59.53515625 C-63.57362119 47.57779382 -64.86149356 36.17317989 -60 24 C-54.57470563 12.26443416 -46.86761234 4.83098881 -34.92578125 -0.328125 C-23.34403958 -4.37389946 -11.45071595 -4.52640066 0 0 Z " fill="#F0F1F2" transform="translate(122,41)"/>
<path d="M0 0 C1.8125 0.75 1.8125 0.75 2.8125 1.75 C3 4.6875 3 4.6875 2.8125 7.75 C2.1525 8.41 1.4925 9.07 0.8125 9.75 C0.16482207 12.32061311 0.16482207 12.32061311 -0.1875 14.75 C0.8025 15.08 1.7925 15.41 2.8125 15.75 C0.0625 22.5 0.0625 22.5 -2.1875 24.75 C-2.35437448 27.33354218 -2.35437448 27.33354218 -2.1875 29.75 C-2.93 29.585 -3.6725 29.42 -4.4375 29.25 C-7.37756578 28.63074304 -7.37756578 28.63074304 -11.1875 28.75 C-11.5175 29.41 -11.8475 30.07 -12.1875 30.75 C-13.115625 30.42 -14.04375 30.09 -15 29.75 C-18.10779291 28.60032996 -18.10779291 28.60032996 -21.1875 28.75 C-21.1875 28.09 -21.1875 27.43 -21.1875 26.75 C-21.88875 27.28625 -22.59 27.8225 -23.3125 28.375 C-26.1875 29.75 -26.1875 29.75 -29.5 28.9375 C-30.386875 28.545625 -31.27375 28.15375 -32.1875 27.75 C-31.68093163 23.31752674 -30.65270277 20.63766898 -27.1875 17.75 C-20.31241569 16.7369495 -13.04705641 17.91673501 -6.1875 18.75 C-6.23390625 17.62980469 -6.2803125 16.50960937 -6.328125 15.35546875 C-6.36564423 13.88283915 -6.40204423 12.41018073 -6.4375 10.9375 C-6.48777344 9.83051758 -6.48777344 9.83051758 -6.5390625 8.70117188 C-6.63797842 3.23606715 -6.63797842 3.23606715 -4.30859375 0.72265625 C-2.1875 -0.25 -2.1875 -0.25 0 0 Z " fill="#F2F3F4" transform="translate(106.1875,106.25)"/>
<path d="M0 0 C11.32184371 2.8714821 21.90361093 10.12863769 27.9375 20.25 C29 23 29 23 29 26 C17.52548052 27.03270675 17.52548052 27.03270675 12.8125 23.5625 C9.08475831 20.3055497 5.69516552 16.67215795 2.25390625 13.1171875 C-0.46214091 10.5658919 -3.30426908 8.74680103 -6.56640625 6.97265625 C-7.03949219 6.65167969 -7.51257813 6.33070313 -8 6 C-8 5.34 -8 4.68 -8 4 C-4.535 3.505 -4.535 3.505 -1 3 C-0.67 2.01 -0.34 1.02 0 0 Z " fill="#F5F6F6" transform="translate(76,136)"/>
<path d="M0 0 C1 2 1 2 1.3125 4.875 C2.10125915 8.46026886 3.23369251 9.67987113 6 12 C5.67 11.34 5.34 10.68 5 10 C5 9.01 5 8.02 5 7 C6.65 6.67 8.3 6.34 10 6 C9.505 5.01 9.505 5.01 9 4 C8.21625 4.495 7.4325 4.99 6.625 5.5 C4 7 4 7 2 7 C3 4 3 4 4.75 2.75 C7.52724898 1.82425034 9.21571665 2.22658796 12 3 C13.01382963 6.6208201 13.49897691 10.27811418 14 14 C12.68 13.01 11.36 12.02 10 11 C10.58803797 14.02419525 11.22678118 17.01758453 12 20 C12.99 19.01 13.98 18.02 15 17 C17.4375 17.75 17.4375 17.75 20 19 C20.8125 21.125 20.8125 21.125 21 23 C18.525 21.02 18.525 21.02 16 19 C15.0406843 21.19514873 15.0406843 21.19514873 15 24 C16.44423481 26.30107561 18.10872135 28.01646386 20 30 C17.50638429 28.79618552 15.31856917 27.54571278 13 26 C10.71351152 25.75892674 10.71351152 25.75892674 8.3125 25.875 C7.10013672 25.90207031 7.10013672 25.90207031 5.86328125 25.9296875 C5.24839844 25.95289062 4.63351563 25.97609375 4 26 C3.71125 25.195625 3.4225 24.39125 3.125 23.5625 C2.26737432 20.8673532 2.26737432 20.8673532 0 20 C-3.37822416 19.85624578 -5.77390955 19.92463652 -9 21 C-9.33 21.66 -9.66 22.32 -10 23 C-10.33 22.01 -10.66 21.02 -11 20 C-12.0828125 20.4640625 -12.0828125 20.4640625 -13.1875 20.9375 C-15.83966667 21.93942963 -18.1817377 22.69532299 -21 23 C-21.66 22.34 -22.32 21.68 -23 21 C-14.5407855 15.68277946 -14.5407855 15.68277946 -10.875 16.4375 C-10.25625 16.623125 -9.6375 16.80875 -9 17 C-8.01 16.67 -7.02 16.34 -6 16 C-6.66 12.04 -7.32 8.08 -8 4 C-3.5 0.625 -3.5 0.625 0 0 Z " fill="#F4F4F5" transform="translate(104,48)"/>
<path d="M0 0 C2 3 2 3 1.75 5.1875 C1.5025 6.115625 1.255 7.04375 1 8 C0.64394392 9.41619297 0.28987691 10.8328871 -0.0625 12.25 C-0.371875 13.4875 -0.68125 14.725 -1 16 C-1 16.33 -1 16.66 -1 17 C11.38210878 19.84179546 22.53119909 21.44400348 35 18 C36.33278712 17.66448935 37.66596897 17.33053001 39 17 C39 17.66 39 18.32 39 19 C28.44799684 22.41009858 18.00163926 22.68473563 7 23 C6.01 25.64 5.02 28.28 4 31 C3.01 31 2.02 31 1 31 C1.66 32.65 2.32 34.3 3 36 C1.0625 35.625 1.0625 35.625 -1 35 C-2.37810527 32.24378946 -1.97919884 29.90736665 -1.83984375 26.875 C-1.81834421 24.75208132 -1.81834421 24.75208132 -4 23 C-4.33 23 -4.66 23 -5 23 C-6.32 23 -7.64 23 -9 23 C-9.66 20.36 -10.32 17.72 -11 15 C-12.32 15 -13.64 15 -15 15 C-15 14.34 -15 13.68 -15 13 C-12.525 13.495 -12.525 13.495 -10 14 C-10.33 13.34 -10.66 12.68 -11 12 C-11.57142857 4.91428571 -11.57142857 4.91428571 -9.4375 1.5 C-6.1028644 -0.55208345 -3.840317 -0.49781887 0 0 Z " fill="#393B3C" transform="translate(105,69)"/>
<path d="M0 0 C-0.33 1.32 -0.66 2.64 -1 4 C-3.31 4.66 -5.62 5.32 -8 6 C-7.34 4.68 -6.68 3.36 -6 2 C-12.02401038 2.40840748 -14.27227983 3.19476181 -19 7 C-21.96204539 7.90869528 -24.94550793 8.49424532 -28 9 C-27.34 9.66 -26.68 10.32 -26 11 C-28.76264289 11.59732819 -31.16032769 12 -34 12 C-40.62895499 15.8055112 -44.21445309 20.65424676 -46.640625 27.91796875 C-48.3731131 37.95510088 -44.77157202 47.80303286 -41.61230469 57.16650391 C-38.96305206 65.0994733 -37.46860781 72.64585389 -37 81 C-37.99 81.495 -37.99 81.495 -39 82 C-39.06316406 81.13761719 -39.12632813 80.27523437 -39.19140625 79.38671875 C-40.24744799 68.85965009 -43.31345742 59.74099696 -47.27563477 49.96020508 C-50.35827949 41.61825884 -50.52042129 29.99257567 -47.5625 21.5625 C-42.64348052 11.37682716 -33.95711354 3.97178342 -23.4375 0.1875 C-16.33342687 -1.7710996 -7.03075085 -2.34358362 0 0 Z " fill="#EDEFEF" transform="translate(114,45)"/>
<path d="M0 0 C2.84594422 1.83800564 4.68329188 2.54729904 8 2.9375 C8 2.2775 8 1.6175 8 0.9375 C6.68 0.2775 5.36 -0.3825 4 -1.0625 C4 -1.3925 4 -1.7225 4 -2.0625 C7.29683832 -2.42556212 8.67401245 -2.28535318 11.45703125 -0.3828125 C12.62298828 0.70386719 12.62298828 0.70386719 13.8125 1.8125 C14.60269531 2.53179687 15.39289063 3.25109375 16.20703125 3.9921875 C18 5.9375 18 5.9375 18 7.9375 C12.57530117 9.75052932 7.8274217 10.2548846 2.125 10.1875 C0.93898193 10.18169922 0.93898193 10.18169922 -0.27099609 10.17578125 C-5.75789632 10.09437659 -10.71686174 9.5028743 -16 7.9375 C-16.9811923 4.81552451 -17.15757314 3.33606735 -15.9375 0.25 C-10.77076891 -5.91674355 -5.7979422 -3.98608526 0 0 Z " fill="#F3F4F5" transform="translate(122,78.0625)"/>
<path d="M0 0 C-0.61277612 2.96175123 -1.25372522 4.38058783 -3 7 C-4.66614608 7.04165365 -6.33385392 7.04165365 -8 7 C-8.66 7.66 -9.32 8.32 -10 9 C-10.495 8.01 -10.495 8.01 -11 7 C-10.67 6.34 -10.34 5.68 -10 5 C-23.30658476 4.46773661 -35.46345464 4.39853799 -46.2578125 13.37890625 C-53.87091065 20.46284287 -58.00394945 27.42719234 -58.52172852 38.06054688 C-58.674056 46.24062417 -57.20725413 52.74077761 -53.99609375 60.2421875 C-53 63 -53 63 -54 66 C-60.42577845 56.36133233 -62.50174876 44.34378816 -61 33 C-58.2656657 22.08882868 -51.51115612 13.63589514 -42.125 7.5625 C-29.10797463 0.46047534 -16.89787015 0.92523179 -3 5 C-2.67 3.68 -2.34 2.36 -2 1 C-14.50757584 -2.2961141 -26.68899884 -1.8514864 -39 2 C-39 1.34 -39 0.68 -39 0 C-37.60550891 -0.483059 -36.20933293 -0.96125517 -34.8125 -1.4375 C-33.64654297 -1.83775391 -33.64654297 -1.83775391 -32.45703125 -2.24609375 C-21.72337604 -5.53956824 -10.10296922 -5.05148461 0 0 Z " fill="#393B3C" transform="translate(124,40)"/>
<path d="M0 0 C1.90591578 1.82262383 2.94063101 3.25741646 3.15380859 5.92382812 C3.07052945 8.21068372 2.90097835 10.47163812 2.6875 12.75 C2.5956543 13.93916016 2.5956543 13.93916016 2.50195312 15.15234375 C2.34920979 17.10275869 2.17654756 19.05159555 2 21 C-2.95 21 -7.9 21 -13 21 C-13.33 17.04 -13.66 13.08 -14 9 C-13.15695313 8.51789063 -12.31390625 8.03578125 -11.4453125 7.5390625 C-10.34960938 6.90742187 -9.25390625 6.27578125 -8.125 5.625 C-7.03445312 4.99851562 -5.94390625 4.37203125 -4.8203125 3.7265625 C-1.98766657 2.14358549 -1.98766657 2.14358549 0 0 Z " fill="#F9F9F9" transform="translate(93,99)"/>
<path d="M0 0 C1.32 0.33 2.64 0.66 4 1 C4.66 4.96 5.32 8.92 6 13 C4.02 13.99 4.02 13.99 2 15 C1.52783617 17.6937552 1.30572244 19.92587334 1.25 22.625 C1.1675 25.05875 1.085 27.4925 1 30 C-5.93 29.67 -12.86 29.34 -20 29 C-20.33 24.05 -20.66 19.1 -21 14 C-20.01 14 -19.02 14 -18 14 C-18 17.96 -18 21.92 -18 26 C-13.05 26 -8.1 26 -3 26 C-3.061875 24.1025 -3.12375 22.205 -3.1875 20.25 C-3.33550778 15.71109462 -3.13107836 13.38583802 0 10 C-0.33 9.67 -0.66 9.34 -1 9 C-2 8 -2 8 -2.1875 5.0625 C-2 2 -2 2 0 0 Z " fill="#3B3D3E" transform="translate(98,94)"/>
<path d="M0 0 C0.99 0.33 1.98 0.66 3 1 C3 1.99 3 2.98 3 4 C-11.55126877 11.51320612 -24.97850339 12.46117314 -41 12 C-40.01 11.34 -39.02 10.68 -38 10 C-37.67 9.01 -37.34 8.02 -37 7 C-35.96166016 6.96132812 -35.96166016 6.96132812 -34.90234375 6.921875 C-26.15739085 6.41492121 -18.37651561 4.41630258 -10 2 C-6.87421573 1.13919882 -4.2446175 1 -1 1 C-0.67 0.67 -0.34 0.34 0 0 Z " fill="#F2F3F3" transform="translate(130,157)"/>
<path d="M0 0 C3.63 0 7.26 0 11 0 C11.08083562 3.10468645 11.14041718 6.20727569 11.1875 9.3125 C11.21263672 10.19357422 11.23777344 11.07464844 11.26367188 11.98242188 C11.27817383 13.25375977 11.27817383 13.25375977 11.29296875 14.55078125 C11.31653442 15.72120972 11.31653442 15.72120972 11.34057617 16.9152832 C10.9113339 19.54273824 10.12021263 20.43214611 8 22 C5.4375 21.875 5.4375 21.875 3 21 C1 18 1 18 1.3125 15.5 C1.82098672 13.65095738 2.39357462 11.81927613 3 10 C2.34 10 1.68 10 1 10 C0.67 6.7 0.34 3.4 0 0 Z " fill="#EBEBEB" transform="translate(189,85)"/>
<path d="M0 0 C2.3293001 3.49395015 2.34044578 5.3533782 2.6875 9.5 C3.63611329 18.55083362 6.87977228 26.65697373 10.27563477 35.03979492 C11.97754251 39.64532823 12.12243337 43.87234575 12.0625 48.75 C12.05798828 49.44738281 12.05347656 50.14476562 12.04882812 50.86328125 C12.0371002 52.57555803 12.01916653 54.28779033 12 56 C10.0234375 55.44921875 10.0234375 55.44921875 8 54 C7.68612308 51.50437078 7.59286957 49.30698946 7.625 46.8125 C7.49153525 40.7281583 6.56324175 35.82915102 4.125 30.25 C3.85494141 29.63205566 3.58488281 29.01411133 3.30664062 28.37744141 C3.04044922 27.7694873 2.77425781 27.1615332 2.5 26.53515625 C-1.06030385 18.14433597 -2.54260852 10.08366857 -2 1 C-1.34 0.67 -0.68 0.34 0 0 Z " fill="#EFF0F1" transform="translate(61,74)"/>
<path d="M0 0 C0.66 0.33 1.32 0.66 2 1 C1.278125 1.45375 0.55625 1.9075 -0.1875 2.375 C-4.61548738 6.50778822 -7.40647391 11.46657832 -8.41796875 17.48828125 C-8.63442698 23.95110547 -6.95274732 29.88604114 -5 36 C-4.34 34.02 -3.68 32.04 -3 30 C-2.01 30.33 -1.02 30.66 0 31 C0 31.66 0 32.32 0 33 C0.99 33.33 1.98 33.66 3 34 C3 34.66 3 35.32 3 36 C2.01 36 1.02 36 0 36 C0 36.66 0 37.32 0 38 C2.475 37.505 2.475 37.505 5 37 C5 36.34 5 35.68 5 35 C6.32 35.66 7.64 36.32 9 37 C9 38.32 9 39.64 9 41 C4.67265609 43.22923777 1.71599818 42.92470553 -3 42 C-3 43.32 -3 44.64 -3 46 C-1.02 45.34 0.96 44.68 3 44 C1.75 45.5 1.75 45.5 0 47 C-1.32 47 -2.64 47 -4 47 C-13.3089675 21.26181308 -13.3089675 21.26181308 -8.78125 9.95703125 C-6.38295618 5.71719039 -4.03049812 2.76877697 0 0 Z " fill="#2D2F30" transform="translate(80,59)"/>
<path d="M0 0 C0.66 0.66 1.32 1.32 2 2 C1.6046932 5.68325543 0.34549646 8.90605696 -1.0625 12.3125 C-1.42472656 13.19550781 -1.78695312 14.07851562 -2.16015625 14.98828125 C-2.43730469 15.65214844 -2.71445313 16.31601563 -3 17 C-2.39671875 16.80664062 -1.7934375 16.61328125 -1.171875 16.4140625 C1 16 1 16 3.75 17.375 C4.4925 17.91125 5.235 18.4475 6 19 C6 19.33 6 19.66 6 20 C-8.80020344 22.97363445 -8.80020344 22.97363445 -14.0625 20.64453125 C-16.26649633 18.88640918 -18.14972452 17.12251053 -20 15 C-20.66 14.34 -21.32 13.68 -22 13 C-21.01 13 -20.02 13 -19 13 C-18.67 12.34 -18.34 11.68 -18 11 C-17.360625 11.165 -16.72125 11.33 -16.0625 11.5 C-13.4297198 11.92984167 -10.9725104 12.16419321 -8.3125 12.25 C-7.54550781 12.27578125 -6.77851562 12.3015625 -5.98828125 12.328125 C-5.33214844 12.21984375 -4.67601563 12.1115625 -4 12 C-3.34 11.01 -2.68 10.02 -2 9 C-2.66 9 -3.32 9 -4 9 C-3.566875 8.1646875 -3.566875 8.1646875 -3.125 7.3125 C-1.9586747 4.91505355 -0.9660119 2.48403061 0 0 Z " fill="#F7F8F8" transform="translate(108,125)"/>
<path d="M0 0 C6.625 0.75 6.625 0.75 10 3 C11.9512833 3.34237135 11.9512833 3.34237135 14 3.4375 C16.41209475 3.70698311 17.77817424 3.86690454 19.875 5.125 C22.14466746 8.9077791 23.18447386 12.55495479 22.625 16.9375 C22.315625 17.9584375 22.315625 17.9584375 22 19 C20.02 19 18.04 19 16 19 C15.62488281 18.25234375 15.24976562 17.5046875 14.86328125 16.734375 C11.04341695 9.38330113 8.08502094 4.77200718 0 2 C0 1.34 0 0.68 0 0 Z " fill="#F5F6F6" transform="translate(107,138)"/>
<path d="M0 0 C3.16769919 0.23464438 4.12220895 1.12542498 6.375 3.4375 C16.41203686 16.40843994 21.3957609 30.86642237 21.1875 47.1875 C21.18685547 48.15880859 21.18621094 49.13011719 21.18554688 50.13085938 C21.15811508 54.57785795 20.97493047 58.64563474 20 63 C18 61 18 61 17.82055664 59.06738281 C17.86490845 57.8970752 17.86490845 57.8970752 17.91015625 56.703125 C17.93271484 55.83389404 17.95527344 54.96466309 17.97851562 54.0690918 C18.00623047 53.1387915 18.03394531 52.20849121 18.0625 51.25 C18.27570176 32.70928528 13.36608006 16.75652722 1.25 2.50390625 C0 1 0 1 0 0 Z " fill="#E7E9EA" transform="translate(152,52)"/>
<path d="M0 0 C-0.33 0.99 -0.66 1.98 -1 3 C-1.77730469 3.30550781 -2.55460937 3.61101563 -3.35546875 3.92578125 C-7.41629841 5.57530585 -8.7471667 8.16667795 -10.8203125 11.91015625 C-14.79867091 22.33029367 -11.66078005 32.72740275 -8.09375 42.734375 C-7 46 -7 46 -7 49 C-5.515 48.505 -5.515 48.505 -4 48 C-4.66 48 -5.32 48 -6 48 C-6.33 46.35 -6.66 44.7 -7 43 C-3.04 43.33 0.92 43.66 5 44 C1.57407407 49.70987654 1.57407407 49.70987654 -3 51 C-3.66 51 -4.32 51 -5 51 C-5 53.97 -5 56.94 -5 60 C-5.33 60 -5.66 60 -6 60 C-6.24234375 59.05640625 -6.4846875 58.1128125 -6.734375 57.140625 C-8.62165503 49.88309773 -10.65036379 42.7549543 -13.16796875 35.68359375 C-15.67645368 27.59284659 -16.37974325 18.71612869 -12.98046875 10.81640625 C-10.35241617 5.94770326 -6.02894176 0 0 0 Z " fill="#DEE1E2" transform="translate(83,57)"/>
<path d="M0 0 C-0.33 0.99 -0.66 1.98 -1 3 C-0.34 3.66 0.32 4.32 1 5 C0.01 5.99 -0.98 6.98 -2 8 C0.64 6.68 3.28 5.36 6 4 C6 4.99 6 5.98 6 7 C4.35 7.66 2.7 8.32 1 9 C1.99 10.98 2.98 12.96 4 15 C3.34 15 2.68 15 2 15 C0.4921875 13.42578125 0.4921875 13.42578125 -1.125 11.3125 C-1.66382812 10.62800781 -2.20265625 9.94351563 -2.7578125 9.23828125 C-4.21051633 6.62067341 -4.23751225 4.94824985 -4 2 C-7.465 3.485 -7.465 3.485 -11 5 C-11 8.63 -11 12.26 -11 16 C-11.66 15.34 -12.32 14.68 -13 14 C-13 12.68 -13 11.36 -13 10 C-19.06264222 10.66264086 -19.06264222 10.66264086 -25 12 C-25 10 -25 10 -23 8 C-22.67 7.34 -22.34 6.68 -22 6 C-20.109375 5.5078125 -20.109375 5.5078125 -17.75 5.125 C-14.40479717 4.47176354 -13.13432163 4.11138867 -10.4375 1.875 C-6.88922432 -0.85444283 -4.39449331 -0.29793175 0 0 Z " fill="#262828" transform="translate(108,47)"/>
<path d="M0 0 C2.84195808 4.26293713 3 7.00684106 3 12 C3.33 12.66 3.66 13.32 4 14 C4.33 13.67 4.66 13.34 5 13 C5 12.01 5 11.02 5 10 C5.99 10 6.98 10 8 10 C8.2165625 8.824375 8.2165625 8.824375 8.4375 7.625 C9 5 9 5 10 3 C10.66 3.33 11.32 3.66 12 4 C11.34 5.65 10.68 7.3 10 9 C10.66 9 11.32 9 12 9 C11.67 9.99 11.34 10.98 11 12 C10.01 12.33 9.02 12.66 8 13 C8.185625 13.61875 8.37125 14.2375 8.5625 14.875 C9 17 9 17 8 19 C5.45769108 17.78411313 3.90219481 17.01349344 2 15 C0.88726705 11.71331656 0.3810238 8.44235291 0 5 C-1.32 5.33 -2.64 5.66 -4 6 C-4 7.98 -4 9.96 -4 12 C-3.34 11.67 -2.68 11.34 -2 11 C-1.67 11.99 -1.34 12.98 -1 14 C-2.98 14.99 -2.98 14.99 -5 16 C-5.99 14.02 -6.98 12.04 -8 10 C-9.65 11.32 -11.3 12.64 -13 14 C-13.66 13.67 -14.32 13.34 -15 13 C-12.69 11.02 -10.38 9.04 -8 7 C-8.33 6.67 -8.66 6.34 -9 6 C-5.67692308 1.2 -5.67692308 1.2 -2.25 0.1875 C-1.5075 0.125625 -0.765 0.06375 0 0 Z " fill="#252727" transform="translate(101,90)"/>
<path d="M0 0 C4.88925715 1.39693061 7.05441957 3.93987562 10 8 C12.40056712 12.34388336 12.16441763 16.1496799 12 21 C8.6875 21.3125 8.6875 21.3125 5 21 C3.0625 18.5 3.0625 18.5 2 16 C2.99 16 3.98 16 5 16 C5 16.66 5 17.32 5 18 C6.32 18 7.64 18 9 18 C7.21379776 13.73675889 7.21379776 13.73675889 4 10.5625 C1.82113522 9.74780561 1.82113522 9.74780561 -1 11 C-1 10.34 -1 9.68 -1 9 C-0.34 8.67 0.32 8.34 1 8 C0.67 5.36 0.34 2.72 0 0 Z " fill="#F1F2F2" transform="translate(118,54)"/>
<path d="M0 0 C7.71484375 -0.09765625 7.71484375 -0.09765625 10 0 C11 1 11 1 11.1328125 3.03125 C11.13023438 3.8459375 11.12765625 4.660625 11.125 5.5 C11.12757812 6.3146875 11.13015625 7.129375 11.1328125 7.96875 C11 10 11 10 10 11 C6.66381769 11.14257189 3.34024394 11.04228157 0 11 C0 7.37 0 3.74 0 0 Z " fill="#E1E1E1" transform="translate(0,95)"/>
<path d="M0 0 C2 3 2 3 1.75 5.1875 C1.5025 6.115625 1.255 7.04375 1 8 C0.64470193 9.43722078 0.29059062 10.87473531 -0.0625 12.3125 C-0.371875 13.529375 -0.68125 14.74625 -1 16 C-3 14 -3 14 -3.1953125 11.6171875 C-3.16050781 10.25980469 -3.16050781 10.25980469 -3.125 8.875 C-3.10695313 7.96492188 -3.08890625 7.05484375 -3.0703125 6.1171875 C-3.03550781 5.06917969 -3.03550781 5.06917969 -3 4 C-4.65 4.33 -6.3 4.66 -8 5 C-8.10807131 6.93627769 -8.1856225 8.87427756 -8.25 10.8125 C-8.29640625 11.89144531 -8.3428125 12.97039062 -8.390625 14.08203125 C-8.29716453 17.12076818 -8.29716453 17.12076818 -5.984375 18.88671875 C-5.32953125 19.25410156 -4.6746875 19.62148437 -4 20 C-4.33 20.99 -4.66 21.98 -5 23 C-6.32 23 -7.64 23 -9 23 C-9.66 20.36 -10.32 17.72 -11 15 C-12.32 15 -13.64 15 -15 15 C-15 14.34 -15 13.68 -15 13 C-12.525 13.495 -12.525 13.495 -10 14 C-10.33 13.34 -10.66 12.68 -11 12 C-11.57142857 4.91428571 -11.57142857 4.91428571 -9.4375 1.5 C-6.1028644 -0.55208345 -3.840317 -0.49781887 0 0 Z " fill="#E4E6E7" transform="translate(105,69)"/>
<path d="M0 0 C2 2 2 2 2.16357422 4.4675293 C2.1276416 5.49273682 2.09170898 6.51794434 2.0546875 7.57421875 C2.02737549 8.71020508 2.00006348 9.84619141 1.97192383 11.01660156 C1.93993896 12.22799805 1.9079541 13.43939453 1.875 14.6875 C1.68452728 28.29065048 3.55119263 38.57234767 9 51 C7.515 51.495 7.515 51.495 6 52 C5.01388849 49.46083825 4.03599124 46.9189977 3.0625 44.375 C2.78470703 43.66214844 2.50691406 42.94929688 2.22070312 42.21484375 C1.95322266 41.51230469 1.68574219 40.80976562 1.41015625 40.0859375 C1.16402588 39.4470459 0.91789551 38.8081543 0.66430664 38.14990234 C-0.79652132 33.42220995 -1.12743292 28.79103972 -1.1328125 23.8671875 C-1.13410156 22.73152344 -1.13539062 21.59585938 -1.13671875 20.42578125 C-1.13285156 19.25402344 -1.12898438 18.08226562 -1.125 16.875 C-1.12886719 15.69550781 -1.13273437 14.51601562 -1.13671875 13.30078125 C-1.13542969 12.16769531 -1.13414063 11.03460938 -1.1328125 9.8671875 C-1.13168457 8.83706543 -1.13055664 7.80694336 -1.12939453 6.74560547 C-1.01550522 4.32900313 -0.69443137 2.30672586 0 0 Z " fill="#DEDFDF" transform="translate(28,82)"/>
<path d="M0 0 C1.65322266 0.01740234 1.65322266 0.01740234 3.33984375 0.03515625 C4.99693359 0.04869141 4.99693359 0.04869141 6.6875 0.0625 C7.54214844 0.07410156 8.39679688 0.08570312 9.27734375 0.09765625 C9.27734375 0.42765625 9.27734375 0.75765625 9.27734375 1.09765625 C8.44589844 1.17242187 7.61445312 1.2471875 6.7578125 1.32421875 C3.48887605 1.71974843 0.43856568 2.16864409 -2.72265625 3.09765625 C-5.10000407 6.00352468 -5.10000407 6.00352468 -5.72265625 9.09765625 C-0.65812721 11.92589974 3.45289985 13.38445904 9.27734375 14.09765625 C9.60734375 14.75765625 9.93734375 15.41765625 10.27734375 16.09765625 C4.71634116 16.38041909 1.97682876 16.27298396 -2.72265625 13.09765625 C-5.41520616 12.39094897 -5.41520616 12.39094897 -7.72265625 12.09765625 C-7.72265625 12.75765625 -7.72265625 13.41765625 -7.72265625 14.09765625 C-7.02140625 14.15953125 -6.32015625 14.22140625 -5.59765625 14.28515625 C-1.02906109 15.57628097 2.23037971 18.3368531 4.65234375 22.41015625 C4.85859375 22.96703125 5.06484375 23.52390625 5.27734375 24.09765625 C1.40234375 22.22265625 1.40234375 22.22265625 0.27734375 21.09765625 C-1.23735073 20.8657276 -2.76020187 20.68550387 -4.28515625 20.53515625 C-5.11144531 20.45136719 -5.93773438 20.36757812 -6.7890625 20.28125 C-7.74619141 20.19037109 -7.74619141 20.19037109 -8.72265625 20.09765625 C-8.72265625 19.76765625 -8.72265625 19.43765625 -8.72265625 19.09765625 C-5.25765625 18.60265625 -5.25765625 18.60265625 -1.72265625 18.09765625 C-5.63328849 16.62718289 -5.63328849 16.62718289 -9.72265625 16.09765625 C-9.11908587 12.28418888 -7.98754533 9.27482459 -6.22265625 5.84765625 C-5.5575 4.54054687 -5.5575 4.54054687 -4.87890625 3.20703125 C-3.18357012 0.11418831 -3.18357012 0.11418831 0 0 Z " fill="#484A4B" transform="translate(114.72265625,125.90234375)"/>
<path d="M0 0 C-0.33 1.32 -0.66 2.64 -1 4 C-2.47146484 3.78537109 -2.47146484 3.78537109 -3.97265625 3.56640625 C-8.12161609 2.9736977 -12.27813321 2.45123698 -16.4375 1.9375 C-17.53481445 1.80118164 -17.53481445 1.80118164 -18.65429688 1.66210938 C-20.43612723 1.44083632 -22.21805361 1.22033671 -24 1 C-24 0.01 -24 -0.98 -24 -2 C-15.91215544 -4.69594819 -7.78747377 -2.8379514 0 0 Z " fill="#F7F8F8" transform="translate(122,41)"/>
<path d="M0 0 C0.556875 0.226875 1.11375 0.45375 1.6875 0.6875 C1.6875 1.3475 1.6875 2.0075 1.6875 2.6875 C0.06235926 3.7928347 -1.61548735 4.82103881 -3.3125 5.8125 C-8.14220241 8.76122576 -11.777095 11.90741534 -15.4609375 16.18359375 C-17.84896107 18.12323314 -19.31618982 17.98095306 -22.3125 17.6875 C-7.15572679 -0.96699011 -7.15572679 -0.96699011 0 0 Z " fill="#111212" transform="translate(62.3125,34.3125)"/>
<path d="M0 0 C0.66 0 1.32 0 2 0 C0.55743889 3.02640398 -1.10509704 5.88991425 -2.81787109 8.77026367 C-11.42513846 23.36286176 -14.06604888 37.16430226 -15 54 C-15.33 54 -15.66 54 -16 54 C-16.58138774 33.41456746 -12.94522051 16.51263276 0 0 Z " fill="#1E1F1F" transform="translate(45,54)"/>
<path d="M0 0 C1.55074219 -0.03867188 1.55074219 -0.03867188 3.1328125 -0.078125 C5.875 0.25 5.875 0.25 7.7421875 1.640625 C8.875 3.25 8.875 3.25 8.875 5.25 C8.13894531 5.31058594 7.40289062 5.37117187 6.64453125 5.43359375 C5.18080078 5.55927734 5.18080078 5.55927734 3.6875 5.6875 C2.72457031 5.76871094 1.76164062 5.84992188 0.76953125 5.93359375 C-1.91149602 6.22666151 -4.4912986 6.67703754 -7.125 7.25 C-8.445 5.27 -9.765 3.29 -11.125 1.25 C-7.37972143 0.3931466 -3.84053202 0.05775236 0 0 Z " fill="#EEEFF0" transform="translate(110.125,146.75)"/>
<path d="M0 0 C0.33 1.32 0.66 2.64 1 4 C-4.12325529 6.45489316 -8.33895411 7.50341703 -14 8 C-14.33 6.02 -14.66 4.04 -15 2 C-9.92523206 0.73694665 -5.27203646 -0.27036084 0 0 Z " fill="#F3F4F5" transform="translate(120,153)"/>
<path d="M0 0 C2.65354511 0.97296654 3.79877896 1.65792423 5.25 4.125 C6.24828553 7.95176118 6.2595331 11.04212025 6 15 C5.34 15.66 4.68 16.32 4 17 C2.38389406 16.96633113 0.76775736 16.92915301 -0.84765625 16.87109375 C-5.05851888 17.12328697 -9.02658573 18.65687405 -13 20 C-13.66 19.34 -14.32 18.68 -15 18 C-11.7 17.01 -8.4 16.02 -5 15 C-5 14.01 -5 13.02 -5 12 C-9.62 12.33 -14.24 12.66 -19 13 C-19 12.34 -19 11.68 -19 11 C-16.35541621 9.67770811 -14.32238699 9.90322806 -11.375 9.9375 C-9.87066406 9.95103516 -9.87066406 9.95103516 -8.3359375 9.96484375 C-7.56507812 9.97644531 -6.79421875 9.98804688 -6 10 C-5.67 9.34 -5.34 8.68 -5 8 C-4.01 9.98 -3.02 11.96 -2 14 C-0.02 14 1.96 14 4 14 C3.53328373 8.58609132 2.75702189 4.79482068 0 0 Z " fill="#2E3030" transform="translate(125,142)"/>
<path d="M0 0 C2.5625 0.3125 2.5625 0.3125 4.4375 1.5 C5.5625 3.3125 5.5625 3.3125 5.375 5.875 C4.5625 8.3125 4.5625 8.3125 2.5625 10.3125 C-0.30762296 10.68046448 -1.84524618 10.68759409 -4.3125 9.125 C-5.4375 7.3125 -5.4375 7.3125 -5.25 4.75 C-4.18108204 1.54324612 -3.41484064 0.43780008 0 0 Z " fill="#242424" transform="translate(97.4375,189.6875)"/>
<path d="M0 0 C3.125 0.375 3.125 0.375 6 1 C7.33078101 7.41194487 7.33078101 7.41194487 5.875 10 C4 11 4 11 1.4375 10.875 C-1 10 -1 10 -3 7 C-2.6758631 3.67759676 -2.39223697 2.39223697 0 0 Z " fill="#2A2A2A" transform="translate(193,96)"/>
<path d="M0 0 C0.33 0.99 0.66 1.98 1 3 C0.01 3.66 -0.98 4.32 -2 5 C-2.928125 4.773125 -3.85625 4.54625 -4.8125 4.3125 C-7.87660847 3.69158238 -7.87660847 3.69158238 -9.72265625 5.0390625 C-11.20594549 6.29442313 -12.60948681 7.64259426 -14 9 C-10.44219804 8.39009109 -7.3171411 7.4216319 -4 6 C-3.3125 7.75 -3.3125 7.75 -3 10 C-4.4375 12.25 -4.4375 12.25 -6 14 C-5.34 14.33 -4.68 14.66 -4 15 C-4.33 15.99 -4.66 16.98 -5 18 C-6.5 16.75 -6.5 16.75 -8 15 C-8 11 -8 11 -7 10 C-7.99 10.66 -8.98 11.32 -10 12 C-13.21774195 11.79889113 -15.2923344 11.54254362 -17.875 9.5625 C-19 8 -19 8 -19 6 C-17.88625 5.71125 -16.7725 5.4225 -15.625 5.125 C-11.99708908 4.30758671 -11.99708908 4.30758671 -10 2 C-7.6171875 1.8046875 -7.6171875 1.8046875 -4.875 1.875 C-3.50988281 1.90207031 -3.50988281 1.90207031 -2.1171875 1.9296875 C-1.41851562 1.95289063 -0.71984375 1.97609375 0 2 C0 1.34 0 0.68 0 0 Z " fill="#242526" transform="translate(97,61)"/>
<path d="M0 0 C3.29714793 0.32971479 4.6226839 0.6226839 7 3 C7.25 6 7.25 6 7 9 C6.34 9.66 5.68 10.32 5 11 C2 10.8125 2 10.8125 -1 10 C-3 7 -3 7 -2.75 4.4375 C-2 2 -2 2 0 0 Z " fill="#272727" transform="translate(165,26)"/>
<path d="M0 0 C2.5625 0.3125 2.5625 0.3125 4.375 1.5 C5.96449375 3.9260694 5.92737512 5.46647406 5.5625 8.3125 C3.5625 10.3125 3.5625 10.3125 1.125 10.625 C-1.4375 10.3125 -1.4375 10.3125 -3.25 9.125 C-4.83949375 6.6989306 -4.80237512 5.15852594 -4.4375 2.3125 C-2.4375 0.3125 -2.4375 0.3125 0 0 Z " fill="#161616" transform="translate(36.4375,166.6875)"/>
<path d="M0 0 C0.33 2.31 0.66 4.62 1 7 C-3.625 10 -3.625 10 -7 10 C-7.99 7.03 -8.98 4.06 -10 1 C-6.52674819 -0.1577506 -3.63932552 -0.06866652 0 0 Z " fill="#191919" transform="translate(75,5)"/>
<path d="M0 0 C2.375 2 2.375 2 4 4 C3.01 4.495 3.01 4.495 2 5 C1.67 4.34 1.34 3.68 1 3 C-3.60145754 2.5489718 -3.60145754 2.5489718 -7.71875 4.1875 C-9.44334597 6.62717234 -9.30267769 8.23127272 -9.1875 11.1875 C-9.16042969 12.08855469 -9.13335937 12.98960938 -9.10546875 13.91796875 C-9.07066406 14.60503906 -9.03585938 15.29210937 -9 16 C-10.65 15.67 -12.3 15.34 -14 15 C-14 15.66 -14 16.32 -14 17 C-12.68 17 -11.36 17 -10 17 C-9.34 19.31 -8.68 21.62 -8 24 C-8.66 24 -9.32 24 -10 24 C-10.33 22.02 -10.66 20.04 -11 18 C-12.98 18.99 -12.98 18.99 -15 20 C-15.33 18.35 -15.66 16.7 -16 15 C-15.360625 14.566875 -14.72125 14.13375 -14.0625 13.6875 C-11.73253997 12.08760823 -11.73253997 12.08760823 -11 9 C-11.99 8.67 -12.98 8.34 -14 8 C-12.625 6 -12.625 6 -11 4 C-10.34 4 -9.68 4 -9 4 C-9 3.34 -9 2.68 -9 2 C-5.50875983 -0.32749345 -4.10777749 -0.50299316 0 0 Z " fill="#303233" transform="translate(104,67)"/>
<path d="M0 0 C2.99481865 4.58031088 2.99481865 4.58031088 4 7 C3.25 9.4375 3.25 9.4375 2 11 C0.35 10.67 -1.3 10.34 -3 10 C-3.33 8.68 -3.66 7.36 -4 6 C-5.65 6.66 -7.3 7.32 -9 8 C-9 6.68 -9 5.36 -9 4 C-2.25 0 -2.25 0 0 0 Z " fill="#696969" transform="translate(187,45)"/>
<path d="M0 0 C0.66 0.66 1.32 1.32 2 2 C1.9375 4.375 1.9375 4.375 1 7 C-1.5625 9.3125 -1.5625 9.3125 -4 11 C-6.79872437 8.47211993 -8.45773019 6.79588866 -9 3 C-5.9628306 0.30029386 -4.0730612 -0.5359291 0 0 Z " fill="#1F1F1F" transform="translate(50,17)"/>
<path d="M0 0 C5.41538462 -0.36923077 5.41538462 -0.36923077 8.375 1.5 C8.91125 1.995 9.4475 2.49 10 3 C9.125 7.875 9.125 7.875 8 9 C5.32941149 9.14115161 2.67567762 9.04247107 0 9 C0 6.03 0 3.06 0 0 Z " fill="#141414" transform="translate(104,0)"/>
<path d="M0 0 C1.1171875 1.59375 1.1171875 1.59375 2 4 C-0.69823734 17.25210239 -8.89861258 28.32977587 -18 38 C-18.66 37.34 -19.32 36.68 -20 36 C-19.443125 35.45214844 -18.88625 34.90429688 -18.3125 34.33984375 C-8.95554318 24.61935651 -2.65617135 13.30852518 0 0 Z " fill="#282929" transform="translate(167,114)"/>
<path d="M0 0 C7.75 0.75 7.75 0.75 10 3 C9.625 5.625 9.625 5.625 9 8 C6.36 7.67 3.72 7.34 1 7 C0.67 8.32 0.34 9.64 0 11 C-0.66 11 -1.32 11 -2 11 C-1.34 7.37 -0.68 3.74 0 0 Z " fill="#6C6C6C" transform="translate(79,186)"/>
<path d="M0 0 C0.33 0 0.66 0 1 0 C1.0580966 3.9166043 1.09362893 7.83309763 1.125 11.75 C1.14175781 12.86117187 1.15851563 13.97234375 1.17578125 15.1171875 C1.18222656 16.18710938 1.18867188 17.25703125 1.1953125 18.359375 C1.20578613 19.34389648 1.21625977 20.32841797 1.22705078 21.34277344 C0.99489618 24.05973111 0.39036273 25.68112513 -1 28 C-1.66 27.67 -2.32 27.34 -3 27 C-3.33 27.99 -3.66 28.98 -4 30 C-3.67 22.74 -3.34 15.48 -3 8 C-2.67 8 -2.34 8 -2 8 C-1.67 9.98 -1.34 11.96 -1 14 C-0.67 9.38 -0.34 4.76 0 0 Z " fill="#222424" transform="translate(176,88)"/>
<path d="M0 0 C0 0.99 0 1.98 0 3 C0.99 3.33 1.98 3.66 3 4 C-6 7 -6 7 -15 10 C-15.99 9.01 -16.98 8.02 -18 7 C-15.37690901 5.82887054 -12.75171858 4.66294036 -10.125 3.5 C-9.37863281 3.16613281 -8.63226563 2.83226562 -7.86328125 2.48828125 C-7.14785156 2.17246094 -6.43242188 1.85664063 -5.6953125 1.53125 C-5.03547363 1.23798828 -4.37563477 0.94472656 -3.69580078 0.64257812 C-2 0 -2 0 0 0 Z " fill="#202222" transform="translate(79,26)"/>
<path d="M0 0 C3.375 0.25 3.375 0.25 7 1 C8.4375 3.0625 8.4375 3.0625 9 5 C8.401875 4.67 7.80375 4.34 7.1875 4 C4.94613529 2.79212012 4.94613529 2.79212012 2 3 C4.475 4.98 4.475 4.98 7 7 C6.67 8.32 6.34 9.64 6 11 C3.8125 11.75 3.8125 11.75 1 12 C-1.8125 10.1875 -1.8125 10.1875 -4 8 C-4 7.34 -4 6.68 -4 6 C-3.401875 6.33 -2.80375 6.66 -2.1875 7 C0.05386471 8.20787988 0.05386471 8.20787988 3 8 C1.68 7.01 0.36 6.02 -1 5 C-0.67 3.35 -0.34 1.7 0 0 Z " fill="#282828" transform="translate(143,9)"/>
<path d="M0 0 C0.67154933 1.28913487 1.33708859 2.58140204 2 3.875 C2.37125 4.59429687 2.7425 5.31359375 3.125 6.0546875 C4 8 4 8 4 10 C3.01 10 2.02 10 1 10 C0.34 8.02 -0.32 6.04 -1 4 C-1.99 4.495 -1.99 4.495 -3 5 C-2.67 6.32 -2.34 7.64 -2 9 C-2.66 9 -3.32 9 -4 9 C-4.33 8.01 -4.66 7.02 -5 6 C-5.99 6.495 -5.99 6.495 -7 7 C-6.34 8.98 -5.68 10.96 -5 13 C-5.99 13.495 -5.99 13.495 -7 14 C-8.32 10.7 -9.64 7.4 -11 4 C-2.25 0 -2.25 0 0 0 Z " fill="#272727" transform="translate(16,131)"/>
<path d="M0 0 C0.33 0.99 0.66 1.98 1 3 C1.8353125 2.78730469 1.8353125 2.78730469 2.6875 2.5703125 C6.42585447 1.85042667 8.93393001 1.43107924 12.37890625 3.26953125 C14.34289501 4.76975164 16.19978947 6.307704 18 8 C17.01 8.495 17.01 8.495 16 9 C15.01 8.13375 14.02 7.2675 13 6.375 C10.78730681 4.78420428 9.57064807 4.00717152 6.82421875 3.97265625 C3.60347154 4.67333069 1.58895059 5.26381176 -0.5 7.875 C-1.15269289 10.28510625 -1.15269289 10.28510625 -1 14 C3.455 14.99 3.455 14.99 8 16 C8 16.66 8 17.32 8 18 C6.20767663 17.69128878 4.41615679 17.37790936 2.625 17.0625 C1.12839844 16.80146484 1.12839844 16.80146484 -0.3984375 16.53515625 C-3 16 -3 16 -5 15 C-3.33333333 10 -1.66666667 5 0 0 Z " fill="#282A2B" transform="translate(107,71)"/>
<path d="M0 0 C1.63195312 0.32484375 1.63195312 0.32484375 3.296875 0.65625 C15.22011567 2.9497044 26.10847957 4.28455302 38 1 C39.33278712 0.66448935 40.66596897 0.33053001 42 0 C42 0.66 42 1.32 42 2 C34.41844665 4.63706204 27.2865166 5.3244382 19.3125 5.375 C18.43440674 5.38853516 17.55631348 5.40207031 16.65161133 5.41601562 C10.60838244 5.3751715 5.60476298 4.24394979 0 2 C0 1.34 0 0.68 0 0 Z " fill="#E2E5E6" transform="translate(102,86)"/>
<path d="M0 0 C1.01382963 3.6208201 1.49897691 7.27811418 2 11 C0.68 10.01 -0.64 9.02 -2 8 C-2.33 8.66 -2.66 9.32 -3 10 C-3.66 10 -4.32 10 -5 10 C-6.625 7.5 -6.625 7.5 -8 5 C-5 3 -5 3 -2 3 C-2.33 2.34 -2.66 1.68 -3 1 C-3.78375 1.495 -4.5675 1.99 -5.375 2.5 C-8 4 -8 4 -10 4 C-9 1 -9 1 -7.25 -0.25 C-4.47275102 -1.17574966 -2.78428335 -0.77341204 0 0 Z " fill="#E5E8E9" transform="translate(116,51)"/>
<path d="M0 0 C0.66 0 1.32 0 2 0 C2 5.61 2 11.22 2 17 C-4.93 16.67 -11.86 16.34 -19 16 C-19 14.02 -19 12.04 -19 10 C-18.67 11.32 -18.34 12.64 -18 14 C-17.20335938 13.98839844 -16.40671875 13.97679688 -15.5859375 13.96484375 C-14.52632813 13.95582031 -13.46671875 13.94679688 -12.375 13.9375 C-11.33085938 13.92589844 -10.28671875 13.91429688 -9.2109375 13.90234375 C-6 14 -6 14 0 15 C0 10.05 0 5.1 0 0 Z " fill="#D7DBDD" transform="translate(97,107)"/>
<path d="M0 0 C2.97 0.495 2.97 0.495 6 1 C5.01 3.64 4.02 6.28 3 9 C2.01 9 1.02 9 0 9 C0.66 10.65 1.32 12.3 2 14 C0.0625 13.625 0.0625 13.625 -2 13 C-3.41000664 10.17998673 -3.24548451 8.12992745 -3 5 C-1.5 2.125 -1.5 2.125 0 0 Z " fill="#EAECED" transform="translate(106,91)"/>
<path d="M0 0 C1.32 0.66 2.64 1.32 4 2 C4 2.66 4 3.32 4 4 C5.32 4.33 6.64 4.66 8 5 C6.02 5.66 4.04 6.32 2 7 C2.33 8.65 2.66 10.3 3 12 C-0.36591866 10.55746343 -2.51047079 8.66735273 -5 6 C-3.35 4.02 -1.7 2.04 0 0 Z " fill="#171717" transform="translate(23,38)"/>
<path d="M0 0 C2.44989101 3.74235319 2.23086143 7.44225419 2.125 11.75 C2.11597656 12.44738281 2.10695313 13.14476563 2.09765625 13.86328125 C2.07419888 15.57566958 2.03833104 17.28788004 2 19 C0.68 18.34 -0.64 17.68 -2 17 C-2.05418326 14.91695462 -2.09287551 12.83350232 -2.125 10.75 C-2.14820312 9.58984375 -2.17140625 8.4296875 -2.1953125 7.234375 C-2.0103949 4.17213954 -1.60823023 2.55797249 0 0 Z " fill="#EEEFF0" transform="translate(71,111)"/>
<path d="M0 0 C1.32 0.33 2.64 0.66 4 1 C4.66 4.63 5.32 8.26 6 12 C4.68 12.33 3.36 12.66 2 13 C1.71125 12.360625 1.4225 11.72125 1.125 11.0625 C0.17176549 8.84793921 0.17176549 8.84793921 -2 8 C-2.125 5.125 -2.125 5.125 -2 2 C-1.34 1.34 -0.68 0.68 0 0 Z " fill="#B2B5B6" transform="translate(98,94)"/>
<path d="M0 0 C3.3 0 6.6 0 10 0 C10 0.99 10 1.98 10 3 C7 5.1875 7 5.1875 4 7 C5.32 7.33 6.64 7.66 8 8 C8 8.66 8 9.32 8 10 C5.03 10 2.06 10 -1 10 C-1 9.01 -1 8.02 -1 7 C1.5 4.8125 1.5 4.8125 4 3 C2.68 2.67 1.36 2.34 0 2 C0 1.34 0 0.68 0 0 Z " fill="#2D2D2D" transform="translate(3,81)"/>
<path d="M0 0 C0.66 0.99 1.32 1.98 2 3 C-5.18734688 6.5172123 -12.21280717 9.14734097 -20 11 C-20.33 10.01 -20.66 9.02 -21 8 C-20.154375 7.75765625 -19.30875 7.5153125 -18.4375 7.265625 C-11.91973954 5.33992304 -5.95976746 3.2720292 0 0 Z " fill="#DFE0E1" transform="translate(135,161)"/>
<path d="M0 0 C3.19624262 1.53837846 6.21605574 3.28866532 9.25 5.125 C10.14203125 5.66382813 11.0340625 6.20265625 11.953125 6.7578125 C12.96632813 7.37269531 12.96632813 7.37269531 14 8 C13.67 8.99 13.34 9.98 13 11 C8.77510398 10.46719784 6.45919284 9.12321801 3.1875 6.4375 C2.39730469 5.79683594 1.60710938 5.15617188 0.79296875 4.49609375 C-0.09455078 3.75552734 -0.09455078 3.75552734 -1 3 C-0.67 2.01 -0.34 1.02 0 0 Z " fill="#121314" transform="translate(51,156)"/>
<path d="M0 0 C1.1725131 0.95117134 2.33787015 1.91117009 3.5 2.875 C4.1496875 3.40867188 4.799375 3.94234375 5.46875 4.4921875 C6.22671875 5.23855469 6.22671875 5.23855469 7 6 C7 6.66 7 7.32 7 8 C4.36 8.33 1.72 8.66 -1 9 C-0.34 10.32 0.32 11.64 1 13 C-1.88437779 11.70700306 -3.87219421 10.34058637 -6 8 C-5.67 7.01 -5.34 6.02 -5 5 C-2.69 5 -0.38 5 2 5 C1.01 3.68 0.02 2.36 -1 1 C-0.67 0.67 -0.34 0.34 0 0 Z " fill="#202020" transform="translate(167,161)"/>
<path d="M0 0 C12.38275042 -0.48454241 23.13805153 0.33506696 35 4 C34.67 4.99 34.34 5.98 34 7 C33.38253906 6.79503906 32.76507813 6.59007812 32.12890625 6.37890625 C26.37289724 4.54784707 21.02021684 3.48550136 15 3 C15 2.67 15 2.34 15 2 C10.05 1.67 5.1 1.34 0 1 C0 0.67 0 0.34 0 0 Z " fill="#D1D2D2" transform="translate(90,27)"/>
<path d="M0 0 C0 0.66 0 1.32 0 2 C-4.47469837 3.49156612 -8.87586779 3.18437766 -13.5625 3.1875 C-14.53380859 3.19974609 -15.50511719 3.21199219 -16.50585938 3.22460938 C-17.43333984 3.22654297 -18.36082031 3.22847656 -19.31640625 3.23046875 C-20.59173218 3.23663208 -20.59173218 3.23663208 -21.89282227 3.24291992 C-24 3 -24 3 -26 1 C-23.16681141 0.83049299 -20.33349012 0.66432466 -17.5 0.5 C-16.70851563 0.45230469 -15.91703125 0.40460938 -15.1015625 0.35546875 C-10.057819 0.06607363 -5.05202732 -0.04634887 0 0 Z " fill="#EDEDED" transform="translate(115,170)"/>
<path d="M0 0 C0 0.66 0 1.32 0 2 C-0.33 2.33 -0.66 2.66 -1 3 C-0.0409375 2.7215625 -0.0409375 2.7215625 0.9375 2.4375 C1.618125 2.293125 2.29875 2.14875 3 2 C4 3 4 3 4.3125 5.375 C4 8 4 8 2.125 9.8125 C0 11 0 11 -2 11 C-2 9 -2 9 -0.5 7.375 C-0.005 6.92125 0.49 6.4675 1 6 C0.01 6.66 -0.98 7.32 -2 8 C-4.1875 7.625 -4.1875 7.625 -6 7 C-5.6875 4.625 -5.6875 4.625 -5 2 C-2 0 -2 0 0 0 Z " fill="#2F2F2F" transform="translate(33,29)"/>
<path d="M0 0 C4.86896303 0.59619955 9.32790951 1.56976822 14 3 C14 3.66 14 4.32 14 5 C13.34 5 12.68 5 12 5 C12 5.66 12 6.32 12 7 C6.06 5.515 6.06 5.515 0 4 C0 2.68 0 1.36 0 0 Z " fill="#F2F3F3" transform="translate(110,32)"/>
<path d="M0 0 C0.99 0.33 1.98 0.66 3 1 C3 1.66 3 2.32 3 3 C3.99 3.33 4.98 3.66 6 4 C6 4.66 6 5.32 6 6 C5.01 6 4.02 6 3 6 C3 6.66 3 7.32 3 8 C4.65 7.67 6.3 7.34 8 7 C8 6.34 8 5.68 8 5 C9.32 5.66 10.64 6.32 12 7 C12 8.32 12 9.64 12 11 C10.35 11.66 8.7 12.32 7 13 C7.33 12.34 7.66 11.68 8 11 C8.66 11 9.32 11 10 11 C10 10.34 10 9.68 10 9 C7.36 9 4.72 9 2 9 C2 7.35 2 5.7 2 4 C1.34 4.66 0.68 5.32 0 6 C0 4.02 0 2.04 0 0 Z " fill="#252627" transform="translate(77,89)"/>
<path d="M0 0 C3.21043882 1.38188453 5.04936365 2.92421903 7.25 5.625 C7.77078125 6.25664062 8.2915625 6.88828125 8.828125 7.5390625 C9.40820312 8.26222656 9.40820312 8.26222656 10 9 C9.67 9.66 9.34 10.32 9 11 C5.49304707 10.4346089 3.97267387 9.31277274 1.6875 6.625 C1.15511719 6.01914063 0.62273438 5.41328125 0.07421875 4.7890625 C-0.28027344 4.19867188 -0.63476562 3.60828125 -1 3 C-0.67 2.01 -0.34 1.02 0 0 Z " fill="#1D1E1E" transform="translate(42,147)"/>
<path d="M0 0 C0.33 0 0.66 0 1 0 C1.33 3.96 1.66 7.92 2 12 C2.99 12 3.98 12 5 12 C5.66 12 6.32 12 7 12 C6.67 13.98 6.34 15.96 6 18 C6.886875 18.103125 7.77375 18.20625 8.6875 18.3125 C12.0573702 19.01190702 14.17271538 20.08742511 17 22 C13.8133909 23.59330455 11.28889571 21.99841477 8 21 C7.34 21 6.68 21 6 21 C4 18 4 18 4 15 C2.68 14.34 1.36 13.68 0 13 C0 8.71 0 4.42 0 0 Z " fill="#232425" transform="translate(68,116)"/>
<path d="M0 0 C1.64574566 -0.02688151 3.29161413 -0.04634123 4.9375 -0.0625 C5.85402344 -0.07410156 6.77054687 -0.08570312 7.71484375 -0.09765625 C10 0 10 0 11 1 C11.0979057 2.49738124 11.12974864 3.99942892 11.125 5.5 C11.12757812 6.3146875 11.13015625 7.129375 11.1328125 7.96875 C11 10 11 10 10 11 C8.31391034 11.07205511 6.62499341 11.08386068 4.9375 11.0625 C4.01839844 11.05347656 3.09929687 11.04445313 2.15234375 11.03515625 C1.44207031 11.02355469 0.73179687 11.01195313 0 11 C0 10.34 0 9.68 0 9 C2.97 9 5.94 9 9 9 C9 6.69 9 4.38 9 2 C6.03 2 3.06 2 0 2 C0 1.34 0 0.68 0 0 Z " fill="#151515" transform="translate(0,95)"/>
<path d="M0 0 C-0.64270983 5.9129304 -2.19003784 11.34244531 -4 17 C-6.48709896 13.26935156 -6.29991053 11.42368032 -6 7 C-5.125 3.625 -5.125 3.625 -4 1 C-2 0 -2 0 0 0 Z " fill="#111313" transform="translate(31,72)"/>
<path d="M0 0 C0 0.66 0 1.32 0 2 C-1.65 2.33 -3.3 2.66 -5 3 C-4.01 3.33 -3.02 3.66 -2 4 C-2 4.66 -2 5.32 -2 6 C-3.32 6 -4.64 6 -6 6 C-6 6.66 -6 7.32 -6 8 C-2.535 7.505 -2.535 7.505 1 7 C1 7.66 1 8.32 1 9 C-3.455 9.495 -3.455 9.495 -8 10 C-8.33 7.03 -8.66 4.06 -9 1 C-5.94152152 0.45627049 -3.11227195 0 0 0 Z " fill="#171717" transform="translate(88,1)"/>
<path d="M0 0 C0.66 0 1.32 0 2 0 C2 0.66 2 1.32 2 2 C2.78375 2.268125 3.5675 2.53625 4.375 2.8125 C7 4 7 4 9 7 C6.69 7.33 4.38 7.66 2 8 C1.67 8.99 1.34 9.98 1 11 C0.34 11 -0.32 11 -1 11 C-1.02688151 9.35425434 -1.04634123 7.70838587 -1.0625 6.0625 C-1.07410156 5.14597656 -1.08570313 4.22945312 -1.09765625 3.28515625 C-1 1 -1 1 0 0 Z " fill="#3A3A3A" transform="translate(56,10)"/>
<path d="M0 0 C3.13269705 3.13269705 3.05494397 5.97328423 3.0625 10.25 C3.041875 11.4875 3.02125 12.725 3 14 C1.35 14.33 -0.3 14.66 -2 15 C-1.01 15.66 -0.02 16.32 1 17 C1 17.66 1 18.32 1 19 C-0.65 19 -2.3 19 -4 19 C-4.33 17.02 -4.66 15.04 -5 13 C-3.02 13 -1.04 13 1 13 C0.84402344 12.14535156 0.68804687 11.29070312 0.52734375 10.41015625 C0.33269531 9.30542969 0.13804687 8.20070313 -0.0625 7.0625 C-0.25972656 5.96035156 -0.45695313 4.85820313 -0.66015625 3.72265625 C-0.77230469 2.82417969 -0.88445312 1.92570312 -1 1 C-0.67 0.67 -0.34 0.34 0 0 Z " fill="#353738" transform="translate(129,62)"/>
<path d="M0 0 C-1.65 0.66 -3.3 1.32 -5 2 C-5 2.66 -5 3.32 -5 4 C-3.35 3.67 -1.7 3.34 0 3 C0 3.66 0 4.32 0 5 C-0.99 5.66 -1.98 6.32 -3 7 C-1.02 6.34 0.96 5.68 3 5 C3.33 5.66 3.66 6.32 4 7 C-1.625 10 -1.625 10 -5 10 C-6.5625 7.1875 -6.5625 7.1875 -8 4 C-7 1 -7 1 -4.5625 -0.25 C-2 -1 -2 -1 0 0 Z " fill="#222222" transform="translate(146,180)"/>
<path d="M0 0 C1.67542976 0.28604898 3.34385343 0.61781233 5 1 C5.33 2.65 5.66 4.3 6 6 C4.35 6.66 2.7 7.32 1 8 C-0.5625 6.75 -0.5625 6.75 -2 5 C-1.74853421 2.86254078 -1.54074221 1.54074221 0 0 Z " fill="#868686" transform="translate(190,118)"/>
<path d="M0 0 C2.26171875 0.4609375 2.26171875 0.4609375 4.6875 1.375 C5.49574219 1.67148438 6.30398437 1.96796875 7.13671875 2.2734375 C8.05904297 2.63308594 8.05904297 2.63308594 9 3 C8.67 3.66 8.34 4.32 8 5 C7.34 5 6.68 5 6 5 C5.67 5.66 5.34 6.32 5 7 C4.67 6.01 4.34 5.02 4 4 C3.278125 4.309375 2.55625 4.61875 1.8125 4.9375 C-0.83966667 5.93942963 -3.1817377 6.69532299 -6 7 C-6.66 6.34 -7.32 5.68 -8 5 C-7.236875 4.54625 -6.47375 4.0925 -5.6875 3.625 C-3.76367186 2.46175508 -1.87058776 1.2470585 0 0 Z " fill="#E5E7E8" transform="translate(89,64)"/>
<path d="M0 0 C0.66 0 1.32 0 2 0 C0.125 4.75 0.125 4.75 -1 7 C-0.01 6.01 0.98 5.02 2 4 C2.66 4.33 3.32 4.66 4 5 C4 5.99 4 6.98 4 8 C4.99 6.35 5.98 4.7 7 3 C8 6 8 6 6.5625 9.1875 C5.7890625 10.5796875 5.7890625 10.5796875 5 12 C2.36 10.68 -0.28 9.36 -3 8 C-2.45276317 4.62537285 -1.9451 2.91765 0 0 Z " fill="#232323" transform="translate(15,49)"/>
<path d="M0 0 C2.97 0.33 5.94 0.66 9 1 C9 1.66 9 2.32 9 3 C6.69 2.67 4.38 2.34 2 2 C2 2.66 2 3.32 2 4 C3.32 4 4.64 4 6 4 C6 4.66 6 5.32 6 6 C4.35 6 2.7 6 1 6 C1 6.66 1 7.32 1 8 C3.97 8.495 3.97 8.495 7 9 C7 9.33 7 9.66 7 10 C4.36 9.67 1.72 9.34 -1 9 C-0.67 6.03 -0.34 3.06 0 0 Z " fill="#242424" transform="translate(118,2)"/>
<path d="M0 0 C0.99 0 1.98 0 3 0 C3 3.3 3 6.6 3 10 C2.34 10 1.68 10 1 10 C1 9.01 1 8.02 1 7 C-1.64 7 -4.28 7 -7 7 C-4.66666667 4.66666667 -2.33333333 2.33333333 0 0 Z " fill="#404040" transform="translate(60,182)"/>
<path d="M0 0 C3.96 0.33 7.92 0.66 12 1 C9 6 9 6 6.5625 7.375 C3.88690973 8.02758299 2.55062538 7.94467607 0 7 C1.32 6.34 2.64 5.68 4 5 C3.01 5 2.02 5 1 5 C0.67 3.35 0.34 1.7 0 0 Z " fill="#868A8B" transform="translate(76,100)"/>
<path d="M0 0 C2 2 2 2 2.23046875 5.95703125 C2.22647234 7.57557927 2.21169282 9.19412786 2.1875 10.8125 C2.18685547 11.62009766 2.18621094 12.42769531 2.18554688 13.25976562 C2.15579144 17.29658588 1.99840979 21.06227179 1 25 C-1 23 -1 23 -1.13525391 20.66162109 C-1.08288574 19.70852051 -1.03051758 18.75541992 -0.9765625 17.7734375 C-0.925 16.7421875 -0.8734375 15.7109375 -0.8203125 14.6484375 C-0.75585938 13.56820312 -0.69140625 12.48796875 -0.625 11.375 C-0.56828125 10.28703125 -0.5115625 9.1990625 -0.453125 8.078125 C-0.3113698 5.38477613 -0.15993358 2.6923207 0 0 Z " fill="#F4F4F4" transform="translate(171,90)"/>
<path d="M0 0 C1.27875 0.28875 2.5575 0.5775 3.875 0.875 C8.90171927 1.99382464 13.94685368 3.0083596 19 4 C19 4.99 19 5.98 19 7 C12.04976736 6.35346673 5.61822697 4.13972752 -1 2 C-0.67 1.34 -0.34 0.68 0 0 Z " fill="#DBDCDC" transform="translate(72,166)"/>
<path d="M0 0 C1.65 0.33 3.3 0.66 5 1 C5.33 2.65 5.66 4.3 6 6 C4.5 4.625 4.5 4.625 3 3 C3 2.34 3 1.68 3 1 C2.34 1 1.68 1 1 1 C1.350625 1.556875 1.70125 2.11375 2.0625 2.6875 C3.21845993 5.53886783 2.80967438 7.08517222 2 10 C0.125 9.6875 0.125 9.6875 -2 9 C-4 6 -4 6 -4 3 C-3.34 3 -2.68 3 -2 3 C-1.67 3.33 -1.34 3.66 -1 4 C-0.67 2.68 -0.34 1.36 0 0 Z " fill="#222222" transform="translate(17,146)"/>
<path d="M0 0 C1.32 0.33 2.64 0.66 4 1 C3.67 1.66 3.34 2.32 3 3 C2.960008 4.99960012 2.95653201 7.00047242 3 9 C3.66 8.67 4.32 8.34 5 8 C5.33 8.99 5.66 9.98 6 11 C4.02 11.99 4.02 11.99 2 13 C1.01 11.02 0.02 9.04 -1 7 C-2.65 8.32 -4.3 9.64 -6 11 C-6.66 10.67 -7.32 10.34 -8 10 C-5.69 8.02 -3.38 6.04 -1 4 C-1.33 3.67 -1.66 3.34 -2 3 C-1.34 2.01 -0.68 1.02 0 0 Z " fill="#383B3C" transform="translate(94,93)"/>
<path d="M0 0 C3.3 0 6.6 0 10 0 C8.71284823 5.14860706 7.09341999 5.86461447 3 9 C3 6.66666667 3 4.33333333 3 2 C2.01 2 1.02 2 0 2 C0 1.34 0 0.68 0 0 Z " fill="#161616" transform="translate(183,61)"/>
<path d="M0 0 C4.95 0 9.9 0 15 0 C14.67 0.99 14.34 1.98 14 3 C11.03 2.505 11.03 2.505 8 2 C8 3.65 8 5.3 8 7 C6.125 6.75 6.125 6.75 4 6 C2.875 4.0625 2.875 4.0625 2 2 C1.34 1.34 0.68 0.68 0 0 Z " fill="#E9E9E9" transform="translate(110,0)"/>
<path d="M0 0 C0 0.66 0 1.32 0 2 C-1.32 2.33 -2.64 2.66 -4 3 C-4.33 4.65 -4.66 6.3 -5 8 C-3.35 7.67 -1.7 7.34 0 7 C0.33 6.01 0.66 5.02 1 4 C1.66 4 2.32 4 3 4 C2.42655063 6.86724686 2.1385485 7.8614515 0 10 C-3 10.3125 -3 10.3125 -6 10 C-8 7 -8 7 -7.8125 5 C-6.05526574 0.67450028 -4.71727835 0 0 0 Z " fill="#2B2B2B" transform="translate(158,172)"/>
<path d="M0 0 C0.33 0.99 0.66 1.98 1 3 C-2.63 4.32 -6.26 5.64 -10 7 C-10 6.34 -10 5.68 -10 5 C-10.66 5 -11.32 5 -12 5 C-12 4.34 -12 3.68 -12 3 C-10.3789897 2.30314502 -8.75303934 1.61777139 -7.125 0.9375 C-6.22007812 0.55464844 -5.31515625 0.17179688 -4.3828125 -0.22265625 C-2 -1 -2 -1 0 0 Z " fill="#181A1A" transform="translate(135,166)"/>
<path d="M0 0 C2.24700861 2.24700861 2.93270437 3.81863599 3.11352539 6.99291992 C3.10828857 7.73131104 3.10305176 8.46970215 3.09765625 9.23046875 C3.09443359 10.03291016 3.09121094 10.83535156 3.08789062 11.66210938 C3.07532227 12.91217773 3.07532227 12.91217773 3.0625 14.1875 C3.05798828 15.03248047 3.05347656 15.87746094 3.04882812 16.74804688 C3.03705403 18.83206155 3.0191189 20.91603977 3 23 C2.67 23 2.34 23 2 23 C1.92652344 21.82630859 1.92652344 21.82630859 1.8515625 20.62890625 C1.77679687 19.61699219 1.70203125 18.60507813 1.625 17.5625 C1.55539063 16.55316406 1.48578125 15.54382813 1.4140625 14.50390625 C1.27742188 13.67761719 1.14078125 12.85132812 1 12 C0.34 11.67 -0.32 11.34 -1 11 C-1.125 3.375 -1.125 3.375 0 0 Z " fill="#303333" transform="translate(24,84)"/>
<path d="M0 0 C2.5 0.125 2.5 0.125 3.5 1.125 C3.625 3.625 3.625 3.625 3.5 6.125 C2.5 7.125 2.5 7.125 0 7.25 C-2.5 7.125 -2.5 7.125 -3.5 6.125 C-3.625 3.625 -3.625 3.625 -3.5 1.125 C-2.5 0.125 -2.5 0.125 0 0 Z " fill="#818181" transform="translate(4.5,114.875)"/>
<path d="M0 0 C0 0.66 0 1.32 0 2 C-1.98 2.33 -3.96 2.66 -6 3 C-5.67 4.32 -5.34 5.64 -5 7 C-2.69 7 -0.38 7 2 7 C2 7.66 2 8.32 2 9 C-0.64 9.33 -3.28 9.66 -6 10 C-8.1519437 6.77208445 -8.20086443 5.71599191 -8 2 C-4.91190305 0.23537317 -3.76687864 0 0 0 Z " fill="#2C2C2C" transform="translate(196,72)"/>
<path d="M0 0 C0.66 0.33 1.32 0.66 2 1 C1.67 4.3 1.34 7.6 1 11 C0.34 11 -0.32 11 -1 11 C-1 9.68 -1 8.36 -1 7 C-2.98 7 -4.96 7 -7 7 C-7.33 6.34 -7.66 5.68 -8 5 C-6.71475739 4.13619741 -5.42157581 3.28419631 -4.125 2.4375 C-3.04605469 1.72400391 -3.04605469 1.72400391 -1.9453125 0.99609375 C-1.30335938 0.66738281 -0.66140625 0.33867187 0 0 Z " fill="#121212" transform="translate(158,18)"/>
<path d="M0 0 C2.97 0 5.94 0 9 0 C9.33 0.66 9.66 1.32 10 2 C9.67 2.66 9.34 3.32 9 4 C3.72 4 -1.56 4 -7 4 C-7 3.67 -7 3.34 -7 3 C-3.535 2.505 -3.535 2.505 0 2 C0 1.34 0 0.68 0 0 Z " fill="#232525" transform="translate(95,173)"/>
<path d="M0 0 C0.99 0.33 1.98 0.66 3 1 C2.48050781 1.49628906 1.96101563 1.99257813 1.42578125 2.50390625 C-2.92840543 6.74541527 -6.62819222 10.94228833 -10 16 C-10.64428711 14.18847656 -10.64428711 14.18847656 -11 12 C-9.25251356 9.71732735 -7.56837316 7.77770249 -5.5625 5.75 C-5.03333984 5.19570313 -4.50417969 4.64140625 -3.95898438 4.0703125 C-2.65043595 2.70282046 -1.3266196 1.34996811 0 0 Z " fill="#EBEDED" transform="translate(51,45)"/>
<path d="M0 0 C2.5625 0.3125 2.5625 0.3125 4.375 1.5625 C5.5625 3.3125 5.5625 3.3125 5.5625 7.3125 C4.9025 7.3125 4.2425 7.3125 3.5625 7.3125 C2.9025 5.9925 2.2425 4.6725 1.5625 3.3125 C0.5725 3.3125 -0.4175 3.3125 -1.4375 3.3125 C-0.86297254 7.24325644 -0.86297254 7.24325644 1.5625 10.3125 C-1.30474686 9.73905063 -2.2989515 9.4510485 -4.4375 7.3125 C-4.6875 4.8125 -4.6875 4.8125 -4.4375 2.3125 C-2.4375 0.3125 -2.4375 0.3125 0 0 Z " fill="#222222" transform="translate(26.4375,156.6875)"/>
<path d="M0 0 C3.3 0 6.6 0 10 0 C10 0.66 10 1.32 10 2 C9.01 2.33 8.02 2.66 7 3 C7 4.98 7 6.96 7 9 C3.26115668 6.34345343 1.35021826 4.41889613 0 0 Z " fill="#2D2D2D" transform="translate(184,135)"/>
<path d="M0 0 C-0.33 0.66 -0.66 1.32 -1 2 C-1.66644531 1.80664062 -2.33289063 1.61328125 -3.01953125 1.4140625 C-9.63209159 -0.4541014 -16.22078979 -1.88542966 -23 -3 C-15.58766958 -7.12151131 -7.41459227 -2.6176311 0 0 Z " fill="#313333" transform="translate(129,35)"/>
<path d="M0 0 C3.7952131 1.49097658 5.61042731 3.75700849 8 7 C4.49223216 8.60355101 1.85645121 9.22036864 -2 9 C-2 8.01 -2 7.02 -2 6 C-0.35 5.67 1.3 5.34 3 5 C2.2575 4.319375 2.2575 4.319375 1.5 3.625 C0 2 0 2 0 0 Z " fill="#171717" transform="translate(9,61)"/>
<path d="M0 0 C0.66 0.33 1.32 0.66 2 1 C2 3.64 2 6.28 2 9 C1.34 8.34 0.68 7.68 0 7 C0 5.68 0 4.36 0 3 C-6.06264222 3.66264086 -6.06264222 3.66264086 -12 5 C-12 4.34 -12 3.68 -12 3 C-10.35 2.67 -8.7 2.34 -7 2 C-7 1.34 -7 0.68 -7 0 C-3.83299069 -1.05566977 -3.03571759 -0.97926374 0 0 Z " fill="#535758" transform="translate(95,54)"/>
<path d="M0 0 C0.66 0.33 1.32 0.66 2 1 C1.34 1.66 0.68 2.32 0 3 C0 4.32 0 5.64 0 7 C1.32 7 2.64 7 4 7 C4.33 5.68 4.66 4.36 5 3 C5.66 3 6.32 3 7 3 C6.25 7.75 6.25 7.75 4 10 C1.5 10.25 1.5 10.25 -1 10 C-3 8 -3 8 -3.3125 5.5625 C-2.95209822 2.60720543 -2.28773145 1.81112073 0 0 Z " fill="#181818" transform="translate(180,145)"/>
<path d="M0 0 C6.12352638 4.51567309 12.0805035 9.22073438 18 14 C17.01 14.495 17.01 14.495 16 15 C3.6592468 6.29015142 3.6592468 6.29015142 0 2 C0 1.34 0 0.68 0 0 Z " fill="#1E1F20" transform="translate(47,146)"/>
<path d="M0 0 C0.99 0 1.98 0 3 0 C3.05384521 2.29141286 3.09272087 4.58318188 3.125 6.875 C3.14820313 8.15117188 3.17140625 9.42734375 3.1953125 10.7421875 C3 14 3 14 1 16 C0.67 10.72 0.34 5.44 0 0 Z " fill="#080909" transform="translate(173,88)"/>
<path d="M0 0 C2.375 2 2.375 2 4 4 C3.01 4.495 3.01 4.495 2 5 C1.67 4.34 1.34 3.68 1 3 C-3.75404012 2.50455803 -3.75404012 2.50455803 -7.8125 4.5 C-8.204375 4.995 -8.59625 5.49 -9 6 C-9.66 6 -10.32 6 -11 6 C-11 6.99 -11 7.98 -11 9 C-11.99 8.67 -12.98 8.34 -14 8 C-12.625 6 -12.625 6 -11 4 C-10.34 4 -9.68 4 -9 4 C-9 3.34 -9 2.68 -9 2 C-5.50875983 -0.32749345 -4.10777749 -0.50299316 0 0 Z " fill="#636566" transform="translate(104,67)"/>
<path d="M0 0 C3.63 0 7.26 0 11 0 C11 0.99 11 1.98 11 3 C7.04 3 3.08 3 -1 3 C-0.67 2.01 -0.34 1.02 0 0 Z " fill="#0F1111" transform="translate(84,173)"/>
<path d="M0 0 C0.66 0 1.32 0 2 0 C1.14285714 8.57142857 1.14285714 8.57142857 -1 12 C-3 10 -3 10 -3.046875 8.125 C-2.94890625 7.42375 -2.8509375 6.7225 -2.75 6 C-2.66234375 5.29875 -2.5746875 4.5975 -2.484375 3.875 C-2 2 -2 2 0 0 Z " fill="#0F1010" transform="translate(173,115)"/>
<path d="M0 0 C3.3 0 6.6 0 10 0 C10.33 0.66 10.66 1.32 11 2 C10.34 2 9.68 2 9 2 C9 3.32 9 4.64 9 6 C4.25 5.125 4.25 5.125 2 4 C2 3.34 2 2.68 2 2 C1.34 1.34 0.68 0.68 0 0 Z " fill="#636666" transform="translate(116,92)"/>
<path d="M0 0 C0.66 0 1.32 0 2 0 C4.99481865 4.58031088 4.99481865 4.58031088 6 7 C5.25 9.4375 5.25 9.4375 4 11 C2.35 10.67 0.7 10.34 -1 10 C-0.67 9.01 -0.34 8.02 0 7 C1.485 7.99 1.485 7.99 3 9 C1.92598892 6.08482708 1.22189824 4.22189824 -1 2 C-0.67 1.34 -0.34 0.68 0 0 Z " fill="#1C1C1C" transform="translate(185,45)"/>
<path d="M0 0 C3.63 0.33 7.26 0.66 11 1 C7.1875 4.8125 7.1875 4.8125 4 5 C1.25 3.5625 1.25 3.5625 -1 2 C-0.67 1.34 -0.34 0.68 0 0 Z " fill="#202222" transform="translate(108,24)"/>
<path d="M0 0 C3.60415049 1.2013835 4.14706011 2.26143988 6.1875 5.375 C6.71730469 6.16648438 7.24710938 6.95796875 7.79296875 7.7734375 C9 10 9 10 9 13 C5.21429586 11.73809862 4.78168429 10.45144185 2.8125 7.0625 C2.28269531 6.16660156 1.75289062 5.27070313 1.20703125 4.34765625 C0 2 0 2 0 0 Z " fill="#E5E6E7" transform="translate(35,133)"/>
<path d="M0 0 C2.6855594 2.6855594 3.06049974 5.37621328 4 9 C3.01 9.99 2.02 10.98 1 12 C-0.625 9.375 -0.625 9.375 -2 6 C-1.1875 2.625 -1.1875 2.625 0 0 Z " fill="#161717" transform="translate(30,124)"/>
<path d="M0 0 C3.375 0.25 3.375 0.25 7 1 C8.4375 3.0625 8.4375 3.0625 9 5 C8.401875 4.67 7.80375 4.34 7.1875 4 C4.94613529 2.79212012 4.94613529 2.79212012 2 3 C2.33 4.32 2.66 5.64 3 7 C1.68 6.34 0.36 5.68 -1 5 C-0.67 3.35 -0.34 1.7 0 0 Z " fill="#202020" transform="translate(143,9)"/>
<path d="M0 0 C1.65 0 3.3 0 5 0 C5.38218767 1.65614657 5.71395102 3.32457024 6 5 C5 6 5 6 2.4375 6.0625 C1.2309375 6.0315625 1.2309375 6.0315625 0 6 C0 4.02 0 2.04 0 0 Z " fill="#D5D5D5" transform="translate(106,2)"/>
<path d="M0 0 C1.65 0.33 3.3 0.66 5 1 C4.01 1.33 3.02 1.66 2 2 C2 3.32 2 4.64 2 6 C2.99 6.33 3.98 6.66 5 7 C3.68 7 2.36 7 1 7 C0.67 8.32 0.34 9.64 0 11 C-0.66 11 -1.32 11 -2 11 C-1.34 7.37 -0.68 3.74 0 0 Z " fill="#161616" transform="translate(79,186)"/>
<path d="M0 0 C0.66 0.33 1.32 0.66 2 1 C2.103125 1.804375 2.20625 2.60875 2.3125 3.4375 C2.539375 4.283125 2.76625 5.12875 3 6 C5.26225382 7.07254351 5.26225382 7.07254351 8 8 C10.11496974 9.55892136 12.02787392 11.25719091 14 13 C13.67 13.66 13.34 14.32 13 15 C7.92377741 11.08566836 2.89372312 7.14084264 -2 3 C-1.34 2.01 -0.68 1.02 0 0 Z " fill="#515354" transform="translate(83,133)"/>
<path d="M0 0 C0.66 0.66 1.32 1.32 2 2 C1.71857705 6.78419016 -0.7870902 10.8520807 -3 15 C-3.33 14.01 -3.66 13.02 -4 12 C-3.34 11.01 -2.68 10.02 -2 9 C-2.66 9 -3.32 9 -4 9 C-3.71125 8.443125 -3.4225 7.88625 -3.125 7.3125 C-1.9586747 4.91505355 -0.9660119 2.48403061 0 0 Z " fill="#E1E3E5" transform="translate(108,125)"/>
<path d="M0 0 C1.72357119 2.58535679 2.44735018 4.03811614 3.1875 6.9375 C3.36667969 7.60652344 3.54585937 8.27554688 3.73046875 8.96484375 C4.03268678 11.24680888 3.68756692 12.82026659 3 15 C2.34 15 1.68 15 1 15 C0.63355422 13.44033408 0.28239138 11.87707349 -0.0625 10.3125 C-0.25972656 9.44238281 -0.45695313 8.57226562 -0.66015625 7.67578125 C-1.02032279 4.83998724 -0.70909969 2.75210018 0 0 Z " fill="#DDDFDF" transform="translate(169,77)"/>
<path d="M0 0 C1.65 0.33 3.3 0.66 5 1 C4.67 2.65 4.34 4.3 4 6 C2.35 5.67 0.7 5.34 -1 5 C-0.67 3.35 -0.34 1.7 0 0 Z " fill="#E8E8E8" transform="translate(35,169)"/>
<path d="M0 0 C2.125 0.375 2.125 0.375 4 1 C3.67 2.65 3.34 4.3 3 6 C1.68 6 0.36 6 -1 6 C-1.625 4.125 -1.625 4.125 -2 2 C-1.34 1.34 -0.68 0.68 0 0 Z " fill="#E5E5E5" transform="translate(194,98)"/>
<path d="M0 0 C1.65 0 3.3 0 5 0 C4.01 2.64 3.02 5.28 2 8 C0.68 7.67 -0.64 7.34 -2 7 C-1.34 4.69 -0.68 2.38 0 0 Z " fill="#F2F2F2" transform="translate(107,92)"/>
<path d="M0 0 C0.99 0.33 1.98 0.66 3 1 C2.67 3.31 2.34 5.62 2 8 C1.01 8 0.02 8 -1 8 C-1.625 5.125 -1.625 5.125 -2 2 C-1.34 1.34 -0.68 0.68 0 0 Z " fill="#E2E4E5" transform="translate(99,73)"/>
<path d="M0 0 C0.99 0 1.98 0 3 0 C3 2.31 3 4.62 3 7 C4.98 7 6.96 7 9 7 C7 9 7 9 3.875 9.125 C2.451875 9.063125 2.451875 9.063125 1 9 C0.67 6.03 0.34 3.06 0 0 Z " fill="#232323" transform="translate(107,190)"/>
<path d="M0 0 C1.32 0.66 2.64 1.32 4 2 C4 2.66 4 3.32 4 4 C4.99 3.67 5.98 3.34 7 3 C7 3.66 7 4.32 7 5 C5.68 5 4.36 5 3 5 C2.34 4.34 1.68 3.68 1 3 C2.32 5.31 3.64 7.62 5 10 C2.11562221 8.70700306 0.12780579 7.34058637 -2 5 C-1.34 3.35 -0.68 1.7 0 0 Z " fill="#202122" transform="translate(120,67)"/>
<path d="M0 0 C0.33 0.66 0.66 1.32 1 2 C0.34 2 -0.32 2 -1 2 C-0.34 4.64 0.32 7.28 1 10 C0.01 9.67 -0.98 9.34 -2 9 C-2.33 7.35 -2.66 5.7 -3 4 C-4.32 3.67 -5.64 3.34 -7 3 C-4.69 2.01 -2.38 1.02 0 0 Z " fill="#242424" transform="translate(133,184)"/>
<path d="M0 0 C2.97 0 5.94 0 9 0 C9 0.66 9 1.32 9 2 C6.69 2 4.38 2 2 2 C2 3.98 2 5.96 2 8 C1.34 8 0.68 8 0 8 C0 5.36 0 2.72 0 0 Z " fill="#212121" transform="translate(190,86)"/>
<path d="M0 0 C1.33176248 3.99528745 0.41870859 6.09855137 -1 10 C-1.99 10.66 -2.98 11.32 -4 12 C-4.49230769 4.61538462 -4.49230769 4.61538462 -2 1.5 C-1.34 1.005 -0.68 0.51 0 0 Z " fill="#F6F8F8" transform="translate(64,67)"/>
<path d="M0 0 C2.25 0.25 2.25 0.25 4 1 C2.63016497 4.16115776 2.0109362 4.9927092 -1 7 C-1.99 6.01 -2.98 5.02 -4 4 C-2.25 1.9375 -2.25 1.9375 0 0 Z " fill="#EAEAEC" transform="translate(73,49)"/>
<path d="M0 0 C0.66 0 1.32 0 2 0 C1.5359375 1.1446875 1.5359375 1.1446875 1.0625 2.3125 C0.32106407 4.18789677 -0.36228217 6.08684652 -1 8 C0.32 8.66 1.64 9.32 3 10 C2.01 10.495 2.01 10.495 1 11 C-1.625 9.5625 -1.625 9.5625 -4 8 C-2.25 2.25 -2.25 2.25 0 0 Z " fill="#1E1E1E" transform="translate(47,175)"/>
<path d="M0 0 C0.66 0.33 1.32 0.66 2 1 C1.731875 1.66 1.46375 2.32 1.1875 3 C-0.25705047 6.64939067 -1.62871178 10.32245433 -3 14 C-3.66 13.67 -4.32 13.34 -5 13 C-4.54803755 11.39402675 -4.08817673 9.79027492 -3.625 8.1875 C-3.36976562 7.29417969 -3.11453125 6.40085937 -2.8515625 5.48046875 C-2 3 -2 3 0 0 Z " fill="#E3E7E7" transform="translate(70,61)"/>
<path d="M0 0 C1.32 0.66 2.64 1.32 4 2 C4 3.32 4 4.64 4 6 C2.35 6 0.7 6 -1 6 C-1.625 4.125 -1.625 4.125 -2 2 C-1.34 1.34 -0.68 0.68 0 0 Z " fill="#EEEEEE" transform="translate(166,28)"/>
<path d="M0 0 C0.99 0.33 1.98 0.66 3 1 C4.32 1 5.64 1 7 1 C7.99 1.66 8.98 2.32 10 3 C10.33 2.01 10.66 1.02 11 0 C11.66 0.99 12.32 1.98 13 3 C4.9469496 4.4005305 4.9469496 4.4005305 1 3 C0.67 2.01 0.34 1.02 0 0 Z " fill="#252627" transform="translate(84,134)"/>
<path d="M0 0 C2.0625 1.625 2.0625 1.625 4 4 C3.75 7.25 3.75 7.25 3 10 C0.9375 7.8125 0.9375 7.8125 -1 5 C-0.75 2.1875 -0.75 2.1875 0 0 Z " fill="#171919" transform="translate(33,133)"/>
<path d="M0 0 C0.66 0.66 1.32 1.32 2 2 C1.625 4.125 1.625 4.125 1 6 C1.94875 5.814375 2.8975 5.62875 3.875 5.4375 C7 5 7 5 9 6 C9 6.66 9 7.32 9 8 C5.52176885 9.15941038 3.54104422 8.70820884 0 8 C0 5.36 0 2.72 0 0 Z " fill="#D9DBDD" transform="translate(78,92)"/>
<path d="M0 0 C1.43931117 0.45261358 2.87638999 0.91232979 4.3125 1.375 C5.11300781 1.63023438 5.91351563 1.88546875 6.73828125 2.1484375 C9 3 9 3 12 5 C12 5.66 12 6.32 12 7 C7.76570244 5.68938409 3.92592596 4.05643741 0 2 C0 1.34 0 0.68 0 0 Z " fill="#EAECED" transform="translate(125,32)"/>
<path d="M0 0 C1.67542976 0.28604898 3.34385343 0.61781233 5 1 C4.67 2.32 4.34 3.64 4 5 C2.68 5 1.36 5 0 5 C-0.5625 3.0625 -0.5625 3.0625 -1 1 C-0.67 0.67 -0.34 0.34 0 0 Z " fill="#E8E8E8" transform="translate(45,19)"/>
<path d="M0 0 C1.65 0 3.3 0 5 0 C5.33 1.32 5.66 2.64 6 4 C4.35 4.66 2.7 5.32 1 6 C0.67 4.02 0.34 2.04 0 0 Z " fill="#EAEAEA" transform="translate(68,7)"/>
<path d="M0 0 C1.98 0.495 1.98 0.495 4 1 C4 2.65 4 4.3 4 6 C2.35 5.67 0.7 5.34 -1 5 C-0.67 3.35 -0.34 1.7 0 0 Z " fill="#F4F4F4" transform="translate(96,192)"/>
<path d="M0 0 C1.13199353 0.9080162 2.25532363 1.82683826 3.375 2.75 C4.00148438 3.26046875 4.62796875 3.7709375 5.2734375 4.296875 C7.08312318 6.08199481 8.00117455 7.67949644 9 10 C5.78956118 8.61811547 3.95063635 7.07578097 1.75 4.375 C1.22921875 3.74335938 0.7084375 3.11171875 0.171875 2.4609375 C-0.21484375 1.97882813 -0.6015625 1.49671875 -1 1 C-0.67 0.67 -0.34 0.34 0 0 Z " fill="#F7F9F9" transform="translate(44,145)"/>
<path d="M0 0 C1.125 1.625 1.125 1.625 2 4 C1.3125 7.1875 1.3125 7.1875 0 10 C-0.99 10.33 -1.98 10.66 -3 11 C-2.69217504 9.35328588 -2.37860766 7.70764424 -2.0625 6.0625 C-1.88847656 5.14597656 -1.71445313 4.22945313 -1.53515625 3.28515625 C-1 1 -1 1 0 0 Z " fill="#D9D9DA" transform="translate(170,113)"/>
<path d="M0 0 C0.99 0 1.98 0 3 0 C3 2.31 3 4.62 3 7 C2.34 7 1.68 7 1 7 C0.67 7.66 0.34 8.32 0 9 C-1.125 2.25 -1.125 2.25 0 0 Z " fill="#202122" transform="translate(25,112)"/>
<path d="M0 0 C-1.5625 1.5625 -1.5625 1.5625 -4 3 C-7.75 2.6875 -7.75 2.6875 -11 2 C-8.74490247 -2.51019507 -4.15738698 -0.70597137 0 0 Z " fill="#1E2020" transform="translate(87,172)"/>
<path d="M0 0 C2.8326134 1.4163067 3.01707833 3.14497293 4.125 6.0625 C4.47820313 6.98160156 4.83140625 7.90070313 5.1953125 8.84765625 C5.46085937 9.55792969 5.72640625 10.26820313 6 11 C5.01 11.33 4.02 11.66 3 12 C2.49166409 10.75336669 1.99368855 9.50250613 1.5 8.25 C1.2215625 7.55390625 0.943125 6.8578125 0.65625 6.140625 C0 4 0 4 0 0 Z " fill="#DEDFE0" transform="translate(31,122)"/>
<path d="M0 0 C0 3.3 0 6.6 0 10 C-0.99 9.67 -1.98 9.34 -3 9 C-3 6.36 -3 3.72 -3 1 C-1 0 -1 0 0 0 Z " fill="#050606" transform="translate(26,94)"/>
<path d="M0 0 C3.63 0.33 7.26 0.66 11 1 C11 1.33 11 1.66 11 2 C9.02 2 7.04 2 5 2 C4.67 2.66 4.34 3.32 4 4 C3.01 4.33 2.02 4.66 1 5 C0.34 4.67 -0.32 4.34 -1 4 C-0.67 2.68 -0.34 1.36 0 0 Z " fill="#EDEEEF" transform="translate(113,92)"/>
<path d="M0 0 C0.33 0 0.66 0 1 0 C1.125 2.375 1.125 2.375 1 5 C0.34 5.66 -0.32 6.32 -1 7 C-4.125 6.625 -4.125 6.625 -7 6 C-7 5.01 -7 4.02 -7 3 C-5.02 3 -3.04 3 -1 3 C-0.67 2.01 -0.34 1.02 0 0 Z " fill="#363636" transform="translate(171,30)"/>
<path d="M0 0 C-7.5 5 -7.5 5 -12 5 C-12 4.34 -12 3.68 -12 3 C-10.5682384 2.30062798 -9.12932968 1.61587282 -7.6875 0.9375 C-6.48673828 0.36322266 -6.48673828 0.36322266 -5.26171875 -0.22265625 C-3 -1 -3 -1 0 0 Z " fill="#E4E5E6" transform="translate(78,32)"/>
<path d="M0 0 C0.78375 0.04125 1.5675 0.0825 2.375 0.125 C1.055 0.455 -0.265 0.785 -1.625 1.125 C-1.625 3.435 -1.625 5.745 -1.625 8.125 C-2.945 7.795 -4.265 7.465 -5.625 7.125 C-4.53409091 0.21590909 -4.53409091 0.21590909 0 0 Z " fill="#3D3D3D" transform="translate(97.625,189.875)"/>
<path d="M0 0 C0.99 0.33 1.98 0.66 3 1 C3 1.99 3 2.98 3 4 C3.66 4.33 4.32 4.66 5 5 C4.34 6.32 3.68 7.64 3 9 C2.34 8.67 1.68 8.34 1 8 C0.26924352 5.6859378 -0.40138258 3.35171131 -1 1 C-0.67 0.67 -0.34 0.34 0 0 Z " fill="#E2E2E2" transform="translate(9,136)"/>
<path d="M0 0 C1.77706209 2.66559313 2.87548273 5.0280615 4 8 C2.68 8.33 1.36 8.66 0 9 C-1.10844919 5.67465243 -0.84454356 3.37817425 0 0 Z " fill="#EEF0F1" transform="translate(100,98)"/>
<path d="M0 0 C2.00720923 0.28674418 4.0085944 0.61866701 6 1 C6.33 2.98 6.66 4.96 7 7 C6.34 7 5.68 7 5 7 C4.67 5.68 4.34 4.36 4 3 C2.35 3.33 0.7 3.66 -1 4 C-1 1 -1 1 0 0 Z " fill="#222222" transform="translate(193,96)"/>
<path d="M0 0 C2.97 1.98 2.97 1.98 6 4 C5.67 4.99 5.34 5.98 5 7 C3.68 7 2.36 7 1 7 C0.67 4.69 0.34 2.38 0 0 Z " fill="#F4F5F5" transform="translate(95,85)"/>
<path d="M0 0 C1.65 0 3.3 0 5 0 C5 0.99 5 1.98 5 3 C6.32 3.66 7.64 4.32 9 5 C7.3125 5.75 7.3125 5.75 5 6 C2.25 4.1875 2.25 4.1875 0 2 C0 1.34 0 0.68 0 0 Z " fill="#3D3F40" transform="translate(78,67)"/>
<path d="M0 0 C2.64 0.99 5.28 1.98 8 3 C5 5 5 5 1 5 C0.34 3.68 -0.32 2.36 -1 1 C-0.67 0.67 -0.34 0.34 0 0 Z " fill="#121414" transform="translate(72,168)"/>
<path d="M0 0 C1.32 0.66 2.64 1.32 4 2 C4 3.32 4 4.64 4 6 C2.35 6.66 0.7 7.32 -1 8 C-0.67 7.34 -0.34 6.68 0 6 C0.66 6 1.32 6 2 6 C2 5.34 2 4.68 2 4 C1.34 4 0.68 4 0 4 C0 2.68 0 1.36 0 0 Z " fill="#393C3D" transform="translate(85,94)"/>
<path d="M0 0 C1.98 0.495 1.98 0.495 4 1 C4 2.98 4 4.96 4 7 C3.01 7 2.02 7 1 7 C-1 4 -1 4 -0.625 1.8125 C-0.41875 1.214375 -0.2125 0.61625 0 0 Z " fill="#878989" transform="translate(99,82)"/>
<path d="M0 0 C1.485 0.99 1.485 0.99 3 2 C3.1875 4.625 3.1875 4.625 3 7 C1.68 7 0.36 7 -1 7 C-1.04254356 5.00045254 -1.04080783 2.99958364 -1 1 C-0.67 0.67 -0.34 0.34 0 0 Z " fill="#171818" transform="translate(173,81)"/>
<path d="M0 0 C-1.5830577 4.2742558 -4.50568404 6.26531794 -8 9 C-8 6 -8 6 -6.7578125 4.39453125 C-5.94957031 3.61142578 -5.94957031 3.61142578 -5.125 2.8125 C-4.59132813 2.28269531 -4.05765625 1.75289062 -3.5078125 1.20703125 C-2 0 -2 0 0 0 Z " fill="#323334" transform="translate(55,46)"/>
<path d="M0 0 C-3.53834904 2.12300942 -6.90823045 2.69690596 -11 3 C-11.66 2.34 -12.32 1.68 -13 1 C-4.57142857 -1.42857143 -4.57142857 -1.42857143 0 0 Z " fill="#323334" transform="translate(91,31)"/>
<path d="M0 0 C0.99 0 1.98 0 3 0 C3 3.3 3 6.6 3 10 C2.34 10 1.68 10 1 10 C0 2.25 0 2.25 0 0 Z " fill="#222222" transform="translate(60,182)"/>
<path d="M0 0 C2.12300942 3.53834904 2.69690596 6.90823045 3 11 C2.34 11.66 1.68 12.32 1 13 C0.63779734 11.20994059 0.28547531 9.41787943 -0.0625 7.625 C-0.25972656 6.62726563 -0.45695313 5.62953125 -0.66015625 4.6015625 C-1 2 -1 2 0 0 Z " fill="#343636" transform="translate(167,78)"/>
<path d="M0 0 C3.3 0 6.6 0 10 0 C8.1875 2 8.1875 2 6 4 C5.01 4 4.02 4 3 4 C3 3.34 3 2.68 3 2 C2.01 2 1.02 2 0 2 C0 1.34 0 0.68 0 0 Z " fill="#494949" transform="translate(183,61)"/>
<path d="M0 0 C0.33 0.99 0.66 1.98 1 3 C-1.64 2.67 -4.28 2.34 -7 2 C-7.33 2.66 -7.66 3.32 -8 4 C-8.66 3.67 -9.32 3.34 -10 3 C-10 2.34 -10 1.68 -10 1 C-6.52674819 -0.1577506 -3.63932552 -0.06866652 0 0 Z " fill="#2E2E2E" transform="translate(75,5)"/>
<path d="M0 0 C2.31 1.98 4.62 3.96 7 6 C5.68 6.33 4.36 6.66 3 7 C1.25 5.8125 1.25 5.8125 0 4 C0 2.68 0 1.36 0 0 Z " fill="#DDDFDF" transform="translate(148,45)"/>
<path d="M0 0 C2.31 1.98 4.62 3.96 7 6 C6.67 6.66 6.34 7.32 6 8 C2.00003714 6.66667905 1.16217663 4.5042173 -1 1 C-0.67 0.67 -0.34 0.34 0 0 Z " fill="#242424" transform="translate(36,24)"/>
<path d="M0 0 C0 0.66 0 1.32 0 2 C-1.65 2.33 -3.3 2.66 -5 3 C-4.67 3.66 -4.34 4.32 -4 5 C-5.65 5 -7.3 5 -9 5 C-9 3.68 -9 2.36 -9 1 C-5.94152152 0.45627049 -3.11227195 0 0 0 Z " fill="#3C3C3C" transform="translate(88,1)"/>
<path d="M0 0 C0.99 0 1.98 0 3 0 C3.33 2.97 3.66 5.94 4 9 C3.34 9 2.68 9 2 9 C1.34 6.03 0.68 3.06 0 0 Z " fill="#252525" transform="translate(119,188)"/>
<path d="M0 0 C2.375 -0.1875 2.375 -0.1875 5 0 C5.66 0.99 6.32 1.98 7 3 C6 4 6 4 2.9375 4.0625 C1.4834375 4.0315625 1.4834375 4.0315625 0 4 C0 2.68 0 1.36 0 0 Z " fill="#161717" transform="translate(104,173)"/>
<path d="M0 0 C0.66 0.33 1.32 0.66 2 1 C-3.14285714 5.42857143 -3.14285714 5.42857143 -7 6 C-6 3 -6 3 -3.0625 1.25 C-2.051875 0.8375 -1.04125 0.425 0 0 Z " fill="#EEF0F0" transform="translate(143,157)"/>
<path d="M0 0 C2.125 0.375 2.125 0.375 4 1 C2.35 2.65 0.7 4.3 -1 6 C-1.625 4.125 -1.625 4.125 -2 2 C-1.34 1.34 -0.68 0.68 0 0 Z " fill="#0D0F0F" transform="translate(149,154)"/>
<path d="M0 0 C6.75 0.75 6.75 0.75 9 3 C6.21176345 4.0326802 5.1322726 4.04509293 2.25 3.0625 C1.5075 2.711875 0.765 2.36125 0 2 C0 1.34 0 0.68 0 0 Z " fill="#DFE1E2" transform="translate(107,138)"/>
<path d="M0 0 C2.97 0.33 5.94 0.66 9 1 C9 1.99 9 2.98 9 4 C4.545 3.01 4.545 3.01 0 2 C0 1.34 0 0.68 0 0 Z " fill="#262626" transform="translate(5,74)"/>
<path d="M0 0 C0 0.66 0 1.32 0 2 C-0.94875 2.268125 -1.8975 2.53625 -2.875 2.8125 C-6.25267273 3.74986588 -6.25267273 3.74986588 -8 7 C-8 5.35 -8 3.7 -8 2 C-4.91190305 0.23537317 -3.76687864 0 0 0 Z " fill="#181818" transform="translate(196,72)"/>
<path d="M0 0 C0.66 0.33 1.32 0.66 2 1 C2 1.66 2 2.32 2 3 C2.99 3 3.98 3 5 3 C5 3.66 5 4.32 5 5 C6.32 5.33 7.64 5.66 9 6 C5.6875 6.3125 5.6875 6.3125 2 6 C0.0625 3.5 0.0625 3.5 -1 1 C-0.67 0.67 -0.34 0.34 0 0 Z " fill="#D1D3D4" transform="translate(121,69)"/>
<path d="M0 0 C1.67542976 0.28604898 3.34385343 0.61781233 5 1 C4.67 1.66 4.34 2.32 4 3 C1.6859378 3.73075648 -0.64828869 4.40138258 -3 5 C-1.125 1.125 -1.125 1.125 0 0 Z " fill="#F0F1F1" transform="translate(98,69)"/>
<path d="M0 0 C-0.875 4.75 -0.875 4.75 -2 7 C-2.66 7 -3.32 7 -4 7 C-4.6875 5.1875 -4.6875 5.1875 -5 3 C-3.38441968 0.84589291 -2.74502455 0 0 0 Z " fill="#7A7A7A" transform="translate(25,38)"/>
<path d="M0 0 C2.625 0.9375 2.625 0.9375 5 2 C5 2.99 5 3.98 5 5 C2.625 4.6875 2.625 4.6875 0 4 C-0.66 3.01 -1.32 2.02 -2 1 C-1.34 0.67 -0.68 0.34 0 0 Z " fill="#0F1111" transform="translate(142,37)"/>
<path d="M0 0 C3.36591866 1.44253657 5.51047079 3.33264727 8 6 C4.06830895 6 2.83572772 4.60580385 0 2 C0 1.34 0 0.68 0 0 Z " fill="#1B1B1B" transform="translate(171,156)"/>
<path d="M0 0 C5.75 0.875 5.75 0.875 8 2 C5.36 2.99 2.72 3.98 0 5 C-0.99 4.01 -1.98 3.02 -3 2 C-2.01 2 -1.02 2 0 2 C0 1.34 0 0.68 0 0 Z " fill="#DADEDE" transform="translate(89,136)"/>
<path d="M0 0 C1.2077558 3.62326739 0.54311128 4.64146369 -1 8 C-1.99 8 -2.98 8 -4 8 C-2.25 2.25 -2.25 2.25 0 0 Z " fill="#E6E7E8" transform="translate(168,123)"/>
<path d="M0 0 C0.66 0.66 1.32 1.32 2 2 C1.75 5.5625 1.75 5.5625 1 9 C0.01 9.495 0.01 9.495 -1 10 C-0.67 6.7 -0.34 3.4 0 0 Z " fill="#CDCECD" transform="translate(28,82)"/>
<path d="M0 0 C2 0 2 0 4.125 1.875 C6 4 6 4 6 6 C4.35 6 2.7 6 1 6 C0.67 4.02 0.34 2.04 0 0 Z " fill="#454748" transform="translate(124,75)"/>
<path d="M0 0 C2.64 0 5.28 0 8 0 C7.67 0.99 7.34 1.98 7 3 C7.66 3.66 8.32 4.32 9 5 C6.5625 4.625 6.5625 4.625 4 4 C3.67 3.34 3.34 2.68 3 2 C2.01 1.34 1.02 0.68 0 0 Z " fill="#3E4041" transform="translate(100,47)"/>
<path d="M0 0 C0.66 0.33 1.32 0.66 2 1 C2 1.66 2 2.32 2 3 C3.32 3.33 4.64 3.66 6 4 C3.69 4.66 1.38 5.32 -1 6 C-1 3 -1 3 0 0 Z " fill="#2D2D2D" transform="translate(25,39)"/>
<path d="M0 0 C5.75 1.875 5.75 1.875 8 3 C8 3.66 8 4.32 8 5 C4.62537285 4.45276317 2.91765 3.9451 0 2 C0 1.34 0 0.68 0 0 Z " fill="#F0F1F2" transform="translate(64,162)"/>
<path d="M0 0 C0.99 0 1.98 0 3 0 C3 2.64 3 5.28 3 8 C2.01 7.34 1.02 6.68 0 6 C-0.1875 2.875 -0.1875 2.875 0 0 Z " fill="#F8F9F9" transform="translate(70,120)"/>
<path d="M0 0 C2.31 0.33 4.62 0.66 7 1 C5.71034824 2.37562854 4.37310707 3.70766393 3 5 C2.34 5 1.68 5 1 5 C0.67 3.35 0.34 1.7 0 0 Z " fill="#D8DADB" transform="translate(76,100)"/>
<path d="M0 0 C0 0.99 0 1.98 0 3 C-1 4 -1 4 -3.5625 4.0625 C-4.7690625 4.0315625 -4.7690625 4.0315625 -6 4 C-6 3.01 -6 2.02 -6 1 C-4.02 0.67 -2.04 0.34 0 0 Z " fill="#444444" transform="translate(13,66)"/>
<path d="M0 0 C2.4375 0.75 2.4375 0.75 5 2 C5.8125 4.125 5.8125 4.125 6 6 C4.35 4.68 2.7 3.36 1 2 C0.67 2.99 0.34 3.98 0 5 C-0.66 5 -1.32 5 -2 5 C-1.34 3.35 -0.68 1.7 0 0 Z " fill="#DADDDF" transform="translate(119,65)"/>
<path d="M0 0 C-1.32 0.33 -2.64 0.66 -4 1 C-4 1.66 -4 2.32 -4 3 C-5.65 3 -7.3 3 -9 3 C-9.33 2.34 -9.66 1.68 -10 1 C-6.78548731 -0.60725635 -3.56387464 -0.05748185 0 0 Z " fill="#E7E8E9" transform="translate(111,44)"/>
<path d="M0 0 C1.32 0.66 2.64 1.32 4 2 C3.67 3.32 3.34 4.64 3 6 C1.35 5.67 -0.3 5.34 -2 5 C-1.34 4.34 -0.68 3.68 0 3 C0 2.01 0 1.02 0 0 Z " fill="#383838" transform="translate(146,14)"/>
<path d="M0 0 C0.66 0.33 1.32 0.66 2 1 C0.515 3.475 0.515 3.475 -1 6 C-1.99 5.34 -2.98 4.68 -4 4 C-2.68 2.68 -1.36 1.36 0 0 Z M-6 5 C-4 6 -4 6 -4 6 Z " fill="#D7DADA" transform="translate(147,152)"/>
<path d="M0 0 C2 0 2 0 4.125 1.875 C6 4 6 4 6 6 C5.01 6 4.02 6 3 6 C2.67 6.66 2.34 7.32 2 8 C1.34 5.36 0.68 2.72 0 0 Z " fill="#B8B8B8" transform="translate(18,147)"/>
<path d="M0 0 C0.33 0 0.66 0 1 0 C1.12375 0.928125 1.2475 1.85625 1.375 2.8125 C1.81533082 6.13925235 1.81533082 6.13925235 4 9 C3.67 9.66 3.34 10.32 3 11 C2.01 10.34 1.02 9.68 0 9 C-0.29296875 6.8359375 -0.29296875 6.8359375 -0.1875 4.375 C-0.16042969 3.55773437 -0.13335937 2.74046875 -0.10546875 1.8984375 C-0.05326172 0.95871094 -0.05326172 0.95871094 0 0 Z " fill="#C0C4C4" transform="translate(69,119)"/>
<path d="M0 0 C1.98 0.495 1.98 0.495 4 1 C4 1.99 4 2.98 4 4 C3.01 4.33 2.02 4.66 1 5 C0.34 4.01 -0.32 3.02 -1 2 C-0.67 1.34 -0.34 0.68 0 0 Z " fill="#1F2021" transform="translate(146,40)"/>
<path d="M0 0 C0.66 0.33 1.32 0.66 2 1 C-1.465 3.97 -1.465 3.97 -5 7 C-5.66 6.67 -6.32 6.34 -7 6 C-4.69 4.02 -2.38 2.04 0 0 Z " fill="#151616" transform="translate(146,151)"/>
<path d="M0 0 C0 3 0 3 -2.5 5.6875 C-3.325 6.450625 -4.15 7.21375 -5 8 C-5.66 7.67 -6.32 7.34 -7 7 C-4.78071806 4.09197539 -3.07030857 2.04687238 0 0 Z " fill="#F8FAFA" transform="translate(154,147)"/>
<path d="M0 0 C1.98 0.66 3.96 1.32 6 2 C5.67 2.66 5.34 3.32 5 4 C2.69 4 0.38 4 -2 4 C-1.34 2.68 -0.68 1.36 0 0 Z " fill="#343637" transform="translate(99,134)"/>
<path d="M0 0 C0.66 0.66 1.32 1.32 2 2 C1.63318342 4.93453261 1.13562754 5.86437246 -1 8 C-1.93065133 5.39417629 -2.14917407 4.35801776 -1.0625 1.75 C-0.711875 1.1725 -0.36125 0.595 0 0 Z " fill="#262829" transform="translate(30,124)"/>
<path d="M0 0 C0.66 0.66 1.32 1.32 2 2 C1.34 2 0.68 2 0 2 C0 3.32 0 4.64 0 6 C-2.475 5.01 -2.475 5.01 -5 4 C-3.35 2.68 -1.7 1.36 0 0 Z " fill="#565656" transform="translate(158,18)"/>
</svg>
