<?xml version="1.0" encoding="UTF-8"?>
<svg version="1.1" xmlns="http://www.w3.org/2000/svg" width="200" height="200">
<path d="M0 0 C66 0 132 0 200 0 C200 66 200 132 200 200 C134 200 68 200 0 200 C0 134 0 68 0 0 Z " fill="#F8CB31" transform="translate(0,0)"/>
<path d="M0 0 C13.2 0 26.4 0 40 0 C40.04010881 16.1816763 40.04010881 16.1816763 40.04882812 23.05664062 C40.05481585 27.75562666 40.06191425 32.45459328 40.07543945 37.15356445 C40.0862708 40.94014257 40.09227736 44.7266999 40.09487724 48.51329231 C40.09673105 49.96104319 40.10035081 51.40879288 40.10573006 52.85653496 C40.11294367 54.87757135 40.11340808 56.89862848 40.11352539 58.91967773 C40.115746 60.07217514 40.11796661 61.22467255 40.12025452 62.41209412 C40 65 40 65 39 66 C36.11588825 66.08864512 33.25517191 66.11528526 30.37109375 66.09765625 C29.22259949 66.09614563 29.22259949 66.09614563 28.05090332 66.09460449 C25.17975373 66.08935663 22.30862542 66.07539547 19.4375 66.0625 C13.023125 66.041875 6.60875 66.02125 0 66 C0 44.22 0 22.44 0 0 Z " fill="#FCFDFD" transform="translate(80,67)"/>
<path d="M0 0 C2.57161458 0.03255208 5.14322917 0.06510417 7.71484375 0.09765625 C7.71484375 4.71765625 7.71484375 9.33765625 7.71484375 14.09765625 C12.99484375 14.09765625 18.27484375 14.09765625 23.71484375 14.09765625 C23.71484375 17.72765625 23.71484375 21.35765625 23.71484375 25.09765625 C18.43484375 25.09765625 13.15484375 25.09765625 7.71484375 25.09765625 C7.71484375 46.87765625 7.71484375 68.65765625 7.71484375 91.09765625 C12.99484375 91.09765625 18.27484375 91.09765625 23.71484375 91.09765625 C23.71484375 94.72765625 23.71484375 98.35765625 23.71484375 102.09765625 C19.77693592 102.17838785 15.84067306 102.23803094 11.90234375 102.28515625 C10.78279297 102.31029297 9.66324219 102.33542969 8.50976562 102.36132812 C7.43662109 102.37099609 6.36347656 102.38066406 5.2578125 102.390625 C4.2680542 102.40633545 3.2782959 102.4220459 2.25854492 102.43823242 C-0.76870595 102.03291378 -1.42888553 101.45662575 -3.28515625 99.09765625 C-3.65709305 97.20080376 -3.65709305 97.20080376 -3.65264893 95.02316284 C-3.65821808 94.19589691 -3.66378723 93.36863098 -3.66952515 92.51629639 C-3.66031036 91.61228088 -3.65109558 90.70826538 -3.64160156 89.77685547 C-3.64364594 88.82217377 -3.64569031 87.86749207 -3.64779663 86.88388062 C-3.65080882 83.72317456 -3.6323164 80.56298794 -3.61328125 77.40234375 C-3.61022472 75.21184417 -3.60834779 73.02134265 -3.60760498 70.83084106 C-3.60299939 66.23920257 -3.58856181 61.64773921 -3.56640625 57.05615234 C-3.5380904 51.15647313 -3.52719177 45.2569318 -3.52272415 39.35719109 C-3.51857731 34.83463143 -3.50876656 30.31209993 -3.49684906 25.7895546 C-3.49113348 23.61333569 -3.48637907 21.43711406 -3.48258209 19.26089096 C-3.47574418 16.22710096 -3.4621245 13.19342263 -3.44628906 10.15966797 C-3.4451712 9.251604 -3.44405334 8.34354004 -3.44290161 7.40795898 C-3.39242528 0.14497544 -3.39242528 0.14497544 0 0 Z " fill="#0B0B07" transform="translate(72.28515625,41.90234375)"/>
<path d="M0 0 C3.75076665 -0.10784952 7.49843949 -0.18724988 11.25 -0.25 C12.31347656 -0.28351562 13.37695312 -0.31703125 14.47265625 -0.3515625 C15.49746094 -0.36445312 16.52226563 -0.37734375 17.578125 -0.390625 C18.99206543 -0.4220459 18.99206543 -0.4220459 20.43457031 -0.45410156 C23.90415562 0.16004277 24.86882601 1.20510543 27 4 C27.39482906 6.71379746 27.547765 9.0225121 27.51757812 11.734375 C27.5245874 12.50881958 27.53159668 13.28326416 27.53881836 14.08117676 C27.55640499 16.63781732 27.54477389 19.19334844 27.53125 21.75 C27.53394474 23.52832247 27.53782701 25.30664351 27.54284668 27.08496094 C27.54874261 30.81068968 27.54017587 34.53603464 27.52148438 38.26171875 C27.49869459 43.03699287 27.51181719 47.81136776 27.53577423 52.58660889 C27.55022975 56.25836968 27.54562739 59.92991735 27.53526306 63.60168457 C27.53259508 65.36234646 27.53586804 67.12302771 27.54518127 68.88366699 C27.55534308 71.34484087 27.53985253 73.8045595 27.51757812 76.265625 C27.52567505 76.9930188 27.53377197 77.7204126 27.54211426 78.46984863 C27.48509181 81.87144104 27.22156326 83.70452365 25.15612793 86.45898438 C20.97260883 89.44900561 15.93929663 88.21475203 11 88 C11 92.62 11 97.24 11 102 C3.28515625 102.09765625 3.28515625 102.09765625 1 102 C0 101 0 101 -0.11352539 98.68334961 C-0.10828857 97.68311768 -0.10305176 96.68288574 -0.09765625 95.65234375 C-0.09443359 94.57275391 -0.09121094 93.49316406 -0.08789062 92.38085938 C-0.07951172 91.24455078 -0.07113281 90.10824219 -0.0625 88.9375 C-0.05798828 87.79732422 -0.05347656 86.65714844 -0.04882812 85.48242188 C-0.0369976 82.65492582 -0.0190615 79.82745655 0 77 C4.95 76.67 9.9 76.34 15 76 C15.33 54.55 15.66 33.1 16 11 C10.72 11 5.44 11 0 11 C0 7.37 0 3.74 0 0 Z " fill="#090804" transform="translate(104,56)"/>
<path d="M0 0 C0.66 0 1.32 0 2 0 C3.54758217 3.09516435 3.1295989 6.35856074 3.11352539 9.75439453 C3.11367142 10.55447937 3.11381744 11.35456421 3.1139679 12.17889404 C3.1132698 14.83022753 3.10548221 17.48149125 3.09765625 20.1328125 C3.0957917 21.96841392 3.09436797 23.80401583 3.09336853 25.63961792 C3.08954623 30.47623055 3.07971839 35.31281327 3.06866455 40.14941406 C3.05844426 45.08267817 3.05386958 50.01594711 3.04882812 54.94921875 C3.03809588 64.63282566 3.02102289 74.31641035 3 84 C2.01 84 1.02 84 0 84 C0 56.28 0 28.56 0 0 Z " fill="#E7C652" transform="translate(130,58)"/>
<path d="M0 0 C0.33 0 0.66 0 1 0 C1 2.97 1 5.94 1 9 C2.65 9 4.3 9 6 9 C6 6.03 6 3.06 6 0 C6.66 0 7.32 0 8 0 C8 3.63 8 7.26 8 11 C5.36 11 2.72 11 0 11 C0 7.37 0 3.74 0 0 Z " fill="#DAC059" transform="translate(96,56)"/>
<path d="M0 0 C0.33 0.66 0.66 1.32 1 2 C-1.56893838 3.28446919 -3.76576337 3.32977144 -6.625 3.5625 C-7.62789063 3.64628906 -8.63078125 3.73007813 -9.6640625 3.81640625 C-10.43492188 3.87699219 -11.20578125 3.93757812 -12 4 C-12 4.763125 -12 5.52625 -12 6.3125 C-12 12 -12 12 -14 16 C-14 11.38 -14 6.76 -14 2 C-10.94010417 1.77213542 -7.88020833 1.54427083 -4.8203125 1.31640625 C-2.05271029 1.16998297 -2.05271029 1.16998297 0 0 Z " fill="#E9C84C" transform="translate(129,142)"/>
<path d="M0 0 C0.33 0 0.66 0 1 0 C1 4.29 1 8.58 1 13 C-2.3 13 -5.6 13 -9 13 C-9 12.67 -9 12.34 -9 12 C-5.535 11.505 -5.535 11.505 -2 11 C-1.93941406 10.37351563 -1.87882812 9.74703125 -1.81640625 9.1015625 C-1.73261719 8.28429687 -1.64882812 7.46703125 -1.5625 6.625 C-1.48128906 5.81289062 -1.40007812 5.00078125 -1.31640625 4.1640625 C-1 2 -1 2 0 0 Z " fill="#433508" transform="translate(114,145)"/>
</svg>
