<?xml version="1.0" encoding="UTF-8"?>
<svg version="1.1" xmlns="http://www.w3.org/2000/svg" width="200" height="200">
<path d="M0 0 C66 0 132 0 200 0 C200 66 200 132 200 200 C134 200 68 200 0 200 C0 134 0 68 0 0 Z " fill="#FED800" transform="translate(0,0)"/>
<path d="M0 0 C3.6875 0.3125 3.6875 0.3125 6.125 2.3125 C6.8984375 3.3025 6.8984375 3.3025 7.6875 4.3125 C8.3475 3.9825 9.0075 3.6525 9.6875 3.3125 C9.6875 3.9725 9.6875 4.6325 9.6875 5.3125 C11.5128125 4.57 11.5128125 4.57 13.375 3.8125 C16.642594 2.48330922 19.17340614 2.25142958 22.6875 2.3125 C22.717229 4.1519519 22.717229 4.1519519 22.74755859 6.02856445 C22.82357619 10.57418508 22.91229947 15.11948399 23.00488281 19.66479492 C23.04318847 21.63282931 23.07803855 23.6009341 23.109375 25.5690918 C23.15499111 28.39657772 23.21299098 31.22357834 23.2734375 34.05078125 C23.28498871 34.93212234 23.29653992 35.81346344 23.30844116 36.72151184 C23.32831085 37.54213608 23.34818054 38.36276031 23.36865234 39.20825195 C23.38197601 39.92995071 23.39529968 40.65164948 23.4090271 41.3952179 C23.59476155 43.63851629 23.59476155 43.63851629 25.6875 46.3125 C25.6875 47.6325 25.6875 48.9525 25.6875 50.3125 C22.7175 50.8075 22.7175 50.8075 19.6875 51.3125 C20.038125 52.034375 20.38875 52.75625 20.75 53.5 C21.81321915 56.68965746 21.50767295 58.11382551 20.6875 61.3125 C20.6875 65.07937864 20.92287317 66.22440305 22.6875 69.3125 C21.3675 69.3125 20.0475 69.3125 18.6875 69.3125 C18.3575 69.9725 18.0275 70.6325 17.6875 71.3125 C16.32625 71.0340625 16.32625 71.0340625 14.9375 70.75 C12.00435676 70.35515379 10.4230343 70.36558428 7.6875 71.3125 C7.3575 69.9925 7.0275 68.6725 6.6875 67.3125 C6.336875 67.786875 5.98625 68.26125 5.625 68.75 C2.84586457 70.99123825 0.1730283 70.98367658 -3.3125 71.3125 C-3.6425 69.6625 -3.9725 68.0125 -4.3125 66.3125 C-5.9625 66.3125 -7.6125 66.3125 -9.3125 66.3125 C-9.6425 68.6225 -9.9725 70.9325 -10.3125 73.3125 C-10.9725 73.3125 -11.6325 73.3125 -12.3125 73.3125 C-12.3125 71.6625 -12.3125 70.0125 -12.3125 68.3125 C-13.7975 68.8075 -13.7975 68.8075 -15.3125 69.3125 C-17.64549825 69.35204234 -19.97958189 69.35651732 -22.3125 69.3125 C-22.37308594 68.43207031 -22.43367188 67.55164063 -22.49609375 66.64453125 C-22.57988281 65.48308594 -22.66367188 64.32164062 -22.75 63.125 C-22.83121094 61.97644531 -22.91242188 60.82789063 -22.99609375 59.64453125 C-23.26686527 56.79307313 -23.71817413 54.10875449 -24.3125 51.3125 C-24.5 48.625 -24.5 48.625 -24.3125 46.3125 C-23.6525 45.6525 -22.9925 44.9925 -22.3125 44.3125 C-22.1131367 41.48036839 -22.03429127 38.76777632 -22.0625 35.9375 C-22.05476563 35.16921875 -22.04703125 34.4009375 -22.0390625 33.609375 C-22.05375997 28.18470139 -22.05375997 28.18470139 -24.3125 23.3125 C-23.3225 22.9825 -22.3325 22.6525 -21.3125 22.3125 C-21.3125 20.9925 -21.3125 19.6725 -21.3125 18.3125 C-20.3225 18.3125 -19.3325 18.3125 -18.3125 18.3125 C-18.3125 17.3225 -18.3125 16.3325 -18.3125 15.3125 C-19.3025 15.3125 -20.2925 15.3125 -21.3125 15.3125 C-22.76545405 7.27748906 -22.76545405 7.27748906 -20.875 3.25 C-20.359375 2.610625 -19.84375 1.97125 -19.3125 1.3125 C-18.384375 1.4775 -17.45625 1.6425 -16.5 1.8125 C-13.35628647 2.38998388 -13.35628647 2.38998388 -10.3125 2.3125 C-9.9825 3.3025 -9.6525 4.2925 -9.3125 5.3125 C-8.6525 5.3125 -7.9925 5.3125 -7.3125 5.3125 C-6.9825 4.3225 -6.6525 3.3325 -6.3125 2.3125 C-5.6525 1.9825 -4.9925 1.6525 -4.3125 1.3125 C-3.3125 0.3125 -3.3125 0.3125 0 0 Z " fill="#F3D210" transform="translate(96.3125,65.6875)"/>
<path d="M0 0 C6.72936764 3.16137966 11.57316937 7.77715734 14.33203125 14.83984375 C16.0723424 22.61053539 16.04233983 31.21938662 11.8359375 38.08984375 C9.12383625 41.69115852 6.60397208 44.5778207 2.8359375 47.08984375 C1.8459375 47.08984375 0.8559375 47.08984375 -0.1640625 47.08984375 C-0.1640625 47.74984375 -0.1640625 48.40984375 -0.1640625 49.08984375 C-7.98115667 51.36828589 -16.43011032 50.9111995 -23.8359375 47.5546875 C-30.0765442 43.62813127 -34.35615704 38.23284279 -36.1640625 31.08984375 C-36.4296875 27.65234375 -36.4296875 27.65234375 -36.4140625 24.08984375 C-36.41921875 22.91421875 -36.424375 21.73859375 -36.4296875 20.52734375 C-36.16256554 17.0704713 -35.40286733 14.31466902 -34.1640625 11.08984375 C-33.5040625 11.08984375 -32.8440625 11.08984375 -32.1640625 11.08984375 C-32.06738281 10.49429688 -31.97070312 9.89875 -31.87109375 9.28515625 C-31.0168467 6.63274275 -29.99130402 5.71512482 -27.8515625 3.96484375 C-27.25730469 3.46726562 -26.66304687 2.9696875 -26.05078125 2.45703125 C-18.91195254 -2.71603303 -8.31020779 -2.39046718 0 0 Z " fill="#FEFEF8" transform="translate(164.1640625,66.91015625)"/>
<path d="M0 0 C0.33 0.66 0.66 1.32 1 2 C1.66 1.67 2.32 1.34 3 1 C3 1.66 3 2.32 3 3 C4.216875 2.505 5.43375 2.01 6.6875 1.5 C9.955094 0.17080922 12.48590614 -0.06107042 16 0 C16.01981934 1.22630127 16.03963867 2.45260254 16.06005859 3.71606445 C16.13607619 8.26168508 16.22479947 12.80698399 16.31738281 17.35229492 C16.35568847 19.32032931 16.39053855 21.2884341 16.421875 23.2565918 C16.46749111 26.08407772 16.52549098 28.91107834 16.5859375 31.73828125 C16.59748871 32.61962234 16.60903992 33.50096344 16.62094116 34.40901184 C16.64081085 35.22963608 16.66068054 36.05026031 16.68115234 36.89575195 C16.69447601 37.61745071 16.70779968 38.33914948 16.7215271 39.0827179 C16.90726155 41.32601629 16.90726155 41.32601629 19 44 C19 45.32 19 46.64 19 48 C16.03 48.495 16.03 48.495 13 49 C13.66 51.31 14.32 53.62 15 56 C13.71034824 57.37562854 12.37310707 58.70766393 11 60 C10.34 60 9.68 60 9 60 C9 58.68 9 57.36 9 56 C6.69 56 4.38 56 2 56 C2 58.31 2 60.62 2 63 C0.35 61.35 -1.3 59.7 -3 58 C-2.01 57.505 -2.01 57.505 -1 57 C-1.020625 55.906875 -1.04125 54.81375 -1.0625 53.6875 C-1 50 -1 50 0 47 C-4.62 47 -9.24 47 -14 47 C-13 43 -13 43 -12 42 C-11.89904243 39.52577762 -11.86028773 37.08009997 -11.8671875 34.60546875 C-11.86575241 33.48982292 -11.86575241 33.48982292 -11.86428833 32.35163879 C-11.86360637 30.77373165 -11.86546177 29.19582171 -11.86962891 27.61791992 C-11.87495446 25.2081058 -11.86969622 22.79847999 -11.86328125 20.38867188 C-11.86394247 18.85677042 -11.86522455 17.32486909 -11.8671875 15.79296875 C-11.86516327 15.07304245 -11.86313904 14.35311615 -11.86105347 13.6113739 C-11.87662601 10.26593984 -11.96048988 7.19853239 -13 4 C-11.34151823 2.98648336 -9.67334039 1.98879205 -8 1 C-6.9790625 0.38125 -6.9790625 0.38125 -5.9375 -0.25 C-3.5243071 -1.18413919 -2.36886648 -0.98022061 0 0 Z " fill="#E6C611" transform="translate(103,68)"/>
<path d="M0 0 C0 8.58 0 17.16 0 26 C2.64 26 5.28 26 8 26 C10.11660466 19.12103485 11.92929634 10.4819038 8.984375 3.640625 C8.49710938 2.82851562 8.49710938 2.82851562 8 2 C11.8610854 0.56331706 14.896427 -0.11185208 19 0 C19.02505615 0.74685059 19.0501123 1.49370117 19.07592773 2.26318359 C19.19168213 5.63397267 19.31450128 9.00446783 19.4375 12.375 C19.47681641 13.550625 19.51613281 14.72625 19.55664062 15.9375 C19.59853516 17.05898437 19.64042969 18.18046875 19.68359375 19.3359375 C19.72025146 20.37282715 19.75690918 21.4097168 19.79467773 22.47802734 C19.84164223 24.99425166 19.84164223 24.99425166 21 27 C24.63535761 26.79803569 25.7994786 26.21677989 28.3125 23.5 C30.39984773 19.17068619 30.9213953 15.72982923 30 11 C28.71937515 9.2925002 27.3927289 7.61736259 26 6 C26.29268293 1.70731707 26.29268293 1.70731707 28 0 C30.375 -0.3125 30.375 -0.3125 33 0 C35.51148749 2.40934566 35.98781439 3.91185743 36.46875 7.390625 C36.53111036 15.09212888 36.47625739 21.08259965 31 27 C30.278125 27.825 29.55625 28.65 28.8125 29.5 C24.71087902 31.68753119 20.55763622 31.85745359 16 31 C14.1953125 29.47265625 14.1953125 29.47265625 13 28 C9.45481116 29.39759905 9.45481116 29.39759905 6 31 C2.94059163 31.42074378 0.0540292 31.47999423 -3 31 C-6.28175318 28.47031526 -7.69243777 26.92268669 -9 23 C-9.20491503 20.20518668 -9.37237618 17.42327047 -9.5 14.625 C-9.81537083 7.761353 -9.81537083 7.761353 -11 1 C-7.09145257 0.08034178 -4.17664661 0 0 0 Z " fill="#0A0601" transform="translate(32,84)"/>
<path d="M0 0 C10.39669641 -0.1132812 20.63496744 0.08012389 31 1 C31.02689216 2.47906892 31.04634621 3.95827483 31.0625 5.4375 C31.07410156 6.26121094 31.08570312 7.08492188 31.09765625 7.93359375 C31 10 31 10 30 11 C30.99 12.485 30.99 12.485 32 14 C32.33 12.02 32.66 10.04 33 8 C35.31 8 37.62 8 40 8 C40 9.32 40 10.64 40 12 C40.66 12 41.32 12 42 12 C42.66 10.68 43.32 9.36 44 8 C44.66 8 45.32 8 46 8 C45.608125 8.886875 45.21625 9.77375 44.8125 10.6875 C43.62820892 14.00303974 43.62820892 14.00303974 45.375 16.875 C45.91125 17.57625 46.4475 18.2775 47 19 C45.68 19 44.36 19 43 19 C42.67 19.66 42.34 20.32 42 21 C41.0925 20.814375 40.185 20.62875 39.25 20.4375 C36.31685676 20.04265379 34.7355343 20.05308428 32 21 C31.67 19.68 31.34 18.36 31 17 C30.649375 17.474375 30.29875 17.94875 29.9375 18.4375 C27.15836457 20.67873825 24.4855283 20.67117658 21 21 C20.505 18.525 20.505 18.525 20 16 C18.35 16 16.7 16 15 16 C14.67 18.31 14.34 20.62 14 23 C13.34 23 12.68 23 12 23 C12 21.35 12 19.7 12 18 C11.01 18.33 10.02 18.66 9 19 C6.66700175 19.03954234 4.33291811 19.04401732 2 19 C1.93941406 18.13117188 1.87882812 17.26234375 1.81640625 16.3671875 C1.73261719 15.21476563 1.64882812 14.06234375 1.5625 12.875 C1.48128906 11.73804687 1.40007812 10.60109375 1.31640625 9.4296875 C1.02269035 6.2459522 0.56875687 3.14489093 0 0 Z " fill="#FCD906" transform="translate(72,116)"/>
<path d="M0 0 C0.01981934 1.29212402 0.03963867 2.58424805 0.06005859 3.91552734 C0.13598368 8.69779345 0.22472078 13.47975005 0.31738281 18.26171875 C0.35572685 20.33359681 0.39057005 22.40554269 0.421875 24.47753906 C0.46740809 27.45141887 0.52542118 30.42482962 0.5859375 33.3984375 C0.59748871 34.32868744 0.60903992 35.25893738 0.62094116 36.21737671 C0.64081085 37.07811798 0.66068054 37.93885925 0.68115234 38.82568359 C0.69447601 39.58513275 0.70779968 40.34458191 0.7215271 41.12704468 C0.84617052 43.2431226 0.84617052 43.2431226 3 45 C3 45.99 3 46.98 3 48 C-1.95 48 -6.9 48 -12 48 C-11 44 -11 44 -10 43 C-9.89904243 40.52577762 -9.86028773 38.08009997 -9.8671875 35.60546875 C-9.86575241 34.48982292 -9.86575241 34.48982292 -9.86428833 33.35163879 C-9.86360637 31.77373165 -9.86546177 30.19582171 -9.86962891 28.61791992 C-9.87495446 26.2081058 -9.86969622 23.79847999 -9.86328125 21.38867188 C-9.86394247 19.85677042 -9.86522455 18.32486909 -9.8671875 16.79296875 C-9.86516327 16.07304245 -9.86313904 15.35311615 -9.86105347 14.6113739 C-9.87662601 11.26593984 -9.96048988 8.19853239 -11 5 C-2.81818182 0 -2.81818182 0 0 0 Z " fill="#070501" transform="translate(101,67)"/>
<path d="M0 0 C0.02505615 1.24612061 0.0501123 2.49224121 0.07592773 3.77612305 C0.17022911 8.40740926 0.2703941 13.03855344 0.37231445 17.66967773 C0.41557739 19.67257358 0.45725847 21.67550425 0.49731445 23.6784668 C0.55522662 26.56049079 0.61886047 29.44234088 0.68359375 32.32421875 C0.70030624 33.21711105 0.71701874 34.11000336 0.73423767 35.029953 C0.75418289 35.87044693 0.77412811 36.71094086 0.79467773 37.5769043 C0.81022202 38.31192673 0.8257663 39.04694916 0.84178162 39.804245 C0.9891213 42.48785602 0.9891213 42.48785602 2 47 C-2.62 47 -7.24 47 -12 47 C-11 43 -11 43 -10 42 C-9.88666198 39.52580241 -9.83582515 37.08058342 -9.83203125 34.60546875 C-9.82870285 33.86170486 -9.82537445 33.11794098 -9.82194519 32.35163879 C-9.81687182 30.77373881 -9.81453699 29.19582805 -9.81469727 27.61791992 C-9.81251852 25.20798893 -9.79438913 22.7985213 -9.77539062 20.38867188 C-9.7724552 18.8567724 -9.7704714 17.32487075 -9.76953125 15.79296875 C-9.76234573 15.07304245 -9.75516022 14.35311615 -9.74775696 13.6113739 C-9.76457762 9.90909454 -9.95121163 7.14499418 -12 4 C-10.75539217 3.32332002 -9.50403104 2.65905281 -8.25 2 C-7.55390625 1.62875 -6.8578125 1.2575 -6.140625 0.875 C-4 0 -4 0 0 0 Z " fill="#090500" transform="translate(118,68)"/>
<path d="M0 0 C2.74931827 0.68732957 4.53418821 1.35560222 6.22265625 3.69140625 C7.20324656 5.43116325 8.10688055 7.2137611 9 9 C9.33 7.02 9.66 5.04 10 3 C12.31 3 14.62 3 17 3 C17 4.32 17 5.64 17 7 C17.66 7 18.32 7 19 7 C19.66 5.68 20.32 4.36 21 3 C21.66 3 22.32 3 23 3 C22.608125 3.886875 22.21625 4.77375 21.8125 5.6875 C20.62820892 9.00303974 20.62820892 9.00303974 22.375 11.875 C22.91125 12.57625 23.4475 13.2775 24 14 C22.68 14 21.36 14 20 14 C19.67 14.66 19.34 15.32 19 16 C18.0925 15.814375 17.185 15.62875 16.25 15.4375 C13.31685676 15.04265379 11.7355343 15.05308428 9 16 C8.67 14.68 8.34 13.36 8 12 C7.4740625 12.7115625 7.4740625 12.7115625 6.9375 13.4375 C4.15836457 15.67873825 1.4855283 15.67117658 -2 16 C-2.33 14.35 -2.66 12.7 -3 11 C-4.65 11 -6.3 11 -8 11 C-8.33 11.99 -8.66 12.98 -9 14 C-10.28064399 10.15806804 -9.53612513 8.400798 -8.09765625 4.734375 C-7 3 -7 3 -3.875 2.125 C-2.451875 2.063125 -2.451875 2.063125 -1 2 C-0.67 1.34 -0.34 0.68 0 0 Z " fill="#F6D319" transform="translate(95,121)"/>
<path d="M0 0 C0.33 9.24 0.66 18.48 1 28 C1.66 28 2.32 28 3 28 C3 28.99 3 29.98 3 31 C-1.95 31 -6.9 31 -12 31 C-11 27 -11 27 -10 26 C-9.87284478 23.21737057 -9.81478685 20.4705927 -9.8125 17.6875 C-9.80025391 16.91470703 -9.78800781 16.14191406 -9.77539062 15.34570312 C-9.74078285 9.8945231 -9.74078285 9.8945231 -12 5 C-10.75747321 4.15556432 -9.5056114 3.3248542 -8.25 2.5 C-7.55390625 2.0359375 -6.8578125 1.571875 -6.140625 1.09375 C-4 0 -4 0 0 0 Z " fill="#100A01" transform="translate(84,84)"/>
<path d="M0 0 C0.99 0 1.98 0 3 0 C3.33 0.66 3.66 1.32 4 2 C6.32156597 2.40729228 8.6568787 2.74438677 11 3 C11 3.99 11 4.98 11 6 C10.67 5.67 10.34 5.34 10 5 C8.33382885 4.95936168 6.66611905 4.957279 5 5 C4.13149826 7.24875747 4.13149826 7.24875747 4 10 C4.639375 10.7425 5.27875 11.485 5.9375 12.25 C8.48381491 15.64508655 8.58101838 17.63709161 8.39453125 21.78125 C7.78421304 25.21353459 6.23427477 27.38270669 4 30 C1 32 1 32 -1.125 31.75 C-3 31 -3 31 -4 29 C-4.084915 27.1136088 -4.107193 25.22421485 -4.09765625 23.3359375 C-4.09443359 22.21445313 -4.09121094 21.09296875 -4.08789062 19.9375 C-4.07951172 18.761875 -4.07113281 17.58625 -4.0625 16.375 C-4.05798828 15.19164063 -4.05347656 14.00828125 -4.04882812 12.7890625 C-4.03701467 9.85932493 -4.02054258 6.92968728 -4 4 C-3.34 4 -2.68 4 -2 4 C-1.34 2.68 -0.68 1.36 0 0 Z " fill="#FCD804" transform="translate(55,80)"/>
<path d="M0 0 C0.66 0 1.32 0 2 0 C2.33 1.98 2.66 3.96 3 6 C6.12197478 4.6910428 6.12197478 4.6910428 8 2 C11.73176968 6.14641075 11.43897976 9.57202243 11.28125 14.94140625 C10.87971934 19.30805222 10.17254888 22.16183032 8 26 C4.9375 27.0625 4.9375 27.0625 2 27 C1.34 26.67 0.68 26.34 0 26 C0 17.42 0 8.84 0 0 Z " fill="#F3D109" transform="translate(32,84)"/>
<path d="M0 0 C0.33 0 0.66 0 1 0 C1.01981934 1.22630127 1.03963867 2.45260254 1.06005859 3.71606445 C1.13607619 8.26168508 1.22479947 12.80698399 1.31738281 17.35229492 C1.35568847 19.32032931 1.39053855 21.2884341 1.421875 23.2565918 C1.46749111 26.08407772 1.52549098 28.91107834 1.5859375 31.73828125 C1.59748871 32.61962234 1.60903992 33.50096344 1.62094116 34.40901184 C1.64081085 35.22963608 1.66068054 36.05026031 1.68115234 36.89575195 C1.69447601 37.61745071 1.70779968 38.33914948 1.7215271 39.0827179 C1.90726155 41.32601629 1.90726155 41.32601629 4 44 C4 45.32 4 46.64 4 48 C1.03 48.495 1.03 48.495 -2 49 C-1.34 51.31 -0.68 53.62 0 56 C-1.28965176 57.37562854 -2.62689293 58.70766393 -4 60 C-4.66 60 -5.32 60 -6 60 C-6 58.68 -6 57.36 -6 56 C-8.31 56 -10.62 56 -13 56 C-13 58.31 -13 60.62 -13 63 C-14.65 61.35 -16.3 59.7 -18 58 C-17.01 57.505 -17.01 57.505 -16 57 C-16.020625 55.989375 -16.04125 54.97875 -16.0625 53.9375 C-16.00312266 50.19672743 -15.60204915 46.68755102 -15 43 C-13.68 43.33 -12.36 43.66 -11 44 C-11.33 44.99 -11.66 45.98 -12 47 C-7.38 47 -2.76 47 2 47 C1.34 45.35 0.68 43.7 0 42 C-0.24050903 39.804245 -0.24050903 39.804245 -0.22705078 37.5769043 C-0.22689972 36.73641037 -0.22674866 35.89591644 -0.22659302 35.029953 C-0.21627045 34.1370607 -0.20594788 33.2441684 -0.1953125 32.32421875 C-0.1924826 31.3990596 -0.18965271 30.47390045 -0.18673706 29.52070618 C-0.17557392 26.57617058 -0.15047637 23.63194312 -0.125 20.6875 C-0.11496521 18.68685336 -0.10584023 16.68620194 -0.09765625 14.68554688 C-0.07564722 9.7902465 -0.04114391 4.89517543 0 0 Z " fill="#F1D114" transform="translate(118,68)"/>
<path d="M0 0 C2.625 0.3125 2.625 0.3125 4.2578125 1.87890625 C7.16223497 7.04877825 6.26996142 13.58017934 5.625 19.3125 C4.45564504 22.54145959 2.94616785 24.80434919 0.625 27.3125 C-0.096875 28.1375 -0.81875 28.9625 -1.5625 29.8125 C-5.75259637 32.04721807 -9.72264215 31.63771336 -14.375 31.3125 C-14.705 30.6525 -15.035 29.9925 -15.375 29.3125 C-14.735625 29.209375 -14.09625 29.10625 -13.4375 29 C-12.4165625 28.6596875 -12.4165625 28.6596875 -11.375 28.3125 C-11.045 27.3225 -10.715 26.3325 -10.375 25.3125 C-10.045 25.9725 -9.715 26.6325 -9.375 27.3125 C-5.73964239 27.11053569 -4.5755214 26.52927989 -2.0625 23.8125 C0.02484773 19.48318619 0.5463953 16.04232923 -0.375 11.3125 C-1.65562485 9.6050002 -2.9822711 7.92986259 -4.375 6.3125 C-3.9803108 0.52372511 -3.9803108 0.52372511 0 0 Z " fill="#130C00" transform="translate(62.375,83.6875)"/>
<path d="M0 0 C2.475 0.99 2.475 0.99 5 2 C4.01 2.495 4.01 2.495 3 3 C3.99 4.485 3.99 4.485 5 6 C6.01559401 7.99212671 7.01789629 9.9911515 8 12 C5.93243723 14.7972908 4.85559629 15.02692273 1.3125 15.6875 C0.219375 15.790625 -0.87375 15.89375 -2 16 C-2.33 14.35 -2.66 12.7 -3 11 C-4.65 11 -6.3 11 -8 11 C-8.33 11.99 -8.66 12.98 -9 14 C-10.28064399 10.15806804 -9.53612513 8.400798 -8.09765625 4.734375 C-7 3 -7 3 -3.875 2.125 C-2.451875 2.063125 -2.451875 2.063125 -1 2 C-0.67 1.34 -0.34 0.68 0 0 Z " fill="#F9D60E" transform="translate(95,121)"/>
<path d="M0 0 C3.27469104 3.27469104 2.39844623 8.08158584 2.47851562 12.52734375 C2.65189879 17.37361477 3.33920856 20.78980421 6 25 C9.43160721 26.7158036 13.23963252 26.40476178 17 26 C18.6829392 25.02763513 20.35443434 24.03435556 22 23 C24.14376674 23.71458891 25.41224417 24.41224417 27 26 C28.68183948 26.23287008 30.3712416 26.41264166 32.0625 26.5625 C32.98160156 26.64628906 33.90070312 26.73007813 34.84765625 26.81640625 C35.91306641 26.90728516 35.91306641 26.90728516 37 27 C37 27.66 37 28.32 37 29 C36.19175781 28.98839844 35.38351563 28.97679688 34.55078125 28.96484375 C32.94783203 28.95130859 32.94783203 28.95130859 31.3125 28.9375 C29.72888672 28.92009766 29.72888672 28.92009766 28.11328125 28.90234375 C25.25069411 28.99213632 22.75159363 29.21170561 20 30 C19.67 30.66 19.34 31.32 19 32 C18.34 31.34 17.68 30.68 17 30 C15.40692988 29.6701076 13.79943576 29.40741927 12.1875 29.1875 C7.35592958 28.31029845 5.13771775 26.89837659 2 23 C1.4639917 22.54842529 0.9279834 22.09685059 0.37573242 21.6315918 C-1.49004563 19.41881544 -1.27400564 18.18353503 -1.07421875 15.33203125 C-1.01943359 14.43935547 -0.96464844 13.54667969 -0.90820312 12.62695312 C-0.83537109 11.69818359 -0.76253906 10.76941406 -0.6875 9.8125 C-0.62626953 8.87212891 -0.56503906 7.93175781 -0.50195312 6.96289062 C-0.34870489 4.64059043 -0.1808714 2.32028542 0 0 Z " fill="#E0C520" transform="translate(21,88)"/>
<path d="M0 0 C0.268125 0.639375 0.53625 1.27875 0.8125 1.9375 C1.88667752 4.33131686 1.88667752 4.33131686 5 5 C3.34315356 11.32614095 0.47690984 15.34872677 -5 19 C-7.48046875 19.1953125 -7.48046875 19.1953125 -10.1875 19.125 C-11.08855469 19.10695313 -11.98960938 19.08890625 -12.91796875 19.0703125 C-13.60503906 19.04710938 -14.29210938 19.02390625 -15 19 C-15.33 18.34 -15.66 17.68 -16 17 C-15.360625 16.896875 -14.72125 16.79375 -14.0625 16.6875 C-13.0415625 16.3471875 -13.0415625 16.3471875 -12 16 C-11.67 15.01 -11.34 14.02 -11 13 C-10.67 13.66 -10.34 14.32 -10 15 C-7.62766389 14.96219702 -7.62766389 14.96219702 -5 14 C-1.04121824 9.49138743 -0.39805259 5.77176259 0 0 Z " fill="#160D00" transform="translate(63,96)"/>
<path d="M0 0 C2.9375 0.875 2.9375 0.875 4.9375 3.875 C4.6133631 7.19740324 4.32973697 8.48276303 1.9375 10.875 C-1.0625 11.1875 -1.0625 11.1875 -4.0625 10.875 C-6.21752531 7.64246204 -6.53106135 6.62349077 -6.0625 2.875 C-4.29035152 -0.0785808 -3.47140412 -0.14168996 0 0 Z " fill="#1A1301" transform="translate(80.0625,69.125)"/>
<path d="M0 0 C1.98 0 3.96 0 6 0 C8.08997373 3.39620731 8.2632246 6.05163095 8 10 C7 11 7 11 3.4375 11.0625 C2.303125 11.041875 1.16875 11.02125 0 11 C0 7.37 0 3.74 0 0 Z " fill="#6A550D" transform="translate(74,124)"/>
<path d="M0 0 C4.29 0 8.58 0 13 0 C13 2.97 13 5.94 13 9 C12.01 8.67 11.02 8.34 10 8 C10 7.34 10 6.68 10 6 C8.10820797 5.3185177 8.10820797 5.3185177 6 5 C5.34 5.66 4.68 6.32 4 7 C1.375 6.625 1.375 6.625 -1 6 C-0.67 4.02 -0.34 2.04 0 0 Z " fill="#FDD801" transform="translate(90,117)"/>
<path d="M0 0 C0.99 0.66 1.98 1.32 3 2 C4.65549531 2.38499891 6.3222433 2.72793135 8 3 C7.01 3.33 6.02 3.66 5 4 C4.7834375 5.36125 4.7834375 5.36125 4.5625 6.75 C4 10 4 10 3.375 12.25 C2.7885147 14.0976086 2.7885147 14.0976086 4 16 C3.67 16.99 3.34 17.98 3 19 C2.34 19 1.68 19 1 19 C1 17.35 1 15.7 1 14 C0.34 14 -0.32 14 -1 14 C-1.22786458 11.98177083 -1.45572917 9.96354167 -1.68359375 7.9453125 C-1.91292961 5.92595684 -1.91292961 5.92595684 -3 4 C-1.68 4 -0.36 4 1 4 C0.67 2.68 0.34 1.36 0 0 Z " fill="#F0D011" transform="translate(83,120)"/>
<path d="M0 0 C1.65 0 3.3 0 5 0 C4.34 1.32 3.68 2.64 3 4 C3.66 4.66 4.32 5.32 5 6 C5.14517744 8.9093558 5.18630796 11.719946 5.125 14.625 C5.11597656 15.42679688 5.10695313 16.22859375 5.09765625 17.0546875 C5.07406223 19.03658523 5.03819065 21.01832981 5 23 C4.34 23.33 3.68 23.66 3 24 C2.67 18.06 2.34 12.12 2 6 C1.34 5.67 0.68 5.34 0 5 C0.2784375 5.928125 0.2784375 5.928125 0.5625 6.875 C1 9 1 9 0 11 C-0.66 11 -1.32 11 -2 11 C-2 8.03 -2 5.06 -2 2 C-1.34 2 -0.68 2 0 2 C0 1.34 0 0.68 0 0 Z " fill="#C9AE21" transform="translate(70,87)"/>
<path d="M0 0 C0.66 0 1.32 0 2 0 C2.33 8.58 2.66 17.16 3 26 C3.66 25.34 4.32 24.68 5 24 C5.66 23.34 6.32 22.68 7 22 C7.66 22.66 8.32 23.32 9 24 C7.875 25.5625 7.875 25.5625 6 27 C4.02 26.67 2.04 26.34 0 26 C0 17.42 0 8.84 0 0 Z " fill="#CDB314" transform="translate(32,84)"/>
<path d="M0 0 C0.66 0 1.32 0 2 0 C2 8.25 2 16.5 2 25 C3.98 25 5.96 25 8 25 C6.75 26.5625 6.75 26.5625 5 28 C2.875 27.8125 2.875 27.8125 1 27 C-0.3308911 24.33821779 -0.11268993 22.31260604 -0.09765625 19.3359375 C-0.09443359 18.21445313 -0.09121094 17.09296875 -0.08789062 15.9375 C-0.07951172 14.761875 -0.07113281 13.58625 -0.0625 12.375 C-0.05798828 11.19164063 -0.05347656 10.00828125 -0.04882812 8.7890625 C-0.03701467 5.85932493 -0.02054258 2.92968728 0 0 Z " fill="#C7AE1E" transform="translate(51,84)"/>
<path d="M0 0 C0.33 0 0.66 0 1 0 C1.19408643 3.98299115 1.37249176 7.96636299 1.53710938 11.95068359 C1.62343797 13.96357857 1.7217653 15.97594746 1.8203125 17.98828125 C2.09203624 24.74740923 2.15330866 30.5565115 0 37 C3.63 37 7.26 37 11 37 C11.33 36.34 11.66 35.68 12 35 C12 35.99 12 36.98 12 38 C7.05 38 2.1 38 -3 38 C-2 34 -2 34 -1 33 C-0.84019563 30.55391002 -0.74070553 28.13268942 -0.68359375 25.68359375 C-0.6524221 24.58701195 -0.6524221 24.58701195 -0.62062073 23.46827698 C-0.55504976 21.12478344 -0.49620568 18.78117461 -0.4375 16.4375 C-0.39432192 14.85220145 -0.35070787 13.26691471 -0.30664062 11.68164062 C-0.1993608 7.78787963 -0.0981151 3.89400228 0 0 Z " fill="#2B1C00" transform="translate(92,77)"/>
<path d="M0 0 C5.45957151 0.0235665 8.78243808 1.55394479 13.4375 4.3125 C12.4475 4.8075 12.4475 4.8075 11.4375 5.3125 C10.4475 4.9825 9.4575 4.6525 8.4375 4.3125 C5.65304845 4.16369067 2.91007615 4.08143 0.125 4.0625 C-0.62201172 4.041875 -1.36902344 4.02125 -2.13867188 4 C-7.04357757 3.96554939 -10.25711205 4.71147072 -14.5625 7.3125 C-14.5625 6.3225 -14.5625 5.3325 -14.5625 4.3125 C-13.5725 4.3125 -12.5825 4.3125 -11.5625 4.3125 C-11.2325 3.3225 -10.9025 2.3325 -10.5625 1.3125 C-9.3559375 1.3434375 -9.3559375 1.3434375 -8.125 1.375 C-5.12097402 1.30173107 -3.25192529 0.09433066 0 0 Z " fill="#F8DC34" transform="translate(152.5625,62.6875)"/>
<path d="M0 0 C3.875 1.875 3.875 1.875 5 3 C6.68183948 3.23287008 8.3712416 3.41264166 10.0625 3.5625 C11.44115234 3.68818359 11.44115234 3.68818359 12.84765625 3.81640625 C13.91306641 3.90728516 13.91306641 3.90728516 15 4 C15 4.66 15 5.32 15 6 C14.19175781 5.98839844 13.38351563 5.97679688 12.55078125 5.96484375 C10.94783203 5.95130859 10.94783203 5.95130859 9.3125 5.9375 C8.25675781 5.92589844 7.20101562 5.91429688 6.11328125 5.90234375 C3.25069411 5.99213632 0.75159363 6.21170561 -2 7 C-2.33 7.66 -2.66 8.32 -3 9 C-3.66 8.01 -4.32 7.02 -5 6 C-4.360625 5.7525 -3.72125 5.505 -3.0625 5.25 C-0.81258459 4.18437567 -0.81258459 4.18437567 -0.25 1.875 C-0.1675 1.25625 -0.085 0.6375 0 0 Z " fill="#EBCD13" transform="translate(43,111)"/>
<path d="M0 0 C0 3.65351863 -0.88942301 5.06026776 -3 8 C-5 9.125 -5 9.125 -7 10 C-7.495 10.515625 -7.99 11.03125 -8.5 11.5625 C-11.94186514 14.86095409 -16.76153676 14.10405984 -21.25 14.0625 C-22.51328125 14.05347656 -23.7765625 14.04445313 -25.078125 14.03515625 C-26.04234375 14.02355469 -27.0065625 14.01195313 -28 14 C-28 13.67 -28 13.34 -28 13 C-20.08 12.505 -20.08 12.505 -12 12 C-12 11.34 -12 10.68 -12 10 C-10.948125 9.46375 -9.89625 8.9275 -8.8125 8.375 C-4.91219546 6.17116939 -2.67300006 3.56400008 0 0 Z " fill="#F5DD39" transform="translate(176,104)"/>
<path d="M0 0 C0.75087891 -0.00773437 1.50175781 -0.01546875 2.27539062 -0.0234375 C6.48752924 -0.00861907 9.71753835 0.32369715 13.5625 2.25 C9.8125 3.375 9.8125 3.375 7.5625 2.25 C0.68681921 1.6570723 -4.28402945 2.23359287 -10.4375 5.25 C-12.42571313 5.64764263 -14.42482362 6.00455166 -16.4375 6.25 C-11.24539522 0.68703059 -7.53166884 -0.07718192 0 0 Z " fill="#FEFAC4" transform="translate(152.4375,65.75)"/>
<path d="M0 0 C0.99 0 1.98 0 3 0 C3.53229326 1.26607607 4.05044544 2.53810412 4.5625 3.8125 C4.85253906 4.52019531 5.14257812 5.22789062 5.44140625 5.95703125 C6 8 6 8 5 11 C4.67 10.01 4.34 9.02 4 8 C2.35 8 0.7 8 -1 8 C-1.33 8.99 -1.66 9.98 -2 11 C-3.13643966 7.59068103 -2.86747764 6.99664544 -1.5625 3.8125 C-1.13130859 2.73935547 -1.13130859 2.73935547 -0.69140625 1.64453125 C-0.46324219 1.10183594 -0.23507813 0.55914062 0 0 Z " fill="#56420A" transform="translate(88,124)"/>
<path d="M0 0 C0.66 0 1.32 0 2 0 C3.38938077 1.96147874 4.7260411 3.96166576 6 6 C6.33 4.02 6.66 2.04 7 0 C7.66 0 8.32 0 9 0 C9 3.63 9 7.26 9 11 C4.82200357 8.91100178 4.07608099 7.94455388 2 4 C1.67 5.98 1.34 7.96 1 10 C0.67 10 0.34 10 0 10 C0 6.7 0 3.4 0 0 Z " fill="#4A3400" transform="translate(98,124)"/>
<path d="M0 0 C3.08089673 2.77280706 4.68775452 5.06326356 6 9 C3.93243723 11.7972908 2.85559629 12.02692273 -0.6875 12.6875 C-1.780625 12.790625 -2.87375 12.89375 -4 13 C-4 12.01 -4 11.02 -4 10 C-3.01 9.34 -2.02 8.68 -1 8 C-0.42251197 6.03638136 -0.42251197 6.03638136 -0.3125 3.875 C-0.209375 2.59625 -0.10625 1.3175 0 0 Z " fill="#CEAE07" transform="translate(97,124)"/>
<path d="M0 0 C1.32 0 2.64 0 4 0 C4 3.63 4 7.26 4 11 C1 10 1 10 -0.25 7.75 C-1.07700926 4.71763271 -0.85394079 2.98879276 0 0 Z " fill="#060303" transform="translate(63,90)"/>
<path d="M0 0 C0.66 0 1.32 0 2 0 C2 1.65 2 3.3 2 5 C3.32 5 4.64 5 6 5 C6 6.32 6 7.64 6 9 C7.32 9.33 8.64 9.66 10 10 C10.33 11.65 10.66 13.3 11 15 C6.48838643 13.0035376 3.72363126 10.07279845 1 6 C0.125 2.5625 0.125 2.5625 0 0 Z " fill="#FEFCD2" transform="translate(129,98)"/>
<path d="M0 0 C0.99 0 1.98 0 3 0 C3.33 0.66 3.66 1.32 4 2 C6.32156597 2.40729228 8.6568787 2.74438677 11 3 C11 3.99 11 4.98 11 6 C10.67 5.67 10.34 5.34 10 5 C8.33382885 4.95936168 6.66611905 4.957279 5 5 C4.34 6.65 3.68 8.3 3 10 C-0.91941982 6.69298952 -0.91941982 6.69298952 -1.3125 3.3125 C-1 1 -1 1 0 0 Z " fill="#F1D011" transform="translate(55,80)"/>
<path d="M0 0 C0.33 1.32 0.66 2.64 1 4 C1.66 4 2.32 4 3 4 C3.66 2.68 4.32 1.36 5 0 C5.66 0 6.32 0 7 0 C6.608125 0.886875 6.21625 1.77375 5.8125 2.6875 C4.62820892 6.00303974 4.62820892 6.00303974 6.375 8.875 C7.179375 9.926875 7.179375 9.926875 8 11 C5.11562221 9.70700306 3.12780579 8.34058637 1 6 C1 7.65 1 9.3 1 11 C0.67 11 0.34 11 0 11 C0 7.37 0 3.74 0 0 Z " fill="#472E00" transform="translate(111,124)"/>
<path d="M0 0 C0.33 0 0.66 0 1 0 C1.33 1.98 1.66 3.96 2 6 C2.99 6.33 3.98 6.66 5 7 C5.33 7.99 5.66 8.98 6 10 C5.01 11.485 5.01 11.485 4 13 C2.35 12.67 0.7 12.34 -1 12 C-0.67 8.04 -0.34 4.08 0 0 Z " fill="#D0B519" transform="translate(110,124)"/>
<path d="M0 0 C0.268125 0.639375 0.53625 1.27875 0.8125 1.9375 C1.88667752 4.33131686 1.88667752 4.33131686 5 5 C4.34 6.98 3.68 8.96 3 11 C2.01 11 1.02 11 0 11 C-0.99 12.485 -0.99 12.485 -2 14 C-2.66 13.67 -3.32 13.34 -4 13 C-3.525625 12.34 -3.05125 11.68 -2.5625 11 C-0.58682146 7.2066972 -0.35972537 4.24475932 0 0 Z " fill="#332701" transform="translate(63,96)"/>
<path d="M0 0 C1.65 0 3.3 0 5 0 C3.625 2.5 3.625 2.5 2 5 C1.34 5 0.68 5 0 5 C0.2784375 5.928125 0.2784375 5.928125 0.5625 6.875 C1 9 1 9 0 11 C-0.66 11 -1.32 11 -2 11 C-2 8.03 -2 5.06 -2 2 C-1.34 2 -0.68 2 0 2 C0 1.34 0 0.68 0 0 Z " fill="#D8BC11" transform="translate(70,87)"/>
<path d="M0 0 C1.98 0 3.96 0 6 0 C6.66 1.32 7.32 2.64 8 4 C6.02 4 4.04 4 2 4 C1.67 6.31 1.34 8.62 1 11 C0.67 11 0.34 11 0 11 C0 7.37 0 3.74 0 0 Z " fill="#8D7615" transform="translate(74,124)"/>
<path d="M0 0 C1.32 1.65 2.64 3.3 4 5 C1.9375 7.125 1.9375 7.125 -1 9 C-4.8125 8.25 -4.8125 8.25 -8 7 C-7.67 6.34 -7.34 5.68 -7 5 C-5.02 5 -3.04 5 -1 5 C-0.67 3.35 -0.34 1.7 0 0 Z " fill="#352802" transform="translate(41,105)"/>
<path d="M0 0 C1.134375 0.020625 2.26875 0.04125 3.4375 0.0625 C0.89293849 3.03115509 -2.05244665 4.4244751 -5.5625 6.0625 C-5.5625 7.3825 -5.5625 8.7025 -5.5625 10.0625 C-6.2225 10.0625 -6.8825 10.0625 -7.5625 10.0625 C-7.5625 7.4225 -7.5625 4.7825 -7.5625 2.0625 C-6.5725 1.7325 -5.5825 1.4025 -4.5625 1.0625 C-3.5625 0.0625 -3.5625 0.0625 0 0 Z " fill="#E3C617" transform="translate(96.5625,65.9375)"/>
<path d="M0 0 C2.74608011 2.12821209 4.77555439 3.73613153 5.40234375 7.265625 C5.43609456 9.59068071 5.42687972 11.71282338 5 14 C4.34 14.66 3.68 15.32 3 16 C3 12.37 3 8.74 3 5 C1.68 5.33 0.36 5.66 -1 6 C-0.67 4.02 -0.34 2.04 0 0 Z " fill="#E9CF1C" transform="translate(58,90)"/>
<path d="M0 0 C3.63 1.32 7.26 2.64 11 4 C11 4.33 11 4.66 11 5 C9.02 5 7.04 5 5 5 C5 5.99 5 6.98 5 8 C4.01 8 3.02 8 2 8 C2 6.02 2 4.04 2 2 C1.34 2 0.68 2 0 2 C0 1.34 0 0.68 0 0 Z " fill="#F5DB26" transform="translate(137,112)"/>
<path d="M0 0 C2.31 0.33 4.62 0.66 7 1 C6.67 1.66 6.34 2.32 6 3 C6.99 3.66 7.98 4.32 9 5 C4.545 6.485 4.545 6.485 0 8 C0 7.01 0 6.02 0 5 C0.99 5 1.98 5 3 5 C3 4.01 3 3.02 3 2 C2.01 2 1.02 2 0 2 C0 1.34 0 0.68 0 0 Z " fill="#F2D61C" transform="translate(75,79)"/>
<path d="M0 0 C0.4125 0.61875 0.825 1.2375 1.25 1.875 C3.06345914 4.37017829 3.06345914 4.37017829 7 6 C3.7 6 0.4 6 -3 6 C-3.33 5.34 -3.66 4.68 -4 4 C-2.68 3.67 -1.36 3.34 0 3 C0 2.01 0 1.02 0 0 Z " fill="#201700" transform="translate(51,109)"/>
<path d="M0 0 C1.32 0.66 2.64 1.32 4 2 C3.34 2 2.68 2 2 2 C2 4.31 2 6.62 2 9 C0.35 7.35 -1.3 5.7 -3 4 C-2.34 3.67 -1.68 3.34 -1 3 C-0.67 2.01 -0.34 1.02 0 0 Z " fill="#E1CA24" transform="translate(103,122)"/>
<path d="M0 0 C0 0.66 0 1.32 0 2 C-3.20380017 4.13586678 -4.01939967 4.23132175 -7.6875 4.125 C-8.89986328 4.09792969 -8.89986328 4.09792969 -10.13671875 4.0703125 C-11.05904297 4.03550781 -11.05904297 4.03550781 -12 4 C-12 3.67 -12 3.34 -12 3 C-8.97265625 2.26757812 -8.97265625 2.26757812 -5.9453125 1.53515625 C-0.3649635 0 -0.3649635 0 0 0 Z " fill="#E5CA1C" transform="translate(42,113)"/>
<path d="M0 0 C1.65 0.33 3.3 0.66 5 1 C5 1.99 5 2.98 5 4 C3.02 4.33 1.04 4.66 -1 5 C-1 4.34 -1 3.68 -1 3 C-0.34 3 0.32 3 1 3 C0.67 2.01 0.34 1.02 0 0 Z " fill="#DFC611" transform="translate(113,64)"/>
<path d="M0 0 C1.66666667 0 3.33333333 0 5 0 C5 2.31 5 4.62 5 7 C1.18461538 4.53846154 1.18461538 4.53846154 0.25 1.8125 C0.1675 1.214375 0.085 0.61625 0 0 Z " fill="#EECF1B" transform="translate(92,128)"/>
<path d="M0 0 C1.4783226 2.95664519 1.06032783 5.74229737 1 9 C-0.32 7.68 -1.64 6.36 -3 5 C-1.125 1.125 -1.125 1.125 0 0 Z " fill="#EAD121" transform="translate(118,125)"/>
<path d="M0 0 C2.2477975 2.05233685 3.0022242 3.00667261 4 6 C2.68 6.33 1.36 6.66 0 7 C0 4.69 0 2.38 0 0 Z " fill="#CAB42A" transform="translate(99,127)"/>
<path d="M0 0 C1.0209375 0.2165625 1.0209375 0.2165625 2.0625 0.4375 C5.36273082 1.06945909 8.67144426 1.54313941 12 2 C12 2.33 12 2.66 12 3 C10.56344146 3.08131463 9.1255517 3.13933559 7.6875 3.1875 C6.48673828 3.23970703 6.48673828 3.23970703 5.26171875 3.29296875 C2.52148416 2.93801608 1.70828921 2.10633718 0 0 Z " fill="#322200" transform="translate(26,112)"/>
</svg>
